<?xml version="1.0" standalone="no"?>
<!DOCTYPE svg PUBLIC "-//W3C//DTD SVG 20010904//EN"
 "http://www.w3.org/TR/2001/REC-SVG-20010904/DTD/svg10.dtd">
<svg version="1.0" xmlns="http://www.w3.org/2000/svg"
 width="862.000000pt" height="862.000000pt" viewBox="0 0 862.000000 862.000000"
 preserveAspectRatio="xMidYMid meet">
<metadata>
Created by potrace 1.16, written by Peter Selinger 2001-2019
</metadata>
<g transform="translate(0.000000,862.000000) scale(0.100000,-0.100000)"
fill="#000000" stroke="none">
<path d="M3425 8604 c11 -8 19 -19 18 -23 -1 -4 10 -8 24 -9 34 -3 43 -10 36
-27 -3 -9 0 -22 7 -30 7 -8 9 -15 4 -16 -5 -1 2 -4 16 -8 21 -6 25 -13 24 -42
-1 -19 0 -28 3 -21 6 16 32 15 39 -2 9 -23 -25 -79 -43 -72 -13 5 -13 4 -4 -8
13 -16 -5 -24 -51 -22 -15 1 -24 -3 -20 -8 3 -5 7 -37 8 -70 1 -34 5 -71 9
-83 5 -16 3 -23 -6 -23 -7 0 -10 -3 -7 -6 4 -3 16 0 29 6 18 10 24 10 34 -3 6
-8 24 -17 40 -19 29 -3 49 -28 22 -28 -7 0 -22 -8 -31 -19 -16 -18 -16 -18 14
-15 18 2 36 6 41 9 5 4 9 2 9 -4 0 -5 -6 -12 -12 -14 -10 -4 -9 -8 2 -16 12
-9 11 -11 -7 -11 -23 0 -32 -23 -13 -35 6 -3 10 -10 10 -16 0 -5 -4 -9 -10 -9
-5 0 -10 6 -10 14 0 8 -8 17 -17 21 -15 5 -16 4 -5 -6 19 -20 15 -26 -18 -27
-20 0 -30 4 -30 14 0 11 -4 12 -19 2 -10 -6 -17 -18 -14 -26 5 -11 7 -11 15 0
8 10 11 10 15 0 2 -6 9 -10 14 -7 5 4 6 0 3 -8 -8 -21 -70 -15 -66 6 2 10 -2
17 -8 17 -5 0 -10 -7 -10 -16 0 -14 -3 -14 -15 -4 -12 10 -15 10 -15 -3 0 -8
-6 -17 -12 -20 -9 -3 -6 -10 8 -23 l21 -17 -27 -29 c-15 -15 -32 -28 -39 -28
-6 0 -11 -10 -11 -21 0 -17 -5 -20 -21 -16 -13 3 -19 1 -16 -6 5 -14 -41 -47
-65 -47 -10 0 -18 -4 -18 -9 0 -5 -20 -15 -45 -22 -25 -7 -39 -16 -33 -20 7
-5 0 -21 -21 -48 -35 -44 -46 -49 -55 -26 -11 29 -25 16 -16 -15 8 -28 6 -34
-12 -31 -4 0 -5 -5 -2 -12 2 -7 -7 -24 -21 -37 -14 -13 -25 -32 -25 -42 0 -25
-59 -78 -86 -78 -15 0 -24 -8 -29 -27 -11 -47 -37 -93 -50 -93 -10 0 -11 -7
-5 -30 5 -19 5 -32 -2 -36 -5 -3 -7 -16 -4 -28 6 -23 -24 -91 -40 -91 -16 0
-34 -16 -34 -28 0 -9 2 -9 8 0 9 15 47 10 46 -5 -2 -29 -5 -33 -16 -26 -7 5
-9 2 -5 -9 4 -11 2 -14 -8 -10 -9 3 -18 -4 -24 -18 -4 -13 -12 -22 -17 -19 -5
3 -11 -6 -12 -20 -2 -14 -8 -29 -13 -34 -5 -6 -3 -17 7 -27 10 -11 12 -19 5
-24 -6 -3 -11 -10 -11 -16 0 -14 28 -11 33 4 4 9 6 9 6 -1 1 -8 -8 -16 -19
-19 -11 -3 -20 -8 -20 -12 -4 -86 -15 -187 -21 -189 -12 -5 -11 -52 1 -52 6 0
10 -7 10 -16 0 -8 -4 -12 -10 -9 -5 3 -10 -3 -10 -14 0 -12 5 -21 10 -21 6 0
10 -7 10 -15 0 -9 -6 -12 -15 -9 -13 5 -14 -1 -9 -32 3 -22 8 -42 10 -46 2 -3
-2 -9 -8 -12 -11 -5 -11 -7 0 -12 6 -3 9 -11 5 -17 -4 -6 -1 -8 8 -5 12 5 14
-1 11 -22 -3 -21 2 -32 17 -42 l21 -13 -23 -13 c-12 -7 -14 -11 -5 -8 12 3 15
1 11 -10 -4 -10 2 -14 21 -14 14 0 26 4 26 10 0 5 7 7 16 3 13 -5 15 -2 9 15
-4 13 -2 22 4 22 17 0 13 19 -11 53 -17 24 -22 47 -24 111 -1 45 -3 86 -4 91
-1 6 -1 15 0 20 1 6 3 17 4 25 0 9 11 15 26 15 15 0 25 -6 26 -15 1 -8 2 -31
3 -50 1 -32 3 -33 15 -17 12 16 14 14 24 -23 9 -36 8 -40 -9 -40 -10 0 -19 -6
-19 -14 0 -19 17 -30 22 -14 3 7 7 4 12 -7 4 -11 4 -16 1 -13 -4 4 -18 3 -31
-2 -14 -6 -26 -6 -29 0 -6 10 -35 2 -35 -9 0 -4 7 -16 15 -27 14 -18 14 -18 8
3 -5 20 -3 22 23 14 16 -4 35 -6 42 -4 6 3 12 0 12 -6 0 -6 -6 -10 -12 -9 -7
2 -12 -5 -10 -14 2 -12 -2 -16 -11 -12 -10 4 -14 -2 -14 -20 0 -14 3 -26 8
-26 5 0 9 6 9 13 0 22 20 -17 20 -40 0 -13 4 -23 8 -23 4 0 6 17 5 38 -5 45
11 26 26 -34 6 -21 16 -60 22 -86 11 -43 29 -66 29 -36 0 6 3 8 6 5 4 -4 1
-13 -5 -21 -9 -11 -9 -22 3 -49 15 -38 11 -54 -10 -36 -10 8 -12 6 -9 -10 3
-16 -1 -21 -16 -21 -10 0 -19 -5 -19 -12 0 -6 -6 -3 -14 7 -8 11 -12 24 -9 30
3 5 0 4 -8 -3 -11 -10 -11 -16 -1 -30 12 -17 18 -29 28 -59 4 -15 6 -15 14 -3
8 12 13 13 30 2 25 -15 26 -8 1 15 -17 16 -17 19 -4 32 14 12 15 12 11 0 -10
-29 36 -46 70 -26 8 6 10 3 6 -10 -5 -15 -4 -16 5 -3 14 19 14 43 1 35 -5 -3
-10 1 -10 9 0 28 17 17 35 -23 10 -24 14 -47 10 -61 -5 -16 -4 -20 5 -15 9 6
9 3 1 -12 -8 -17 -6 -22 14 -33 14 -7 25 -18 25 -24 0 -5 8 -19 19 -30 23 -26
36 -66 22 -66 -14 0 -14 -37 -1 -45 6 -3 10 -14 10 -23 -1 -22 -29 26 -30 49
0 23 -40 58 -40 36 0 -10 5 -17 11 -17 6 0 8 -7 5 -16 -6 -14 4 -37 54 -129
12 -22 24 -48 27 -57 3 -10 9 -18 14 -18 5 0 9 -9 9 -20 0 -11 7 -23 16 -27 8
-3 14 -15 13 -27 -2 -35 1 -42 12 -26 9 12 10 12 5 -3 -3 -10 -6 -25 -6 -33 0
-9 -4 -13 -10 -9 -5 3 -7 12 -4 20 4 9 -3 16 -20 21 -14 3 -26 12 -26 19 0 7
-10 25 -22 41 -16 19 -23 43 -24 78 -3 67 -74 140 -74 74 0 -10 4 -18 8 -18
16 0 7 -40 -10 -46 -10 -3 -18 -10 -18 -15 0 -6 8 -8 18 -5 12 4 21 -2 30 -21
16 -35 15 -46 -2 -40 -14 6 -48 -27 -39 -37 4 -3 1 -6 -6 -6 -7 0 -15 9 -18
20 -3 11 -9 20 -14 20 -5 0 -8 3 -7 8 2 9 -20 62 -26 62 -3 0 -3 -7 0 -15 4
-8 1 -21 -5 -29 -8 -10 -8 -16 4 -26 8 -7 13 -16 10 -20 -3 -5 -1 -11 5 -15
20 -13 9 -25 -17 -19 -21 4 -24 3 -13 -5 8 -5 11 -13 7 -17 -4 -5 -19 4 -33
19 -21 22 -23 30 -14 48 13 24 4 41 -10 19 -14 -21 -12 -77 2 -103 7 -12 13
-28 14 -35 1 -8 6 -21 10 -30 4 -9 6 -24 5 -32 -1 -9 12 -23 29 -33 16 -10 30
-23 30 -28 0 -6 -6 -7 -12 -3 -8 4 -10 3 -5 -2 5 -5 13 -9 18 -9 17 0 46 -55
33 -63 -6 -4 -16 -17 -23 -30 -15 -29 -28 -21 -29 19 -1 30 -22 69 -22 41 0
-7 -10 -13 -22 -13 -15 -1 -17 -3 -7 -6 25 -6 20 -87 -5 -106 -19 -14 -19 -14
0 -24 10 -6 33 -13 51 -16 31 -6 32 -5 28 23 -3 27 18 50 29 31 3 -4 22 -6 43
-4 48 4 98 -45 88 -85 -4 -15 -2 -21 5 -17 13 8 13 5 -1 -34 -8 -22 -15 -29
-21 -23 -12 12 -38 5 -38 -10 0 -6 7 -8 15 -4 8 3 15 1 15 -5 0 -6 5 -7 10 -4
6 3 10 -1 10 -9 0 -9 4 -16 8 -16 11 0 9 -31 -3 -49 -5 -9 -4 -12 2 -8 6 4 14
0 17 -9 4 -10 2 -13 -6 -8 -8 5 -9 2 -5 -11 4 -9 2 -24 -5 -33 -11 -13 -10
-14 10 -8 14 5 22 3 22 -4 0 -6 5 -8 10 -5 6 3 10 -4 11 -17 2 -69 12 -87 37
-65 16 15 18 15 18 -3 0 -10 -4 -16 -8 -14 -4 3 -8 0 -8 -5 0 -6 7 -11 15 -11
8 0 15 -4 15 -10 0 -18 20 -11 21 8 0 9 3 12 5 5 3 -7 13 -9 22 -6 10 3 8 -1
-6 -11 -12 -10 -19 -22 -16 -28 5 -7 1 -9 -9 -5 -12 4 -15 1 -12 -15 3 -12 -3
-26 -12 -33 -13 -10 -14 -17 -4 -45 12 -36 1 -55 -26 -45 -7 2 -13 0 -13 -5 0
-6 4 -10 9 -10 5 0 12 -8 14 -17 4 -17 5 -17 6 0 1 15 5 13 26 -10 l25 -28 19
22 c25 30 38 30 18 0 -8 -12 -18 -37 -22 -55 -4 -22 -11 -32 -20 -28 -9 3 -12
0 -9 -8 3 -7 15 -12 27 -12 16 1 22 -5 22 -19 0 -11 -6 -19 -13 -17 -9 2 -11
-4 -7 -18 5 -14 2 -20 -9 -20 -9 0 -16 -7 -16 -15 0 -8 -5 -15 -11 -15 -6 0
-9 7 -5 15 3 9 0 15 -9 15 -8 0 -15 5 -15 10 0 6 7 10 15 10 8 0 15 5 15 10 0
15 -26 12 -39 -4 -9 -10 -8 -16 4 -26 8 -7 15 -18 15 -24 0 -7 -3 -7 -8 -1 -9
13 -62 16 -62 4 0 -5 4 -9 10 -9 13 0 0 -33 -17 -43 -7 -4 -13 -13 -13 -18 0
-6 4 -8 9 -5 9 6 24 -35 15 -43 -3 -3 -10 1 -15 9 -8 12 -10 10 -6 -8 4 -17 2
-22 -8 -18 -8 3 -17 0 -21 -6 -8 -13 15 -28 33 -21 13 5 17 -12 13 -51 -1 -10
4 -22 10 -26 8 -5 7 -9 -4 -13 -11 -4 -16 -1 -16 11 0 13 -2 14 -9 3 -5 -7
-14 -10 -20 -7 -6 4 -11 2 -11 -3 0 -6 -11 -11 -24 -11 -14 0 -28 -5 -32 -11
-11 -18 18 -30 59 -24 22 2 37 0 37 -6 0 -6 5 -7 12 -3 6 4 8 3 4 -4 -3 -6 -2
-13 4 -17 5 -3 10 -15 10 -26 0 -10 5 -19 11 -19 8 0 8 -4 0 -14 -7 -8 -8 -16
-4 -19 16 -10 75 6 81 22 8 22 28 41 36 34 3 -4 -4 -17 -16 -30 -18 -19 -20
-26 -9 -32 11 -7 10 -14 -5 -37 -10 -15 -19 -32 -20 -38 0 -6 -2 -17 -2 -23
-1 -7 -9 -13 -17 -13 -18 0 -20 -17 -3 -22 8 -3 5 -12 -10 -28 -12 -13 -20
-25 -18 -28 9 -8 24 8 40 43 10 20 21 33 27 30 5 -4 3 -15 -5 -27 -8 -11 -12
-27 -9 -36 4 -10 2 -13 -5 -8 -6 3 -14 1 -18 -5 -5 -8 -3 -9 6 -4 10 6 12 4 7
-8 -3 -10 -2 -17 3 -17 6 0 10 6 10 13 0 6 5 4 11 -6 12 -21 1 -46 -12 -26
-11 17 -29 -4 -29 -33 0 -20 -20 -35 -21 -16 0 7 -5 -3 -11 -22 -5 -19 -17
-44 -26 -54 -13 -15 -14 -18 -2 -11 12 6 12 5 3 -5 -30 -33 -36 30 -6 76 7 11
10 23 7 27 -4 4 1 18 10 31 9 15 12 27 6 31 -6 3 -10 2 -10 -3 0 -4 -14 -24
-30 -42 -17 -19 -28 -40 -25 -48 3 -7 -2 -23 -10 -35 -20 -29 -22 -70 -2 -43
12 16 13 13 8 -20 -2 -22 -6 -31 -9 -21 -8 40 -30 -2 -37 -73 -1 -8 -3 -21 -4
-27 -2 -20 -18 -15 -24 7 -3 10 0 21 7 23 7 3 8 8 1 14 -7 7 -16 4 -27 -8 -10
-11 -13 -19 -8 -19 6 0 10 -8 9 -17 0 -11 -3 -13 -6 -5 -10 26 -23 10 -25 -30
-1 -37 -2 -39 -5 -10 -6 46 -23 39 -24 -10 -1 -24 -5 -56 -9 -73 -6 -21 -8 -4
-7 55 1 47 -2 91 -6 98 -5 7 -4 12 2 12 6 0 11 5 11 11 0 5 -5 7 -12 3 -7 -4
-8 -3 -4 5 4 6 11 9 16 6 4 -3 13 9 19 25 7 22 7 30 -2 30 -9 0 -9 2 -1 8 17
11 26 90 11 95 -12 4 -57 -53 -57 -72 0 -5 8 -15 18 -20 13 -8 14 -11 2 -11
-40 -2 -80 -81 -50 -100 17 -10 -8 -47 -36 -54 -13 -4 -21 -13 -20 -22 1 -9
-3 -37 -10 -62 -6 -26 -10 -57 -8 -69 3 -13 0 -23 -4 -23 -5 0 -7 -12 -4 -26
3 -20 2 -25 -7 -19 -10 5 -10 3 0 -12 18 -30 5 -63 -48 -118 -27 -27 -54 -61
-61 -75 -12 -23 -118 -168 -184 -251 -15 -19 -33 -45 -40 -59 -7 -14 -54 -83
-103 -153 -50 -71 -112 -172 -140 -226 -27 -53 -60 -107 -72 -121 -26 -27 -29
-46 -10 -53 7 -4 3 -8 -10 -12 -40 -12 -188 -270 -164 -284 9 -6 9 -14 0 -35
-11 -23 -10 -29 2 -38 11 -8 10 -9 -4 -4 -13 4 -20 0 -24 -14 -5 -18 -15 -25
-36 -21 -5 1 -6 -6 -3 -16 8 -25 -40 -126 -56 -118 -7 4 -6 1 3 -7 23 -20 16
-79 -18 -139 -16 -30 -43 -83 -58 -119 -15 -36 -37 -85 -47 -110 -11 -25 -24
-53 -29 -63 -6 -11 -6 -17 1 -17 6 0 13 8 17 18 3 9 18 44 33 77 15 33 38 86
50 117 13 31 27 55 32 52 4 -3 2 -15 -6 -26 -8 -11 -12 -26 -9 -34 3 -8 -4
-30 -16 -49 -30 -51 -26 -58 5 -10 20 31 25 34 20 15 -5 -24 -4 -24 9 -6 17
23 20 40 5 31 -5 -3 -10 1 -10 10 0 9 9 19 20 22 15 4 19 11 14 25 -4 14 -2
18 5 14 6 -4 16 4 23 18 6 14 14 26 18 26 7 0 21 47 25 85 1 11 12 42 24 70
12 27 29 66 37 85 9 19 23 50 31 68 29 58 5 46 -27 -14 -17 -33 -28 -50 -24
-39 4 11 9 32 11 47 6 31 48 65 59 46 4 -7 15 4 26 26 11 21 22 36 24 33 3 -3
-2 -19 -11 -36 -8 -17 -13 -31 -11 -31 9 0 116 139 116 150 0 27 52 88 71 83
13 -4 19 0 19 11 0 10 -4 14 -10 11 -16 -10 -12 2 20 59 17 30 37 57 45 60 8
3 15 14 15 25 0 11 5 23 10 26 6 3 10 16 10 28 0 12 16 39 35 60 19 21 35 46
35 56 0 10 7 24 15 31 8 7 15 19 15 26 0 8 4 14 9 14 5 0 11 10 14 23 4 12 13
31 22 42 9 11 13 14 9 6 -4 -9 -2 -12 6 -9 7 2 14 12 16 21 1 9 19 34 39 54
55 58 62 66 69 91 4 12 14 22 22 22 9 0 14 7 12 18 -2 10 3 17 13 17 9 0 35
20 58 44 23 24 43 42 45 40 13 -15 34 -68 29 -73 -4 -3 -1 -6 6 -6 7 0 9 -4 6
-10 -3 -6 1 -10 10 -10 12 0 15 -6 10 -20 -4 -11 -2 -20 4 -20 6 0 7 -7 4 -17
-4 -11 -3 -14 5 -9 8 5 12 0 12 -14 0 -12 4 -18 10 -15 6 3 7 -1 4 -9 -3 -9
-1 -16 5 -16 6 0 17 -15 25 -32 7 -18 23 -40 35 -48 11 -8 21 -19 21 -24 0
-17 131 -136 172 -157 88 -45 150 -55 201 -34 9 4 24 4 33 1 9 -3 12 -2 8 5
-4 6 1 9 12 8 11 -2 29 2 40 9 12 6 24 8 28 5 3 -3 6 -1 6 5 0 7 9 12 21 12
12 0 17 4 13 11 -4 7 1 7 16 -1 17 -9 29 -9 47 -1 13 6 35 11 48 11 16 0 25 6
25 15 0 8 5 15 10 15 6 0 10 -5 10 -11 0 -6 7 -3 16 6 13 12 19 13 24 4 5 -7
13 -8 21 -3 7 4 22 9 33 10 12 1 33 4 48 7 15 2 25 0 22 -4 -3 -5 -10 -9 -15
-9 -13 0 -43 -29 -37 -35 4 -4 78 42 88 55 3 4 32 6 65 4 33 -1 73 -2 88 -3
26 -1 28 -4 22 -29 -8 -38 14 -56 59 -49 l35 6 -22 -26 c-63 -74 -189 -183
-211 -183 -15 0 -48 -34 -41 -42 3 -2 -13 -18 -35 -34 -22 -16 -38 -34 -35
-41 5 -14 -53 -59 -62 -49 -4 3 -2 6 3 6 13 1 61 40 48 40 -17 0 -59 -40 -56
-54 2 -13 -37 -39 -54 -35 -20 3 -34 -1 -34 -12 0 -6 7 -8 16 -5 8 3 12 2 9
-4 -3 -6 -13 -10 -21 -10 -8 0 -14 -4 -14 -9 0 -5 -8 -11 -17 -15 -10 -3 -26
-11 -36 -18 -14 -11 -19 -10 -27 2 -9 13 -12 12 -25 -4 -8 -10 -12 -23 -9 -27
3 -5 0 -9 -6 -9 -6 0 -8 -4 -5 -10 6 -9 -8 -14 -28 -11 -5 1 -6 -3 -2 -9 3 -5
-1 -10 -9 -10 -9 0 -16 -7 -16 -15 0 -8 -4 -15 -10 -15 -5 0 -10 5 -10 11 0 5
-5 7 -10 4 -6 -4 -8 -10 -5 -15 4 -7 -125 -120 -138 -120 -3 0 15 20 41 44 58
55 51 71 -8 19 -119 -106 -206 -200 -243 -263 -15 -25 -38 -58 -53 -75 -14
-16 -33 -40 -41 -52 -9 -13 -23 -23 -32 -23 -58 0 -158 -108 -198 -213 -23
-62 -22 -216 2 -292 21 -67 87 -155 117 -155 12 0 18 -7 18 -21 0 -15 5 -19
15 -15 10 4 19 -3 27 -18 6 -14 16 -22 23 -20 7 3 33 -5 57 -17 48 -26 120
-48 158 -49 14 0 40 -9 57 -20 46 -28 274 -99 433 -136 41 -9 104 -24 140 -34
83 -22 200 -26 211 -8 7 10 9 9 9 -3 0 -17 70 -26 80 -10 7 13 58 16 108 7 30
-6 47 -4 59 6 9 7 14 8 10 2 -4 -7 3 -14 18 -16 15 -3 25 -1 25 6 0 6 5 4 10
-4 6 -10 10 -11 10 -3 0 8 15 12 45 10 25 -1 45 -6 45 -11 0 -8 186 -2 265 9
22 3 69 8 105 11 36 2 85 7 110 9 69 8 230 48 230 57 0 12 -24 10 -38 -4 -9
-9 -12 -9 -12 1 0 11 -3 11 -17 0 -9 -8 -18 -13 -20 -11 -1 1 -4 2 -5 1 -2 0
-12 -2 -23 -4 -11 -1 -38 -6 -60 -9 -95 -15 -520 -29 -487 -15 13 5 76 11 140
14 152 6 246 15 282 25 15 4 31 6 34 3 2 -3 22 1 43 8 21 7 46 12 56 10 9 -1
17 3 17 10 0 8 4 8 13 1 13 -11 42 -11 53 1 4 4 -1 7 -11 7 -27 0 -13 10 21
13 69 9 134 31 132 46 -2 12 11 16 61 19 48 2 62 0 59 -10 -5 -15 20 -44 30
-34 3 4 0 11 -7 16 -26 15 -3 37 46 45 26 4 63 16 80 27 31 18 34 18 50 3 15
-16 17 -16 33 5 15 20 18 21 24 5 5 -14 14 -16 54 -11 26 4 55 8 65 9 9 1 17
5 17 10 0 5 -13 6 -29 2 -18 -4 -32 -2 -36 5 -5 9 6 11 41 10 65 -3 74 -2 74
10 0 7 -29 9 -82 6 -46 -3 -128 -7 -183 -10 l-100 -5 93 14 c51 8 133 16 182
18 99 4 109 8 83 28 -11 9 -14 10 -9 2 5 -10 -3 -12 -33 -11 -23 1 -41 5 -41
10 0 11 62 38 72 32 5 -3 8 -1 8 5 0 5 -4 13 -10 16 -5 3 -10 1 -10 -5 0 -14
-65 -7 -85 10 -12 10 -15 10 -15 -1 0 -11 -36 -14 -190 -15 -115 0 -187 3
-183 9 3 5 -3 7 -13 5 -11 -2 -18 -10 -16 -16 1 -7 -5 -12 -13 -12 -8 0 -15 5
-15 11 0 6 -7 3 -16 -5 -17 -18 -28 -21 -19 -6 4 6 -5 10 -20 10 -14 0 -24 -4
-20 -9 9 -16 -58 -18 -88 -3 -20 9 -32 10 -41 3 -7 -6 -16 -8 -19 -5 -3 4 -25
8 -49 9 -30 2 -37 0 -23 -5 15 -6 7 -9 -28 -9 -30 -1 -46 3 -42 9 3 5 2 10 -3
10 -6 0 -12 -7 -16 -15 -3 -8 -15 -15 -27 -15 -15 0 -19 4 -15 16 4 11 1 14
-12 11 -51 -15 -94 -18 -87 -7 5 8 -3 11 -26 10 -51 -3 -61 -1 -54 10 3 6 2
10 -4 10 -5 0 -14 -7 -19 -16 -6 -11 -11 -13 -16 -5 -4 6 -12 11 -17 11 -6 0
-8 -4 -4 -9 3 -5 1 -12 -5 -16 -5 -3 -10 0 -10 8 0 11 -14 15 -52 15 -80 1
-270 14 -310 21 -5 0 -8 9 -9 19 0 10 -3 12 -6 5 -6 -16 -24 -17 -21 -2 2 6
-9 12 -23 14 -15 2 -41 11 -58 19 -17 9 -31 13 -31 9 0 -5 -5 -1 -10 7 -8 11
-12 12 -18 3 -9 -14 -85 3 -137 31 -16 9 -36 16 -43 16 -7 0 -29 7 -48 15
l-36 15 42 35 c23 19 49 36 58 37 32 2 37 4 49 11 6 4 18 4 27 1 10 -4 16 -1
16 9 0 14 23 30 45 32 6 0 34 13 63 28 29 15 57 25 62 22 5 -3 23 4 39 16 17
12 34 18 42 14 7 -5 10 -4 6 2 -4 6 11 16 36 23 60 17 163 76 159 91 -2 9 0
10 10 2 9 -7 21 -8 38 0 l25 10 -25 6 c-25 7 -25 7 -2 13 12 3 22 2 22 -3 0
-16 26 -10 161 42 74 28 154 57 179 66 40 13 107 43 234 104 22 10 55 21 75
25 l36 6 -45 -25 c-25 -13 -44 -30 -42 -37 1 -6 -1 -9 -6 -6 -14 8 -125 -38
-130 -53 -3 -10 0 -11 9 -5 8 5 19 9 26 10 6 1 28 7 48 14 20 7 39 10 41 7 3
-3 26 6 51 19 26 13 50 21 55 18 4 -3 8 1 8 8 0 10 3 9 10 -2 8 -12 10 -12 15
2 3 8 24 23 46 33 21 10 39 23 39 28 0 6 7 2 15 -9 13 -17 14 -18 15 -1 0 11
10 20 30 24 17 3 30 9 30 14 0 5 10 8 23 6 15 -1 21 3 20 13 -2 8 13 26 32 39
19 13 35 27 35 32 0 5 6 9 13 9 14 0 107 91 107 104 0 5 -9 1 -20 -9 -50 -45
-13 4 41 56 43 40 60 62 55 74 -3 9 -2 13 3 10 5 -3 13 0 17 6 3 6 1 15 -6 19
-8 5 -1 14 22 28 25 16 37 32 46 66 8 32 16 44 26 40 22 -8 30 43 10 64 -15
15 -15 17 -2 20 8 2 20 24 28 52 8 28 17 50 20 50 4 0 6 17 6 39 -1 22 3 37 9
35 9 -4 11 22 6 124 0 17 -6 32 -12 32 -5 0 -8 -4 -5 -8 2 -4 1 -14 -5 -22 -6
-11 -9 -8 -9 12 0 14 4 28 10 30 8 2 -12 109 -36 191 -3 9 -1 17 5 17 6 0 11
-9 11 -19 0 -22 31 -81 43 -81 10 0 9 34 -1 45 -14 16 -57 129 -54 143 2 6 -2
12 -8 12 -5 0 -10 7 -10 15 0 8 -5 15 -11 15 -7 0 -9 12 -5 35 4 21 3 35 -3
35 -6 0 -8 -7 -5 -15 4 -8 1 -15 -5 -15 -6 0 -11 6 -11 13 0 7 -11 24 -25 39
-14 15 -25 31 -24 35 4 21 -2 32 -14 27 -8 -3 -19 7 -26 23 -14 30 -24 42
-107 123 -31 30 -77 76 -102 101 -26 25 -68 58 -94 73 -27 15 -48 32 -48 38 0
5 -4 7 -8 4 -5 -3 -29 14 -54 38 -55 51 -118 83 -253 127 -55 17 -104 35 -110
39 -5 4 -26 10 -45 13 -19 3 -53 10 -75 17 -80 23 -119 31 -169 35 -81 7 -116
17 -116 33 0 11 59 34 70 27 5 -3 10 3 10 14 0 11 -4 23 -10 26 -6 3 -7 -1 -4
-9 9 -23 -3 -19 -16 5 -9 15 -8 24 1 35 15 18 4 31 -14 16 -16 -13 -17 13 -2
37 6 10 4 12 -4 7 -8 -5 -14 0 -18 13 -3 12 -9 21 -13 21 -22 0 -21 54 1 71
21 16 22 18 6 34 -22 21 -22 35 0 35 9 0 14 3 10 6 -3 4 0 19 8 35 13 25 13
29 -1 37 -11 6 -13 11 -5 16 6 4 11 2 11 -5 0 -9 3 -9 14 0 10 8 15 9 18 1 2
-6 11 -8 21 -4 11 4 16 13 12 24 -7 23 19 30 58 16 22 -9 30 -8 37 4 8 13 12
12 25 -7 19 -27 77 -40 110 -25 23 10 57 62 53 79 -4 20 16 64 33 74 11 5 19
14 19 20 0 5 11 21 24 36 32 35 39 98 20 175 -9 35 -20 68 -25 74 -9 11 19 40
57 60 26 14 74 15 74 2 0 -5 4 -7 10 -3 13 8 1 35 -16 35 -8 0 -14 5 -14 10 0
6 -7 10 -15 10 -8 0 -15 7 -15 15 0 9 7 18 15 21 8 4 15 13 15 21 0 10 6 13
16 9 8 -3 13 -2 10 3 -3 5 1 12 10 15 9 3 14 12 12 19 -5 12 2 25 49 97 21 33
18 63 -8 80 -4 3 -9 18 -11 33 -3 16 -9 32 -15 35 -5 4 -16 24 -22 44 -7 21
-17 40 -22 43 -17 11 -9 23 18 29 65 17 112 101 92 169 -5 16 -9 47 -11 68 -1
25 -7 39 -15 39 -8 0 -16 6 -19 14 -3 8 -11 13 -17 10 -7 -2 -18 8 -24 23 -12
24 -10 30 12 53 14 14 25 37 25 51 0 31 15 50 63 79 24 14 36 28 33 37 -9 23
16 53 39 47 24 -6 85 48 85 75 0 10 11 28 24 40 20 19 25 35 28 92 2 39 8 73
14 77 20 14 44 62 38 76 -3 9 -1 16 6 16 7 0 9 8 5 21 -5 16 -4 19 5 14 8 -5
11 -4 7 2 -4 6 0 26 8 44 9 23 14 28 15 15 0 -34 53 35 74 98 11 31 23 56 27
56 4 0 13 16 20 35 7 19 19 35 27 35 7 0 10 5 7 10 -4 6 14 34 39 64 25 29 46
61 46 70 0 9 5 16 10 16 6 0 17 14 24 31 8 20 16 27 21 20 5 -9 10 -9 21 0 20
17 17 54 -6 70 -19 14 -19 15 4 67 12 29 30 62 40 73 9 11 19 41 23 67 3 26
16 70 28 97 13 28 26 62 29 78 4 15 13 27 21 27 8 0 15 7 15 15 0 8 4 15 9 15
5 0 9 10 9 23 -1 44 13 109 31 150 20 43 43 110 48 137 2 8 5 24 7 35 3 20 10
42 27 84 5 13 8 26 5 29 -5 4 11 35 64 132 20 36 41 56 68 64 28 9 65 61 69
98 2 16 10 36 18 44 8 9 15 22 15 30 0 8 4 14 9 14 5 0 9 11 9 25 0 42 -92
108 -142 102 -77 -11 -136 -100 -139 -211 -1 -36 -5 -66 -8 -66 -4 0 -9 -10
-12 -21 -4 -14 -11 -20 -21 -16 -8 3 -24 -2 -36 -11 -18 -15 -19 -20 -8 -51
10 -27 10 -35 1 -38 -7 -3 -13 -11 -13 -19 0 -8 -15 -38 -33 -67 -18 -29 -41
-69 -52 -89 -11 -21 -23 -38 -26 -38 -4 0 -10 -12 -14 -27 -4 -16 -10 -22 -12
-15 -3 6 -9 12 -15 12 -6 0 -8 -6 -5 -14 3 -7 1 -18 -4 -23 -5 -5 -11 -19 -14
-30 -5 -28 -32 -79 -39 -75 -3 1 -7 -1 -8 -5 -3 -10 -24 -35 -62 -77 -29 -32
-86 -144 -86 -170 0 -7 -9 -24 -21 -37 -11 -13 -18 -18 -14 -11 3 6 1 12 -5
12 -8 0 -10 -9 -6 -24 4 -16 0 -28 -11 -37 -15 -13 -15 -12 -4 9 7 13 8 22 2
22 -9 0 -63 -84 -84 -130 -4 -8 -29 -49 -57 -90 -27 -41 -57 -91 -66 -110 -9
-19 -20 -37 -24 -40 -4 -3 -23 -32 -42 -65 -84 -148 -141 -232 -152 -225 -9 6
-36 -42 -29 -53 11 -19 -121 -197 -146 -197 -10 0 -22 5 -28 11 -8 8 -18 6
-36 -5 -22 -15 -26 -15 -37 -1 -8 10 -9 15 -1 15 6 0 11 7 11 15 0 8 5 15 10
15 6 0 10 14 10 30 0 17 -3 30 -7 30 -16 0 -49 83 -35 88 6 2 12 8 12 13 0 6
-4 7 -10 4 -5 -3 -10 -1 -10 4 0 6 5 11 10 11 6 0 10 7 10 16 0 11 -6 15 -20
11 -13 -3 -24 3 -35 19 -9 15 -25 24 -40 24 -14 0 -30 9 -37 19 -6 10 -18 17
-25 14 -21 -8 -15 22 12 53 14 16 25 35 25 42 0 6 6 12 13 12 8 0 8 3 -2 9
-12 8 -12 12 -2 25 7 8 10 20 7 25 -4 5 -2 12 3 16 14 8 -5 56 -30 73 -19 13
-19 15 -3 39 16 25 16 27 -7 44 l-23 17 37 36 c39 37 47 56 22 56 -8 0 -15 7
-15 15 0 8 -4 15 -10 15 -5 0 -7 -8 -3 -17 5 -16 4 -16 -10 -3 -27 26 -30 58
-7 65 11 3 20 11 20 17 0 5 -6 8 -12 6 -26 -9 -76 66 -59 86 6 7 6 17 0 26 -8
13 -11 13 -19 -2 -6 -10 -17 -15 -26 -11 -9 3 -11 9 -6 17 5 6 8 22 6 35 -3
18 -1 22 13 17 15 -6 16 -5 1 11 -9 10 -19 29 -23 42 -7 24 -8 24 -23 5 -14
-18 -14 -18 -9 3 3 16 0 24 -13 28 -11 4 -16 13 -14 28 9 57 8 62 -3 59 -7 -1
-13 2 -13 8 0 5 -7 10 -15 10 -8 0 -15 -4 -15 -10 0 -5 -4 -10 -10 -10 -5 0
-10 5 -10 11 0 22 -30 39 -68 39 -28 0 -42 5 -46 17 -7 16 8 33 30 33 6 0 17
6 23 14 7 8 20 12 31 9 10 -3 34 0 53 6 32 11 35 15 33 49 -1 20 -7 46 -14 58
-9 18 -8 20 8 19 11 -1 22 -4 26 -7 3 -4 12 -4 20 -1 8 3 25 -3 37 -14 48 -44
87 -26 83 37 -3 34 -1 38 21 38 14 0 34 8 45 19 17 18 25 19 59 10 21 -5 39
-14 39 -19 0 -5 9 -6 20 -3 12 4 28 1 36 -6 9 -7 33 -12 55 -11 21 1 58 3 82
4 41 1 93 27 110 55 4 7 14 13 21 13 7 0 18 11 24 25 9 18 19 25 41 25 27 0
38 7 66 42 48 60 64 88 67 118 3 32 18 47 61 62 4 2 1 17 -8 35 -17 34 -5 83
22 83 7 0 13 9 13 19 0 11 5 23 11 27 6 3 9 18 6 33 -3 14 -1 47 4 73 8 37 7
53 -6 77 -16 31 -17 48 -2 43 4 -1 14 4 22 12 16 15 -6 33 -26 20 -5 -3 -18
15 -29 40 -11 27 -26 46 -35 46 -16 0 -45 55 -45 85 0 19 -31 55 -47 55 -7 0
-13 5 -13 10 0 21 -72 98 -86 93 -7 -2 -34 22 -60 54 -27 32 -68 80 -91 107
-24 26 -43 58 -43 71 0 14 -14 35 -35 54 l-36 31 -822 0 c-742 -1 -820 -2
-802 -16z m192 -186 c-3 -8 -6 -5 -6 6 -1 11 2 17 5 13 3 -3 4 -12 1 -19z
m-152 -509 c11 -17 -1 -21 -15 -4 -8 9 -8 15 -2 15 6 0 14 -5 17 -11z m-701
-1154 c-7 -16 -24 -21 -24 -6 0 8 7 13 27 20 1 1 0 -6 -3 -14z m53 -72 c-2
-16 -4 -5 -4 22 0 28 2 40 4 28 2 -13 2 -35 0 -50z m1870 27 c0 -16 -4 -30 -8
-30 -4 0 -6 -9 -4 -20 5 -27 -9 -25 -23 3 -14 27 -11 55 9 68 22 14 26 11 26
-21z m-1927 -9 c0 -6 -4 -13 -10 -16 -5 -3 -10 1 -10 9 0 9 5 16 10 16 6 0 10
-4 10 -9z m-3 -203 c-2 -18 -4 -6 -4 27 0 33 2 48 4 33 2 -15 2 -42 0 -60z
m47 -179 c3 -3 -4 -5 -14 -6 -11 -1 -20 2 -20 7 0 8 25 8 34 -1z m223 -81 c-3
-8 -6 -5 -6 6 -1 11 2 17 5 13 3 -3 4 -12 1 -19z m-17 -41 c3 -26 2 -47 -2
-47 -9 0 -9 0 -14 44 -2 16 -6 36 -9 43 -3 9 0 13 7 11 7 -3 15 -26 18 -51z
m-36 -12 c-4 -8 -8 -15 -10 -15 -2 0 -4 7 -4 15 0 8 4 15 10 15 5 0 7 -7 4
-15z m56 -65 c0 -5 -5 -10 -11 -10 -5 0 -7 5 -4 10 3 6 8 10 11 10 2 0 4 -4 4
-10z m205 -201 l30 -6 -30 -4 c-25 -3 -29 -8 -27 -29 4 -28 3 -27 -21 12 -16
26 -16 27 0 22 13 -4 12 -1 -4 11 -17 13 -19 20 -10 29 9 11 14 9 22 -8 6 -11
24 -24 40 -27z m-128 19 c-3 -8 -6 -5 -6 6 -1 11 2 17 5 13 3 -3 4 -12 1 -19z
m183 -59 c0 -14 -20 -21 -46 -15 -39 10 -30 33 11 28 19 -2 35 -8 35 -13z
m-50 -80 c0 -6 -4 -7 -10 -4 -5 3 -10 11 -10 16 0 6 5 7 10 4 6 -3 10 -11 10
-16z m-90 -280 c0 -18 -18 -9 -23 12 -4 16 -3 18 9 8 8 -6 14 -15 14 -20z
m150 -76 c0 -20 -16 -8 -23 17 -4 17 -3 19 9 9 8 -6 14 -18 14 -26z m-164 5
c-4 6 -2 12 3 12 6 0 11 -9 11 -19 0 -11 5 -23 10 -26 16 -10 12 -25 -5 -19
-9 4 -15 0 -15 -7 -1 -9 -8 -6 -19 8 -10 12 -21 20 -23 18 -3 -3 -5 3 -5 13 0
23 18 33 36 19 12 -9 13 -9 7 1z m-19 -73 c9 -25 -4 -29 -17 -6 -7 15 -7 21 0
21 6 0 13 -7 17 -15z m70 -159 c21 -19 35 -38 30 -42 -4 -4 -17 2 -30 14 -13
12 -29 22 -35 22 -7 0 -12 7 -12 16 0 8 -4 13 -10 9 -5 -3 -7 -11 -5 -18 3 -7
1 -19 -5 -27 -7 -12 -17 -6 -49 30 -42 47 -49 60 -30 60 7 0 5 11 -6 28 -11
18 -4 13 19 -13 26 -28 36 -35 36 -22 0 9 -4 17 -10 17 -5 0 -10 10 -10 21 0
18 2 19 15 9 13 -11 15 -10 9 6 -3 10 8 -2 25 -28 17 -26 48 -63 68 -82z m-47
113 c0 -6 7 -9 14 -6 9 4 17 -2 21 -14 4 -10 10 -19 15 -19 4 0 10 -6 13 -13
4 -10 -3 -12 -23 -9 -25 4 -32 12 -58 65 -2 4 1 7 7 7 6 0 11 -5 11 -11z m100
-44 c0 -12 -19 -12 -23 0 -4 9 -1 12 9 8 7 -3 14 -7 14 -8z m-63 -115 c19 0
37 -30 26 -41 -12 -12 -43 13 -64 53 -12 22 -11 23 8 6 11 -10 24 -18 30 -18z
m-57 -86 c0 -8 -5 -12 -10 -9 -6 4 -8 11 -5 16 9 14 15 11 15 -7z m107 -266
c-3 -7 -5 -2 -5 12 0 14 2 19 5 13 2 -7 2 -19 0 -25z m1877 -477 c-11 -12 -44
-10 -44 2 0 22 11 27 31 14 10 -6 16 -13 13 -16z m-1644 -27 c0 -23 -15 -32
-37 -23 -13 5 -29 7 -34 3 -5 -3 -9 1 -9 8 0 9 13 13 40 13 22 0 40 0 40 -1z
m75 -34 c17 2 17 -29 1 -46 -15 -14 -16 -13 -16 13 0 21 -3 24 -10 13 -15 -24
-21 -6 -7 23 9 20 13 22 17 11 3 -9 10 -15 15 -14z m-55 -20 c0 -5 -5 -10 -11
-10 -5 0 -7 5 -4 10 3 6 8 10 11 10 2 0 4 -4 4 -10z m-40 -10 c0 -5 -5 -10
-11 -10 -5 0 -7 5 -4 10 3 6 8 10 11 10 2 0 4 -4 4 -10z m35 -20 c3 -5 1 -10
-4 -10 -6 0 -11 5 -11 10 0 6 2 10 4 10 3 0 8 -4 11 -10z m-2 -34 c4 -10 1
-13 -8 -9 -8 3 -12 9 -9 14 7 12 11 11 17 -5z m-79 -47 c-6 -11 -24 -2 -24 11
0 5 7 7 15 4 8 -4 12 -10 9 -15z m-64 -19 c0 -11 -4 -20 -8 -20 -4 0 -8 9 -8
20 0 11 4 20 8 20 4 0 8 -9 8 -20z m39 6 c8 -10 9 -16 1 -21 -5 -3 -10 0 -10
9 0 8 -6 17 -12 19 -8 4 -9 6 -2 6 6 1 17 -5 23 -13z m-49 -90 c0 -11 -19 -15
-25 -6 -3 5 1 10 9 10 9 0 16 -2 16 -4z m14 -124 c6 -10 -30 -9 -40 1 -4 4 2
7 14 7 11 0 23 -4 26 -8z m86 -8 c0 -2 -7 -4 -15 -4 -8 0 -15 4 -15 10 0 5 7
7 15 4 8 -4 15 -8 15 -10z m4 -43 c4 -5 -3 -7 -14 -4 -23 6 -26 13 -6 13 8 0
17 -4 20 -9z m-4 -26 c0 -2 -7 -5 -15 -9 -9 -3 -15 0 -15 9 0 9 6 12 15 9 8
-4 15 -7 15 -9z m-9 -88 c-21 -22 -39 -18 -25 5 5 7 9 19 10 26 6 40 16 47 26
18 9 -23 7 -32 -11 -49z m40 26 c-9 -16 -10 -14 -11 12 0 21 3 26 11 18 8 -8
8 -16 0 -30z m-51 -65 c0 -4 -4 -8 -9 -8 -6 0 -12 4 -15 8 -3 5 1 9 9 9 8 0
15 -4 15 -9z m1184 -169 c-7 -13 -24 7 -24 29 0 10 4 10 16 -2 8 -9 12 -21 8
-27z m-1347 -91 c-3 -7 -5 -2 -5 12 0 14 2 19 5 13 2 -7 2 -19 0 -25z m-183
-43 c-4 -8 -8 -15 -10 -15 -2 0 -4 7 -4 15 0 8 4 15 10 15 5 0 7 -7 4 -15z
m186 -65 c0 -5 -4 -10 -10 -10 -5 0 -10 5 -10 10 0 6 5 10 10 10 6 0 10 -4 10
-10z m-230 -60 c0 -5 -4 -10 -10 -10 -5 0 -10 5 -10 10 0 6 5 10 10 10 6 0 10
-4 10 -10z m-43 -147 c-3 -10 -5 -4 -5 12 0 17 2 24 5 18 2 -7 2 -21 0 -30z
m1980 -39 c-3 -3 -12 -4 -19 -1 -8 3 -5 6 6 6 11 1 17 -2 13 -5z m-1978 -46
c-2 -79 -17 -100 -18 -25 -1 38 3 67 9 67 6 0 10 -19 9 -42z m2214 -69 c58
-29 239 -151 233 -157 -3 -2 -23 9 -44 26 -21 17 -85 56 -142 87 -57 30 -105
57 -108 60 -13 12 22 3 61 -16z m82 -19 c3 -6 -1 -7 -9 -4 -18 7 -21 14 -7 14
6 0 13 -4 16 -10z m130 -90 c3 -6 -1 -7 -9 -4 -18 7 -21 14 -7 14 6 0 13 -4
16 -10z m-2195 -60 c0 -24 -1 -24 -20 8 -25 41 -25 45 0 30 11 -7 20 -24 20
-38z m2256 19 c3 -6 -5 -3 -20 6 -14 10 -26 19 -26 22 0 7 39 -17 46 -28z
m-401 1 c3 -5 1 -10 -4 -10 -6 0 -11 5 -11 10 0 6 2 10 4 10 3 0 8 -4 11 -10z
m-1911 -61 c-3 -5 -1 -9 4 -9 6 0 24 -28 41 -62 17 -35 39 -73 47 -86 37 -51
-16 -9 -57 46 -26 34 -44 51 -47 42 -3 -8 -9 -2 -17 16 -12 30 -9 58 5 49 5
-3 6 5 2 17 -5 20 -4 21 11 9 9 -7 14 -17 11 -22z m2378 -14 c11 -20 11 -20
-11 -1 -11 11 -21 26 -21 35 0 17 7 10 32 -34z m-2262 -48 c0 -10 8 -29 17
-44 17 -26 17 -26 -5 -12 -12 8 -25 22 -28 31 -3 10 -10 17 -16 15 -6 -1 -12
18 -15 43 l-4 45 25 -30 c14 -16 25 -38 26 -48z m1965 33 c12 -19 -12 -10 -31
11 -19 22 -19 22 3 10 12 -6 25 -16 28 -21z m427 -134 c6 4 8 2 4 -4 -3 -6 -2
-13 3 -16 5 -3 19 -23 31 -43 25 -43 -4 -14 -149 149 l-73 83 87 -88 c48 -48
91 -84 97 -81z m-577 124 c3 -6 -1 -7 -9 -4 -18 7 -21 14 -7 14 6 0 13 -4 16
-10z m540 -32 c5 4 5 1 1 -6 -7 -12 -36 0 -36 15 0 3 6 0 13 -6 8 -6 18 -7 22
-3z m-264 -54 c12 -16 12 -17 -1 -9 -38 21 -70 47 -70 56 0 12 50 -22 71 -47z
m-2299 -8 c7 -12 7 -16 0 -12 -6 3 -12 3 -15 -1 -2 -5 -2 -3 -1 4 2 7 -1 15
-6 18 -5 3 -6 13 -3 22 5 14 8 14 11 2 3 -7 9 -22 14 -33z m86 9 c-3 -3 -9 2
-12 12 -6 14 -5 15 5 6 7 -7 10 -15 7 -18z m2267 -5 c10 -11 16 -20 13 -20 -3
0 -13 9 -23 20 -10 11 -16 20 -13 20 3 0 13 -9 23 -20z m226 3 c13 -16 12 -17
-3 -4 -10 7 -18 15 -18 17 0 8 8 3 21 -13z m49 -18 c5 3 12 0 16 -6 5 -8 3 -9
-6 -4 -10 6 -12 3 -7 -11 7 -18 7 -18 -8 0 -8 11 -15 25 -14 30 0 6 3 5 6 -2
2 -6 9 -10 13 -7z m-2486 -21 c3 -8 2 -12 -4 -9 -6 3 -10 10 -10 16 0 14 7 11
14 -7z m-16 -31 c9 -21 24 -38 33 -38 19 0 79 -49 79 -64 0 -13 -32 3 -64 32
-11 9 -23 17 -26 17 -6 0 -50 76 -50 86 0 14 12 -1 28 -33z m2310 -16 c7 -9
26 -32 43 -49 19 -21 25 -34 17 -37 -7 -2 -14 2 -16 9 -3 7 -21 31 -40 54 -20
23 -43 50 -52 61 l-15 20 25 -20 c14 -11 31 -28 38 -38z m-2504 27 c8 -21 8
-24 -3 -24 -5 0 -11 9 -14 20 -6 24 8 27 17 4z m286 -14 c0 -5 -2 -10 -4 -10
-3 0 -8 5 -11 10 -3 6 -1 10 4 10 6 0 11 -4 11 -10z m2161 -7 c13 -16 12 -17
-3 -4 -10 7 -18 15 -18 17 0 8 8 3 21 -13z m-56 -43 c3 -5 -8 -2 -24 6 -16 8
-32 21 -35 30 -6 16 47 -16 59 -36z m-2372 0 c3 -11 1 -18 -4 -14 -5 3 -9 12
-9 20 0 20 7 17 13 -6z m15 -120 c18 -41 38 -83 43 -93 13 -23 6 -32 -9 -14
-15 18 -92 204 -91 219 0 7 5 2 12 -12 6 -14 26 -59 45 -100z m-203 90 c-3 -5
-11 -10 -16 -10 -6 0 -7 5 -4 10 3 6 11 10 16 10 6 0 7 -4 4 -10z m2575 0 c0
-5 -2 -10 -4 -10 -3 0 -8 5 -11 10 -3 6 -1 10 4 10 6 0 11 -4 11 -10z m443
-15 c-3 -9 -8 -14 -10 -11 -3 3 -2 9 2 15 9 16 15 13 8 -4z m45 -68 c14 -25
16 -34 6 -34 -7 0 -13 3 -12 6 2 20 -4 31 -14 29 -7 -2 -14 8 -16 21 -5 30 10
21 36 -22z m-414 17 c3 -8 2 -12 -4 -9 -6 3 -10 10 -10 16 0 14 7 11 14 -7z
m-33 -41 c13 -16 12 -17 -3 -4 -10 7 -18 15 -18 17 0 8 8 3 21 -13z m339 2 c0
-9 6 -12 15 -9 9 4 15 0 15 -10 0 -9 6 -16 14 -16 9 0 12 -8 8 -26 -3 -17 -1
-25 6 -21 5 4 13 -1 17 -10 3 -10 1 -19 -4 -21 -6 -2 -11 -8 -11 -13 0 -6 5
-7 12 -3 8 5 9 2 5 -9 -3 -10 -2 -17 3 -17 6 0 10 -8 10 -18 0 -10 7 -28 16
-40 8 -12 10 -22 5 -22 -6 0 -11 5 -11 11 0 5 -4 8 -8 5 -4 -2 -25 34 -46 82
-20 48 -44 102 -52 120 -8 19 -10 32 -4 32 5 0 10 -7 10 -15z m-151 -92 c11
-29 19 -53 16 -53 -6 0 -41 69 -50 100 -13 44 12 9 34 -47z m297 46 c4 -8 0
-9 -15 -4 -14 4 -21 2 -21 -6 0 -7 -3 -10 -6 -6 -9 9 5 27 21 27 8 0 17 -5 21
-11z m-384 -116 c16 -35 28 -67 26 -72 -1 -5 -24 34 -50 88 -26 53 -38 85 -27
71 11 -14 34 -53 51 -87z m-2311 -95 c13 -9 19 -17 12 -17 -6 -1 -33 17 -59
40 -62 54 -67 59 -89 94 -11 18 7 5 47 -35 35 -36 75 -73 89 -82z m2356 110
c-3 -8 -6 -5 -6 6 -1 11 2 17 5 13 3 -3 4 -12 1 -19z m-2352 -54 c25 -16 41
-44 25 -44 -6 0 -10 7 -10 15 0 8 -4 15 -8 15 -11 0 -49 29 -39 30 4 0 18 -7
32 -16z m95 -48 c-5 -5 -20 -2 -34 8 -38 24 -32 36 8 17 20 -9 31 -20 26 -25z
m45 -6 c3 -5 -1 -10 -9 -10 -9 0 -16 5 -16 10 0 6 4 10 9 10 6 0 13 -4 16 -10z
m45 -6 c0 -2 -7 -4 -15 -4 -8 0 -15 4 -15 10 0 5 7 7 15 4 8 -4 15 -8 15 -10z
m850 -14 c0 -5 -4 -10 -10 -10 -5 0 -10 5 -10 10 0 6 5 10 10 10 6 0 10 -4 10
-10z m1643 -69 c-4 -3 -8 -52 -9 -109 0 -64 -5 -107 -12 -114 -7 -7 -12 -20
-12 -29 0 -17 -17 -35 -25 -27 -2 2 3 24 12 48 9 28 16 83 17 146 1 92 3 100
19 96 10 -3 15 -8 10 -11z m-276 -23 c-3 -7 -5 -2 -5 12 0 14 2 19 5 13 2 -7
2 -19 0 -25z m220 -50 c-3 -8 -6 -5 -6 6 -1 11 2 17 5 13 3 -3 4 -12 1 -19z
m-13 -165 c-9 -32 -19 -52 -21 -46 -3 7 0 27 5 45 6 18 14 60 19 93 l8 60 3
-47 c2 -25 -5 -73 -14 -105z m-172 73 c-6 -48 -12 -46 -12 5 0 22 4 38 8 35 4
-3 6 -21 4 -40z m-35 -18 c-2 -13 -4 -5 -4 17 -1 22 1 32 4 23 2 -10 2 -28 0
-40z m64 29 c-10 -9 -11 -8 -5 6 3 10 9 15 12 12 3 -3 0 -11 -7 -18z m-961
-71 c0 -7 -7 -19 -15 -26 -8 -7 -15 -22 -15 -35 0 -12 -8 -29 -17 -37 -32 -27
-133 -80 -133 -69 0 6 9 15 20 21 11 6 18 15 15 20 -3 5 -1 11 5 15 5 3 10 1
10 -4 0 -6 5 -11 11 -11 6 0 9 6 6 13 -2 6 16 38 41 70 43 55 72 72 72 43z
m-230 -6 c0 -17 -24 -29 -37 -19 -10 9 -14 7 -20 -7 -7 -19 -52 -64 -65 -64
-4 0 -13 -6 -20 -12 -22 -21 -58 -39 -58 -30 0 12 55 63 62 57 3 -3 11 1 18
10 7 8 19 15 26 15 8 0 14 5 14 10 0 6 -4 10 -10 10 -5 0 -10 5 -10 11 0 6 6
9 14 6 8 -3 20 0 26 8 10 12 60 16 60 5z m-120 -54 c0 -3 -4 -8 -10 -11 -5 -3
-10 -1 -10 4 0 6 5 11 10 11 6 0 10 -2 10 -4z m1256 -34 c-18 -16 -18 -16 -6
6 6 13 14 21 18 18 3 -4 -2 -14 -12 -24z m-1089 -32 c1 -11 -8 -25 -20 -31
-12 -7 -40 -26 -62 -44 -22 -18 -56 -40 -75 -50 l-35 -18 35 39 c24 28 139
119 155 124 1 0 1 -9 2 -20z m-2437 -24 c0 -2 -7 -7 -16 -10 -8 -3 -12 -2 -9
4 6 10 25 14 25 6z m1800 -10 c0 -2 -8 -10 -17 -17 -16 -13 -17 -12 -4 4 13
16 21 21 21 13z m1691 -19 c-10 -9 -11 -8 -5 6 3 10 9 15 12 12 3 -3 0 -11 -7
-18z m-1736 -17 c-3 -5 -12 -10 -18 -10 -7 0 -6 4 3 10 19 12 23 12 15 0z
m-10 -30 c-3 -5 -13 -10 -21 -10 -8 0 -14 5 -14 10 0 6 9 10 21 10 11 0 17 -4
14 -10z m-205 -60 c0 -5 -5 -10 -11 -10 -5 0 -7 5 -4 10 3 6 8 10 11 10 2 0 4
-4 4 -10z m80 1 c0 -5 -14 -12 -31 -16 -17 -4 -33 -13 -36 -21 -3 -8 -9 -14
-15 -14 -15 0 2 20 36 41 34 21 46 24 46 10z m-120 -35 c0 -2 -19 -15 -42 -30
l-43 -27 33 30 c28 27 52 39 52 27z m14 -47 c-23 -26 -11 -24 36 6 54 34 51
23 -4 -15 -46 -31 -62 -37 -51 -20 3 6 1 10 -6 10 -8 0 -7 5 2 17 12 15 12 16
-3 10 -10 -3 -18 -4 -18 -1 0 8 44 22 53 17 5 -3 1 -14 -9 -24z m-1618 -43
c-16 -41 -13 -82 4 -71 5 3 6 -4 3 -15 -3 -11 -9 -23 -14 -26 -5 -3 -9 -14 -9
-25 0 -10 -5 -19 -11 -19 -7 0 -8 7 -4 18 4 9 7 25 7 35 0 9 3 17 8 17 5 0 7
7 3 16 -5 14 -8 12 -19 -7 -14 -25 -15 -5 -1 31 3 8 13 37 23 64 10 27 20 44
22 37 2 -7 -3 -32 -12 -55z m3698 41 c-5 -13 -44 -41 -44 -31 0 5 41 43 47 44
1 0 0 -6 -3 -13z m-2184 -11 c0 -2 -8 -10 -17 -17 -16 -13 -17 -12 -4 4 13 16
21 21 21 13z m-1490 -73 c-11 -17 -11 -17 -6 0 3 10 6 24 7 30 0 9 2 9 5 0 3
-7 0 -20 -6 -30z m3393 -135 c-8 -14 -19 -8 -20 12 -1 16 1 17 12 7 7 -6 11
-15 8 -19z m-3457 -4 c-5 -14 -4 -15 9 -4 12 10 15 10 15 -4 0 -9 -4 -17 -10
-17 -20 -3 -25 -4 -37 -12 -16 -10 -16 -5 -1 28 12 27 34 35 24 9z m3419 -14
c-3 -5 -12 -10 -18 -10 -7 0 -6 4 3 10 19 12 23 12 15 0z m-185 -15 c0 -2 -10
-9 -22 -15 -22 -11 -22 -10 -4 4 21 17 26 19 26 11z m105 -35 c3 -6 -4 -10
-17 -10 -18 0 -20 2 -8 10 19 12 18 12 25 0z m-269 -39 c-6 -10 -66 -33 -66
-26 0 3 15 11 33 19 40 18 39 18 33 7z m-2111 -703 c15 -27 25 -48 22 -48 -7
0 -67 95 -67 105 0 14 15 -5 45 -57z m2205 -69 c0 -5 -4 -9 -8 -9 -5 0 -9 7
-9 15 0 8 4 12 9 9 4 -3 8 -9 8 -15z m30 7 c0 -3 -4 -8 -10 -11 -5 -3 -10 -1
-10 4 0 6 5 11 10 11 6 0 10 -2 10 -4z m644 -15 c3 -4 -28 -11 -70 -15 -41 -4
-82 -10 -92 -13 -10 -4 -14 -2 -9 3 18 20 161 41 171 25z m-767 -7 c-3 -3 -12
-4 -19 -1 -8 3 -5 6 6 6 11 1 17 -2 13 -5z m583 -14 c0 -5 -12 -10 -27 -9
l-28 1 25 8 c14 4 26 8 28 9 1 1 2 -3 2 -9z m-170 -50 c0 -5 -7 -10 -16 -10
-8 0 -12 5 -9 10 3 6 10 10 16 10 5 0 9 -4 9 -10z m83 3 c-7 -2 -21 -2 -30 0
-10 3 -4 5 12 5 17 0 24 -2 18 -5z m227 -3 c-8 -5 -19 -10 -25 -10 -5 0 -3 5
5 10 8 5 20 10 25 10 6 0 3 -5 -5 -10z m-2456 -41 c20 -12 36 -22 36 -24 0 -8
-37 8 -60 25 -33 26 -20 25 24 -1z m2236 1 c0 -5 -7 -7 -15 -4 -8 4 -15 8 -15
10 0 2 7 4 15 4 8 0 15 -4 15 -10z m-221 -54 c-2 -2 -22 -6 -44 -9 -28 -5 -34
-4 -20 3 19 8 73 14 64 6z"/>
<path d="M3100 5260 c0 -5 5 -10 10 -10 6 0 10 5 10 10 0 6 -4 10 -10 10 -5 0
-10 -4 -10 -10z"/>
<path d="M3090 5231 c0 -6 4 -13 10 -16 6 -3 7 1 4 9 -7 18 -14 21 -14 7z"/>
<path d="M3152 5298 c2 -6 10 -14 16 -16 7 -2 10 2 6 12 -7 18 -28 22 -22 4z"/>
<path d="M3120 2740 c0 -5 5 -10 11 -10 5 0 7 5 4 10 -3 6 -8 10 -11 10 -2 0
-4 -4 -4 -10z"/>
<path d="M3525 8470 c-8 -13 4 -32 16 -25 12 8 12 35 0 35 -6 0 -13 -4 -16
-10z"/>
<path d="M5285 8340 c3 -5 10 -10 16 -10 5 0 9 5 9 10 0 6 -7 10 -16 10 -8 0
-12 -4 -9 -10z"/>
<path d="M3360 8250 c0 -5 5 -10 10 -10 6 0 10 5 10 10 0 6 -4 10 -10 10 -5 0
-10 -4 -10 -10z"/>
<path d="M3500 8074 c0 -8 5 -12 10 -9 6 3 10 10 10 16 0 5 -4 9 -10 9 -5 0
-10 -7 -10 -16z"/>
<path d="M3511 8040 c-1 -30 15 -43 35 -30 17 10 17 11 1 6 -12 -4 -21 1 -27
17 -5 12 -9 15 -9 7z"/>
<path d="M3365 7890 c-3 -5 -1 -10 4 -10 6 0 11 5 11 10 0 6 -2 10 -4 10 -3 0
-8 -4 -11 -10z"/>
<path d="M3150 7815 c-7 -9 -8 -15 -2 -15 5 0 12 7 16 15 3 8 4 15 2 15 -2 0
-9 -7 -16 -15z"/>
<path d="M3277 7819 c7 -7 15 -10 18 -7 3 3 -2 9 -12 12 -14 6 -15 5 -6 -5z"/>
<path d="M3320 7810 c0 -5 5 -10 10 -10 6 0 10 5 10 10 0 6 -4 10 -10 10 -5 0
-10 -4 -10 -10z"/>
<path d="M3040 7579 c0 -5 5 -7 10 -4 6 3 10 8 10 11 0 2 -4 4 -10 4 -5 0 -10
-5 -10 -11z"/>
<path d="M2895 7460 c-3 -5 -1 -10 4 -10 6 0 11 5 11 10 0 6 -2 10 -4 10 -3 0
-8 -4 -11 -10z"/>
<path d="M2860 7350 c0 -5 5 -10 10 -10 6 0 10 5 10 10 0 6 -4 10 -10 10 -5 0
-10 -4 -10 -10z"/>
<path d="M2815 7280 c-3 -5 -2 -10 4 -10 5 0 13 5 16 10 3 6 2 10 -4 10 -5 0
-13 -4 -16 -10z"/>
<path d="M4750 7085 c0 -8 5 -15 10 -15 6 0 10 7 10 15 0 8 -4 15 -10 15 -5 0
-10 -7 -10 -15z"/>
<path d="M5870 6995 c0 -8 8 -15 18 -14 10 0 12 3 4 6 -6 2 -10 9 -6 14 3 5 0
9 -5 9 -6 0 -11 -7 -11 -15z"/>
<path d="M4704 6819 c-3 -6 -1 -16 4 -21 8 -8 11 -5 9 11 -1 24 -3 25 -13 10z"/>
<path d="M4803 6740 c3 -11 1 -20 -4 -20 -5 0 -9 -7 -9 -15 0 -17 12 -19 27
-4 12 12 5 59 -9 59 -6 0 -8 -9 -5 -20z"/>
<path d="M4825 6691 c-3 -5 -1 -12 5 -16 5 -3 10 1 10 9 0 18 -6 21 -15 7z"/>
<path d="M4840 6660 c-9 -6 -10 -10 -3 -10 6 0 15 5 18 10 8 12 4 12 -15 0z"/>
<path d="M4805 6650 c3 -5 8 -10 11 -10 2 0 4 5 4 10 0 6 -5 10 -11 10 -5 0
-7 -4 -4 -10z"/>
<path d="M4760 6635 c0 -9 5 -15 11 -13 6 2 11 8 11 13 0 5 -5 11 -11 13 -6 2
-11 -4 -11 -13z"/>
<path d="M4866 6574 c-4 -10 -12 -14 -22 -10 -12 4 -15 0 -12 -17 2 -12 9 -21
16 -19 6 1 12 -8 12 -20 0 -35 17 -8 24 40 6 41 -6 58 -18 26z"/>
<path d="M2850 6495 c0 -8 2 -15 4 -15 2 0 6 7 10 15 3 8 1 15 -4 15 -6 0 -10
-7 -10 -15z"/>
<path d="M2861 6254 c0 -11 3 -14 6 -6 3 7 2 16 -1 19 -3 4 -6 -2 -5 -13z"/>
<path d="M2816 6226 c6 -15 4 -17 -14 -11 -13 3 -22 2 -22 -4 0 -15 41 -24 53
-12 8 8 6 16 -6 29 -17 16 -18 16 -11 -2z"/>
<path d="M2830 6176 c0 -9 5 -16 10 -16 6 0 10 4 10 9 0 6 -4 13 -10 16 -5 3
-10 -1 -10 -9z"/>
<path d="M2774 6154 c0 -13 9 -27 18 -30 9 -3 19 -13 21 -22 3 -12 5 -10 6 7
1 17 5 22 17 17 14 -6 15 -4 4 9 -11 13 -15 13 -22 3 -5 -8 -7 -4 -3 12 5 21
2 25 -18 26 -20 1 -24 -3 -23 -22z"/>
<path d="M2898 6078 c-3 -7 2 -19 9 -27 19 -18 22 -11 7 17 -8 16 -13 19 -16
10z"/>
<path d="M2805 6040 c3 -5 8 -10 11 -10 2 0 4 5 4 10 0 6 -5 10 -11 10 -5 0
-7 -4 -4 -10z"/>
<path d="M2830 5976 c0 -2 7 -9 15 -16 13 -11 14 -10 9 4 -5 14 -24 23 -24 12z"/>
<path d="M2881 5964 c0 -11 3 -14 6 -6 3 7 2 16 -1 19 -3 4 -6 -2 -5 -13z"/>
<path d="M5227 5973 c-4 -3 -7 -11 -7 -17 0 -6 5 -5 12 2 6 6 9 14 7 17 -3 3
-9 2 -12 -2z"/>
<path d="M2994 5929 c-3 -6 -2 -15 3 -20 5 -5 9 -1 10 11 2 22 -2 25 -13 9z"/>
<path d="M3060 5926 c0 -9 5 -16 10 -16 6 0 10 4 10 9 0 6 -4 13 -10 16 -5 3
-10 -1 -10 -9z"/>
<path d="M2960 5910 c0 -5 5 -10 11 -10 5 0 7 5 4 10 -3 6 -8 10 -11 10 -2 0
-4 -4 -4 -10z"/>
<path d="M3040 5900 c0 -5 5 -10 11 -10 5 0 7 5 4 10 -3 6 -8 10 -11 10 -2 0
-4 -4 -4 -10z"/>
<path d="M3040 5874 c0 -6 7 -19 15 -30 8 -10 14 -14 14 -9 0 6 -6 19 -14 29
-8 11 -15 15 -15 10z"/>
<path d="M2960 5842 c0 -5 9 -17 21 -28 21 -19 21 -19 18 6 -4 23 -39 43 -39
22z"/>
<path d="M3110 5818 c0 -9 5 -20 10 -23 6 -3 10 -15 10 -26 0 -10 5 -19 10
-19 14 0 12 10 -10 50 -11 21 -19 28 -20 18z"/>
<path d="M2820 5811 c0 -6 5 -13 10 -16 6 -3 10 1 10 9 0 9 -4 16 -10 16 -5 0
-10 -4 -10 -9z"/>
<path d="M3050 5804 c1 -29 60 -42 60 -13 0 14 -24 23 -28 10 -3 -9 -7 -9 -18
0 -8 6 -14 8 -14 3z"/>
<path d="M2988 5783 c7 -3 16 -2 19 1 4 3 -2 6 -13 5 -11 0 -14 -3 -6 -6z"/>
<path d="M2825 5759 c-10 -15 3 -25 16 -12 7 7 7 13 1 17 -6 3 -14 1 -17 -5z"/>
<path d="M2970 5761 c0 -5 5 -13 10 -16 6 -3 10 -2 10 4 0 5 -4 13 -10 16 -5
3 -10 2 -10 -4z"/>
<path d="M2856 5741 c-4 -7 -5 -15 -2 -18 9 -9 19 4 14 18 -4 11 -6 11 -12 0z"/>
<path d="M2850 5696 c10 -13 40 -12 40 1 0 3 -7 3 -15 -1 -8 -3 -15 -1 -15 4
0 6 -5 10 -11 10 -8 0 -8 -4 1 -14z"/>
<path d="M2915 5679 c-4 -6 -4 -13 -1 -16 3 -4 6 -1 6 5 0 6 8 13 18 15 15 4
15 5 0 6 -9 0 -20 -4 -23 -10z"/>
<path d="M3060 5674 c0 -8 5 -12 10 -9 6 4 8 11 5 16 -9 14 -15 11 -15 -7z"/>
<path d="M870 5664 c0 -3 10 -14 23 -25 l22 -19 -32 -28 c-35 -30 -43 -52 -18
-52 8 0 15 -7 15 -15 0 -19 0 -19 38 1 37 18 40 29 11 44 -19 11 -19 13 -5 29
22 24 20 37 -6 55 -22 16 -48 21 -48 10z"/>
<path d="M2799 5667 c-7 -12 -6 -58 1 -62 9 -6 30 25 30 43 0 8 -28 25 -31 19z"/>
<path d="M2853 5657 c5 -15 37 -22 37 -9 0 5 -9 12 -21 15 -13 3 -19 1 -16 -6z"/>
<path d="M2860 5580 c0 -5 5 -10 10 -10 6 0 10 5 10 10 0 6 -4 10 -10 10 -5 0
-10 -4 -10 -10z"/>
<path d="M3045 5550 c3 -5 8 -10 11 -10 2 0 4 5 4 10 0 6 -5 10 -11 10 -5 0
-7 -4 -4 -10z"/>
<path d="M2958 5528 c12 -6 22 -15 22 -20 0 -5 5 -6 10 -3 17 10 -9 35 -34 34
-21 0 -21 0 2 -11z"/>
<path d="M3056 5486 c3 -9 11 -16 16 -16 13 0 5 23 -10 28 -7 2 -10 -2 -6 -12z"/>
<path d="M2980 5455 c0 -8 4 -15 10 -15 5 0 7 7 4 15 -4 8 -8 15 -10 15 -2 0
-4 -7 -4 -15z"/>
<path d="M902 5407 c-12 -13 -22 -26 -22 -30 0 -4 -11 -30 -25 -59 -16 -34
-22 -55 -15 -62 6 -6 17 8 30 39 44 103 80 129 99 74 19 -55 13 -100 -19 -148
-33 -49 -36 -63 -17 -83 9 -9 13 -42 13 -104 -1 -71 3 -96 15 -110 60 -68 77
-167 41 -226 -35 -57 -29 -87 28 -143 76 -74 73 -108 -20 -231 -77 -102 -81
-114 -47 -137 l22 -15 -25 -49 c-13 -26 -32 -59 -42 -72 -21 -28 -23 -41 -5
-41 15 0 49 36 62 65 13 30 34 -111 22 -150 -5 -16 -10 -95 -11 -175 -2 -130
0 -151 21 -208 38 -103 34 -118 -57 -222 -77 -87 -86 -106 -60 -120 16 -9 18
-15 10 -30 -18 -33 -11 -48 40 -100 81 -81 88 -121 39 -218 -30 -61 -59 -81
-59 -41 0 30 -24 18 -28 -15 -3 -19 5 -34 27 -55 l31 -29 -35 -80 c-52 -119
-48 -137 19 -103 36 19 66 19 66 0 0 -10 -17 -27 -93 -89 -30 -25 -58 -54 -61
-65 -3 -11 -21 -39 -41 -62 -19 -23 -35 -46 -35 -52 0 -22 27 -11 41 16 25 51
84 123 99 123 28 -1 43 -32 31 -65 -7 -20 -9 -49 -5 -71 7 -36 7 -36 46 -31
43 6 61 17 40 24 -10 4 -4 15 19 39 l33 34 -25 21 c-13 12 -39 28 -56 35 -38
16 -41 29 -13 46 26 17 26 32 0 25 -17 -4 -13 3 16 36 l37 40 -23 19 c-14 11
-32 17 -42 14 -61 -19 -58 -20 -49 11 5 15 20 51 34 78 22 45 24 53 11 77 -13
24 -11 28 19 60 80 85 73 182 -18 279 -49 53 -50 56 -33 94 11 24 9 29 -12 45
l-23 17 23 34 c13 19 51 62 86 96 75 73 78 85 32 178 l-32 65 15 90 c13 77 14
93 2 110 -11 16 -12 31 -2 82 15 85 12 220 -5 233 -8 6 -12 21 -9 35 3 18 -3
32 -21 49 -21 20 -23 27 -14 39 7 8 17 22 23 32 5 10 34 48 63 85 73 95 73
135 2 211 -57 60 -59 72 -25 133 32 56 27 103 -23 215 -27 62 -35 95 -37 146
-1 36 -7 75 -13 87 -17 31 -15 38 14 73 31 36 29 88 -5 166 -22 50 -38 54 -69
21z m116 -3063 l22 -15 -27 -34 c-34 -43 -56 -36 -47 14 11 58 15 61 52 35z"/>
<path d="M2945 5230 c-3 -5 -1 -10 4 -10 6 0 11 5 11 10 0 6 -2 10 -4 10 -3 0
-8 -4 -11 -10z"/>
<path d="M2976 5227 c3 -10 9 -15 12 -12 3 3 0 11 -7 18 -10 9 -11 8 -5 -6z"/>
<path d="M2938 5183 c7 -3 16 -2 19 1 4 3 -2 6 -13 5 -11 0 -14 -3 -6 -6z"/>
<path d="M3022 5164 c1 -9 9 -19 16 -22 9 -3 13 2 10 14 -1 9 -9 19 -16 22 -9
3 -13 -2 -10 -14z"/>
<path d="M3077 5016 c-4 -10 -5 -21 -2 -24 9 -9 17 6 13 25 -3 17 -4 17 -11
-1z"/>
<path d="M3170 4989 c0 -5 5 -7 10 -4 6 3 10 8 10 11 0 2 -4 4 -10 4 -5 0 -10
-5 -10 -11z"/>
<path d="M3104 4969 c-12 -19 13 -33 30 -16 14 14 14 16 0 21 -21 8 -22 8 -30
-5z"/>
<path d="M3156 4951 c-4 -7 -5 -15 -2 -18 9 -9 19 4 14 18 -4 11 -6 11 -12 0z"/>
<path d="M3120 4868 c0 -37 -10 -58 -26 -58 -8 0 -14 -4 -14 -10 0 -19 32 -10
37 10 6 21 33 28 33 8 0 -6 2 -9 5 -6 3 2 -4 22 -15 44 -18 36 -19 37 -20 12z"/>
<path d="M3070 4850 c-9 -6 -10 -10 -3 -10 6 0 15 5 18 10 8 12 4 12 -15 0z"/>
<path d="M3155 4850 c3 -5 13 -10 21 -10 8 0 12 5 9 10 -3 6 -13 10 -21 10 -8
0 -12 -4 -9 -10z"/>
<path d="M3160 4780 c0 -5 5 -10 10 -10 6 0 10 5 10 10 0 6 -4 10 -10 10 -5 0
-10 -4 -10 -10z"/>
<path d="M3060 4749 c0 -5 9 -9 20 -9 11 0 20 4 20 8 0 4 -9 8 -20 9 -11 1
-20 -2 -20 -8z"/>
<path d="M3018 4734 c-8 -7 2 -44 12 -44 11 0 21 30 14 41 -6 10 -18 12 -26 3z"/>
<path d="M3200 4645 c-10 -12 -10 -18 0 -30 6 -8 9 -19 5 -25 -3 -5 1 -10 9
-10 17 0 22 25 7 35 -6 3 -8 14 -6 25 5 24 2 25 -15 5z"/>
<path d="M3289 4570 c-8 -42 -5 -51 10 -36 12 12 13 19 3 28 -7 7 -12 10 -13
8z"/>
<path d="M3079 4543 c-13 -16 -12 -17 4 -4 16 13 21 21 13 21 -2 0 -10 -8 -17
-17z"/>
<path d="M3252 4546 c7 -8 15 -12 17 -11 5 6 -10 25 -20 25 -5 0 -4 -6 3 -14z"/>
<path d="M3177 4503 c-12 -12 -7 -19 14 -20 17 -2 18 1 9 13 -14 16 -14 16
-23 7z"/>
<path d="M3060 4469 c0 -5 5 -7 10 -4 6 3 10 8 10 11 0 2 -4 4 -10 4 -5 0 -10
-5 -10 -11z"/>
<path d="M3146 4466 c3 -9 11 -16 16 -16 13 0 5 23 -10 28 -7 2 -10 -2 -6 -12z"/>
<path d="M3290 4320 c-8 -5 -12 -12 -9 -15 4 -3 12 1 19 10 14 17 11 19 -10 5z"/>
<path d="M3340 4320 c0 -5 5 -10 11 -10 5 0 7 5 4 10 -3 6 -8 10 -11 10 -2 0
-4 -4 -4 -10z"/>
<path d="M3270 4270 c0 -5 5 -10 11 -10 5 0 7 5 4 10 -3 6 -8 10 -11 10 -2 0
-4 -4 -4 -10z"/>
<path d="M3207 4231 c-2 -11 0 -24 6 -30 15 -15 40 -14 34 2 -2 6 -12 10 -22
9 -16 -3 -17 -1 -6 11 7 9 8 18 3 21 -6 3 -12 -3 -15 -13z"/>
<path d="M3165 4231 c-10 -17 12 -21 25 -6 10 12 10 15 -3 15 -9 0 -18 -4 -22
-9z"/>
<path d="M3250 4230 c0 -5 5 -10 10 -10 6 0 10 5 10 10 0 6 -4 10 -10 10 -5 0
-10 -4 -10 -10z"/>
<path d="M3130 4215 c0 -5 5 -17 10 -25 5 -8 10 -10 10 -5 0 6 -5 17 -10 25
-5 8 -10 11 -10 5z"/>
<path d="M3120 4145 c0 -17 16 -20 25 -5 3 6 11 10 17 10 7 0 6 -6 -2 -15 -7
-9 -8 -15 -2 -15 12 0 23 26 15 34 -13 13 -53 6 -53 -9z"/>
<path d="M3203 4153 c-15 -6 -17 -29 -3 -38 6 -4 7 1 3 11 -4 12 -3 15 5 10 7
-4 12 -1 12 8 0 9 -1 16 -2 15 -2 0 -9 -3 -15 -6z"/>
<path d="M3040 4132 c0 -5 7 -13 16 -16 10 -4 14 -1 12 6 -5 15 -28 23 -28 10z"/>
<path d="M3141 4081 c-9 -6 -7 -10 8 -14 12 -3 21 -1 21 3 0 14 -15 19 -29 11z"/>
<path d="M3076 4071 c-4 -7 -5 -15 -2 -18 9 -9 19 4 14 18 -4 11 -6 11 -12 0z"/>
<path d="M3098 4006 c-6 -28 9 -59 23 -50 6 4 6 11 -1 19 -9 11 -6 16 14 21
21 5 24 9 15 20 -18 22 -46 17 -51 -10z"/>
<path d="M3182 3990 c7 -11 16 -20 21 -20 4 0 3 9 -3 20 -6 11 -15 20 -20 20
-6 0 -5 -9 2 -20z"/>
<path d="M3095 3930 c-3 -5 -1 -10 4 -10 6 0 11 5 11 10 0 6 -2 10 -4 10 -3 0
-8 -4 -11 -10z"/>
<path d="M3153 3555 c-18 -20 3 -30 22 -11 8 8 15 17 15 20 0 11 -25 5 -37 -9z"/>
<path d="M3121 3540 c-7 -15 -5 -60 2 -60 5 0 5 -10 1 -22 -9 -32 -14 -35 -25
-18 -8 12 -9 10 -4 -7 3 -12 2 -24 -3 -27 -5 -3 -12 -34 -16 -68 -4 -35 -10
-74 -12 -88 -4 -20 -3 -22 5 -10 6 8 13 34 17 58 3 23 11 42 17 42 6 0 7 3 4
7 -11 11 14 32 30 26 11 -4 14 -2 9 5 -4 7 -1 15 8 18 9 3 16 10 16 16 0 5 -4
7 -9 4 -19 -12 -17 19 3 36 18 15 18 17 3 12 -15 -6 -17 -3 -11 21 6 23 4 27
-9 22 -11 -4 -17 1 -20 16 -2 12 -5 20 -6 17z"/>
<path d="M860 3487 c0 -28 25 -50 38 -34 10 12 10 18 -3 31 -20 19 -35 21 -35
3z"/>
<path d="M4876 3421 c-3 -5 1 -11 9 -15 8 -3 15 -1 15 4 0 13 -18 22 -24 11z"/>
<path d="M4793 3388 c2 -7 10 -13 17 -13 7 0 15 6 18 13 2 7 -5 12 -18 12 -13
0 -20 -5 -17 -12z"/>
<path d="M3100 3295 c1 -18 1 -19 11 -2 6 9 14 15 20 12 5 -4 9 -2 9 4 0 5 -9
9 -20 8 -13 -1 -20 -8 -20 -22z"/>
<path d="M4775 3289 c4 -6 13 -8 20 -5 8 3 16 0 19 -7 2 -7 5 -4 5 6 1 12 -7
17 -25 17 -15 0 -23 -4 -19 -11z"/>
<path d="M2930 3274 c0 -9 5 -14 12 -12 18 6 21 28 4 28 -9 0 -16 -7 -16 -16z"/>
<path d="M4830 3279 c0 -5 5 -7 10 -4 6 3 10 8 10 11 0 2 -4 4 -10 4 -5 0 -10
-5 -10 -11z"/>
<path d="M4970 3245 c7 -9 15 -13 17 -11 7 7 -7 26 -19 26 -6 0 -6 -6 2 -15z"/>
<path d="M5010 3240 c0 -5 4 -10 9 -10 5 0 18 -3 28 -7 16 -6 16 -5 4 10 -15
19 -41 23 -41 7z"/>
<path d="M5080 3222 c0 -9 20 -18 58 -27 6 -2 12 1 12 6 0 5 -4 9 -10 9 -18 0
-25 2 -42 11 -11 6 -18 6 -18 1z"/>
<path d="M5190 3176 c14 -8 27 -12 29 -10 6 6 -1 11 -29 18 l-25 7 25 -15z"/>
<path d="M5235 3160 c3 -5 16 -10 28 -10 18 0 19 2 7 10 -20 13 -43 13 -35 0z"/>
<path d="M5295 3141 c-4 -8 64 -36 70 -29 3 2 -11 11 -30 20 -20 9 -37 13 -40
9z"/>
<path d="M5495 3030 c3 -5 14 -10 23 -10 15 0 15 2 2 10 -20 13 -33 13 -25 0z"/>
<path d="M3060 2200 c0 -5 5 -10 10 -10 6 0 10 5 10 10 0 6 -4 10 -10 10 -5 0
-10 -4 -10 -10z"/>
<path d="M5982 2190 c0 -14 2 -19 5 -12 2 6 2 18 0 25 -3 6 -5 1 -5 -13z"/>
<path d="M3090 2181 c0 -6 4 -13 10 -16 6 -3 7 1 4 9 -7 18 -14 21 -14 7z"/>
<path d="M6225 2179 c-10 -15 3 -25 16 -12 7 7 7 13 1 17 -6 3 -14 1 -17 -5z"/>
<path d="M990 2155 c-1 -29 120 -169 133 -156 8 8 -6 28 -44 64 -30 30 -62 65
-71 78 -9 13 -17 19 -18 14z"/>
<path d="M3156 2121 c-3 -5 1 -12 10 -15 22 -8 25 -4 9 11 -8 7 -16 9 -19 4z"/>
<path d="M6000 2070 c0 -5 5 -10 10 -10 6 0 10 5 10 10 0 6 -4 10 -10 10 -5 0
-10 -4 -10 -10z"/>
<path d="M6090 2049 c0 -6 8 -18 17 -27 16 -16 16 -16 10 1 -4 10 -7 23 -7 28
0 5 -4 9 -10 9 -5 0 -10 -5 -10 -11z"/>
<path d="M3282 2041 c2 -7 7 -12 11 -12 12 1 9 15 -3 20 -7 2 -11 -2 -8 -8z"/>
<path d="M3316 2025 c-3 -8 -1 -15 3 -15 5 0 11 7 15 15 3 8 1 15 -3 15 -5 0
-11 -7 -15 -15z"/>
<path d="M3731 2021 c-7 -5 -11 -14 -7 -19 9 -15 36 -4 36 14 0 16 -9 18 -29
5z"/>
<path d="M6010 1985 c0 -14 4 -25 9 -25 5 0 9 11 9 25 0 14 -4 25 -9 25 -5 0
-9 -11 -9 -25z"/>
<path d="M943 1926 c-70 -53 -123 -108 -58 -62 22 16 59 44 82 63 46 37 53 39
53 19 0 -8 -20 -31 -45 -52 -67 -54 -56 -80 12 -28 43 33 45 30 33 -36 -12
-65 -13 -210 -1 -210 4 0 11 39 15 88 4 48 12 109 18 135 9 42 8 50 -8 61 -12
9 -14 15 -6 20 7 4 12 16 12 27 0 33 -43 23 -107 -25z"/>
<path d="M6011 1912 c-1 -18 -6 -42 -11 -52 -6 -12 -7 -21 0 -25 5 -3 6 -13 3
-23 -3 -9 -3 -14 2 -10 13 12 23 89 15 117 -8 25 -8 25 -9 -7z"/>
<path d="M2395 1869 c-4 -6 -5 -12 -2 -15 2 -3 7 2 10 11 7 17 1 20 -8 4z"/>
<path d="M5951 1778 c-1 -10 -5 -18 -11 -18 -5 0 -10 -5 -10 -12 0 -8 6 -7 16
4 9 9 14 22 11 30 -4 9 -6 7 -6 -4z"/>
<path d="M2319 1728 c-6 -12 -17 -26 -23 -30 -8 -5 -7 -8 1 -8 14 0 48 48 40
56 -3 3 -11 -5 -18 -18z"/>
<path d="M3781 1701 c-8 -5 -9 -11 -3 -15 5 -3 15 1 22 9 14 16 3 20 -19 6z"/>
<path d="M5965 1689 c-4 -6 -5 -12 -2 -15 2 -3 7 2 10 11 7 17 1 20 -8 4z"/>
<path d="M2275 1659 c-11 -17 1 -21 15 -4 8 9 8 15 2 15 -6 0 -14 -5 -17 -11z"/>
<path d="M5912 1625 c-7 -14 -8 -25 -4 -25 12 0 32 39 23 44 -4 3 -13 -6 -19
-19z"/>
<path d="M2245 1620 c3 -5 10 -10 16 -10 5 0 9 5 9 10 0 6 -7 10 -16 10 -8 0
-12 -4 -9 -10z"/>
<path d="M2033 1583 c4 -3 -3 -17 -15 -30 -16 -18 -18 -23 -6 -23 8 0 20 11
26 25 15 32 15 35 0 35 -6 0 -8 -3 -5 -7z"/>
<path d="M5885 1579 c-4 -6 -5 -12 -2 -15 2 -3 7 2 10 11 7 17 1 20 -8 4z"/>
<path d="M1006 1572 c-117 -4 -116 -3 -116 -122 0 -106 3 -112 58 -102 25 5
30 22 7 22 -8 0 -15 7 -15 16 0 11 6 14 20 9 12 -4 20 -2 20 5 0 6 -12 10 -27
8 -18 -2 -28 -9 -28 -20 0 -33 -15 -31 -15 3 -1 19 -2 63 -2 99 l-2 65 51 3
c55 3 72 -13 58 -57 -3 -12 0 -21 10 -25 8 -3 15 -14 15 -25 0 -11 8 -25 18
-30 9 -6 11 -11 5 -11 -7 0 -13 -10 -12 -22 0 -22 1 -22 9 -3 8 18 9 18 9 2 1
-10 6 -15 11 -12 6 4 8 15 5 25 -5 15 -1 18 27 17 18 -1 32 -5 31 -9 -2 -5 -3
-15 -3 -23 0 -8 -5 -14 -11 -12 -21 4 -21 -24 0 -30 36 -9 12 -23 -42 -23 -35
0 -47 -3 -38 -9 8 -5 28 -7 46 -4 21 3 35 0 44 -11 12 -14 8 -16 -38 -16 l-51
0 0 -41 c0 -22 4 -38 9 -35 5 4 7 20 4 37 -4 29 -3 31 19 26 13 -4 29 -7 36
-7 6 0 12 -9 12 -20 0 -17 -3 -19 -19 -11 -15 8 -20 7 -25 -5 -9 -25 -8 -27
19 -22 14 3 25 2 25 -3 0 -15 -19 -19 -59 -13 l-41 7 0 49 c0 28 -4 47 -9 43
-5 -3 -8 -23 -6 -44 4 -36 2 -40 -28 -52 -31 -14 -29 -14 53 -19 132 -8 120
-28 120 196 0 176 -1 193 -17 187 -10 -4 -14 -2 -10 4 9 15 -23 18 -127 15z
m134 -128 c0 -8 -4 -14 -10 -14 -5 0 -10 9 -10 21 0 11 5 17 10 14 6 -3 10
-13 10 -21z"/>
<path d="M973 1535 c4 -8 2 -17 -3 -20 -6 -4 -10 1 -10 9 0 9 -8 16 -17 16
-14 0 -15 -2 -5 -9 11 -7 11 -9 -2 -14 -25 -10 -20 -37 7 -37 12 0 27 4 32 8
15 10 19 62 5 62 -7 0 -10 -7 -7 -15z"/>
<path d="M2115 1480 c3 -5 8 -10 11 -10 2 0 4 5 4 10 0 6 -5 10 -11 10 -5 0
-7 -4 -4 -10z"/>
<path d="M5851 1474 c0 -11 3 -14 6 -6 3 7 2 16 -1 19 -3 4 -6 -2 -5 -13z"/>
<path d="M925 1457 c-4 -10 -5 -21 -1 -24 10 -10 18 4 13 24 -4 17 -4 17 -12
0z"/>
<path d="M956 1445 c-3 -8 -1 -15 4 -15 6 0 10 4 10 10 0 5 7 7 15 4 8 -4 15
-1 15 5 0 17 -37 13 -44 -4z"/>
<path d="M1008 1424 c-5 -40 7 -56 16 -21 8 32 7 57 -3 57 -5 0 -11 -16 -13
-36z"/>
<path d="M991 1364 c0 -11 3 -14 6 -6 3 7 2 16 -1 19 -3 4 -6 -2 -5 -13z"/>
<path d="M1015 1360 c-8 -13 9 -20 24 -11 10 6 9 10 -3 14 -8 3 -18 2 -21 -3z"/>
<path d="M2050 1329 c-7 -11 -10 -23 -7 -25 2 -2 9 7 15 21 14 30 7 33 -8 4z"/>
<path d="M890 1330 c0 -5 5 -10 10 -10 6 0 10 5 10 10 0 6 -4 10 -10 10 -5 0
-10 -4 -10 -10z"/>
<path d="M927 1323 c-4 -3 -7 -19 -7 -35 0 -26 2 -28 43 -28 31 0 38 3 27 10
-8 5 -25 10 -37 10 -27 0 -29 12 -7 34 12 13 13 16 1 16 -7 0 -17 -3 -20 -7z"/>
<path d="M8185 1300 c15 -16 32 -27 37 -24 12 8 -31 54 -51 54 -10 0 -6 -9 14
-30z"/>
<path d="M963 1306 c-9 -11 -7 -14 13 -12 13 0 24 7 24 14 0 16 -22 15 -37 -2z"/>
<path d="M1926 1294 c-4 -14 -5 -29 -2 -31 3 -3 8 7 12 21 3 15 4 29 1 32 -2
3 -8 -7 -11 -22z"/>
<path d="M892 1240 c0 -19 2 -27 5 -17 2 9 2 25 0 35 -3 9 -5 1 -5 -18z"/>
<path d="M920 1238 c0 -9 5 -20 11 -23 17 -11 20 0 4 21 -13 17 -14 17 -15 2z"/>
<path d="M1904 1242 c-5 -4 -16 -22 -23 -40 -8 -18 -16 -30 -19 -27 -3 2 -11
-8 -19 -22 -9 -18 -11 -29 -4 -31 6 -2 -1 -19 -15 -38 -21 -26 -23 -34 -11
-34 9 0 25 20 38 48 60 133 69 152 66 152 -1 0 -7 -4 -13 -8z"/>
<path d="M960 1225 c0 -8 7 -15 15 -15 8 0 15 7 15 15 0 8 -7 15 -15 15 -8 0
-15 -7 -15 -15z"/>
<path d="M5345 1130 c-3 -5 -2 -10 4 -10 5 0 13 5 16 10 3 6 2 10 -4 10 -5 0
-13 -4 -16 -10z"/>
<path d="M1893 1020 c-11 -16 -10 -18 2 -14 8 4 15 12 15 20 0 19 -3 18 -17
-6z"/>
<path d="M5005 1031 c-6 -4 -34 -16 -62 -27 -72 -25 -65 -33 20 -25 4 1 7 7 7
15 0 8 14 17 30 21 17 4 30 11 30 16 0 11 -13 12 -25 0z"/>
<path d="M1779 1008 c-1 -13 -1 -26 0 -30 0 -5 -3 -8 -9 -8 -5 0 -10 -13 -10
-30 0 -20 -5 -30 -15 -30 -8 0 -15 -9 -15 -19 0 -11 -4 -23 -10 -26 -5 -3 -10
-11 -10 -16 0 -6 4 -8 8 -5 5 3 6 -8 4 -25 -3 -21 -10 -29 -25 -29 -15 0 -18
-3 -10 -11 6 -6 8 -20 5 -31 -3 -14 -7 -16 -13 -7 -5 9 -10 5 -14 -14 -4 -15
-10 -27 -14 -27 -4 0 -12 -13 -18 -30 -8 -22 -8 -30 0 -30 8 0 8 -3 0 -11 -6
-6 -9 -18 -6 -27 4 -9 2 -13 -4 -9 -11 7 -35 -15 -32 -29 1 -5 -2 -20 -8 -34
-51 -124 -90 -256 -73 -245 5 3 10 12 10 20 0 21 20 68 26 62 7 -7 -24 -108
-38 -122 -6 -6 -7 -4 -3 7 4 10 3 18 -3 18 -5 0 -12 -19 -15 -42 -9 -68 -14
-101 -21 -133 -7 -28 -6 -27 13 8 11 21 23 51 26 68 19 83 136 419 179 509 14
30 26 62 26 70 0 8 9 26 20 40 11 14 20 31 20 38 0 6 5 12 11 12 6 0 9 9 6 20
-3 11 -2 18 3 15 4 -3 11 2 14 11 3 8 2 12 -4 9 -16 -10 -12 11 15 71 30 68
30 64 5 64 -14 0 -20 -7 -21 -22z"/>
<path d="M8330 985 c-14 -13 -46 -45 -72 -70 -51 -48 -57 -62 -32 -72 9 -3 28
6 48 26 30 29 34 30 38 13 10 -35 64 -27 89 14 23 39 20 84 -8 84 -9 0 -21 7
-27 15 -9 12 -15 10 -36 -10z m70 -42 c0 -9 -10 -27 -22 -40 -24 -25 -48 -32
-28 -8 7 8 9 15 4 15 -5 0 0 7 10 15 32 24 -4 19 -57 -9 -45 -22 -62 -21 -33
3 40 33 126 50 126 24z"/>
<path d="M4815 955 c-27 -14 -39 -22 -25 -19 14 4 30 11 37 16 7 5 16 7 21 4
6 -3 15 1 22 9 18 21 2 18 -55 -10z"/>
<path d="M8295 788 c-4 -13 -25 -53 -46 -89 -56 -93 -48 -115 22 -63 l34 25 3
-30 c2 -17 -2 -39 -8 -50 -8 -15 -7 -26 2 -40 9 -15 9 -23 -1 -35 -11 -13 -11
-17 2 -22 24 -9 39 5 33 31 -3 13 0 27 8 34 14 12 10 64 -5 55 -13 -8 -11 13
4 36 10 17 9 22 -2 29 -9 6 -11 18 -7 38 4 17 1 44 -9 66 -18 43 -21 45 -30
15z m15 -68 c0 -29 -41 -81 -48 -61 -3 10 35 91 43 91 3 0 5 -13 5 -30z m22
-152 c-7 -7 -12 -8 -12 -2 0 14 12 26 19 19 2 -3 -1 -11 -7 -17z"/>
<path d="M3955 560 c3 -5 8 -10 11 -10 2 0 4 5 4 10 0 6 -5 10 -11 10 -5 0 -7
-4 -4 -10z"/>
<path d="M8061 406 c-15 -18 -25 -110 -12 -101 17 10 30 -29 24 -72 -3 -25 -1
-43 6 -47 8 -5 11 11 11 52 0 73 27 112 78 112 25 0 32 4 32 19 0 22 -38 35
-57 19 -10 -8 -13 -6 -13 6 0 13 10 16 48 15 51 0 108 -17 65 -18 -30 -1 -34
-51 -4 -51 10 0 21 -7 25 -15 3 -8 1 -15 -4 -15 -6 0 -10 5 -10 10 0 18 -100
12 -107 -6 -3 -9 0 -20 8 -24 11 -7 10 -10 -3 -15 -10 -4 -22 -4 -28 0 -11 7
-12 1 -16 -90 -3 -65 2 -105 14 -105 4 0 5 40 4 90 l-4 90 44 1 c23 0 36 3 28
6 -32 13 -51 53 -25 53 8 0 15 -7 15 -15 0 -18 36 -20 43 -2 3 8 9 6 20 -8 15
-19 14 -20 -11 -26 l-27 -7 27 -1 c16 -1 31 6 36 15 6 11 10 -19 11 -90 1 -70
-2 -105 -9 -101 -6 4 -10 -6 -10 -24 0 -35 -5 -36 -99 -32 -41 3 -52 0 -49
-10 5 -15 129 -22 246 -12 63 5 75 9 82 27 8 19 9 19 9 -6 1 -19 6 -28 17 -28
12 0 15 7 12 25 -3 13 -1 22 3 19 10 -6 4 323 -6 349 -7 17 -17 19 -120 21
-22 1 -44 -3 -48 -9 -6 -6 -10 -6 -14 3 -7 19 -216 17 -232 -2z m348 -22 c30
-6 31 -9 31 -55 0 -42 -3 -49 -20 -49 -11 0 -20 -5 -20 -11 0 -7 12 -10 29 -7
19 3 28 1 24 -6 -4 -5 -6 -49 -5 -98 2 -54 -1 -88 -8 -88 -5 0 -10 12 -10 26
0 22 -4 25 -27 22 -17 -2 -29 -10 -31 -21 -3 -15 1 -17 25 -11 23 6 26 5 17
-7 -7 -8 -13 -23 -15 -33 -5 -24 -83 -34 -95 -14 -12 19 -14 128 -4 128 6 0
10 -6 10 -14 0 -10 13 -12 53 -8 58 5 67 13 67 60 0 35 -33 58 -65 46 -19 -8
-20 -44 0 -44 8 0 15 7 15 15 0 24 17 17 22 -8 2 -13 -1 -28 -8 -35 -16 -15
-28 -16 -19 -2 6 10 -19 14 -65 10 l-25 -2 30 28 c26 25 28 29 12 32 -12 2
-16 9 -13 19 3 8 6 39 6 69 0 30 5 54 10 54 6 0 10 -27 10 -60 0 -56 2 -60 23
-60 20 1 21 2 5 14 -13 9 -18 27 -18 58 0 60 3 63 59 52z m61 -40 c0 -21 -4
-33 -10 -29 -17 10 -11 65 7 65 2 0 3 -16 3 -36z"/>
<path d="M8370 360 c0 -6 10 -15 23 -20 21 -8 21 -9 -5 -9 -21 -1 -25 -5 -21
-21 11 -42 68 -13 61 32 -3 24 -58 41 -58 18z"/>
<path d="M8316 105 c4 -8 15 -15 25 -15 10 0 19 7 19 15 0 9 -9 15 -25 15 -18
0 -23 -4 -19 -15z"/>
<path d="M8310 63 c0 -17 19 -35 29 -29 18 12 12 36 -9 36 -11 0 -20 -3 -20
-7z"/>
<path d="M5967 380 c-3 -11 -1 -20 4 -20 5 0 9 9 9 20 0 11 -2 20 -4 20 -2 0
-6 -9 -9 -20z"/>
<path d="M6065 390 c3 -5 8 -10 11 -10 2 0 4 5 4 10 0 6 -5 10 -11 10 -5 0 -7
-4 -4 -10z"/>
<path d="M5920 303 c0 -5 18 -9 40 -9 22 -1 40 2 40 7 0 5 -18 9 -40 9 -22 0
-40 -3 -40 -7z"/>
<path d="M6040 300 c-13 -8 -12 -10 3 -10 9 0 17 5 17 10 0 12 -1 12 -20 0z"/>
<path d="M5970 270 c-12 -8 -11 -10 8 -10 12 0 22 5 22 10 0 13 -11 13 -30 0z"/>
<path d="M6251 264 c0 -11 3 -14 6 -6 3 7 2 16 -1 19 -3 4 -6 -2 -5 -13z"/>
<path d="M5910 260 c-12 -7 -10 -9 7 -7 12 0 19 5 17 9 -6 10 -6 10 -24 -2z"/>
<path d="M6370 262 c0 -18 19 -24 37 -13 10 6 13 11 6 11 -6 0 -18 3 -27 6 -9
3 -16 1 -16 -4z"/>
<path d="M8046 252 c-8 -14 -5 -242 4 -247 5 -3 8 53 8 125 0 126 -1 139 -12
122z"/>
<path d="M8144 227 c-3 -8 -4 -41 -2 -73 l3 -59 44 0 c31 0 46 5 48 15 4 13 3
13 -7 0 -9 -11 -13 -12 -17 -2 -2 6 -18 12 -35 12 l-31 0 5 50 c6 61 8 63 42
51 34 -14 35 -48 1 -57 -35 -9 -31 -24 6 -24 30 0 30 1 27 48 -3 47 -3 47 -41
50 -25 2 -39 -1 -43 -11z"/>
<path d="M8252 183 c0 -35 4 -63 9 -63 11 0 11 31 0 85 -8 37 -9 36 -9 -22z"/>
<path d="M5885 220 c3 -5 8 -10 11 -10 2 0 4 5 4 10 0 6 -5 10 -11 10 -5 0 -7
-4 -4 -10z"/>
<path d="M8173 195 c-9 -25 4 -29 17 -6 7 15 7 21 0 21 -6 0 -13 -7 -17 -15z"/>
<path d="M8083 120 c0 -25 2 -35 4 -22 2 12 2 32 0 45 -2 12 -4 2 -4 -23z"/>
<path d="M5427 124 c-16 -16 -5 -25 24 -20 34 5 52 16 26 16 -8 0 -22 2 -29 5
-8 3 -17 2 -21 -1z"/>
<path d="M5265 100 c-7 -12 12 -12 40 0 18 8 17 9 -7 9 -15 1 -30 -3 -33 -9z"/>
<path d="M8081 54 c0 -11 3 -14 6 -6 3 7 2 16 -1 19 -3 4 -6 -2 -5 -13z"/>
<path d="M8105 60 c-7 -12 -7 -12 70 -12 34 0 61 5 63 11 5 14 -124 15 -133 1z"/>
</g>
</svg>
