<?xml version="1.0" standalone="no"?>
<!DOCTYPE svg PUBLIC "-//W3C//DTD SVG 20010904//EN"
 "http://www.w3.org/TR/2001/REC-SVG-20010904/DTD/svg10.dtd">
<svg version="1.0" xmlns="http://www.w3.org/2000/svg"
 width="862.000000pt" height="862.000000pt" viewBox="0 0 862.000000 862.000000"
 preserveAspectRatio="xMidYMid meet">
<metadata>
Created by potrace 1.16, written by Peter Selinger 2001-2019
</metadata>
<g transform="translate(0.000000,862.000000) scale(0.100000,-0.100000)"
fill="#000000" stroke="none">
<path d="M4836 8075 c-3 -8 -1 -15 4 -15 6 0 10 7 10 15 0 8 -2 15 -4 15 -2 0
-6 -7 -10 -15z"/>
<path d="M4578 8048 c-2 -17 -9 -33 -16 -36 -7 -2 -10 2 -6 12 5 12 2 15 -10
10 -9 -3 -16 -10 -16 -14 0 -10 -56 -7 -66 3 -10 10 -52 9 -59 -2 -3 -5 5 -12
17 -14 13 -2 -12 -5 -54 -6 -49 0 -78 3 -78 10 0 5 -5 7 -10 4 -6 -4 -8 -11
-5 -16 4 -5 -1 -9 -10 -9 -9 0 -13 5 -10 10 3 6 -1 10 -9 10 -9 0 -16 -6 -16
-14 0 -15 -62 -29 -71 -15 -3 5 -19 5 -36 0 -22 -7 -33 -6 -37 2 -3 8 -11 4
-23 -10 -10 -13 -34 -25 -53 -29 -19 -3 -45 -10 -57 -16 -11 -6 -27 -8 -35 -5
-8 3 -4 8 12 15 22 9 22 11 5 11 -11 1 -28 -8 -38 -19 -9 -11 -25 -20 -34 -19
-16 0 -15 2 2 9 18 8 17 9 -7 9 -16 1 -28 6 -28 11 0 6 -5 10 -11 10 -6 0 -9
-6 -6 -14 5 -13 -55 -37 -103 -42 -8 0 -24 -4 -35 -9 -40 -14 -45 -14 -45 1 0
8 -5 12 -10 9 -6 -4 -8 -11 -5 -16 4 -5 -2 -12 -12 -15 -66 -21 -192 -89 -176
-95 15 -5 14 -7 -7 -14 -24 -8 -24 -8 -5 -17 16 -6 14 -7 -8 -3 -38 8 -154
-42 -150 -63 2 -6 -7 -16 -20 -22 -21 -11 -21 -10 -3 4 19 16 19 16 1 16 -12
0 1 13 35 35 30 19 50 35 45 35 -6 0 -23 -9 -40 -20 -16 -11 -50 -23 -75 -26
-29 -5 -58 -18 -81 -38 -51 -43 -271 -153 -296 -148 -7 2 -13 -2 -13 -8 0 -6
-7 -13 -16 -17 -20 -8 -57 -38 -108 -90 -23 -24 -47 -43 -54 -43 -7 0 -12 -4
-12 -10 0 -5 -6 -10 -14 -10 -8 0 -16 -7 -20 -15 -3 -8 -12 -15 -21 -15 -9 0
-15 -6 -14 -12 3 -24 -1 -38 -10 -38 -11 0 -92 -53 -134 -87 -33 -27 -47 -29
-47 -7 0 8 -5 12 -10 9 -6 -4 -8 -10 -5 -15 10 -17 -26 -61 -45 -55 -14 5 -59
-24 -108 -70 -2 -2 6 -1 19 2 15 4 20 3 15 -5 -4 -7 -14 -12 -22 -12 -8 0 -23
-9 -35 -21 -11 -11 -27 -18 -36 -15 -11 4 -13 2 -9 -9 3 -8 1 -15 -4 -15 -6 0
-10 5 -10 10 0 19 -32 10 -37 -10 -3 -11 -9 -17 -14 -14 -5 3 -9 -4 -9 -14 0
-11 -7 -25 -15 -32 -8 -7 -15 -9 -15 -5 0 4 -6 2 -14 -4 -10 -9 -15 -8 -20 4
-3 8 -12 15 -21 15 -19 0 -19 -7 0 -26 17 -18 9 -46 -14 -42 -9 1 -16 -2 -16
-7 0 -6 3 -9 6 -8 3 1 6 -5 6 -13 0 -16 -13 -19 -22 -4 -10 15 -28 12 -22 -4
7 -17 -18 -41 -32 -32 -5 4 -28 -12 -50 -35 -23 -24 -44 -38 -51 -34 -7 4 -10
2 -8 -7 3 -14 -27 -61 -76 -119 -32 -37 -66 -80 -88 -112 -11 -15 -13 -13 -15
20 -1 23 5 45 18 61 10 14 19 31 19 39 0 8 7 22 16 30 12 12 14 26 9 52 -4 20
-7 44 -8 54 -2 21 -17 23 -17 2 0 -10 -10 -15 -29 -15 -63 0 -114 -94 -90
-169 2 -7 -2 -16 -9 -18 -7 -3 -10 1 -6 10 8 23 -13 30 -38 13 -12 -9 -32 -16
-44 -16 -31 0 -53 -30 -48 -67 2 -18 -1 -33 -6 -33 -6 0 -10 -9 -10 -21 0 -30
-18 -59 -38 -59 -42 0 -48 -81 -7 -97 28 -10 86 48 109 109 12 31 25 60 29 64
13 14 7 -27 -9 -59 -12 -21 -13 -32 -5 -35 6 -2 11 -8 11 -13 0 -4 -7 -6 -15
-3 -8 4 -15 1 -15 -5 0 -6 5 -11 11 -11 5 0 7 -5 4 -10 -4 -6 -1 -17 5 -25 9
-11 9 -15 1 -15 -6 0 -11 -8 -11 -17 0 -13 -3 -14 -12 -5 -23 23 -39 12 -84
-58 -25 -38 -47 -70 -49 -70 -12 0 -2 21 35 79 22 34 40 65 40 68 0 13 -48
-40 -66 -73 -10 -18 -22 -34 -26 -34 -5 0 -8 -6 -8 -14 0 -21 -40 -67 -53 -59
-6 4 -8 0 -4 -10 3 -9 2 -19 -3 -22 -4 -3 -11 1 -13 7 -4 8 -6 7 -6 -3 -1 -9
-8 -19 -16 -23 -8 -3 -15 -11 -15 -17 0 -8 5 -7 17 2 15 13 15 12 3 -8 -8 -11
-20 -19 -28 -16 -8 4 -12 0 -10 -10 2 -9 -1 -16 -7 -17 -5 -1 -15 -18 -20 -38
-13 -45 -40 -54 -49 -16 -6 24 -10 26 -43 21 -40 -7 -53 -20 -53 -54 0 -13 -6
-23 -13 -23 -7 0 -31 -18 -52 -40 -21 -22 -44 -40 -51 -40 -23 0 -61 -142 -44
-165 4 -5 11 -28 14 -50 7 -41 61 -115 84 -115 7 0 12 -4 12 -10 0 -5 7 -10
15 -10 8 0 15 -4 15 -10 0 -5 13 -10 30 -10 34 0 57 -29 38 -48 -7 -7 -16 -12
-20 -12 -5 0 -19 -9 -31 -20 -18 -18 -20 -24 -9 -40 13 -21 3 -27 -14 -10 -23
23 -46 -1 -40 -39 12 -74 81 -73 92 1 8 45 17 54 34 33 7 -8 20 -15 28 -15 12
0 13 -3 4 -12 -7 -7 -8 -17 -2 -28 6 -11 4 -26 -6 -44 -24 -47 -16 -84 13 -55
18 18 3 -43 -18 -73 -23 -31 -25 -45 -5 -28 8 6 22 31 32 56 9 24 25 46 35 49
11 4 23 15 29 25 6 12 17 16 30 13 14 -4 20 0 20 11 0 9 5 16 10 16 6 0 10 -6
10 -13 0 -16 36 -47 55 -47 7 0 21 -10 29 -22 9 -12 17 -20 19 -17 60 75 58
159 -3 159 -13 0 -17 7 -14 30 5 39 -9 45 -56 23 -29 -13 -38 -23 -34 -35 8
-25 -12 -22 -30 4 -15 21 -14 24 6 44 35 32 121 23 138 -14 6 -15 18 -34 26
-42 57 -61 64 -77 50 -105 -8 -15 -25 -33 -38 -39 -33 -17 -16 -76 22 -76 7 0
10 -6 7 -14 -7 -18 63 -66 89 -62 29 4 40 48 24 95 -13 39 -14 40 -57 39 -76
-1 -75 18 2 25 37 3 53 0 63 -12 10 -12 15 -13 18 -3 3 6 13 12 21 12 9 0 13
6 10 14 -5 11 6 17 41 22 46 6 82 31 82 55 0 7 10 3 23 -9 13 -12 28 -22 34
-22 6 0 13 -7 17 -15 16 -43 130 -72 166 -42 63 51 83 119 54 178 -11 23 -11
29 1 39 8 7 15 26 15 42 0 27 -2 29 -17 17 -14 -12 -16 -12 -11 1 3 9 -5 19
-21 26 l-26 10 25 20 c54 43 169 164 156 164 -22 0 -131 -86 -157 -125 -24
-35 -49 -46 -49 -22 0 9 -3 8 -9 -2 -6 -10 -13 -10 -28 -2 -11 5 -23 7 -27 4
-3 -3 -6 -2 -6 2 0 17 42 53 56 48 8 -3 14 0 14 6 0 6 -4 11 -9 11 -14 0 -2
36 20 59 28 29 45 26 25 -4 -9 -14 -13 -25 -8 -25 4 0 30 34 57 76 27 41 55
80 62 86 7 6 10 15 6 21 -3 5 0 15 8 21 8 6 34 35 57 64 24 28 50 52 58 52 8
0 14 7 14 15 0 8 14 21 30 30 17 9 30 22 30 30 0 8 6 15 14 15 8 0 16 7 20 15
7 20 -37 20 -68 0 -13 -9 -72 -71 -132 -140 -60 -69 -111 -120 -112 -115 -2 6
3 21 12 33 9 12 23 32 32 45 13 17 13 21 3 17 -8 -3 -31 -29 -52 -58 -34 -47
-36 -53 -21 -64 14 -10 15 -15 4 -28 -9 -11 -16 -12 -25 -5 -16 13 -28 -1 -19
-23 6 -15 -56 -105 -83 -121 -12 -6 -14 -4 -8 13 4 12 2 21 -4 21 -18 0 -12
53 9 80 30 39 27 65 -5 44 -14 -9 -23 -19 -20 -23 2 -4 -3 -18 -12 -30 -15
-23 -26 -104 -12 -96 4 3 9 -6 11 -20 3 -15 0 -26 -10 -30 -8 -3 -12 -13 -10
-23 5 -19 -19 -49 -30 -37 -4 3 -7 27 -8 51 -1 25 -9 53 -18 63 -17 19 -22 46
-6 36 5 -3 12 7 16 22 4 15 20 47 36 71 16 23 26 42 22 42 -3 0 1 11 10 25 9
14 14 25 10 25 -4 0 -1 7 6 15 7 8 16 13 20 10 5 -3 6 3 4 12 -5 17 174 253
196 261 5 2 6 10 3 18 -6 16 30 57 41 47 3 -4 6 1 6 10 0 10 5 14 15 11 8 -4
15 -2 15 4 0 5 9 12 21 15 15 4 19 2 15 -9 -7 -18 8 -18 24 1 7 8 10 25 6 39
-5 19 1 30 29 55 19 17 35 32 35 35 0 12 -31 -3 -49 -24 -18 -21 -20 -22 -14
-5 8 25 -59 -23 -92 -65 -11 -14 -49 -56 -85 -95 -36 -38 -91 -106 -123 -150
-31 -44 -72 -100 -90 -124 -17 -24 -38 -55 -45 -68 -17 -31 -24 -24 -24 21 0
20 -4 34 -8 31 -5 -3 -14 4 -20 15 -14 25 -40 10 -40 -22 0 -38 -39 -58 -77
-39 -18 9 -33 22 -33 30 0 11 -3 11 -15 1 -22 -18 -31 -5 -11 15 9 9 16 19 16
23 -1 4 -13 -8 -29 -25 -33 -39 -51 -42 -51 -9 0 24 22 51 33 40 3 -3 11 5 18
18 7 12 29 43 49 68 32 40 66 100 56 100 -36 0 -90 -62 -106 -122 -6 -21 -15
-38 -20 -38 -14 0 -12 34 3 49 10 11 9 12 -2 6 -16 -9 -8 8 17 38 17 19 10 33
-10 21 -7 -5 -22 -10 -33 -11 -18 -3 -18 -2 3 13 13 9 38 38 55 64 44 65 110
149 119 149 4 1 -4 -15 -17 -35 -14 -20 -25 -41 -25 -46 0 -5 -4 -7 -9 -4 -5
3 -12 -1 -15 -10 -8 -21 -7 -31 2 -19 19 26 65 59 59 43 -3 -9 -1 -18 5 -20 7
-3 6 -12 -3 -27 -11 -18 -11 -25 -2 -28 13 -5 6 -34 -11 -45 -6 -4 -8 -10 -5
-13 4 -3 18 10 33 30 17 21 21 32 11 29 -8 -3 -15 -1 -15 5 0 10 6 13 40 15 8
1 16 10 18 21 3 17 1 18 -8 5 -10 -13 -11 -13 -7 0 2 8 10 14 16 12 6 -1 14 5
17 13 3 8 10 12 15 9 5 -3 9 2 9 10 0 19 11 21 27 5 13 -13 33 -4 33 14 0 7
-4 6 -10 -3 -5 -8 -10 -10 -10 -5 1 6 7 18 15 28 7 11 11 25 8 33 -4 10 0 12
11 8 11 -4 16 -1 16 10 0 9 6 16 14 16 8 0 16 7 20 15 3 9 12 12 22 8 14 -5
16 -3 11 12 -9 22 9 46 29 38 10 -4 12 0 8 11 -5 14 -2 15 20 6 22 -8 26 -7
26 9 0 10 18 31 40 46 23 16 40 36 40 47 0 20 0 20 145 153 56 51 106 89 115
87 16 -3 70 43 70 59 0 4 9 11 20 14 12 4 39 24 62 46 23 21 43 37 45 35 3 -2
21 13 40 35 19 21 40 39 45 39 5 0 31 16 56 36 136 103 171 128 210 151 23 14
42 29 42 33 0 9 83 70 96 70 3 0 2 -6 -4 -12 -8 -10 -5 -13 13 -13 13 0 23 4
22 8 -3 12 7 17 158 87 72 34 144 67 160 75 17 8 43 19 59 25 16 6 26 13 23
16 -2 3 -21 -2 -41 -10 -20 -8 -36 -12 -36 -8 0 8 98 55 120 57 15 2 32 7 78
26 29 11 32 11 32 -1 0 -5 -16 -12 -35 -16 -19 -3 -35 -10 -35 -15 0 -5 11 -4
25 1 14 5 39 11 56 12 17 1 33 6 35 10 3 5 10 6 15 3 5 -4 9 -1 9 6 0 8 -10 9
-30 5 -19 -3 -29 -2 -25 4 3 6 12 10 18 10 7 0 29 9 50 20 42 23 47 24 47 10
0 -5 -8 -10 -17 -10 -9 0 -13 -3 -10 -7 9 -8 58 17 52 27 -6 9 107 40 147 40
25 0 29 -3 18 -10 -8 -6 -28 -7 -44 -4 -18 4 -26 2 -22 -4 3 -5 -3 -12 -14
-15 -22 -6 -24 -14 -10 -37 7 -12 12 -12 22 -2 9 9 9 12 -1 12 -7 0 -9 5 -6
10 3 6 17 10 31 10 13 0 24 -4 24 -10 0 -5 9 -1 19 9 11 11 37 23 58 26 21 4
45 9 53 12 32 13 70 11 70 -3 0 -24 40 -15 72 16 16 17 38 30 48 30 23 0 70
20 89 38 9 8 29 12 53 10 21 -2 38 -1 38 3 0 3 12 6 28 6 49 0 87 6 101 17 16
12 131 15 131 4 0 -10 64 -11 73 -1 7 6 121 5 182 -1 17 -2 34 2 40 11 8 11
17 12 36 4 14 -5 32 -6 39 -1 7 5 33 6 57 3 24 -2 63 -5 86 -6 23 -1 47 -5 53
-9 6 -4 31 -5 57 -3 25 3 49 0 52 -5 3 -6 17 -10 30 -10 13 0 26 -4 29 -9 3
-5 27 -12 53 -16 50 -7 274 -74 283 -84 7 -9 105 -41 124 -41 10 0 16 -9 16
-25 0 -28 3 -30 30 -13 15 10 22 9 37 -4 10 -8 36 -21 58 -28 22 -7 47 -18 55
-24 13 -10 13 -9 1 7 -19 24 -11 28 24 11 17 -8 22 -12 13 -9 -34 9 -18 -10
25 -30 23 -11 45 -21 49 -23 4 -2 12 6 18 18 11 20 10 21 -10 15 -15 -5 -20
-4 -16 3 4 7 -16 21 -48 36 -30 14 -57 30 -61 36 -4 7 -27 20 -51 30 -24 11
-44 26 -44 34 0 8 -4 18 -10 21 -6 3 -7 -1 -4 -9 7 -19 -5 -20 -31 -3 -11 7
-38 14 -60 16 -22 1 -44 6 -49 11 -6 6 -20 10 -32 10 -13 0 -26 5 -29 11 -4 6
-13 8 -20 5 -7 -2 -27 4 -44 15 -17 10 -38 19 -47 19 -8 0 -17 7 -20 15 -4 8
-17 15 -31 15 -13 0 -33 5 -43 10 -17 9 -187 48 -283 65 -32 5 -36 9 -27 20 7
8 16 12 21 9 14 -8 69 -17 129 -20 55 -3 151 -19 180 -31 15 -6 25 -8 63 -11
9 -1 17 -9 17 -17 0 -16 16 -20 24 -6 3 5 20 3 38 -4 18 -6 48 -18 66 -24 20
-9 32 -20 32 -32 0 -10 5 -19 10 -19 6 0 10 7 10 15 0 17 25 20 35 5 4 -6 11
-8 16 -4 14 8 40 -16 32 -30 -5 -7 -2 -7 8 1 21 17 113 -11 164 -51 59 -46 86
-60 79 -41 -4 8 -1 15 5 15 6 0 11 -7 11 -16 0 -10 5 -14 15 -10 9 3 32 -3 53
-14 20 -11 44 -20 54 -20 20 0 35 -20 16 -20 -7 -1 5 -7 27 -15 22 -8 45 -13
51 -11 6 3 11 -3 10 -11 -1 -12 9 -17 34 -19 59 -4 95 -21 154 -76 26 -23 36
-23 36 2 0 18 -6 22 -26 19 -4 0 -10 3 -13 8 -3 5 -26 22 -51 38 -25 17 -46
38 -46 48 -2 25 19 21 47 -9 13 -15 44 -39 69 -55 25 -16 41 -29 36 -29 -5 0
-1 -9 9 -20 17 -19 17 -20 1 -20 -9 0 -14 -5 -11 -10 4 -6 21 -8 39 -4 24 4
38 1 49 -11 10 -9 17 -12 17 -7 0 19 -144 142 -166 142 -14 0 -98 95 -96 108
3 13 1 14 -11 4 -18 -16 -94 31 -89 54 2 8 -1 14 -5 13 -19 -5 -184 73 -202
95 -12 14 -10 16 9 16 l23 0 -24 18 c-40 30 -81 44 -93 32 -7 -7 -5 -10 8 -10
12 0 16 -5 13 -14 -3 -8 -1 -17 6 -20 7 -2 4 -5 -5 -5 -10 -1 -23 7 -29 18 -8
11 -19 16 -31 13 -14 -3 -17 0 -12 12 3 9 15 16 26 16 30 0 16 24 -16 27 -20
1 -26 -2 -22 -12 6 -18 -27 -29 -51 -17 -74 37 -97 46 -114 45 -11 -1 -23 5
-26 13 -3 8 -14 14 -25 14 -14 0 -18 6 -16 23 2 17 -3 23 -22 25 -24 3 -24 3
-5 -11 35 -27 7 -31 -58 -10 -34 12 -88 29 -121 38 -36 11 -53 20 -46 25 13 8
67 -6 85 -21 12 -12 75 -12 75 0 0 13 -25 20 -47 15 -10 -3 -32 2 -48 10 -17
9 -40 16 -52 16 -19 0 -23 6 -23 29 0 22 -6 31 -22 37 -13 4 -27 12 -31 18 -6
8 -10 8 -14 -1 -7 -18 -21 -16 -56 10 -37 26 -97 32 -97 10 0 -8 -6 -13 -12
-10 -7 2 -12 10 -10 16 1 6 -2 11 -8 11 -5 0 -10 -4 -10 -10 0 -16 -27 -12
-34 5 -3 8 -13 15 -21 15 -9 0 -13 -4 -10 -10 3 -5 -1 -10 -9 -10 -17 0 -18
20 -1 32 5 4 6 10 2 14 -4 4 -13 0 -20 -10 -13 -18 -73 -14 -62 5 3 4 -4 13
-15 19 -13 7 -20 7 -20 0 0 -5 7 -10 16 -10 8 0 12 -4 9 -10 -8 -12 -45 -13
-45 -1 0 4 -11 6 -25 3 -14 -2 -31 1 -39 7 -11 9 -16 9 -21 0 -5 -7 -23 -9
-48 -6 -23 3 -48 2 -57 -3 -23 -12 -51 6 -30 20 11 7 7 9 -17 7 -36 -2 -44
-13 -15 -20 14 -3 12 -6 -8 -14 -14 -6 -29 -7 -35 -3 -11 9 -41 6 -69 -5 -12
-5 -21 -3 -27 6 -6 9 -4 15 7 17 12 3 13 7 3 18 -18 22 -27 17 -31 -18z m-208
-77 c-8 -5 -34 -8 -57 -8 -23 1 -39 -2 -35 -7 3 -5 -2 -6 -12 -3 -10 4 -20 7
-22 7 -3 0 -2 5 1 10 3 6 36 10 73 10 43 -1 62 -4 52 -9z m-140 -11 c0 -5 -9
-10 -21 -10 -11 0 -17 5 -14 10 3 6 13 10 21 10 8 0 14 -4 14 -10z m-50 -10
c0 -5 -4 -10 -9 -10 -6 0 -13 5 -16 10 -3 6 1 10 9 10 9 0 16 -4 16 -10z m-85
-9 c-5 -9 -70 -24 -150 -37 -30 -4 -30 -4 -5 7 28 13 37 16 100 24 24 3 46 8
49 11 8 8 12 4 6 -5z m-281 -48 c-5 -5 -12 -12 -16 -18 -4 -6 -8 -2 -8 8 0 9
7 17 17 17 9 0 12 -3 7 -7z m-69 -23 c-3 -5 -14 -10 -23 -11 -11 0 -12 -2 -4
-6 13 -5 7 -23 -9 -23 -6 0 -7 5 -4 10 3 6 -2 10 -12 11 -10 0 -3 6 17 14 44
17 42 17 35 5z m-90 -30 c-11 -5 -27 -9 -35 -9 -9 0 -8 4 5 9 11 5 27 9 35 9
9 0 8 -4 -5 -9z m-85 -30 c-8 -5 -22 -10 -30 -10 -13 0 -13 1 0 10 8 5 22 10
30 10 13 0 13 -1 0 -10z m-70 -20 c-19 -13 -30 -13 -30 0 0 6 10 10 23 10 18
0 19 -2 7 -10z m5 -23 c-23 -16 -55 -28 -55 -22 0 6 53 34 65 35 5 0 1 -6 -10
-13z m-151 -62 c-10 -8 -26 -14 -34 -15 -8 0 -4 6 10 14 34 19 48 20 24 1z
m-59 -25 c-3 -5 -12 -10 -18 -10 -7 0 -6 4 3 10 19 12 23 12 15 0z m-150 -70
c-3 -5 -12 -10 -18 -10 -7 0 -6 4 3 10 19 12 23 12 15 0z m-35 -19 c0 -11 -73
-50 -103 -55 -12 -2 -21 -9 -20 -15 2 -5 -4 -8 -12 -5 -8 4 -17 -1 -21 -10
-14 -36 -104 -67 -104 -35 0 9 98 61 140 74 14 4 36 16 50 25 14 10 34 20 45
23 11 2 21 5 23 6 1 0 2 -3 2 -8z m1057 -2 c-14 -8 -22 -8 -30 0 -8 8 -3 11
19 11 25 -1 27 -2 11 -11z m-127 -20 c0 -6 -7 -9 -15 -5 -8 3 -20 -1 -27 -8
-7 -7 -18 -11 -25 -9 -6 2 -26 -3 -43 -12 -18 -9 -34 -14 -37 -11 -3 3 3 9 13
12 10 4 26 13 34 20 25 20 100 30 100 13z m-1265 -159 c-10 -11 -23 -20 -29
-20 -6 1 0 10 13 20 30 26 39 26 16 0z m3625 -26 c0 -8 -5 -12 -10 -9 -6 4 -8
11 -5 16 9 14 15 11 15 -7z m-3720 -28 c0 -3 -4 -8 -10 -11 -5 -3 -10 -1 -10
4 0 6 5 11 10 11 6 0 10 -2 10 -4z m599 -30 c-13 -12 -82 -46 -86 -42 -5 5 66
45 81 46 5 0 7 -2 5 -4z m-114 -56 c-3 -5 -12 -10 -18 -10 -7 0 -6 4 3 10 19
12 23 12 15 0z m-65 -35 c-14 -8 -36 -19 -50 -26 -14 -6 -33 -15 -43 -21 -28
-14 -33 -2 -5 13 47 27 93 47 108 48 8 0 4 -6 -10 -14z m-610 -150 c0 -2 -10
-9 -22 -15 -22 -11 -22 -10 -4 4 21 17 26 19 26 11z m-195 -15 c-3 -5 -11 -10
-16 -10 -6 0 -7 5 -4 10 3 6 11 10 16 10 6 0 7 -4 4 -10z m-195 -120 c0 -5 -5
-10 -11 -10 -5 0 -7 5 -4 10 3 6 8 10 11 10 2 0 4 -4 4 -10z m-37 -204 c-10
-13 -20 -22 -22 -20 -4 4 29 44 36 44 2 0 -4 -11 -14 -24z m-119 -61 c-6 -16
-24 -21 -24 -7 0 11 11 22 21 22 5 0 6 -7 3 -15z m35 -42 c3 -2 -10 -18 -28
-36 -19 -18 -31 -25 -28 -15 8 22 -16 18 -45 -8 -50 -44 -60 -45 -18 -1 25 25
51 53 58 62 12 14 45 13 61 -2z m34 -73 c-10 -11 -19 -20 -21 -20 -1 0 2 9 8
20 6 11 15 20 20 20 6 0 2 -9 -7 -20z m-199 -116 c3 -8 2 -12 -4 -9 -6 3 -10
10 -10 16 0 14 7 11 14 -7z m-45 -61 c-53 -59 -129 -160 -124 -165 3 -3 -6
-10 -19 -16 -22 -10 -22 -8 9 38 45 67 53 77 110 132 59 57 71 63 24 11z m-40
0 c-14 -16 -38 -46 -54 -67 -16 -22 -31 -34 -33 -28 -4 13 87 121 102 121 6 1
-1 -11 -15 -26z m76 -33 c-3 -5 -11 -10 -16 -10 -6 0 -7 5 -4 10 3 6 11 10 16
10 6 0 7 -4 4 -10z m-33 -42 c-7 -7 -12 -8 -12 -2 0 14 12 26 19 19 2 -3 -1
-11 -7 -17z m-107 -128 c-3 -5 -11 -10 -16 -10 -6 0 -7 5 -4 10 3 6 11 10 16
10 6 0 7 -4 4 -10z m274 -175 c-18 -25 -41 -53 -52 -62 -20 -18 -20 -18 -2 12
18 29 75 95 83 95 2 0 -11 -20 -29 -45z m-110 -139 c-42 -60 -49 -52 -8 8 17
26 33 45 36 42 3 -3 -10 -25 -28 -50z m-49 -65 c0 -6 -12 -23 -26 -38 -28 -30
-28 -29 10 35 9 14 16 16 16 3z m-70 -107 c-18 -21 -24 -10 -8 15 7 12 14 17
16 11 2 -6 -2 -17 -8 -26z m230 -63 c-5 -11 -15 -23 -21 -27 -6 -3 -3 5 6 20
20 30 30 35 15 7z m-754 -468 c-10 -10 -19 5 -10 18 6 11 8 11 12 0 2 -7 1
-15 -2 -18z"/>
<path d="M4935 8060 c-3 -5 -1 -10 4 -10 6 0 11 5 11 10 0 6 -2 10 -4 10 -3 0
-8 -4 -11 -10z"/>
<path d="M4868 8053 c7 -3 16 -2 19 1 4 3 -2 6 -13 5 -11 0 -14 -3 -6 -6z"/>
<path d="M4325 8020 c-3 -5 -1 -10 4 -10 6 0 11 5 11 10 0 6 -2 10 -4 10 -3 0
-8 -4 -11 -10z"/>
<path d="M4170 7989 c0 -5 5 -7 10 -4 6 3 10 8 10 11 0 2 -4 4 -10 4 -5 0 -10
-5 -10 -11z"/>
<path d="M4010 7970 c-13 -8 -12 -10 3 -10 9 0 17 5 17 10 0 12 -1 12 -20 0z"/>
<path d="M3650 7898 c0 -4 4 -8 9 -8 6 0 12 4 15 8 3 5 -1 9 -9 9 -8 0 -15 -4
-15 -9z"/>
<path d="M5820 7775 c46 -18 61 -18 30 0 -14 8 -34 14 -45 14 -13 0 -8 -5 15
-14z"/>
<path d="M3355 7758 l-30 -19 30 7 c34 7 51 19 38 27 -4 2 -21 -4 -38 -15z"/>
<path d="M5895 7750 c3 -5 11 -10 16 -10 6 0 7 5 4 10 -3 6 -11 10 -16 10 -6
0 -7 -4 -4 -10z"/>
<path d="M6120 7705 c0 -8 5 -15 10 -15 6 0 10 7 10 15 0 8 -4 15 -10 15 -5 0
-10 -7 -10 -15z"/>
<path d="M3100 7670 c0 -5 5 -10 10 -10 6 0 10 5 10 10 0 6 -4 10 -10 10 -5 0
-10 -4 -10 -10z"/>
<path d="M2870 7661 c0 -5 5 -13 10 -16 6 -3 10 -2 10 4 0 5 -4 13 -10 16 -5
3 -10 2 -10 -4z"/>
<path d="M6310 7640 c0 -13 28 -25 38 -16 3 4 0 11 -8 16 -20 13 -30 12 -30 0z"/>
<path d="M4910 7630 c0 -5 7 -10 15 -10 8 0 15 5 15 10 0 6 -7 10 -15 10 -8 0
-15 -4 -15 -10z"/>
<path d="M6150 7630 c0 -5 5 -10 10 -10 6 0 10 5 10 10 0 6 -4 10 -10 10 -5 0
-10 -4 -10 -10z"/>
<path d="M6265 7630 c3 -5 8 -10 11 -10 2 0 4 5 4 10 0 6 -5 10 -11 10 -5 0
-7 -4 -4 -10z"/>
<path d="M6295 7599 c-4 -13 -13 -27 -19 -31 -8 -5 -7 -8 2 -8 24 0 44 28 34
46 -8 15 -11 14 -17 -7z"/>
<path d="M4905 7600 c3 -5 11 -10 16 -10 6 0 7 5 4 10 -3 6 -11 10 -16 10 -6
0 -7 -4 -4 -10z"/>
<path d="M6357 7594 c-30 -16 -29 -29 3 -37 17 -4 19 -3 10 8 -8 10 -7 16 7
23 29 17 11 22 -20 6z"/>
<path d="M4148 7533 c7 -3 16 -2 19 1 4 3 -2 6 -13 5 -11 0 -14 -3 -6 -6z"/>
<path d="M6360 7490 c0 -5 5 -10 10 -10 6 0 10 5 10 10 0 6 -4 10 -10 10 -5 0
-10 -4 -10 -10z"/>
<path d="M4150 7464 c0 -11 5 -14 16 -10 9 3 24 6 35 6 10 0 19 5 19 10 0 6
-16 10 -35 10 -25 0 -35 -4 -35 -16z"/>
<path d="M6505 7460 c-3 -5 -1 -10 4 -10 6 0 11 5 11 10 0 6 -2 10 -4 10 -3 0
-8 -4 -11 -10z"/>
<path d="M2685 7440 c3 -5 8 -10 11 -10 2 0 4 5 4 10 0 6 -5 10 -11 10 -5 0
-7 -4 -4 -10z"/>
<path d="M6457 7429 c7 -7 15 -10 18 -7 3 3 -2 9 -12 12 -14 6 -15 5 -6 -5z"/>
<path d="M3580 7379 c0 -5 5 -7 10 -4 6 3 10 8 10 11 0 2 -4 4 -10 4 -5 0 -10
-5 -10 -11z"/>
<path d="M2560 7330 c0 -5 5 -10 11 -10 5 0 7 5 4 10 -3 6 -8 10 -11 10 -2 0
-4 -4 -4 -10z"/>
<path d="M6147 7310 c-4 -17 -1 -19 18 -14 12 3 26 1 29 -5 4 -6 13 -11 19
-11 12 1 -42 50 -54 50 -4 0 -9 -9 -12 -20z"/>
<path d="M3620 7290 c0 -5 5 -10 11 -10 5 0 7 5 4 10 -3 6 -8 10 -11 10 -2 0
-4 -4 -4 -10z"/>
<path d="M3240 7270 c0 -5 6 -10 14 -10 8 0 18 5 21 10 3 6 -3 10 -14 10 -12
0 -21 -4 -21 -10z"/>
<path d="M6236 7265 c4 -8 13 -15 21 -15 12 0 12 2 -1 15 -8 8 -17 15 -20 15
-3 0 -3 -7 0 -15z"/>
<path d="M6284 7244 c3 -9 6 -18 6 -20 0 -2 7 -4 15 -4 8 0 24 -9 35 -20 11
-11 25 -20 30 -20 7 0 7 6 0 20 -6 11 -17 20 -24 20 -7 0 -21 9 -31 20 -22 24
-40 26 -31 4z"/>
<path d="M2424 7236 c-8 -8 -7 -15 2 -24 16 -15 29 2 17 22 -6 11 -11 11 -19
2z"/>
<path d="M6456 7225 c4 -8 8 -15 10 -15 2 0 4 7 4 15 0 8 -4 15 -10 15 -5 0
-7 -7 -4 -15z"/>
<path d="M6786 7216 c6 -15 3 -17 -14 -12 -28 9 -40 -13 -17 -31 19 -13 44
-19 32 -7 -3 4 -2 16 4 26 8 15 8 23 -1 32 -8 8 -9 6 -4 -8z"/>
<path d="M2392 7189 c-14 -22 -7 -25 14 -5 8 8 11 17 6 20 -4 2 -13 -4 -20
-15z"/>
<path d="M6397 7203 c-17 -16 -3 -42 40 -74 143 -103 161 -114 150 -85 -3 8 2
16 14 19 35 9 22 32 -20 33 -32 1 -38 -2 -33 -15 3 -9 -21 7 -54 34 -32 28
-67 57 -76 65 -13 10 -15 16 -5 22 7 5 8 8 1 8 -6 0 -14 -3 -17 -7z"/>
<path d="M6620 7199 c0 -5 5 -7 10 -4 6 3 10 8 10 11 0 2 -4 4 -10 4 -5 0 -10
-5 -10 -11z"/>
<path d="M3365 7180 c-3 -5 1 -10 10 -10 9 0 13 5 10 10 -3 6 -8 10 -10 10 -2
0 -7 -4 -10 -10z"/>
<path d="M6355 7140 c21 -16 41 -30 44 -30 9 1 -63 59 -73 60 -5 0 8 -13 29
-30z"/>
<path d="M2245 7150 c-3 -5 1 -10 9 -10 9 0 16 5 16 10 0 6 -4 10 -9 10 -6 0
-13 -4 -16 -10z"/>
<path d="M6819 7128 c4 -12 13 -24 19 -26 7 -2 7 5 -1 22 -15 32 -30 35 -18 4z"/>
<path d="M2898 7124 c-16 -8 -28 -19 -28 -24 0 -5 13 -1 30 8 46 26 43 41 -2
16z"/>
<path d="M6760 7109 c0 -5 5 -7 10 -4 6 3 10 8 10 11 0 2 -4 4 -10 4 -5 0 -10
-5 -10 -11z"/>
<path d="M6940 7072 c0 -5 9 -17 20 -27 23 -21 30 1 8 23 -14 14 -28 16 -28 4z"/>
<path d="M6490 7056 c0 -2 8 -10 18 -17 15 -13 16 -12 3 4 -13 16 -21 21 -21
13z"/>
<path d="M6542 7014 c10 -10 20 -16 22 -13 3 3 -5 11 -17 18 -21 13 -21 12 -5
-5z"/>
<path d="M2120 6999 c0 -5 5 -7 10 -4 6 3 10 8 10 11 0 2 -4 4 -10 4 -5 0 -10
-5 -10 -11z"/>
<path d="M6617 6988 c-10 -11 -16 -22 -13 -26 6 -6 35 27 36 41 0 10 -2 8 -23
-15z"/>
<path d="M6750 6916 c0 -2 8 -10 18 -17 15 -13 16 -12 3 4 -13 16 -21 21 -21
13z"/>
<path d="M6880 6909 c0 -5 5 -7 10 -4 6 3 10 8 10 11 0 2 -4 4 -10 4 -5 0 -10
-5 -10 -11z"/>
<path d="M6848 6904 c-4 -3 3 -15 14 -26 24 -24 34 -18 16 11 -13 22 -20 25
-30 15z"/>
<path d="M6678 6853 c7 -3 16 -2 19 1 4 3 -2 6 -13 5 -11 0 -14 -3 -6 -6z"/>
<path d="M6716 6834 c-4 -10 -1 -14 6 -12 15 5 23 28 10 28 -5 0 -13 -7 -16
-16z"/>
<path d="M7220 6840 c0 -5 5 -10 10 -10 6 0 10 5 10 10 0 6 -4 10 -10 10 -5 0
-10 -4 -10 -10z"/>
<path d="M7050 6800 c0 -5 5 -10 11 -10 5 0 7 5 4 10 -3 6 -8 10 -11 10 -2 0
-4 -4 -4 -10z"/>
<path d="M7131 6764 c13 -16 29 -19 29 -5 0 5 -9 11 -21 14 -16 4 -18 3 -8 -9z"/>
<path d="M7240 6776 c0 -2 7 -7 16 -10 8 -3 12 -2 9 4 -6 10 -25 14 -25 6z"/>
<path d="M7005 6739 c11 -34 37 -50 50 -30 3 5 -9 19 -26 32 l-31 22 7 -24z"/>
<path d="M1660 6701 c0 -17 18 -21 24 -6 3 9 0 15 -9 15 -8 0 -15 -4 -15 -9z"/>
<path d="M6937 6652 c3 -7 9 -10 12 -5 3 4 10 11 15 15 4 4 -1 6 -12 5 -12 -1
-18 -6 -15 -15z"/>
<path d="M7040 6610 c0 -11 7 -20 15 -20 17 0 18 2 9 24 -9 23 -24 20 -24 -4z"/>
<path d="M7371 6581 c-8 -5 -9 -11 -3 -15 5 -3 12 1 16 9 6 17 6 18 -13 6z"/>
<path d="M7087 6569 c7 -7 15 -10 18 -7 3 3 -2 9 -12 12 -14 6 -15 5 -6 -5z"/>
<path d="M7000 6566 c0 -2 7 -6 15 -10 8 -3 15 -1 15 4 0 6 -7 10 -15 10 -8 0
-15 -2 -15 -4z"/>
<path d="M7120 6532 c0 -5 9 -17 20 -27 12 -10 18 -25 16 -32 -6 -14 10 -27
23 -19 13 8 -8 48 -36 69 -13 10 -23 14 -23 9z"/>
<path d="M7346 6505 c-3 -9 0 -15 9 -15 16 0 20 16 6 24 -5 3 -11 -1 -15 -9z"/>
<path d="M7075 6490 c3 -5 8 -10 11 -10 2 0 4 5 4 10 0 6 -5 10 -11 10 -5 0
-7 -4 -4 -10z"/>
<path d="M7500 6469 c0 -5 5 -7 10 -4 6 3 10 8 10 11 0 2 -4 4 -10 4 -5 0 -10
-5 -10 -11z"/>
<path d="M7363 6463 c-22 -8 -15 -32 7 -26 20 5 26 18 13 26 -5 2 -14 2 -20 0z"/>
<path d="M7140 6442 c0 -5 7 -13 16 -16 10 -4 14 -1 12 6 -5 15 -28 23 -28 10z"/>
<path d="M7212 6420 c-5 -14 -7 -29 -4 -35 3 -5 7 -4 10 3 5 15 23 16 20 1 -2
-6 3 -14 10 -16 18 -7 14 22 -7 48 l-20 24 -9 -25z"/>
<path d="M7381 6404 c10 -13 10 -17 -2 -25 -12 -7 -11 -9 3 -9 9 0 18 -6 21
-12 2 -7 8 0 12 16 8 29 -4 46 -34 46 -11 0 -11 -3 0 -16z"/>
<path d="M7564 6394 c3 -9 6 -22 6 -30 0 -8 5 -14 11 -14 13 0 39 -25 39 -38
0 -5 7 -15 16 -23 10 -8 14 -22 10 -40 -4 -20 1 -32 17 -45 12 -10 16 -12 10
-4 -7 8 -13 21 -13 29 0 18 21 -4 64 -67 16 -23 31 -41 33 -39 7 7 -15 52 -36
74 -12 12 -21 27 -21 33 0 5 -4 10 -10 10 -5 0 -10 7 -10 15 0 8 -4 15 -8 15
-5 0 -17 18 -27 40 -10 22 -22 40 -26 40 -4 0 -16 14 -26 30 -18 31 -40 42
-29 14z"/>
<path d="M7156 6387 c3 -10 9 -15 12 -12 3 3 0 11 -7 18 -10 9 -11 8 -5 -6z"/>
<path d="M7443 6365 c0 -8 4 -15 9 -15 4 0 8 4 8 9 0 6 -4 12 -8 15 -5 3 -9
-1 -9 -9z"/>
<path d="M2039 6267 c-75 -82 -89 -117 -48 -117 10 0 19 4 19 9 0 5 32 40 70
78 49 46 70 74 68 88 -6 38 -34 23 -109 -58z"/>
<path d="M7300 6325 c-11 -13 -10 -20 7 -43 33 -45 36 -52 19 -46 -9 3 -16 9
-16 13 0 11 -62 82 -67 77 -3 -3 8 -22 24 -43 17 -21 28 -43 26 -50 -2 -6 1
-14 6 -18 7 -4 8 0 4 11 -4 12 -3 15 5 10 7 -4 12 -13 12 -20 0 -8 7 -19 15
-26 9 -7 14 -15 12 -17 -2 -2 13 -23 35 -46 21 -23 41 -52 44 -64 4 -13 9 -23
13 -23 8 0 61 -78 61 -90 0 -4 7 -13 15 -20 8 -7 15 -24 15 -39 0 -18 3 -22 9
-13 6 10 14 4 30 -23 11 -20 25 -34 30 -31 5 4 7 -2 5 -11 -5 -21 3 -34 31
-49 11 -6 20 -20 20 -31 1 -12 6 -27 13 -36 7 -8 10 -23 6 -33 -4 -14 -3 -16
4 -5 7 10 15 4 32 -28 13 -22 27 -38 31 -35 8 4 -8 42 -22 54 -3 3 -11 20 -17
39 -7 19 -19 43 -28 53 -10 10 -15 27 -12 42 3 17 1 23 -8 19 -18 -7 -46 52
-38 81 4 19 -1 32 -20 51 -32 32 -96 126 -96 140 0 11 -98 169 -120 193 -7 7
-18 11 -26 8 -8 -3 -14 0 -15 7 -1 7 -2 21 -3 31 -1 25 -20 31 -36 11z m60
-126 c0 -6 -4 -7 -10 -4 -5 3 -10 11 -10 16 0 6 5 7 10 4 6 -3 10 -11 10 -16z"/>
<path d="M4867 6314 c-15 -8 -32 -26 -37 -39 -6 -17 -19 -25 -47 -29 -56 -8
-165 -5 -190 7 -12 5 -30 6 -40 2 -10 -4 -26 -9 -36 -10 -11 -1 -22 -7 -25
-12 -4 -6 -27 -12 -52 -13 -59 -2 -70 0 -40 10 24 8 24 8 -5 8 -16 1 -48 -3
-70 -7 l-40 -9 35 -2 35 -3 -40 -6 c-22 -3 -41 -3 -43 2 -5 11 -75 8 -92 -4
-12 -8 -11 -9 5 -7 12 2 19 -2 17 -9 -2 -15 24 -18 32 -4 4 5 0 12 -6 14 -7 3
-3 6 10 6 13 1 21 -3 18 -8 -4 -5 0 -11 6 -14 7 -2 -4 -7 -26 -11 -24 -5 -43
-3 -49 3 -13 13 -30 15 -22 2 10 -18 -18 -24 -30 -7 -10 13 -18 14 -36 7 -17
-7 -19 -10 -7 -10 19 -1 14 -29 -6 -43 -8 -6 -8 -10 0 -15 24 -17 25 -45 1
-42 -12 2 -31 -2 -42 -8 -11 -6 -40 -13 -65 -17 -25 -3 -55 -8 -67 -12 -20 -5
-23 -3 -23 20 0 36 -35 36 -44 0 -5 -18 -11 -24 -23 -20 -10 4 -14 2 -10 -8 4
-10 1 -13 -9 -9 -8 3 -14 -1 -14 -10 0 -9 -12 -18 -29 -22 -31 -7 -50 -23 -48
-40 1 -5 -7 -11 -18 -13 -16 -2 -17 -1 -5 7 30 21 -1 23 -42 3 -24 -12 -37
-21 -30 -22 7 0 22 5 33 10 10 6 19 7 19 3 0 -4 -32 -21 -70 -37 -44 -19 -65
-33 -58 -37 11 -7 -28 -29 -92 -52 -10 -4 -9 -6 6 -6 11 -1 45 11 74 25 30 14
65 30 79 35 13 5 21 12 18 15 -3 3 -14 1 -25 -5 -12 -6 -27 -11 -34 -10 -21 0
87 47 164 70 38 11 72 18 76 15 3 -3 -9 -9 -27 -12 -17 -4 -34 -11 -37 -16 -4
-6 2 -7 17 -3 57 19 75 14 88 -22 12 -31 14 -33 25 -17 8 10 15 13 19 7 11
-18 -23 -37 -75 -42 -5 -1 -8 -5 -8 -10 0 -5 10 -7 22 -3 14 3 19 2 14 -6 -10
-17 18 -15 105 7 43 11 105 19 149 18 41 0 67 -3 58 -5 -22 -4 -23 -18 -2 -26
8 -3 12 -2 9 4 -4 6 6 10 22 9 25 0 26 -1 8 -10 -16 -7 -13 -8 13 -4 18 2 31
1 28 -4 -3 -5 -36 -14 -73 -20 -38 -7 -76 -14 -87 -18 -16 -4 -18 -1 -14 21 4
17 1 25 -6 23 -6 -3 -10 -10 -9 -16 2 -6 -6 -11 -17 -11 -11 0 -20 -4 -20 -10
0 -5 7 -7 15 -4 8 4 15 1 15 -6 0 -12 111 -7 132 6 4 3 8 -3 8 -14 0 -14 -13
-21 -52 -32 -120 -30 -194 -58 -168 -62 21 -3 18 -5 -17 -15 -24 -6 -43 -7
-43 -2 0 5 8 9 17 9 9 0 14 2 11 5 -3 4 -18 3 -33 -1 -20 -5 -23 -9 -13 -15 9
-6 9 -9 1 -9 -6 0 -14 4 -17 9 -8 12 -56 -11 -56 -26 0 -7 -4 -13 -10 -13 -5
0 -10 5 -10 10 0 6 -8 5 -19 -2 -11 -7 -17 -16 -14 -22 3 -5 2 -7 -3 -3 -5 3
-35 -3 -67 -14 -32 -11 -62 -17 -67 -14 -5 3 -32 -6 -60 -20 -28 -14 -55 -23
-60 -20 -6 3 -7 -1 -4 -9 3 -9 2 -16 -4 -16 -6 0 -12 6 -15 13 -3 9 -7 9 -20
-2 -10 -7 -17 -11 -17 -7 0 3 -11 1 -24 -4 -17 -6 -26 -5 -30 3 -5 9 -7 9 -12
0 -3 -7 -14 -13 -25 -13 -10 0 -19 -4 -19 -8 0 -16 -48 -32 -54 -19 -3 9 -5 8
-5 -1 -2 -25 -96 -97 -118 -90 -5 2 -20 -8 -34 -22 -14 -14 -42 -34 -62 -45
-20 -11 -37 -27 -37 -36 0 -22 -26 -43 -41 -33 -8 4 -9 3 -5 -4 8 -13 4 -17
-112 -120 -45 -40 -86 -71 -92 -67 -5 3 -10 -1 -10 -9 0 -29 -91 -116 -114
-110 -20 5 -55 -16 -109 -66 -74 -69 -94 -92 -111 -124 -11 -21 -27 -36 -38
-36 -20 0 -25 -16 -5 -23 9 -3 9 -7 -1 -20 -8 -9 -12 -24 -10 -35 2 -10 -2
-25 -8 -33 -6 -8 -24 -39 -40 -69 -32 -64 -54 -91 -64 -85 -9 5 -34 -23 -43
-47 -4 -10 -2 -18 3 -18 5 0 2 -12 -6 -27 -7 -16 -14 -33 -14 -39 0 -20 -30
-72 -46 -78 -8 -3 -14 -11 -13 -18 1 -7 -6 -39 -15 -72 -15 -49 -16 -60 -5
-68 11 -8 10 -9 -3 -4 -24 7 -46 -83 -63 -259 -3 -27 -7 -61 -9 -75 -2 -14
-11 -81 -20 -150 -19 -144 -35 -212 -48 -204 -5 3 -4 12 3 20 9 11 7 14 -10
14 -12 0 -21 6 -21 15 0 8 5 15 10 15 6 0 10 5 10 10 0 24 -21 7 -27 -21 -4
-19 -9 -27 -15 -21 -6 6 -6 17 0 28 5 11 12 37 15 59 3 22 3 32 1 23 -3 -9
-11 -15 -17 -12 -8 3 -11 28 -9 82 4 95 22 123 22 33 0 -43 3 -60 11 -55 7 4
9 21 6 40 -3 19 -2 36 2 38 4 3 7 15 5 28 -1 13 -3 29 -3 37 -1 11 -5 10 -15
-5 -18 -24 -29 -14 -20 20 6 25 24 37 24 16 0 -5 5 -10 10 -10 6 0 10 21 9 48
0 39 -2 43 -10 24 -13 -33 -30 -17 -24 23 2 19 0 37 -6 40 -5 4 -6 12 -2 18 4
7 9 32 11 57 1 25 4 56 5 69 1 13 -3 26 -9 28 -13 4 -31 -36 -39 -92 -4 -22
-11 -53 -15 -70 -31 -108 -28 -321 7 -585 8 -63 16 -128 17 -145 1 -16 4 -34
8 -40 3 -5 6 -21 6 -35 0 -39 22 -110 34 -110 6 0 5 6 -3 17 -12 14 -12 16 0
12 9 -3 30 -58 52 -135 49 -168 90 -286 122 -351 16 -34 21 -53 13 -56 -6 -2
0 -9 13 -16 23 -13 23 -12 17 15 -4 16 -11 31 -15 34 -9 6 -41 103 -36 108 5
5 85 -164 85 -178 0 -6 -4 -10 -10 -10 -13 0 -13 -11 0 -30 9 -13 11 -13 20 0
8 12 10 10 10 -9 0 -14 16 -39 41 -63 31 -30 39 -44 34 -61 -4 -15 -4 -18 3
-8 12 16 27 -3 16 -21 -4 -6 -3 -8 3 -5 6 4 16 0 22 -7 10 -11 8 -16 -5 -24
-19 -11 -9 -28 54 -100 12 -13 23 -29 25 -35 2 -7 8 -9 12 -5 4 4 -5 24 -20
43 -15 20 -24 39 -20 43 6 7 15 -3 56 -60 10 -13 20 -20 24 -16 4 4 -4 22 -18
40 -13 18 -28 40 -32 48 -22 38 24 -14 66 -75 41 -61 59 -78 59 -56 0 6 -4 13
-10 16 -5 3 -15 16 -21 28 -11 21 -10 21 15 -2 18 -17 25 -33 24 -52 -1 -15 4
-34 11 -43 7 -9 10 -16 6 -16 -4 0 -14 8 -22 18 -8 9 -13 12 -11 6 4 -14 76
-94 85 -94 3 0 -1 8 -9 18 -22 25 -30 42 -21 42 12 0 41 -53 37 -65 -3 -6 12
-26 32 -45 l37 -35 -29 40 c-26 37 -27 39 -4 20 54 -45 63 -47 24 -4 -62 67
-104 133 -72 113 8 -5 9 -1 4 12 -3 10 17 -7 45 -39 28 -31 59 -57 69 -57 10
0 17 -6 16 -15 -4 -28 -14 -25 -55 16 -22 23 -41 38 -41 33 1 -5 20 -29 44
-53 43 -43 44 -44 55 -23 12 22 41 31 41 13 0 -5 9 -7 20 -4 22 6 26 -8 9 -39
-8 -14 -8 -23 0 -31 8 -8 11 -8 11 1 0 9 5 9 20 0 11 -7 18 -19 15 -25 -2 -7
2 -13 10 -13 8 0 15 -3 15 -7 0 -14 49 -31 70 -26 15 4 20 1 19 -13 0 -11 -3
-14 -6 -6 -2 6 -9 12 -15 12 -6 0 -3 -9 7 -20 10 -11 25 -20 33 -20 8 0 12 -6
8 -15 -7 -19 -1 -19 18 1 18 18 38 10 29 -11 -3 -9 1 -15 9 -15 7 0 26 -11 41
-26 15 -14 32 -22 37 -19 6 3 10 2 10 -4 0 -17 61 -42 79 -31 13 7 10 11 -21
24 -20 9 -42 21 -50 29 -7 7 -40 32 -73 55 -83 57 -99 71 -93 77 3 3 21 -7 41
-22 92 -71 127 -95 173 -119 27 -14 76 -42 109 -62 33 -20 65 -37 71 -38 6 -1
35 -13 66 -28 30 -14 60 -26 67 -26 7 0 9 -4 6 -10 -3 -5 3 -10 14 -10 31 0
25 13 -11 28 -62 25 -121 56 -110 60 6 2 59 -17 119 -42 193 -79 340 -122 537
-156 106 -19 134 -28 109 -37 -16 -6 -17 -43 -2 -43 6 0 9 7 5 15 -4 11 1 15
17 15 17 0 19 2 7 10 -19 12 11 25 36 16 9 -3 99 -9 200 -12 183 -6 184 -5
184 16 0 12 4 18 10 15 6 -4 8 -11 4 -16 -4 -6 15 -9 50 -7 31 2 56 7 55 12
-1 14 23 26 54 26 16 0 26 -4 22 -10 -3 -6 5 -10 19 -10 27 0 44 16 24 22 -8
3 -6 7 5 11 12 4 17 1 17 -11 1 -16 1 -16 14 0 14 19 32 25 21 8 -4 -6 5 -10
19 -10 29 0 36 20 9 21 -12 0 -13 2 -5 6 7 3 19 -1 27 -7 17 -14 50 -5 40 10
-3 5 0 10 7 10 9 0 9 3 -2 10 -19 12 -33 13 -26 1 3 -5 -6 -8 -19 -8 -29 0
-41 12 -23 24 20 12 46 14 53 3 7 -12 26 -14 22 -2 -2 7 6 12 24 12 5 0 7 -6
3 -12 -15 -24 -11 -48 8 -48 64 0 -53 -37 -138 -44 -22 -2 -64 -8 -94 -15 -92
-19 -247 -29 -410 -27 -85 2 -147 1 -137 -1 37 -9 15 -20 -25 -13 -40 8 -57 6
-47 -4 15 -15 158 -23 167 -10 8 13 42 14 42 2 0 -4 15 -8 33 -8 24 0 28 3 17
10 -13 8 -12 10 4 10 10 0 24 -7 31 -16 9 -13 20 -15 50 -10 28 6 35 10 24 17
-11 7 -9 9 9 9 14 0 20 -4 17 -10 -4 -7 18 -10 65 -9 53 1 70 5 66 15 -3 7 2
15 10 18 22 9 24 8 18 -9 -7 -19 22 -20 63 -3 15 6 42 12 58 13 17 1 40 3 53
4 15 0 21 5 16 13 -5 7 -2 9 8 5 9 -3 21 0 27 6 8 8 11 8 11 -1 0 -7 6 -12 14
-12 9 0 12 -7 9 -20 -6 -23 -6 -23 36 -9 35 12 41 29 10 29 -35 0 -12 17 33
24 77 12 162 42 154 55 -3 4 5 6 18 4 13 -3 37 3 52 12 16 9 21 14 11 11 -11
-3 -15 -2 -12 4 8 13 32 13 37 -1 4 -13 58 -1 58 13 0 5 4 7 9 4 9 -6 67 44
64 54 -1 4 9 5 22 2 14 -2 31 2 40 11 9 9 23 13 32 10 10 -4 14 -2 10 4 -14
23 85 47 110 26 10 -8 12 -12 6 -8 -22 11 -34 -4 -22 -27 9 -17 9 -20 -3 -15
-9 3 -15 -1 -15 -9 0 -17 -1 -17 32 -4 14 5 23 15 20 20 -3 6 0 17 9 25 22 22
32 18 11 -5 -25 -27 -15 -25 46 10 28 17 56 29 62 27 6 -2 -15 -17 -46 -35
-43 -24 -55 -36 -50 -48 5 -14 2 -16 -20 -10 -15 3 -27 2 -27 -3 0 -25 28 -19
112 23 60 30 98 44 112 41 14 -4 17 -3 8 3 -10 6 -2 16 28 36 36 23 39 28 28
46 -16 26 -31 26 -23 1 4 -14 0 -23 -17 -31 -21 -10 -21 -10 -5 3 43 35 -5 31
-56 -5 -16 -11 -30 -18 -33 -15 -3 2 11 15 30 27 20 12 36 26 36 32 0 6 -11 3
-25 -6 -41 -27 -52 -18 -12 11 42 30 43 44 1 16 -16 -10 -31 -18 -34 -18 -3 0
-5 -11 -5 -24 0 -28 -40 -48 -61 -30 -7 6 -17 9 -21 6 -4 -3 -14 1 -21 9 -10
11 -8 15 9 25 19 10 21 9 16 -5 -4 -10 -3 -15 3 -11 6 3 10 13 10 21 0 8 7 17
15 20 8 4 12 11 8 17 -4 6 -1 7 7 2 8 -5 17 -2 24 6 20 26 70 53 74 41 6 -18
20 -14 25 6 4 16 5 16 6 0 1 -16 4 -16 26 4 18 15 22 25 15 33 -7 9 -6 14 4
18 8 3 17 1 19 -6 2 -7 17 1 37 20 19 18 43 36 54 39 23 8 64 44 49 44 -6 0
-8 12 -5 27 3 16 7 23 9 16 2 -7 11 -9 19 -6 10 4 12 0 7 -13 -4 -12 -3 -15 5
-10 15 9 55 -18 44 -29 -4 -5 4 -2 17 6 14 9 27 22 29 29 3 7 0 10 -7 6 -6 -4
-11 -3 -11 2 0 6 11 9 24 8 14 0 22 -6 19 -13 -3 -7 0 -13 7 -13 6 0 8 -4 5
-10 -3 -5 -11 -10 -16 -10 -6 0 -7 5 -3 11 14 23 -20 2 -35 -21 -14 -20 -14
-23 -1 -15 8 5 23 8 32 7 11 -2 22 6 29 20 13 29 52 58 42 31 -5 -12 -3 -14 8
-8 28 18 -44 -59 -82 -87 -21 -15 -39 -33 -39 -39 0 -12 111 82 167 140 18 19
36 32 40 28 4 -4 -27 -39 -68 -77 -41 -39 -73 -75 -71 -81 1 -6 -2 -8 -8 -4
-6 4 -27 -10 -46 -29 -20 -20 -39 -36 -44 -36 -4 0 -13 -7 -20 -15 -18 -22
-51 -20 -43 3 5 11 -4 7 -29 -13 -19 -16 -33 -32 -32 -34 2 -2 10 2 19 9 9 7
18 11 21 8 6 -7 -61 -71 -78 -74 -38 -8 -93 -34 -91 -43 4 -14 -75 -54 -89
-45 -6 4 -8 3 -4 -4 6 -10 -45 -42 -68 -42 -6 0 -17 -9 -24 -20 -7 -11 -20
-20 -30 -20 -9 -1 -37 -11 -61 -24 -37 -19 -41 -24 -25 -30 11 -4 20 -3 22 3
2 6 10 11 18 11 9 0 13 -4 9 -9 -3 -5 -1 -12 5 -16 6 -4 10 6 11 22 0 15 3 23
5 17 6 -13 44 -7 44 7 0 5 11 9 24 9 13 0 35 9 49 20 14 11 30 20 37 20 6 0 9
4 6 9 -3 5 3 11 14 14 11 3 18 1 14 -4 -3 -5 2 -9 10 -9 9 0 15 3 15 7 -4 25
3 35 21 30 13 -3 20 0 20 9 0 17 17 19 22 2 5 -13 28 -2 28 13 0 6 -6 7 -12 3
-8 -5 -8 -1 1 10 8 9 28 24 45 33 17 8 41 27 53 41 13 15 23 21 23 14 0 -7 15
2 33 21 27 29 36 33 51 25 14 -8 17 -7 14 3 -2 7 11 29 31 48 23 23 36 31 39
22 3 -8 12 -1 23 18 10 17 26 31 34 31 8 0 15 7 15 15 0 8 7 15 16 15 9 0 14
6 12 12 -5 13 14 38 27 38 4 0 4 -8 1 -17 -5 -15 -4 -15 9 1 8 11 15 23 15 27
0 4 9 9 21 12 16 4 19 11 14 26 -4 13 -2 21 5 21 6 0 8 -4 5 -10 -3 -5 -2 -10
4 -10 6 0 9 10 8 23 -1 12 0 22 3 22 10 1 50 40 50 48 0 16 29 37 43 31 15 -6
47 30 47 53 0 7 16 29 35 49 28 28 33 39 24 50 -9 11 -5 16 15 25 14 7 26 18
26 25 0 7 9 16 20 19 13 4 20 15 20 32 0 17 4 23 13 20 9 -3 13 2 12 16 -2 25
29 89 51 108 8 6 14 17 14 23 0 7 5 17 12 24 6 6 13 24 14 39 2 15 10 33 19
39 8 6 15 17 15 25 0 7 12 26 27 41 15 15 21 28 14 28 -9 0 -8 6 3 22 9 12 16
29 16 38 0 9 8 32 18 52 11 20 19 49 20 65 1 15 13 66 28 113 14 47 28 102 31
123 4 30 9 37 23 32 17 -5 37 21 25 33 -3 3 -5 0 -5 -6 0 -7 -6 -12 -13 -12
-13 0 -17 43 -5 55 4 4 4 13 1 21 -2 7 0 28 6 46 33 104 53 509 36 722 -6 74
-5 97 3 92 15 -9 15 7 0 22 -8 8 -8 15 2 27 7 8 10 18 6 22 -3 3 -6 0 -6 -7 0
-52 -38 81 -43 148 -1 17 -5 32 -9 32 -3 0 -10 26 -14 58 -3 31 -10 65 -15 74
-5 10 -5 19 0 23 9 5 27 -32 23 -48 -1 -5 2 -6 7 -3 5 4 9 20 9 36 -1 17 -5
27 -11 23 -6 -4 -7 4 -3 22 6 22 4 26 -8 22 -11 -5 -16 0 -16 13 0 11 5 20 10
20 6 0 10 5 10 11 0 6 -7 9 -15 5 -11 -4 -15 2 -15 24 0 16 -4 32 -10 35 -12
7 -14 46 -2 44 21 -4 21 3 -2 25 -15 13 -26 28 -26 34 0 5 -7 12 -15 16 -8 3
-15 12 -15 21 0 8 -5 15 -12 15 -9 0 -9 3 -1 11 15 15 -16 86 -39 93 -19 4
-25 26 -8 26 6 0 10 7 10 15 0 8 -4 15 -9 15 -5 0 -11 10 -15 23 -3 13 -16 39
-29 58 -13 19 -21 41 -19 48 3 9 0 11 -7 6 -13 -7 -40 21 -41 43 0 6 -9 21
-21 33 -11 11 -18 27 -15 35 3 8 2 13 -2 10 -9 -6 -42 29 -42 44 0 6 -8 19
-17 29 -36 39 -45 52 -40 57 11 11 -33 43 -50 38 -14 -5 -15 -4 -4 4 11 8 11
15 -4 39 -18 30 -17 31 18 91 35 60 35 73 1 78 -7 1 -30 20 -53 43 -23 23 -47
41 -55 41 -7 0 -16 14 -20 31 -8 40 -31 62 -66 63 -15 1 -26 4 -23 9 12 20
-11 27 -28 8 -26 -27 -36 -26 -36 3 0 17 4 23 13 19 14 -5 20 13 6 19 -4 2
-21 30 -37 63 -49 98 -70 113 -123 83 -36 -20 -62 -23 -62 -8 0 12 -50 13 -69
1 -18 -12 -41 -3 -41 15 0 8 -4 14 -10 14 -5 0 -10 6 -10 14 0 15 -34 29 -62
26 -10 -1 -18 3 -18 8 0 14 -107 55 -121 46 -9 -5 -10 -2 -6 9 3 9 -1 18 -9
21 -25 10 -41 7 -24 -4 20 -13 10 -12 -28 1 -18 6 -30 14 -27 19 5 8 -32 23
-52 21 -6 -1 -14 3 -18 9 -3 5 -17 10 -30 10 -22 0 -84 27 -95 42 -5 6 -105
36 -152 45 -16 3 -28 12 -28 19 0 8 -6 14 -14 14 -9 0 -16 12 -18 32 -4 43
-46 73 -99 71 -59 -3 -105 -20 -116 -46 -13 -28 -120 -33 -115 -5 3 20 -87 94
-118 95 -14 1 -38 -5 -53 -13z m-427 -108 c0 -3 -4 -8 -10 -11 -5 -3 -10 -1
-10 4 0 6 5 11 10 11 6 0 10 -2 10 -4z m-275 -96 c-3 -5 -16 -10 -28 -9 -21 0
-21 1 -2 9 28 12 37 12 30 0z m55 -14 c0 -3 -4 -8 -10 -11 -5 -3 -10 -1 -10 4
0 6 5 11 10 11 6 0 10 -2 10 -4z m-67 -63 c-7 -2 -21 -2 -30 0 -10 3 -4 5 12
5 17 0 24 -2 18 -5z m-83 -42 c0 -12 -39 -21 -45 -11 -3 5 5 11 17 13 13 2 24
5 26 6 1 0 2 -3 2 -8z m440 -5 c0 -3 -4 -8 -10 -11 -5 -3 -10 -1 -10 4 0 6 5
11 10 11 6 0 10 -2 10 -4z m-510 -21 c0 -19 16 -19 68 -1 35 13 41 13 46 0 4
-10 -4 -16 -25 -21 -31 -6 -62 -41 -57 -63 2 -7 -3 -15 -10 -17 -8 -3 -10 1
-6 11 4 12 0 16 -15 16 -12 0 -21 6 -21 15 0 8 -9 15 -21 15 -11 0 -18 -4 -14
-9 3 -5 0 -13 -6 -17 -7 -4 -9 -3 -5 4 3 5 2 12 -3 14 -4 1 -11 13 -15 24 -6
19 -1 23 31 32 53 14 53 14 53 -3z m196 7 c-2 -4 -19 -8 -38 -9 -27 -2 -29 0
-13 7 25 11 58 12 51 2z m-426 -12 c-8 -5 -22 -9 -30 -9 -10 0 -8 3 5 9 27 12
43 12 25 0z m130 -50 c0 -5 -5 -10 -11 -10 -5 0 -7 5 -4 10 3 6 8 10 11 10 2
0 4 -4 4 -10z m76 -35 c9 -8 11 -15 6 -15 -5 0 -15 7 -22 15 -7 8 -9 15 -6 15
4 0 14 -7 22 -15z m262 -11 c-4 -3 -12 -6 -20 -8 -7 -1 -19 -5 -25 -9 -7 -5
-13 -4 -13 2 0 5 12 14 28 19 27 9 41 7 30 -4z m138 -23 c5 -5 25 -11 44 -14
34 -4 34 -4 -6 -5 -26 -1 -46 4 -54 13 -13 16 0 21 16 6z m-41 -21 c-28 -12
-57 -12 -50 0 3 6 21 10 38 9 27 0 29 -2 12 -9z m121 -38 c-3 -5 -35 -10 -72
-11 -36 -1 -69 -2 -73 -3 -14 -1 -22 2 -18 10 3 4 42 8 87 10 46 2 79 -1 76
-6z m132 1 c-10 -2 -26 -2 -35 0 -10 3 -2 5 17 5 19 0 27 -2 18 -5z m2068
-490 c-7 -7 -26 7 -26 19 0 6 6 6 15 -2 9 -7 13 -15 11 -17z m60 -97 l15 -31
-21 25 c-11 14 -26 34 -32 45 -10 18 -10 19 6 6 10 -8 24 -28 32 -45z m214
-306 c6 -11 7 -20 2 -20 -6 0 -12 9 -15 20 -3 11 -3 20 -1 20 2 0 8 -9 14 -20z
m-2677 -275 c-35 -25 -1 -41 94 -44 48 -1 92 -6 96 -10 5 -5 25 -4 44 1 29 8
96 17 138 18 6 1 22 -2 38 -6 15 -3 27 -2 27 2 0 10 76 10 168 -1 43 -5 67 -4
77 5 8 6 19 9 26 5 6 -4 15 -1 21 6 7 11 8 9 6 -6 -2 -15 4 -21 25 -23 24 -3
26 -6 16 -19 -19 -23 13 -43 57 -36 22 4 34 2 34 -6 0 -6 9 -11 20 -11 11 0
38 -19 60 -41 67 -69 53 -78 -66 -43 -208 61 -309 84 -371 84 -53 0 -70 4 -97
25 -35 27 -65 32 -83 14 -8 -8 -17 -7 -34 4 -56 36 -251 -43 -397 -159 -97
-77 -259 -254 -282 -308 -10 -23 -21 -65 -25 -94 -4 -30 -12 -52 -18 -51 -23
2 -53 -12 -65 -32 -13 -20 4 -79 27 -93 6 -4 11 -18 11 -32 0 -39 24 -86 66
-130 21 -23 62 -66 89 -95 28 -30 81 -74 118 -99 39 -27 71 -57 78 -73 60
-143 259 -350 430 -445 150 -83 555 -132 743 -90 43 10 87 16 97 13 27 -9 191
49 255 90 31 20 81 59 110 87 l53 50 3 -34 3 -33 17 45 c9 25 17 38 17 29 1
-25 -41 -156 -46 -142 -2 7 0 21 6 32 13 24 14 31 2 31 -18 0 -35 -71 -20 -81
10 -6 11 -9 2 -9 -7 0 -13 -10 -13 -22 0 -12 -3 -18 -6 -15 -4 4 -16 -10 -26
-30 -16 -29 -17 -37 -6 -44 12 -8 4 -13 -15 -10 -4 1 -10 -13 -14 -29 -3 -17
-13 -36 -22 -43 -18 -14 -41 -51 -41 -68 0 -6 -9 -22 -20 -36 -11 -14 -17 -30
-13 -36 3 -5 1 -7 -4 -4 -14 9 -37 -19 -28 -33 4 -6 2 -9 -3 -8 -15 4 -53 -43
-45 -56 3 -6 3 -8 -2 -4 -11 10 -37 -11 -29 -23 3 -5 1 -8 -4 -7 -8 3 -53 -31
-125 -94 -17 -16 -35 -28 -39 -28 -21 0 -68 -54 -56 -63 9 -6 8 -7 -4 -3 -10
3 -44 -10 -79 -29 -33 -19 -65 -35 -69 -35 -5 0 -13 -6 -17 -13 -4 -7 -39 -23
-78 -36 -38 -13 -79 -29 -90 -35 -11 -6 -22 -11 -25 -11 -32 -5 -110 -30 -110
-36 0 -8 -51 -19 -114 -24 -27 -2 -81 -7 -120 -11 -80 -8 -83 -8 -151 0 -33 3
-52 1 -57 -7 -6 -9 -10 -8 -17 3 -9 12 -11 12 -17 -3 -3 -9 -13 -17 -21 -17
-8 0 -11 5 -8 10 7 11 -42 33 -55 25 -5 -3 -11 -1 -15 5 -8 12 -35 13 -35 1 0
-5 21 -14 48 -20 l47 -10 -51 4 c-46 3 -86 -7 -73 -19 2 -3 36 -10 74 -16 39
-6 75 -16 80 -22 7 -7 -3 -9 -35 -4 -59 9 -47 -1 16 -13 51 -10 76 -5 53 10
-8 5 40 9 116 9 72 0 154 3 184 7 40 4 52 3 47 -6 -5 -7 4 -13 24 -18 48 -9
18 -20 -91 -34 -85 -10 -189 -8 -337 7 -42 4 -52 2 -46 -8 6 -10 4 -10 -7 -2
-24 19 -58 23 -69 9 -16 -19 8 -29 103 -46 55 -9 76 -17 73 -26 -3 -7 -1 -15
5 -18 17 -11 361 -1 401 11 9 3 19 1 22 -4 10 -16 -140 -34 -284 -33 -153 1
-190 6 -190 27 0 16 -60 20 -76 4 -6 -6 -24 -5 -49 1 -22 5 -50 12 -62 14 -12
3 -43 15 -70 26 -26 12 -59 25 -73 29 -78 26 -131 49 -177 80 -94 62 -61 64
60 3 75 -37 157 -58 157 -39 0 6 4 5 9 -3 5 -8 17 -11 32 -6 17 4 20 3 10 -3
-17 -12 5 -25 57 -37 25 -5 32 -3 32 8 0 9 6 17 12 19 25 9 -34 30 -81 30 -60
0 -81 6 -75 22 4 9 -11 20 -43 32 -26 9 -69 32 -94 51 -26 18 -51 33 -56 33
-6 0 -22 9 -37 21 -14 11 -26 18 -26 15 0 -14 -100 46 -163 98 -77 63 -73 61
-94 41 -11 -12 -12 -19 -4 -29 8 -10 9 -16 1 -21 -5 -3 -10 -1 -10 4 0 6 -6
11 -12 11 -16 0 24 -41 43 -43 24 -4 109 -57 109 -68 0 -6 -9 -8 -20 -4 -12 4
-20 2 -20 -5 0 -6 -13 -4 -32 7 -18 9 -39 18 -46 19 -22 4 -41 24 -44 47 -2
12 -12 23 -23 26 -17 3 -18 1 -6 -13 9 -10 10 -16 2 -16 -6 0 -11 3 -11 8 0 4
-22 31 -49 60 -27 28 -45 55 -40 58 12 7 11 24 -2 24 -5 0 -7 -4 -4 -10 16
-26 -11 -5 -61 48 -46 48 -54 61 -50 85 5 26 4 27 -10 13 -18 -19 -21 -19 -30
-4 -4 7 -3 8 4 4 18 -11 14 20 -3 34 -9 8 -12 16 -6 19 5 4 4 16 -5 31 l-15
25 7 -25 c6 -25 6 -25 -11 -5 -11 14 -18 16 -21 7 -6 -14 -24 -7 -24 10 0 6 3
8 7 5 3 -4 12 2 20 12 14 20 8 51 -9 51 -6 0 -5 -6 2 -15 9 -11 9 -15 1 -15
-6 0 -14 7 -17 15 -4 8 -10 12 -15 9 -5 -3 -6 -10 -3 -16 4 -7 2 -8 -5 -4 -9
6 -9 11 -1 21 7 8 9 24 5 37 -6 22 -5 22 9 4 14 -17 15 -17 13 10 -1 16 -7 28
-12 26 -5 -2 -15 13 -22 33 -13 38 -9 60 8 50 5 -4 13 3 17 15 7 18 10 14 26
-29 10 -27 24 -55 33 -62 8 -7 24 -31 35 -53 28 -56 79 -126 92 -126 6 0 5 5
-2 12 -7 7 -12 26 -12 44 0 18 -12 56 -27 86 -15 29 -28 58 -28 63 -2 20 -25
65 -33 65 -19 0 -67 167 -78 270 l-3 35 9 -38 c5 -21 28 -80 50 -132 22 -52
40 -99 40 -104 0 -15 33 -84 48 -99 6 -8 17 -23 24 -35 12 -24 187 -238 202
-249 6 -4 14 -4 18 -2 4 3 5 -1 3 -8 -9 -22 42 -65 58 -49 9 10 9 12 -3 9 -11
-2 -14 4 -12 21 3 17 0 22 -10 18 -8 -3 -15 0 -15 7 0 7 -28 47 -63 89 -49 60
-60 80 -51 90 8 11 6 22 -12 48 -13 19 -30 49 -38 67 -7 17 -17 32 -21 32 -5
0 -8 11 -8 24 0 30 -38 116 -51 116 -15 0 -40 66 -32 85 5 16 -11 34 -29 35
-12 0 -10 -38 2 -45 13 -8 13 -25 0 -25 -5 0 -18 30 -29 68 -19 62 -25 93 -48
237 -18 114 0 368 32 475 42 135 96 262 103 242 2 -8 -1 -19 -7 -25 -6 -6 -11
-18 -11 -26 1 -10 6 -7 15 9 8 14 12 37 9 53 -5 25 2 33 29 28 4 -1 7 4 6 11
-4 34 2 46 26 46 20 0 23 -3 15 -19 -20 -36 -9 -33 14 5 13 21 46 65 73 98 95
118 98 122 119 113 30 -13 47 -11 76 7 14 10 30 18 35 18 17 0 56 63 57 90 1
19 5 26 15 22 10 -4 13 -1 8 10 -3 10 0 19 9 22 8 3 14 -1 14 -10 0 -8 4 -13
10 -9 5 3 7 11 4 18 -3 8 7 14 28 15 26 2 56 19 107 59 19 15 -14 10 -40 -6
-37 -23 -54 -27 -44 -11 15 24 171 80 370 135 20 5 26 -7 8 -20z m2785 -320
c-3 -3 -9 2 -12 12 -6 14 -5 15 5 6 7 -7 10 -15 7 -18z m21 -105 l0 -45 -14
50 c-19 69 -19 99 0 65 8 -14 14 -45 14 -70z m71 -30 c0 -5 -5 -10 -11 -10 -5
0 -7 5 -4 10 3 6 8 10 11 10 2 0 4 -4 4 -10z m-3711 -51 c-7 -14 -14 -18 -21
-11 -13 13 -2 32 18 32 12 0 13 -4 3 -21z m-1498 -171 l-9 -33 -1 32 c-1 17 2
40 6 50 12 30 16 -9 4 -49z m5244 -22 c5 -34 4 -46 -4 -42 -6 4 -11 28 -11 53
0 58 7 53 15 -11z m-68 -38 c-3 -8 -6 -5 -6 6 -1 11 2 17 5 13 3 -3 4 -12 1
-19z m-3887 8 c0 -2 -8 -10 -17 -17 -16 -13 -17 -12 -4 4 13 16 21 21 21 13z
m3607 -48 c-3 -7 -5 -2 -5 12 0 14 2 19 5 13 2 -7 2 -19 0 -25z m28 3 c3 -5 1
-12 -5 -16 -5 -3 -10 1 -10 9 0 18 6 21 15 7z m322 -38 c-3 -10 -5 -4 -5 12 0
17 2 24 5 18 2 -7 2 -21 0 -30z m-4007 -78 c-24 -73 -26 -75 -32 -40 -3 13 -1
22 3 19 5 -3 9 2 9 11 0 33 35 121 38 97 2 -12 -6 -52 -18 -87z m3597 83 c-3
-8 -6 -5 -6 6 -1 11 2 17 5 13 3 -3 4 -12 1 -19z m326 -37 c4 -29 2 -40 -4
-30 -8 13 -14 88 -5 78 2 -2 6 -24 9 -48z m-153 29 c0 -5 -5 -10 -11 -10 -5 0
-7 5 -4 10 3 6 8 10 11 10 2 0 4 -4 4 -10z m177 -32 c-3 -8 -6 -5 -6 6 -1 11
2 17 5 13 3 -3 4 -12 1 -19z m-261 -175 c-5 -36 -3 -41 10 -36 14 5 14 3 2
-16 l-13 -22 -12 28 c-6 15 -10 39 -8 53 2 14 4 39 5 55 l1 30 10 -25 c6 -14
8 -44 5 -67z m22 41 c-3 -14 -5 -12 -10 9 -3 19 -2 25 4 19 6 -6 8 -18 6 -28z
m-3831 -6 c-3 -7 -5 -2 -5 12 0 14 2 19 5 13 2 -7 2 -19 0 -25z m4013 -22 c0
-3 -4 -8 -10 -11 -5 -3 -10 -1 -10 4 0 6 5 11 10 11 6 0 10 -2 10 -4z m-4020
-48 c0 -23 -3 -39 -6 -35 -9 9 -11 77 -2 77 5 0 8 -19 8 -42z m95 5 c-2 -10
-4 -85 -4 -168 -1 -94 -5 -145 -10 -140 -14 14 -21 108 -9 122 7 9 7 26 0 55
-6 23 -7 49 -3 57 5 9 7 21 4 27 -4 11 13 64 21 64 2 0 3 -8 1 -17z m3925 -8
c0 -14 -4 -25 -9 -25 -4 0 -6 11 -3 25 2 14 6 25 8 25 2 0 4 -11 4 -25z m90
15 c0 -5 -8 -6 -17 -3 -12 5 -15 2 -10 -10 3 -9 2 -19 -3 -22 -6 -4 -10 5 -10
19 0 19 5 26 20 26 11 0 20 -4 20 -10z m30 -37 c0 -32 -12 -23 -16 12 -1 14 2
23 7 20 5 -4 9 -18 9 -32z m-414 -58 c3 -17 1 -24 -6 -20 -5 3 -10 18 -10 32
0 32 9 25 16 -12z m91 -17 c-3 -8 -6 -5 -6 6 -1 11 2 17 5 13 3 -3 4 -12 1
-19z m305 -60 c-5 -5 -8 6 -6 29 3 57 7 62 11 19 3 -21 0 -43 -5 -48z m-117
-19 c-5 -70 -4 -89 6 -84 7 5 10 3 7 -6 -3 -8 -11 -13 -17 -11 -6 1 -11 -4
-12 -10 0 -7 -3 -22 -5 -33 -3 -11 -6 -46 -6 -78 -1 -32 -5 -52 -9 -45 -6 9
-11 5 -19 -12 -9 -22 -10 -21 -4 10 3 19 10 62 14 95 5 33 14 78 19 100 6 22
11 58 11 80 0 41 9 85 17 85 2 0 1 -41 -2 -91z m-4015 51 c0 -11 -4 -20 -9
-20 -5 0 -7 9 -4 20 3 11 7 20 9 20 2 0 4 -9 4 -20z m4105 0 c-2 -31 -15 -37
-15 -7 0 15 4 27 8 27 5 0 8 -9 7 -20z m-281 -39 c1 -22 -2 -38 -6 -35 -4 3
-8 -7 -8 -23 0 -22 2 -25 10 -13 6 9 10 10 10 3 0 -22 -12 -43 -22 -37 -6 4
-14 0 -19 -7 -6 -10 -9 -6 -9 14 0 16 4 26 10 22 6 -4 7 2 1 17 -5 15 -3 38 7
66 17 50 23 49 26 -7z m217 -24 c-9 -9 -10 -5 -7 13 6 36 8 37 13 16 3 -10 0
-23 -6 -29z m-322 -31 c-9 -8 -10 -7 -5 7 3 10 7 28 7 40 2 16 3 14 6 -7 3
-16 -1 -34 -8 -40z m-3719 28 c0 -8 -4 -12 -10 -9 -5 3 -10 10 -10 16 0 5 5 9
10 9 6 0 10 -7 10 -16z m4127 -40 c-3 -30 -9 -59 -13 -62 -4 -4 -4 15 0 42 3
27 6 55 6 62 0 8 3 14 6 14 4 0 4 -25 1 -56z m-236 -1 c-8 -15 -10 -15 -11 -2
0 17 10 32 18 25 2 -3 -1 -13 -7 -23z m-3899 -10 c-3 -16 -7 -22 -10 -15 -4
13 4 42 11 42 2 0 2 -12 -1 -27z m4089 -33 c5 0 9 8 10 18 0 12 2 13 6 3 5
-12 -31 -50 -48 -51 -3 0 -1 16 5 36 8 27 12 31 14 15 2 -12 8 -21 13 -21z
m-358 -10 c3 -11 1 -18 -4 -14 -8 5 -14 -18 -9 -41 1 -7 -2 -7 -8 0 -11 11 -4
75 8 75 4 0 10 -9 13 -20z m-3718 1 c3 -5 1 -12 -5 -16 -5 -3 -10 1 -10 9 0
18 6 21 15 7z m3796 -25 c14 8 10 -63 -10 -158 -10 -49 -16 -88 -13 -88 2 0 0
-6 -6 -12 -6 -7 -14 -31 -18 -53 -7 -37 -8 -38 -15 -15 -6 23 -7 23 -8 -7 -1
-45 -17 -42 -24 5 -12 73 17 133 46 97 5 -6 7 -3 3 7 -3 10 1 36 9 59 8 23 15
51 14 63 0 11 -6 0 -13 -25 -13 -46 -35 -92 -36 -74 0 6 4 26 10 45 9 36 15
61 26 115 9 48 16 62 21 47 3 -6 9 -10 14 -6z m62 -78 c-9 -43 -19 -78 -23
-78 -4 0 -4 17 1 38 4 20 11 51 14 67 9 42 15 58 19 54 2 -2 -3 -39 -11 -81z
m94 60 c-3 -8 -6 -5 -6 6 -1 11 2 17 5 13 3 -3 4 -12 1 -19z m159 -5 c-6 -15
-9 -15 -16 -3 -6 9 -5 17 3 22 16 10 21 2 13 -19z m-4103 -58 c4 -48 4 -61 -3
-42 -5 15 -9 42 -10 60 -5 88 6 74 13 -18z m87 53 c0 -19 -2 -20 -10 -8 -13
19 -13 30 0 30 6 0 10 -10 10 -22z m-123 -10 c-3 -8 -6 -5 -6 6 -1 11 2 17 5
13 3 -3 4 -12 1 -19z m4099 -24 c-6 -21 -4 -25 8 -21 18 7 22 -42 6 -78 -6
-14 -8 -6 -4 25 l4 45 -19 -38 c-13 -29 -20 -34 -24 -23 -8 21 13 116 26 116
5 0 6 -12 3 -26z m-370 -19 c-3 -9 -11 -13 -16 -10 -8 5 -7 11 1 21 14 18 24
11 15 -11z m325 -22 c-12 -20 -14 -14 -5 12 4 9 9 14 11 11 3 -2 0 -13 -6 -23z
m-338 -43 c-5 -20 -23 -38 -23 -23 1 22 13 52 20 48 5 -3 6 -14 3 -25z m148
-51 c-5 -13 -10 -19 -10 -12 -1 15 10 45 15 40 3 -2 0 -15 -5 -28z m-18 -31
c7 -4 7 -16 0 -40 l-11 -33 -1 38 c-1 21 -5 36 -10 33 -4 -3 -6 7 -3 22 5 22
7 24 10 7 2 -11 9 -23 15 -27z m-173 -43 c-7 -30 -16 -55 -20 -55 -4 0 0 27 8
60 8 33 17 58 20 55 3 -3 -1 -30 -8 -60z m40 51 c0 -3 -4 -8 -10 -11 -5 -3
-10 -1 -10 4 0 6 5 11 10 11 6 0 10 -2 10 -4z m253 -24 c-3 -12 -9 -19 -14
-16 -5 3 -4 14 2 25 13 26 20 21 12 -9z m126 -59 c0 -10 -3 -13 -6 -5 -9 23
-21 12 -32 -32 -13 -54 -14 -69 -2 -62 4 3 11 20 15 37 3 18 9 30 12 27 5 -6
-29 -129 -42 -150 -4 -6 -10 -5 -16 3 -6 10 -11 10 -14 3 -3 -6 -12 -20 -20
-30 -15 -18 -15 -18 -8 1 4 11 9 34 12 50 3 17 8 32 11 35 26 21 29 100 3 100
-10 0 -36 -70 -28 -77 3 -4 11 8 17 26 6 18 13 30 15 28 6 -6 -45 -160 -57
-172 -13 -13 -11 -4 6 46 9 24 14 53 11 65 -7 25 11 94 24 94 6 0 10 8 10 18
0 12 3 13 8 5 10 -16 55 -5 48 12 -2 7 -2 16 1 19 9 9 33 -21 32 -41z m-286 0
c-6 -43 -22 -79 -23 -53 0 19 19 90 25 90 2 0 1 -17 -2 -37z m-4776 -33 c7 0
13 -4 13 -10 0 -5 -4 -10 -10 -10 -5 0 -10 -8 -11 -17 -1 -25 -14 10 -22 57
-6 34 -6 34 5 8 7 -16 18 -28 25 -28z m4921 34 c4 2 8 -7 9 -21 0 -16 -2 -21
-7 -14 -4 8 -9 2 -13 -18 -4 -17 -11 -31 -17 -31 -13 0 -13 17 1 25 6 4 10 19
9 33 -3 35 0 50 7 34 2 -6 8 -10 11 -8z m-3970 -25 c-3 -8 -7 -3 -11 10 -4 17
-3 21 5 13 5 -5 8 -16 6 -23z m3726 0 c-3 -5 -10 -7 -15 -3 -5 3 -7 10 -3 15
3 5 10 7 15 3 5 -3 7 -10 3 -15z m117 -12 c-8 -8 -11 -7 -11 4 0 20 13 34 18
19 3 -7 -1 -17 -7 -23z m-3723 -6 c3 -16 -1 -22 -10 -19 -7 3 -15 15 -16 27
-3 16 1 22 10 19 7 -3 15 -15 16 -27z m-98 -22 c0 -5 -4 -9 -10 -9 -5 0 -10 7
-10 16 0 8 5 12 10 9 6 -3 10 -10 10 -16z m3799 -59 c-9 -18 -20 -28 -32 -27
-13 1 -24 -12 -40 -50 -29 -66 -42 -81 -22 -24 21 60 18 75 -5 24 -30 -68 -34
-42 -4 31 6 15 4 18 -8 13 -12 -4 -14 -1 -10 15 3 14 7 16 13 7 5 -9 12 -2 23
22 l16 34 -4 -37 c-6 -45 0 -49 15 -10 l11 27 10 -25 10 -25 14 30 c7 17 14
39 15 50 1 17 2 17 6 -3 2 -12 -1 -36 -8 -52z m-136 18 c7 -25 3 -33 -12 -23
-13 8 -15 45 -2 45 5 0 11 -10 14 -22z m-33 8 c0 -3 -4 -8 -10 -11 -5 -3 -10
-1 -10 4 0 6 5 11 10 11 6 0 10 -2 10 -4z m284 -17 c-3 -5 -10 -7 -15 -3 -5 3
-7 10 -3 15 3 5 10 7 15 3 5 -3 7 -10 3 -15z m-5 -67 c14 -11 13 -12 -6 -2
-15 7 -23 19 -22 33 1 20 2 20 6 2 3 -11 13 -25 22 -33z m-305 19 c3 -5 -1
-11 -9 -14 -9 -4 -12 -1 -8 9 6 16 10 17 17 5z m31 -38 c-4 -10 -8 -22 -9 -28
-4 -24 -25 -51 -26 -33 0 9 8 30 18 47 19 34 28 41 17 14z m165 7 c0 -5 -5
-10 -11 -10 -5 0 -7 5 -4 10 3 6 8 10 11 10 2 0 4 -4 4 -10z m-3710 -4 c0 -2
-7 -7 -16 -10 -8 -3 -12 -2 -9 4 6 10 25 14 25 6z m3780 -32 c0 -19 -4 -25
-15 -20 -8 3 -15 1 -15 -3 0 -5 7 -12 16 -15 9 -4 14 -9 11 -13 -4 -3 1 -12
11 -20 15 -13 15 -14 1 -10 -20 6 -39 -11 -39 -34 0 -20 -36 -67 -44 -58 -4 3
3 18 15 33 24 31 19 59 -8 49 -16 -6 -16 -5 -4 10 7 9 16 15 20 13 3 -2 7 8 8
22 0 14 8 31 17 38 9 6 16 16 16 23 0 6 2 11 5 11 3 0 5 -12 5 -26z m152 1 c3
-13 1 -22 -3 -19 -5 3 -9 -3 -9 -13 0 -10 -7 -27 -15 -37 -8 -11 -15 -26 -15
-34 0 -8 -20 -57 -45 -108 -25 -50 -45 -97 -45 -103 0 -6 -4 -11 -10 -11 -17
0 -12 17 30 100 22 44 38 80 35 80 -4 0 1 10 9 22 9 12 16 33 16 45 0 13 4 23
9 23 5 0 13 15 16 33 12 53 20 60 27 22z m-235 -10 c-4 -8 -11 -15 -17 -15 -7
0 -7 6 0 21 13 23 26 19 17 -6z m-27 11 c0 -3 -4 -8 -10 -11 -5 -3 -10 -1 -10
4 0 6 5 11 10 11 6 0 10 -2 10 -4z m173 -31 c-3 -13 -11 -29 -18 -35 -14 -12
-14 -7 0 38 10 30 23 28 18 -3z m30 -18 c-10 -12 -19 -24 -20 -26 -2 -2 -3 6
-3 18 0 12 4 19 10 16 6 -3 10 1 10 10 0 9 5 13 11 10 7 -5 4 -14 -8 -28z
m-297 -54 c-3 -4 -6 -1 -6 5 0 21 -16 13 -28 -13 -14 -31 -15 -38 -3 -30 5 3
12 1 15 -4 9 -13 -76 -171 -91 -171 -12 0 -7 29 7 40 9 7 60 97 60 106 0 4 -7
-1 -15 -12 -18 -24 -20 -3 -2 34 7 15 13 34 13 42 -1 8 6 22 14 30 14 14 16
14 29 -3 7 -10 10 -21 7 -24z m-71 28 c3 -5 1 -12 -5 -16 -5 -3 -10 1 -10 9 0
18 6 21 15 7z m-3125 -102 c27 -38 48 -69 46 -69 -5 0 -119 138 -130 158 -19
36 33 -20 84 -89z m3470 71 c0 -5 -8 -10 -17 -10 -15 0 -16 2 -3 10 19 12 20
12 20 0z m-365 -29 c-3 -12 -11 -18 -17 -15 -6 4 -8 -1 -4 -14 5 -13 1 -22
-10 -26 -21 -8 -11 41 14 65 21 20 26 17 17 -10z m318 7 c3 -10 1 -16 -3 -13
-5 3 -17 -6 -26 -20 -9 -14 -21 -25 -27 -25 -8 0 -8 3 0 11 6 6 9 18 6 27 -5
11 -3 13 7 7 10 -6 12 -4 7 7 -7 19 -2 25 17 25 8 0 17 -9 19 -19z m11 -73
c-29 -66 -50 -87 -38 -37 4 18 3 24 -4 17 -14 -14 -27 -59 -14 -51 22 13 19
-23 -4 -45 -26 -24 -45 -20 -24 6 7 9 10 18 7 21 -9 9 -29 -36 -23 -51 5 -13
32 -13 59 0 6 4 4 0 -5 -8 -10 -8 -15 -17 -11 -20 8 -9 -25 -57 -39 -57 -9 0
-9 3 -1 11 6 6 9 18 6 26 -4 10 -9 6 -19 -13 -16 -31 -18 -58 -4 -49 6 3 10 2
10 -3 0 -6 -7 -12 -15 -16 -11 -4 -15 1 -15 17 -1 21 -2 20 -25 -8 -14 -16
-25 -25 -25 -18 0 6 5 15 10 18 6 3 10 10 10 15 0 14 -27 1 -28 -13 -1 -26
-50 -109 -56 -98 -4 6 -12 9 -17 6 -12 -8 -11 2 1 26 6 10 7 19 2 19 -5 0 -15
-11 -22 -25 -12 -23 -30 -34 -30 -19 0 14 76 81 87 77 6 -2 17 6 24 19 7 13
19 30 28 38 19 18 85 139 79 145 -2 3 -32 -38 -67 -91 -35 -52 -66 -93 -69
-90 -3 3 -13 -1 -22 -9 -14 -13 -16 -11 -16 20 0 25 6 36 23 44 13 6 23 15 23
21 0 5 7 10 16 10 13 0 12 -5 -6 -31 -12 -16 -20 -32 -18 -35 11 -11 128 173
128 202 0 6 7 14 15 18 13 5 14 2 4 -15 -23 -44 2 -28 31 20 31 49 52 71 30
32 -6 -13 -7 -22 0 -26 5 -3 17 12 26 35 9 22 19 39 22 36 2 -3 -8 -35 -24
-71z m-223 31 c14 8 11 -32 -4 -44 -10 -9 -13 -4 -13 25 0 20 2 31 4 24 2 -6
8 -9 13 -5z m-3543 -21 c-3 -3 -9 2 -12 12 -6 14 -5 15 5 6 7 -7 10 -15 7 -18z
m-18 -24 c-1 -13 -3 -13 -15 3 -19 26 -19 42 0 26 8 -7 15 -20 15 -29z m3440
-21 c-7 -16 -16 -30 -21 -30 -12 0 -12 2 7 39 20 40 31 33 14 -9z m224 13 c-6
-25 -35 -63 -47 -63 -12 0 -17 54 -6 64 9 8 10 6 5 -9 -6 -16 -2 -15 21 8 15
15 29 27 30 27 2 0 0 -12 -3 -27z m-3604 -20 c0 -20 -16 -8 -23 17 -4 17 -3
19 9 9 8 -6 14 -18 14 -26z m3343 9 c-4 -15 -11 -20 -27 -18 -11 3 -23 5 -26
5 -3 1 9 9 25 20 35 22 36 22 28 -7z m-3329 -62 c26 -30 56 -65 67 -76 10 -12
19 -28 19 -36 0 -8 6 -20 13 -27 10 -10 9 -11 -5 -6 -10 4 -20 15 -23 26 -4
10 -13 19 -21 19 -14 0 -18 12 -15 39 2 7 -2 10 -8 6 -6 -3 -11 1 -11 10 0 11
-5 15 -15 11 -10 -3 -15 -1 -14 7 3 17 -11 47 -23 47 -5 0 -6 -5 -2 -12 4 -7
3 -8 -5 -4 -6 4 -9 11 -6 16 3 5 1 11 -5 15 -12 7 -14 28 -2 23 5 -1 30 -28
56 -58z m3455 27 c-9 -7 -20 -23 -24 -37 -4 -14 -17 -36 -30 -50 -13 -14 -26
-35 -30 -47 -3 -13 -12 -23 -18 -23 -17 0 -39 -38 -27 -45 12 -8 13 -35 1 -35
-24 0 -17 70 8 90 16 12 49 67 55 93 3 15 13 27 21 27 8 0 15 8 15 18 0 26 21
45 35 31 7 -7 5 -14 -6 -22z m-3434 -15 c-3 -3 -11 0 -18 7 -9 10 -8 11 6 5
10 -3 15 -9 12 -12z m3509 -46 c-3 -9 -10 -16 -15 -16 -6 0 -5 9 1 21 13 24
24 20 14 -5z m-274 5 c0 -6 -4 -13 -10 -16 -5 -3 -10 1 -10 9 0 9 5 16 10 16
6 0 10 -4 10 -9z m33 -13 c-4 -7 -8 -16 -8 -20 0 -3 -11 -19 -25 -35 -14 -15
-30 -39 -37 -53 -9 -18 -12 -20 -12 -7 -1 14 -21 27 -21 13 0 -2 -3 -12 -7
-22 -5 -12 -3 -15 6 -9 10 6 11 3 2 -14 -10 -17 -16 -19 -31 -11 -25 13 -30
13 -30 -5 0 -8 7 -15 15 -15 8 0 15 -4 15 -10 0 -23 27 -7 49 30 22 35 38 56
94 121 7 8 17 23 20 33 5 14 9 15 20 5 17 -16 10 -53 -14 -75 -10 -9 -19 -23
-19 -29 0 -7 -7 -18 -15 -25 -17 -14 -21 -35 -5 -25 18 11 11 -5 -22 -50 -18
-24 -38 -43 -45 -42 -13 2 -63 -52 -63 -69 0 -6 -30 -40 -66 -75 -82 -80 -93
-98 -59 -94 14 1 28 -2 31 -7 3 -5 12 -4 20 3 17 14 19 33 2 23 -8 -5 -9 -2
-5 10 4 10 7 22 7 27 0 5 5 9 12 9 7 0 23 11 38 25 26 25 74 26 64 0 -3 -7 2
-19 10 -27 11 -12 12 -18 3 -29 -7 -8 10 6 38 31 27 25 44 38 37 29 -15 -20
-6 -47 16 -51 11 -2 -1 -21 -43 -65 -62 -66 -75 -74 -75 -45 0 27 -20 44 -37
30 -24 -20 -23 -3 2 25 27 28 34 47 12 28 -8 -6 -17 -7 -21 -3 -4 4 -6 0 -4
-8 2 -9 -4 -15 -17 -15 -11 0 -38 -17 -59 -38 -30 -30 -41 -36 -47 -25 -12 18
-11 28 2 28 5 0 7 -5 3 -12 -4 -7 -3 -8 4 -4 11 7 17 36 8 36 -2 0 -11 3 -20
6 -11 4 -16 0 -16 -12 0 -16 -2 -16 -10 -4 -8 12 -13 11 -33 -8 -13 -12 -28
-22 -34 -22 -5 0 -18 -9 -27 -19 -19 -21 -56 -34 -56 -20 0 5 5 9 10 9 6 0 10
4 10 9 0 9 -48 6 -57 -3 -4 -3 -13 4 -21 15 -12 18 -13 23 -1 30 10 6 15 3 17
-12 3 -20 4 -20 17 -2 8 10 15 13 15 7 0 -29 53 -22 86 12 19 18 62 56 96 84
92 76 146 154 93 134 -8 -4 -12 -11 -8 -17 3 -6 1 -7 -5 -3 -8 5 -12 0 -12
-13 0 -12 -7 -21 -15 -21 -18 0 5 42 40 72 19 17 19 19 3 31 -22 17 -12 30 13
17 14 -8 21 -6 29 9 13 26 13 31 -5 31 -8 0 -15 5 -15 10 0 6 -5 10 -11 10 -6
0 -9 -9 -6 -19 3 -14 1 -18 -9 -14 -19 7 -19 9 22 65 27 36 39 46 45 36 6 -9
9 -7 9 9 0 13 13 31 33 45 17 12 43 33 57 45 28 26 35 29 23 11z m-4062 -85
c13 -16 12 -17 -3 -4 -10 7 -18 15 -18 17 0 8 8 3 21 -13z m4159 -24 c-7 -11
-14 -18 -17 -15 -3 3 0 12 7 21 18 21 23 19 10 -6z m-3234 -40 c19 -22 19 -22
-3 -8 -13 8 -23 17 -23 21 0 12 6 9 26 -13z m-991 1 c3 -5 1 -10 -4 -10 -6 0
-11 5 -11 10 0 6 2 10 4 10 3 0 8 -4 11 -10z m1045 -5 c11 -13 10 -14 -4 -9
-9 3 -16 10 -16 15 0 13 6 11 20 -6z m3210 -5 c0 -5 -5 -10 -11 -10 -5 0 -7 5
-4 10 3 6 8 10 11 10 2 0 4 -4 4 -10z m100 -25 c0 -8 -4 -15 -10 -15 -5 0 -7
7 -4 15 4 8 8 15 10 15 2 0 4 -7 4 -15z m-3290 -25 c0 -5 -2 -10 -4 -10 -3 0
-8 5 -11 10 -3 6 -1 10 4 10 6 0 11 -4 11 -10z m3309 -22 c-8 -14 -14 -18 -17
-10 -4 13 17 46 25 38 3 -2 -1 -15 -8 -28z m-123 -8 c8 0 14 -4 14 -10 0 -5 6
-7 13 -4 8 3 20 -2 27 -11 10 -12 16 -13 27 -4 28 24 21 2 -12 -36 -19 -22
-47 -58 -62 -80 -30 -42 -105 -117 -111 -110 -7 6 11 31 56 79 23 24 42 49 42
55 0 5 9 13 20 16 11 3 20 11 20 17 0 6 8 17 17 24 10 7 15 16 10 20 -7 7 -91
-77 -124 -123 -17 -26 -38 -31 -29 -8 3 8 1 15 -4 15 -6 0 -10 -4 -10 -10 0
-5 -5 -10 -11 -10 -8 0 -8 4 0 14 8 9 8 21 2 39 -5 14 -7 28 -3 33 4 4 -1 4
-11 1 -11 -4 -16 -3 -12 3 8 13 -1 13 -26 0 -12 -7 -19 -7 -19 -1 0 16 38 33
45 21 4 -6 11 -8 16 -5 5 4 9 1 9 -6 0 -8 4 -8 15 1 8 7 15 18 15 26 0 7 9 18
19 24 24 12 34 13 27 2 -3 -5 1 -9 8 -9 11 0 12 5 3 24 -5 13 -14 23 -19 23
-5 0 -6 5 -3 10 4 6 12 4 21 -5 9 -8 22 -15 30 -15z m-338 8 c-2 -6 -10 -14
-16 -16 -7 -2 -10 2 -6 12 7 18 28 22 22 4z m-3793 -38 c22 -42 18 -51 -5 -12
-20 33 -24 42 -15 42 2 0 11 -13 20 -30z m4025 10 c0 -5 -5 -10 -11 -10 -5 0
-7 5 -4 10 3 6 8 10 11 10 2 0 4 -4 4 -10z m-360 -18 c0 -4 -10 -13 -22 -21
-23 -14 -23 -14 -4 8 20 22 26 25 26 13z m-3594 -49 c-4 -4 -11 -1 -16 7 -16
25 -11 35 7 17 9 -9 13 -20 9 -24z m175 10 c13 -16 12 -17 -3 -4 -17 13 -22
21 -14 21 2 0 10 -8 17 -17z m3504 -3 c-10 -11 -13 -20 -7 -20 7 0 12 -5 12
-11 0 -8 -5 -8 -15 1 -8 7 -15 9 -15 5 0 -5 -3 -5 -7 -2 -7 8 26 47 40 47 6 0
2 -9 -8 -20z m-3601 -6 c3 -8 2 -12 -4 -9 -6 3 -10 10 -10 16 0 14 7 11 14 -7z
m3556 6 c0 -5 -5 -10 -11 -10 -5 0 -7 5 -4 10 3 6 8 10 11 10 2 0 4 -4 4 -10z
m-184 -30 c0 -12 -4 -16 -9 -11 -5 5 -6 14 -3 20 10 15 12 14 12 -9z m-3408
-11 c-19 -13 -28 -11 -28 5 0 9 7 12 21 9 16 -4 17 -8 7 -14z m3818 3 c1 -7 0
-8 -3 -2 -2 5 -9 8 -14 4 -5 -3 -9 0 -9 6 0 15 23 7 26 -8z m-3646 -7 c7 -9 8
-15 2 -15 -5 0 -12 7 -16 15 -3 8 -4 15 -2 15 2 0 9 -7 16 -15z m3300 11 c0
-3 -4 -8 -10 -11 -5 -3 -10 -1 -10 4 0 6 5 11 10 11 6 0 10 -2 10 -4z m110 0
c0 -2 3 -12 6 -20 5 -12 2 -15 -11 -10 -14 6 -16 3 -10 -17 4 -17 3 -20 -3
-10 -5 7 -15 10 -21 7 -6 -4 -11 -1 -11 6 -1 7 -16 -5 -35 -26 -19 -22 -35
-35 -35 -30 1 16 60 75 70 69 5 -3 15 3 22 15 11 18 28 27 28 16z m-1410 -16
c12 -8 11 -10 -7 -10 -13 0 -23 5 -23 10 0 13 11 13 30 0z m185 -10 c-3 -5
-12 -10 -18 -10 -7 0 -6 4 3 10 19 12 23 12 15 0z m1002 -16 c1 -24 0 -25 -15
-10 -15 15 -15 18 -2 26 8 5 15 10 15 10 0 0 1 -12 2 -26z m48 -19 c-22 -18
-42 -31 -45 -28 -2 2 13 19 35 38 22 18 42 31 45 28 2 -2 -13 -19 -35 -38z
m-1450 25 c3 -5 2 -10 -4 -10 -5 0 -13 5 -16 10 -3 6 -2 10 4 10 5 0 13 -4 16
-10z m-1656 -62 c60 -60 66 -87 17 -72 -10 4 -22 0 -27 -7 -6 -11 -11 -11 -21
-1 -9 9 -9 12 5 12 9 0 17 7 17 15 0 8 -4 15 -9 15 -5 0 -12 8 -16 18 -3 9 10
2 29 -17 20 -19 38 -32 42 -29 3 3 -20 31 -50 61 -51 50 -64 67 -52 67 3 0 32
-28 65 -62z m1618 56 c-3 -3 -12 -4 -19 -1 -8 3 -5 6 6 6 11 1 17 -2 13 -5z
m1938 -4 c-3 -5 -12 -10 -18 -10 -7 0 -6 4 3 10 19 12 23 12 15 0z m-3855 -9
c0 -6 -4 -13 -10 -16 -5 -3 -10 1 -10 9 0 9 5 16 10 16 6 0 10 -4 10 -9z m220
-6 c7 -9 8 -15 2 -15 -5 0 -12 7 -16 15 -3 8 -4 15 -2 15 2 0 9 -7 16 -15z
m3390 -2 c0 -5 -12 -17 -27 -27 -25 -18 -25 -11 0 22 10 13 27 16 27 5z m-300
-14 c0 -5 -4 -8 -9 -5 -5 4 -12 0 -14 -6 -3 -8 -6 -6 -6 5 -1 9 6 17 14 17 8
0 15 -5 15 -11z m-3136 -49 c-6 -6 -10 -2 -11 12 -2 16 1 18 10 9 7 -7 8 -14
1 -21z m3324 16 c-10 -7 -14 -17 -10 -21 4 -5 1 -5 -7 0 -12 7 -11 10 4 22 24
17 36 17 13 -1z m-173 -16 c-10 -11 -23 -20 -29 -20 -6 0 0 9 14 20 32 25 38
25 15 0z m215 6 c0 -3 -4 -8 -10 -11 -5 -3 -10 -1 -10 4 0 6 5 11 10 11 6 0
10 -2 10 -4z m-2140 -16 c0 -5 -7 -7 -15 -4 -8 4 -15 8 -15 10 0 2 7 4 15 4 8
0 15 -4 15 -10z m-1186 -16 c3 -8 2 -12 -4 -9 -6 3 -10 10 -10 16 0 14 7 11
14 -7z m1116 -14 c44 -18 60 -28 40 -24 -30 5 -135 52 -120 53 3 1 39 -13 80
-29z m1775 20 c-3 -5 -10 -10 -16 -10 -5 0 -9 5 -9 10 0 6 7 10 16 10 8 0 12
-4 9 -10z m99 -15 c3 -9 -3 -19 -17 -26 -12 -7 -25 -17 -29 -22 -3 -6 -15 -11
-25 -12 -10 0 -24 -4 -31 -9 -6 -4 -12 -3 -12 3 0 16 40 35 40 19 1 -7 9 -3
20 10 10 13 23 23 27 23 4 0 7 7 5 15 -4 19 14 18 22 -1z m696 8 c0 -5 -5 -15
-10 -23 -7 -12 -9 -10 -7 8 1 19 17 33 17 15z m-1711 -7 c-12 -10 -60 -16 -54
-6 3 5 18 10 32 10 15 0 24 -2 22 -4z m1082 -9 c-6 -8 -8 -16 -5 -20 3 -3 -4
-3 -15 0 -24 6 -11 33 16 33 12 0 13 -3 4 -13z m-1761 -7 c20 -13 -5 -13 -35
0 l-20 9 20 0 c11 0 27 -4 35 -9z m415 0 c13 -6 15 -9 5 -9 -8 -1 -25 -4 -37
-7 -17 -5 -23 -2 -23 10 0 17 23 20 55 6z m125 0 c-8 -5 -33 -9 -55 -9 l-40 2
35 7 c56 12 78 12 60 0z m63 3 c-7 -2 -21 -2 -30 0 -10 3 -4 5 12 5 17 0 24
-2 18 -5z m-1822 -44 c19 -17 25 -26 14 -20 -28 15 -55 37 -55 45 0 11 6 7 41
-25z m1976 25 c-3 -3 -12 -4 -19 -1 -8 3 -5 6 6 6 11 1 17 -2 13 -5z m130 0
c-3 -3 -12 -4 -19 -1 -8 3 -5 6 6 6 11 1 17 -2 13 -5z m-947 -14 c13 -8 13
-10 -2 -10 -9 0 -20 5 -23 10 -8 13 5 13 25 0z m277 -16 c-9 -9 -28 6 -21 18
4 6 10 6 17 -1 6 -6 8 -13 4 -17z m593 16 c0 -5 -10 -10 -22 -9 -22 0 -22 1
-3 9 11 5 21 9 23 9 1 1 2 -3 2 -9z m37 4 c-3 -3 -12 -4 -19 -1 -8 3 -5 6 6 6
11 1 17 -2 13 -5z m-811 -32 c-8 -7 -76 8 -76 17 0 5 18 4 40 -1 23 -6 39 -13
36 -16z m1648 8 c-16 -16 -127 -81 -131 -77 -3 4 36 33 105 79 26 17 44 16 26
-2z m335 -26 c-14 -18 -24 -11 -15 11 3 9 11 13 16 10 8 -5 7 -11 -1 -21z
m-3254 6 c3 -5 1 -10 -4 -10 -6 0 -11 5 -11 10 0 6 2 10 4 10 3 0 8 -4 11 -10z
m2920 -10 c-3 -5 -12 -10 -18 -10 -7 0 -6 4 3 10 19 12 23 12 15 0z m249 4
c19 -7 3 -34 -19 -34 -7 0 -30 -14 -51 -31 -35 -28 -90 -67 -133 -94 -62 -39
-77 -50 -88 -64 -9 -10 -13 -11 -13 -2 0 8 -7 10 -20 6 -23 -7 -28 10 -5 19
21 8 19 27 -2 20 -16 -5 -16 -4 -3 6 11 9 12 13 3 17 -22 8 -14 20 33 48 35
20 43 30 33 36 -10 6 -8 9 9 9 12 0 22 5 22 11 0 5 5 7 11 3 12 -7 -50 -75
-63 -68 -3 2 -14 -3 -23 -13 -16 -15 -16 -18 -1 -28 9 -7 12 -16 8 -20 -4 -5
-1 -5 6 -1 7 4 10 11 7 16 -3 5 -1 11 5 15 5 3 10 -1 10 -11 0 -14 3 -14 15
-4 12 10 13 15 4 21 -15 9 5 39 25 39 6 0 4 -6 -5 -13 -14 -10 -14 -14 -3 -25
13 -12 18 -8 15 12 -1 4 6 15 16 22 17 13 17 14 -2 8 l-20 -6 20 17 c11 9 32
19 47 22 15 3 33 12 40 21 11 13 10 14 -7 5 -23 -12 -75 -12 -75 0 0 11 52 29
59 20 11 -14 80 -14 88 1 4 7 15 16 23 19 8 3 16 6 17 6 1 1 9 -2 17 -5z
m-3044 -24 c0 -5 -2 -10 -4 -10 -3 0 -8 5 -11 10 -3 6 -1 10 4 10 6 0 11 -4
11 -10z m-20 -20 c0 -5 -2 -10 -4 -10 -3 0 -8 5 -11 10 -3 6 -1 10 4 10 6 0
11 -4 11 -10z m-30 -22 c0 -6 -6 -5 -15 2 -8 7 -15 14 -15 16 0 2 7 1 15 -2 8
-4 15 -11 15 -16z m185 -18 c3 -5 2 -10 -4 -10 -5 0 -13 5 -16 10 -3 6 -2 10
4 10 5 0 13 -4 16 -10z m2366 -10 c-25 -21 -13 -27 20 -10 10 6 19 8 19 6 0
-3 -13 -12 -30 -21 -17 -9 -30 -11 -30 -5 0 5 -8 10 -17 10 -11 0 -4 8 17 19
45 25 51 25 21 1z m-2375 -28 c-4 -3 -14 2 -24 12 -16 18 -16 18 6 6 13 -6 21
-14 18 -18z m2314 -2 c0 -5 -4 -10 -10 -10 -5 0 -10 5 -10 10 0 6 5 10 10 10
6 0 10 -4 10 -10z m-1 -17 c12 3 19 2 16 -3 -7 -12 -65 -18 -65 -7 0 5 -7 4
-15 -3 -9 -7 -18 -10 -21 -7 -3 3 7 12 23 20 19 10 30 12 34 5 4 -6 16 -8 28
-5z m91 -3 c-24 -15 -37 -11 -16 5 11 8 22 12 25 9 3 -3 -1 -9 -9 -14z m154
-5 c3 -8 1 -15 -4 -15 -6 0 -10 7 -10 15 0 8 2 15 4 15 2 0 6 -7 10 -15z m-27
-45 c1 -20 -4 -30 -20 -38 -15 -7 -17 -11 -6 -11 8 -1 20 4 27 11 6 6 15 8 19
4 5 -4 -1 -14 -12 -23 -11 -8 -19 -18 -18 -23 2 -5 -7 -14 -20 -20 -21 -11
-21 -10 -3 4 25 20 18 20 -28 1 -20 -8 -36 -20 -36 -26 0 -5 -4 -8 -9 -4 -5 3
-34 -5 -63 -18 -29 -13 -73 -33 -98 -44 -125 -57 -157 -62 -157 -28 0 14 3 25
7 25 5 0 17 3 27 6 16 6 16 5 -2 -9 -29 -24 -2 -21 47 4 25 13 44 17 46 11 2
-7 13 -5 30 4 15 8 33 14 41 14 8 0 12 3 8 6 -3 4 -19 2 -34 -3 -35 -12 -54
-7 -46 13 4 12 15 14 44 9 36 -6 57 7 27 17 -18 6 25 28 62 33 17 2 28 0 25
-6 -9 -13 2 -11 35 6 36 19 39 28 5 15 -46 -17 -26 -2 31 24 50 23 55 29 50
49 -3 15 -1 24 7 24 6 0 13 -13 14 -27z m-2416 3 c13 -16 12 -17 -3 -4 -17 13
-22 21 -14 21 2 0 10 -8 17 -17z m324 7 c4 -6 -6 -10 -22 -9 -27 0 -24 4 14
18 1 1 5 -3 8 -9z m1733 -40 c1 -16 -3 -30 -8 -30 -6 0 -9 4 -6 9 4 5 -3 7
-15 4 -16 -4 -17 -8 -7 -14 10 -7 10 -9 -2 -10 -8 0 -28 -2 -45 -4 l-30 -4 25
19 c14 10 25 24 25 31 0 7 6 14 13 17 7 2 10 -2 6 -12 -4 -12 -2 -15 9 -10 9
3 18 12 21 20 8 21 12 17 14 -16z m97 20 c-3 -5 -11 -10 -16 -10 -6 0 -7 5 -4
10 3 6 11 10 16 10 6 0 7 -4 4 -10z m-1995 -78 c-12 -4 -107 47 -123 66 -6 9
21 -2 60 -24 40 -21 68 -40 63 -42z m209 62 c2 -2 2 -7 -2 -10 -8 -9 -47 6
-47 17 0 9 37 3 49 -7z m1991 12 c0 -3 -4 -8 -10 -11 -5 -3 -10 -1 -10 4 0 6
5 11 10 11 6 0 10 -2 10 -4z m-425 -14 c-6 -4 -11 -15 -12 -24 -1 -34 -3 -38
-18 -38 -20 0 -19 26 1 34 13 5 14 9 4 21 -10 13 -9 15 11 15 13 0 19 -4 14
-8z m171 -7 c-11 -8 -25 -15 -30 -15 -6 1 0 7 14 15 32 19 40 18 16 0z m224 8
c0 -5 -12 -14 -28 -20 l-27 -13 24 20 c25 22 31 24 31 13z m-1915 -33 c3 -5 1
-10 -4 -10 -6 0 -11 5 -11 10 0 6 2 10 4 10 3 0 8 -4 11 -10z m1355 -10 c0 -5
-5 -10 -11 -10 -5 0 -7 5 -4 10 3 6 8 10 11 10 2 0 4 -4 4 -10z m-1285 -10 c3
-5 1 -10 -4 -10 -6 0 -11 5 -11 10 0 6 2 10 4 10 3 0 8 -4 11 -10z m1698 3
c-7 -2 -19 -2 -25 0 -7 3 -2 5 12 5 14 0 19 -2 13 -5z m-466 -9 c-3 -3 -12 -4
-19 -1 -8 3 -5 6 6 6 11 1 17 -2 13 -5z m49 -19 c9 -7 9 -12 0 -17 -7 -5 -5
-8 6 -8 9 0 19 5 21 10 3 6 4 5 3 -2 -1 -7 -17 -18 -35 -26 -30 -11 -33 -11
-28 2 5 11 -3 17 -27 21 -18 4 -33 12 -33 18 0 15 77 16 93 2z m904 10 c0 -10
-111 -78 -117 -72 -8 9 -9 8 57 46 59 33 60 34 60 26z m-760 -10 c0 -2 -10 -9
-22 -15 -22 -11 -22 -10 -4 4 21 17 26 19 26 11z m191 -13 c-7 -2 -18 1 -23 6
-8 8 -4 9 13 5 13 -4 18 -8 10 -11z m-1481 4 c0 -2 -7 -7 -16 -10 -8 -3 -12
-2 -9 4 6 10 25 14 25 6z m1000 -28 c-15 -12 -39 -18 -76 -18 -41 0 -54 -4
-54 -15 0 -8 -4 -15 -10 -15 -5 0 -7 7 -3 16 5 15 0 16 -41 10 -37 -6 -47 -5
-44 5 3 9 32 14 87 17 45 2 94 10 108 17 38 20 63 7 33 -17z m420 22 c-8 -5
-11 -10 -7 -10 5 0 5 -4 2 -10 -4 -6 -11 -5 -19 3 -12 10 -11 13 3 19 24 10
38 9 21 -2z m-1310 -23 c0 -7 -9 -13 -20 -13 -25 0 -26 13 -2 19 9 3 18 5 20
6 1 0 2 -5 2 -12z m47 7 c-3 -3 -12 -4 -19 -1 -8 3 -5 6 6 6 11 1 17 -2 13 -5z
m1203 -14 c-7 -4 -9 -13 -6 -19 4 -6 4 -11 -1 -10 -4 1 -28 -7 -53 -18 -74
-34 -86 -36 -87 -13 -1 14 4 20 18 20 11 0 18 4 14 9 -3 5 0 13 6 17 6 3 14 2
18 -4 9 -16 51 -3 45 13 -4 8 3 15 18 17 29 5 44 -2 28 -12z m-600 -11 c0 -5
-21 -9 -47 -9 -32 0 -43 3 -34 9 18 12 81 12 81 0z m340 7 c0 -2 -9 -6 -20 -9
-11 -3 -20 -1 -20 4 0 5 9 9 20 9 11 0 20 -2 20 -4z m374 -5 c3 -5 -6 -11 -21
-14 -26 -5 -26 -4 -8 9 22 17 22 17 29 5z m-899 -10 c-3 -6 -15 -8 -27 -6 -34
7 -34 15 1 15 18 0 30 -4 26 -9z m78 2 c3 -5 1 -17 -4 -28 -7 -19 -10 -18 -13
5 0 6 -8 15 -16 20 -12 8 -11 10 7 10 12 0 24 -3 26 -7z m272 -13 c3 -5 2 -10
-4 -10 -5 0 -13 5 -16 10 -3 6 -2 10 4 10 5 0 13 -4 16 -10z m-305 -10 c0 -12
-43 -20 -70 -13 l-25 7 23 5 c37 9 72 10 72 1z m103 -6 c-2 -5 -7 -9 -13 -8
-27 3 -31 5 -26 13 8 12 42 7 39 -5z m77 0 c0 -2 -9 -4 -21 -4 -11 0 -18 4
-14 10 5 8 35 3 35 -6z m800 6 c0 -5 -5 -10 -11 -10 -5 0 -7 5 -4 10 3 6 8 10
11 10 2 0 4 -4 4 -10z m-1220 -15 c10 -13 9 -15 -8 -15 -15 0 -20 5 -16 15 4
8 7 15 9 15 1 0 8 -7 15 -15z m-336 -10 c3 -9 0 -15 -10 -15 -8 0 -13 4 -10 9
4 5 0 12 -6 14 -8 4 -7 6 3 6 9 1 19 -6 23 -14z m1506 11 c0 -3 -4 -8 -10 -11
-5 -3 -10 -1 -10 4 0 6 5 11 10 11 6 0 10 -2 10 -4z m-1424 -31 c3 -19 -4 -18
-36 1 -24 14 -24 15 -2 11 12 -3 22 0 22 6 0 15 13 0 16 -18z m314 15 c0 -5
-2 -10 -4 -10 -3 0 -8 5 -11 10 -3 6 -1 10 4 10 6 0 11 -4 11 -10z m918 -12
c3 -16 -19 -28 -63 -34 -11 -1 -29 -6 -40 -10 -17 -7 -18 -6 -5 8 8 9 17 15
20 13 7 -4 54 15 48 20 -2 2 -27 -2 -56 -9 -63 -17 -69 -7 -9 16 53 20 101 19
105 -4z m-280 -7 c3 -8 0 -11 -7 -7 -6 4 -11 3 -11 -2 0 -10 -89 -32 -134 -32
-33 0 -49 31 -24 46 7 4 8 2 4 -4 -12 -19 11 -19 67 1 48 17 99 16 105 -2z
m-842 -28 c-10 -10 -19 5 -10 18 6 11 8 11 12 0 2 -7 1 -15 -2 -18z m61 21
c-3 -3 -12 -4 -19 -1 -8 3 -5 6 6 6 11 1 17 -2 13 -5z m54 -21 c1 -17 2 -17 6
0 5 18 28 23 38 8 7 -13 -26 -30 -53 -28 -14 1 -22 8 -22 19 0 23 30 24 31 1z
m347 8 c20 -1 31 -5 27 -11 -4 -6 -11 -7 -17 -4 -7 5 -9 2 -6 -8 4 -8 -2 -20
-14 -27 -11 -7 -17 -8 -13 -2 3 6 -1 11 -9 11 -9 0 -16 -3 -16 -7 0 -8 -180
-6 -188 2 -9 8 20 45 36 44 14 0 14 -2 -3 -10 -15 -7 -11 -8 15 -3 19 3 50 8
69 10 18 2 36 6 39 8 3 3 14 4 26 1 12 -2 36 -4 54 -4z m79 -8 c13 -16 14 -16
10 -2 -4 13 -1 15 14 12 10 -3 19 -9 19 -14 0 -5 6 -8 13 -6 6 1 11 -4 10 -10
-2 -7 2 -13 8 -13 5 0 7 -4 4 -10 -3 -5 -15 -10 -27 -10 -17 0 -18 3 -8 15 10
12 4 14 -43 12 l-55 -3 15 23 c18 28 22 28 40 6z m103 8 c0 -6 -4 -12 -8 -15
-5 -3 -9 1 -9 9 0 8 4 15 9 15 4 0 8 -4 8 -9z m-577 -18 c-7 -2 -21 -2 -30 0
-10 3 -4 5 12 5 17 0 24 -2 18 -5z"/>
<path d="M4005 5920 c-16 -7 -17 -9 -3 -9 9 -1 20 4 23 9 7 11 7 11 -20 0z"/>
<path d="M3480 4135 c-7 -9 -11 -18 -8 -20 3 -3 11 1 18 10 7 9 11 18 8 20 -3
3 -11 -1 -18 -10z"/>
<path d="M3275 3900 c-3 -5 -1 -10 4 -10 6 0 11 5 11 10 0 6 -2 10 -4 10 -3 0
-8 -4 -11 -10z"/>
<path d="M3236 3765 c-3 -9 -6 -22 -5 -28 0 -7 5 -1 10 12 5 13 8 26 5 28 -2
2 -6 -3 -10 -12z"/>
<path d="M3200 3630 c0 -5 5 -10 10 -10 6 0 10 5 10 10 0 6 -4 10 -10 10 -5 0
-10 -4 -10 -10z"/>
<path d="M3196 3589 c-13 -55 -14 -81 -7 -102 6 -16 10 -3 13 48 5 73 3 94 -6
54z"/>
<path d="M3181 3403 c0 -28 4 -55 9 -58 11 -7 11 35 0 80 -7 26 -8 23 -9 -22z"/>
<path d="M3196 3225 c5 -78 21 -168 23 -132 1 9 7 17 14 17 9 0 9 2 -1 9 -8 5
-18 42 -23 87 -13 107 -20 117 -13 19z"/>
<path d="M3353 2530 c23 -32 22 -43 -3 -30 -31 16 -27 -23 5 -44 29 -19 44
-21 27 -4 -17 17 -15 29 4 26 30 -5 23 16 -14 47 -33 27 -35 28 -19 5z"/>
<path d="M3410 2460 c0 -5 5 -10 11 -10 5 0 7 5 4 10 -3 6 -8 10 -11 10 -2 0
-4 -4 -4 -10z"/>
<path d="M3266 2441 c-7 -11 31 -61 46 -61 7 0 1 11 -11 24 -13 14 -20 29 -16
35 3 6 2 11 -4 11 -5 0 -12 -4 -15 -9z"/>
<path d="M3390 2410 c0 -5 5 -10 11 -10 5 0 7 5 4 10 -3 6 -8 10 -11 10 -2 0
-4 -4 -4 -10z"/>
<path d="M3610 2371 c0 -5 5 -13 10 -16 6 -3 10 -2 10 4 0 5 -4 13 -10 16 -5
3 -10 2 -10 -4z"/>
<path d="M3650 2325 c0 -8 7 -15 16 -15 14 0 14 3 4 15 -7 8 -14 15 -16 15 -2
0 -4 -7 -4 -15z"/>
<path d="M3399 2282 c7 -12 17 -20 22 -16 6 3 9 7 7 8 -2 1 -12 8 -22 16 -18
14 -19 14 -7 -8z"/>
<path d="M3690 2286 c0 -3 31 -28 70 -57 40 -29 67 -56 63 -62 -5 -8 -8 -7
-11 1 -2 7 -11 12 -20 12 -15 -1 31 -44 48 -45 3 -1 32 -15 65 -32 72 -36 160
-66 178 -60 6 2 0 8 -15 12 -24 6 -26 11 -21 36 4 24 2 29 -13 29 -11 0 -32 9
-48 19 -17 11 -33 18 -38 15 -10 -6 -82 31 -114 59 -15 13 -36 21 -52 20 -15
-2 -21 0 -14 3 17 8 15 27 -3 20 -9 -3 -20 3 -27 14 -11 17 -48 29 -48 16z"/>
<path d="M3430 2254 c1 -18 30 -49 30 -32 0 8 -7 21 -15 28 -8 7 -15 9 -15 4z"/>
<path d="M4075 2070 c28 -12 37 -12 30 0 -3 6 -16 10 -28 9 -21 0 -21 -1 -2
-9z"/>
<path d="M4135 2050 c4 -6 11 -8 16 -5 14 9 11 15 -7 15 -8 0 -12 -5 -9 -10z"/>
<path d="M4130 2020 c0 -12 48 -25 58 -16 8 9 -18 26 -40 26 -10 0 -18 -4 -18
-10z"/>
<path d="M4595 1940 c-7 -12 29 -12 65 0 21 7 19 8 -17 9 -23 1 -45 -3 -48 -9z"/>
<path d="M6801 3204 c0 -11 3 -14 6 -6 3 7 2 16 -1 19 -3 4 -6 -2 -5 -13z"/>
<path d="M6741 3003 c-1 -14 5 -23 14 -23 8 0 15 5 15 11 0 5 -4 8 -9 4 -5 -3
-12 3 -14 12 -4 14 -5 13 -6 -4z"/>
<path d="M6731 2954 c0 -11 3 -14 6 -6 3 7 2 16 -1 19 -3 4 -6 -2 -5 -13z"/>
<path d="M7030 2924 c0 -8 5 -12 10 -9 6 3 10 10 10 16 0 5 -4 9 -10 9 -5 0
-10 -7 -10 -16z"/>
<path d="M7020 2803 c0 -22 2 -25 10 -13 13 20 13 40 0 40 -5 0 -10 -12 -10
-27z"/>
<path d="M6770 2339 c0 -5 5 -7 10 -4 6 3 10 8 10 11 0 2 -4 4 -10 4 -5 0 -10
-5 -10 -11z"/>
<path d="M6756 2303 c-6 -14 -5 -15 5 -6 7 7 10 15 7 18 -3 3 -9 -2 -12 -12z"/>
<path d="M6656 2195 c-3 -8 -1 -15 3 -15 5 0 11 7 15 15 3 8 1 15 -3 15 -5 0
-11 -7 -15 -15z"/>
<path d="M6468 2290 c-10 -9 -18 -24 -18 -33 0 -8 -6 -18 -12 -20 -10 -4 -10
-6 0 -6 6 -1 12 -8 12 -16 0 -8 5 -15 11 -15 6 0 8 7 5 16 -4 9 1 28 9 41 22
33 16 56 -7 33z"/>
<path d="M6369 2144 c-36 -19 -62 -51 -54 -64 5 -8 22 2 49 29 23 23 46 38 51
34 4 -5 5 -2 1 5 -9 14 -13 14 -47 -4z"/>
<path d="M6344 1978 l-19 -23 23 19 c21 18 27 26 19 26 -2 0 -12 -10 -23 -22z"/>
<path d="M6380 1895 c-8 -9 -8 -15 -2 -15 12 0 26 19 19 26 -2 2 -10 -2 -17
-11z"/>
<path d="M6245 1870 c-3 -5 -1 -10 4 -10 6 0 11 5 11 10 0 6 -2 10 -4 10 -3 0
-8 -4 -11 -10z"/>
<path d="M6522 2058 c-19 -21 -19 -25 -5 -43 11 -14 14 -15 10 -4 -3 9 1 28 8
43 17 32 15 33 -13 4z"/>
<path d="M6549 2043 c-13 -16 -12 -17 4 -4 9 7 17 15 17 17 0 8 -8 3 -21 -13z"/>
<path d="M5865 1740 c-3 -5 1 -10 10 -10 9 0 13 5 10 10 -3 6 -8 10 -10 10 -2
0 -7 -4 -10 -10z"/>
<path d="M5909 1693 c-13 -16 -12 -17 4 -4 9 7 17 15 17 17 0 8 -8 3 -21 -13z"/>
<path d="M5458 1479 c-28 -16 -21 -30 7 -17 14 6 25 15 25 20 0 11 -11 10 -32
-3z"/>
<path d="M4958 1463 c7 -3 16 -2 19 1 4 3 -2 6 -13 5 -11 0 -14 -3 -6 -6z"/>
<path d="M4490 1300 c0 -6 12 -10 27 -10 29 0 24 12 -7 17 -11 2 -20 -2 -20
-7z"/>
<path d="M4423 1293 c9 -2 25 -2 35 0 9 3 1 5 -18 5 -19 0 -27 -2 -17 -5z"/>
<path d="M4028 6172 c-16 -2 -28 -8 -28 -14 0 -6 11 -7 27 -3 47 11 47 23 1
17z"/>
<path d="M3910 6142 c-49 -12 -58 -17 -38 -20 15 -2 36 2 47 7 11 6 31 11 45
11 14 0 26 5 26 10 0 12 1 12 -80 -8z"/>
<path d="M1940 6125 c-7 -9 -8 -15 -2 -15 5 0 12 7 16 15 3 8 4 15 2 15 -2 0
-9 -7 -16 -15z"/>
<path d="M3955 6120 c-3 -5 -2 -10 4 -10 5 0 13 5 16 10 3 6 2 10 -4 10 -5 0
-13 -4 -16 -10z"/>
<path d="M7373 6068 c6 -16 15 -28 19 -28 4 0 5 -6 2 -14 -3 -8 8 -30 25 -49
17 -19 31 -39 31 -43 1 -10 36 -54 43 -54 2 0 4 12 4 28 0 15 -2 21 -4 15 -6
-18 -23 -16 -23 2 0 8 5 15 10 15 6 0 3 11 -6 25 -9 14 -19 23 -22 21 -3 -3 1
-12 8 -21 7 -9 8 -15 2 -15 -5 0 -15 13 -20 30 -6 16 -15 35 -21 42 -6 7 -22
27 -36 43 l-25 30 13 -27z"/>
<path d="M1870 6069 c0 -5 5 -7 10 -4 6 3 10 8 10 11 0 2 -4 4 -10 4 -5 0 -10
-5 -10 -11z"/>
<path d="M1995 6070 c3 -5 8 -10 11 -10 2 0 4 5 4 10 0 6 -5 10 -11 10 -5 0
-7 -4 -4 -10z"/>
<path d="M1486 6025 c-3 -8 -1 -15 4 -15 6 0 10 7 10 15 0 8 -2 15 -4 15 -2 0
-6 -7 -10 -15z"/>
<path d="M1800 5990 c-8 -5 -11 -12 -7 -16 4 -4 13 -2 19 4 15 15 7 24 -12 12z"/>
<path d="M3460 5976 c-60 -25 -149 -72 -165 -87 -5 -6 15 1 45 15 78 35 180
87 180 92 0 5 2 6 -60 -20z"/>
<path d="M2105 5949 c-4 -6 -5 -13 -2 -16 7 -7 27 6 27 18 0 12 -17 12 -25 -2z"/>
<path d="M1760 5941 c0 -17 18 -21 24 -6 3 9 0 15 -9 15 -8 0 -15 -4 -15 -9z"/>
<path d="M3465 5930 c4 -6 11 -8 16 -5 14 9 11 15 -7 15 -8 0 -12 -5 -9 -10z"/>
<path d="M1735 5909 c-4 -6 -5 -13 -2 -16 7 -7 27 6 27 18 0 12 -17 12 -25 -2z"/>
<path d="M3558 5913 c-10 -2 -18 -9 -18 -14 0 -6 10 -5 23 2 37 20 36 23 -5
12z"/>
<path d="M3680 5900 c-25 -10 -37 -19 -27 -19 18 -1 77 25 77 34 0 6 3 7 -50
-15z"/>
<path d="M7862 5899 c-10 -16 -9 -19 7 -19 13 0 30 -18 51 -56 42 -72 50 -63
11 13 -37 75 -53 89 -69 62z"/>
<path d="M3760 5889 c0 -5 5 -7 10 -4 6 3 10 8 10 11 0 2 -4 4 -10 4 -5 0 -10
-5 -10 -11z"/>
<path d="M1520 5880 c0 -5 5 -10 10 -10 6 0 10 5 10 10 0 6 -4 10 -10 10 -5 0
-10 -4 -10 -10z"/>
<path d="M3713 5880 c-13 -5 -23 -12 -23 -15 0 -10 44 2 48 13 4 14 4 14 -25
2z"/>
<path d="M1697 5851 c-12 -21 -23 -28 -35 -25 -14 5 -14 3 2 -6 22 -15 60 16
54 44 -2 14 -7 10 -21 -13z"/>
<path d="M3245 5867 c-11 -7 -40 -26 -65 -43 -25 -17 -67 -43 -94 -58 -26 -15
-56 -36 -65 -45 -10 -10 -38 -32 -62 -49 -58 -41 -130 -106 -102 -92 12 5 25
15 28 20 10 16 231 171 313 219 67 40 95 62 75 60 -4 -1 -17 -6 -28 -12z"/>
<path d="M7495 5861 c-3 -5 -1 -12 5 -16 5 -3 10 1 10 9 0 18 -6 21 -15 7z"/>
<path d="M1515 5830 c-3 -5 -1 -10 4 -10 6 0 11 5 11 10 0 6 -2 10 -4 10 -3 0
-8 -4 -11 -10z"/>
<path d="M3411 5812 c0 -27 0 -27 10 -4 5 13 13 21 19 17 5 -3 17 -2 25 2 11
7 5 9 -20 10 -32 1 -35 -2 -34 -25z"/>
<path d="M4096 5821 c-4 -5 3 -7 14 -4 23 6 26 13 6 13 -8 0 -17 -4 -20 -9z"/>
<path d="M1417 5804 c-4 -4 -7 -14 -7 -23 0 -11 3 -12 11 -4 6 6 10 16 7 23
-2 6 -7 8 -11 4z"/>
<path d="M3715 5800 c-3 -6 1 -7 9 -4 18 7 21 14 7 14 -6 0 -13 -4 -16 -10z"/>
<path d="M3915 5791 c-3 -5 -1 -12 5 -16 5 -3 10 1 10 9 0 18 -6 21 -15 7z"/>
<path d="M3460 5770 c-9 -6 -10 -10 -3 -10 6 0 15 5 18 10 8 12 4 12 -15 0z"/>
<path d="M3530 5780 c-1 -3 -3 -13 -5 -23 -2 -10 -12 -25 -22 -33 -17 -13 -17
-13 3 -14 31 0 46 22 35 51 -5 13 -10 22 -11 19z"/>
<path d="M3728 5773 c7 -3 16 -2 19 1 4 3 -2 6 -13 5 -11 0 -14 -3 -6 -6z"/>
<path d="M2286 5735 c-46 -31 -51 -33 -67 -19 -18 16 -36 4 -24 -17 6 -9 -36
-61 -123 -151 -20 -21 -33 -41 -29 -44 4 -4 2 -13 -4 -20 -12 -14 -6 -44 8
-44 11 0 65 68 67 85 1 8 15 24 32 36 16 12 45 38 65 56 20 19 40 33 45 31 6
-2 26 15 44 37 19 22 43 47 53 56 16 15 16 17 1 23 -19 7 -10 11 -68 -29z"/>
<path d="M3978 5753 c7 -3 16 -2 19 1 4 3 -2 6 -13 5 -11 0 -14 -3 -6 -6z"/>
<path d="M7970 5739 c7 -11 14 -19 16 -16 7 7 -7 37 -17 37 -6 0 -5 -9 1 -21z"/>
<path d="M7990 5696 c0 -9 5 -16 10 -16 6 0 10 4 10 9 0 6 -4 13 -10 16 -5 3
-10 -1 -10 -9z"/>
<path d="M3780 5690 c0 -5 7 -7 15 -4 8 4 15 8 15 10 0 2 -7 4 -15 4 -8 0 -15
-4 -15 -10z"/>
<path d="M3353 5670 c-3 -10 -14 -22 -24 -25 -32 -11 -22 -28 12 -21 17 3 35
6 39 6 5 0 6 9 3 20 -3 11 0 20 6 20 6 0 11 5 11 10 0 19 -42 10 -47 -10z"/>
<path d="M7625 5670 c3 -5 8 -10 11 -10 2 0 4 5 4 10 0 6 -5 10 -11 10 -5 0
-7 -4 -4 -10z"/>
<path d="M2120 5650 c0 -5 6 -10 14 -10 8 0 18 5 21 10 3 6 -3 10 -14 10 -12
0 -21 -4 -21 -10z"/>
<path d="M7646 5636 c3 -9 11 -16 16 -16 13 0 5 23 -10 28 -7 2 -10 -2 -6 -12z"/>
<path d="M3599 5621 c-13 -11 -19 -20 -14 -20 14 0 50 28 43 34 -3 3 -16 -3
-29 -14z"/>
<path d="M3523 5593 c-14 -5 -18 -23 -5 -23 5 0 17 7 28 15 19 15 5 20 -23 8z"/>
<path d="M3645 5590 c3 -5 11 -10 16 -10 6 0 7 5 4 10 -3 6 -11 10 -16 10 -6
0 -7 -4 -4 -10z"/>
<path d="M7676 5581 c-4 -7 -5 -15 -2 -18 9 -9 19 4 14 18 -4 11 -6 11 -12 0z"/>
<path d="M8050 5570 c0 -5 5 -10 10 -10 6 0 10 5 10 10 0 6 -4 10 -10 10 -5 0
-10 -4 -10 -10z"/>
<path d="M2815 5560 c-3 -5 -1 -10 4 -10 6 0 11 5 11 10 0 6 -2 10 -4 10 -3 0
-8 -4 -11 -10z"/>
<path d="M3470 5562 c-29 -13 -64 -41 -58 -47 3 -3 12 1 21 9 8 8 17 12 21 9
3 -4 6 -1 6 5 0 7 7 12 15 12 8 0 15 5 15 10 0 11 1 11 -20 2z"/>
<path d="M7740 5560 c0 -5 5 -10 10 -10 6 0 10 5 10 10 0 6 -4 10 -10 10 -5 0
-10 -4 -10 -10z"/>
<path d="M2774 5526 c-10 -8 -16 -17 -13 -20 3 -3 14 3 24 14 21 23 17 26 -11
6z"/>
<path d="M2000 5491 c0 -5 -12 -24 -26 -41 -15 -17 -25 -33 -22 -35 2 -3 21
16 42 40 25 31 32 45 21 45 -8 0 -15 -4 -15 -9z"/>
<path d="M2641 5395 c-50 -53 -91 -101 -91 -108 0 -13 -3 -16 109 111 106 119
98 118 -18 -3z"/>
<path d="M7821 5284 c0 -11 3 -14 6 -6 3 7 2 16 -1 19 -3 4 -6 -2 -5 -13z"/>
<path d="M2940 5220 c0 -5 5 -10 10 -10 6 0 10 5 10 10 0 6 -4 10 -10 10 -5 0
-10 -4 -10 -10z"/>
<path d="M7850 5176 c0 -9 5 -16 10 -16 6 0 10 4 10 9 0 6 -4 13 -10 16 -5 3
-10 -1 -10 -9z"/>
<path d="M970 5151 c0 -10 7 -24 15 -31 8 -7 15 -9 15 -4 0 5 3 19 6 32 5 18
2 22 -15 22 -14 0 -21 -6 -21 -19z"/>
<path d="M7865 5127 c-4 -10 -5 -21 -1 -24 10 -10 18 4 13 24 -4 17 -4 17 -12
0z"/>
<path d="M2812 5100 c-12 -12 -22 -24 -22 -27 0 -4 11 4 25 17 23 22 29 30 22
30 -2 0 -13 -9 -25 -20z"/>
<path d="M984 5045 c-18 -14 -35 -37 -39 -52 -8 -34 -72 -114 -87 -110 -6 1
-16 -15 -21 -36 -7 -31 -12 -36 -23 -26 -11 9 -12 15 -3 25 22 27 20 70 -5 93
l-24 23 -6 -39 c-3 -21 -5 -58 -5 -82 0 -48 -11 -61 -52 -61 -30 0 -49 -30
-46 -75 2 -16 -1 -35 -6 -42 -11 -16 2 -59 25 -80 23 -21 116 -45 124 -32 3 5
12 9 21 9 8 0 28 11 45 25 16 14 36 25 43 25 30 0 57 57 46 96 -11 40 -3 71
10 38 7 -17 8 -17 8 -1 1 10 -8 21 -18 25 -28 10 -28 12 7 62 30 44 30 45 12
60 -18 14 -19 17 -5 44 9 16 14 31 11 33 -4 5 -42 -42 -49 -60 -2 -7 -8 -9
-12 -5 -4 4 10 31 32 60 30 40 61 109 49 108 0 0 -15 -11 -32 -25z m-68 -200
c-13 -30 -19 -35 -29 -26 -8 6 -17 8 -20 4 -4 -3 -7 -4 -7 0 0 8 63 67 68 63
2 -2 -4 -21 -12 -41z"/>
<path d="M7904 4995 c4 -35 16 -44 16 -12 0 14 -4 28 -9 32 -5 3 -8 -6 -7 -20z"/>
<path d="M1004 4812 c-9 -13 -8 -20 2 -30 11 -10 16 -7 29 18 14 28 14 30 -2
30 -10 0 -23 -8 -29 -18z"/>
<path d="M2295 4760 c3 -5 8 -10 11 -10 2 0 4 5 4 10 0 6 -5 10 -11 10 -5 0
-7 -4 -4 -10z"/>
<path d="M2253 4693 c-14 -29 -8 -47 7 -23 9 13 14 50 8 50 -2 0 -9 -12 -15
-27z"/>
<path d="M2216 4631 c-4 -7 -5 -15 -2 -18 9 -9 19 4 14 18 -4 11 -6 11 -12 0z"/>
<path d="M7997 4550 c-3 -10 1 -24 9 -31 11 -9 14 -7 14 14 0 32 -16 44 -23
17z"/>
<path d="M2093 4338 c-51 -160 -75 -250 -53 -200 5 12 16 25 25 28 8 4 15 10
15 16 0 5 -5 6 -11 2 -9 -5 -10 1 -5 21 4 15 10 40 13 56 3 16 10 29 15 29 6
0 8 7 5 15 -4 8 -2 17 3 20 6 4 10 17 10 30 0 13 5 27 10 30 6 3 10 15 10 26
0 11 7 22 15 25 8 4 15 14 15 23 0 14 2 14 10 1 13 -20 13 -4 0 21 -18 33 -24
23 -77 -143z"/>
<path d="M1997 3976 c-4 -10 -5 -21 -2 -24 9 -9 17 6 13 25 -3 17 -4 17 -11
-1z"/>
<path d="M2025 3779 c-4 -6 -5 -12 -2 -15 2 -3 7 2 10 11 7 17 1 20 -8 4z"/>
<path d="M1960 3540 c0 -5 5 -10 10 -10 6 0 10 5 10 10 0 6 -4 10 -10 10 -5 0
-10 -4 -10 -10z"/>
<path d="M7190 3393 c0 -5 5 -15 10 -23 8 -12 10 -11 10 8 0 12 -4 22 -10 22
-5 0 -10 -3 -10 -7z"/>
<path d="M7160 3078 c-12 -22 -12 -22 6 -6 10 10 15 20 12 24 -4 3 -12 -5 -18
-18z"/>
<path d="M1960 2870 c0 -5 5 -10 11 -10 5 0 7 5 4 10 -3 6 -8 10 -11 10 -2 0
-4 -4 -4 -10z"/>
<path d="M2065 2560 c3 -5 8 -10 11 -10 2 0 4 5 4 10 0 6 -5 10 -11 10 -5 0
-7 -4 -4 -10z"/>
<path d="M2620 1932 c0 -5 7 -15 15 -22 8 -7 15 -8 15 -2 0 5 -7 15 -15 22 -8
7 -15 8 -15 2z"/>
<path d="M2565 1860 c3 -5 8 -10 11 -10 2 0 4 5 4 10 0 6 -5 10 -11 10 -5 0
-7 -4 -4 -10z"/>
<path d="M2585 1830 c-3 -5 -1 -10 4 -10 6 0 11 5 11 10 0 6 -2 10 -4 10 -3 0
-8 -4 -11 -10z"/>
<path d="M2747 1785 c-16 -12 -16 -13 0 -26 14 -12 15 -12 9 0 -5 8 -3 16 5
22 7 4 11 10 9 13 -3 2 -13 -1 -23 -9z"/>
<path d="M2630 1779 c0 -5 5 -7 10 -4 6 3 10 8 10 11 0 2 -4 4 -10 4 -5 0 -10
-5 -10 -11z"/>
<path d="M6137 1742 c-15 -16 -24 -32 -20 -36 5 -4 4 -7 -2 -6 -26 6 -40 0
-26 -9 9 -6 22 -6 32 0 10 5 24 6 32 4 25 -10 40 20 25 50 l-14 25 -27 -28z
m43 -16 c0 -2 -8 -10 -17 -17 -16 -13 -17 -12 -4 4 13 16 21 21 21 13z"/>
<path d="M2785 1746 c-5 -6 -11 -20 -13 -31 -2 -14 0 -16 6 -7 7 10 19 6 53
-20 49 -38 87 -61 50 -30 -13 10 -21 24 -18 29 4 6 -2 18 -13 28 -12 10 -20
13 -20 7 0 -7 -5 -12 -11 -12 -6 0 -9 6 -6 14 8 20 -15 38 -28 22z m70 -46 c3
-6 -1 -7 -9 -4 -18 7 -21 14 -7 14 6 0 13 -4 16 -10z"/>
<path d="M6021 1655 c-26 -28 -18 -34 11 -8 17 15 18 15 18 -2 0 -14 3 -15 15
-5 12 10 13 16 4 26 -15 19 -20 18 -48 -11z"/>
<path d="M6094 1641 c-35 -21 -60 -51 -28 -32 24 13 71 50 64 51 -3 0 -19 -9
-36 -19z"/>
<path d="M2798 1623 c6 -2 12 -11 12 -19 0 -8 5 -14 11 -14 11 0 39 -24 39
-34 0 -8 -33 6 -48 21 -7 7 -19 13 -25 13 -10 0 29 -40 98 -100 25 -22 61 -34
108 -38 9 -1 16 -5 16 -9 -5 -34 23 -47 35 -16 8 20 -32 66 -52 58 -7 -2 -10
0 -7 5 3 5 -14 21 -37 36 -24 15 -66 45 -95 66 -29 21 -56 38 -60 37 -4 0 -2
-3 5 -6z m122 -107 c0 -8 6 -17 13 -19 8 -4 7 -6 -3 -6 -8 -1 -21 8 -28 19
-10 17 -10 20 3 20 8 0 15 -6 15 -14z"/>
<path d="M2928 1608 c12 -6 23 -16 23 -22 1 -6 2 -17 3 -25 0 -8 8 -16 16 -19
8 -3 12 -1 8 3 -4 5 -3 14 3 21 11 13 -37 55 -63 53 -7 0 -3 -5 10 -11z"/>
<path d="M5954 1605 c-10 -8 -17 -15 -14 -15 25 -6 52 -8 42 -3 -10 4 -10 8
-1 19 15 18 -2 18 -27 -1z"/>
<path d="M6010 1610 c-9 -6 -10 -10 -3 -10 6 0 15 5 18 10 8 12 4 12 -15 0z"/>
<path d="M5870 1590 c-9 -6 -10 -10 -3 -10 6 0 15 5 18 10 8 12 4 12 -15 0z"/>
<path d="M3080 1544 c0 -11 -6 -14 -22 -8 -23 7 -23 6 -4 -15 13 -14 15 -21 6
-21 -20 0 -5 -11 42 -32 l43 -19 -30 26 -30 26 35 -17 c20 -9 30 -11 23 -4 -6
7 -9 19 -6 26 3 8 0 14 -7 14 -6 0 -8 -4 -5 -10 8 -13 -6 -13 -25 0 -13 8 -13
11 -1 19 7 5 10 14 7 20 -10 16 -26 13 -26 -5z"/>
<path d="M3235 1499 c-3 -4 11 -15 32 -24 20 -9 46 -25 56 -36 15 -16 22 -18
33 -8 21 18 17 29 -11 29 -14 0 -35 9 -46 19 -24 23 -57 33 -64 20z"/>
<path d="M3070 1421 c0 -5 9 -11 21 -14 16 -4 18 -3 8 9 -13 16 -29 19 -29 5z"/>
<path d="M3184 1421 c3 -5 16 -11 28 -14 22 -6 22 -5 4 8 -22 17 -40 20 -32 6z"/>
<path d="M3400 1411 c0 -13 6 -19 18 -18 11 0 53 -16 95 -36 76 -37 107 -45
107 -27 0 13 -28 26 -72 34 -21 4 -38 11 -38 15 0 5 -20 14 -45 20 -25 6 -45
16 -45 21 0 6 -4 10 -10 10 -5 0 -10 -9 -10 -19z"/>
<path d="M5590 1419 c0 -5 5 -7 10 -4 6 3 10 8 10 11 0 2 -4 4 -10 4 -5 0 -10
-5 -10 -11z"/>
<path d="M3250 1410 c8 -5 20 -10 25 -10 6 0 3 5 -5 10 -8 5 -19 10 -25 10 -5
0 -3 -5 5 -10z"/>
<path d="M3575 1390 c-5 -8 55 -33 62 -26 2 2 -9 11 -26 19 -17 9 -33 12 -36
7z"/>
<path d="M5603 1383 c0 -17 17 -16 39 1 16 12 15 13 -10 12 -16 -1 -29 -7 -29
-13z"/>
<path d="M5474 1365 c-16 -14 -25 -25 -21 -25 16 0 67 31 67 40 0 16 -15 11
-46 -15z"/>
<path d="M5565 1380 c-3 -5 -2 -10 4 -10 5 0 13 5 16 10 3 6 2 10 -4 10 -5 0
-13 -4 -16 -10z"/>
<path d="M3145 1370 c3 -5 13 -10 21 -10 8 0 12 5 9 10 -3 6 -13 10 -21 10 -8
0 -12 -4 -9 -10z"/>
<path d="M5630 1355 c-14 -8 -20 -14 -15 -14 6 0 21 6 35 14 14 8 21 14 15 14
-5 0 -21 -6 -35 -14z"/>
<path d="M3658 1353 c7 -3 16 -2 19 1 4 3 -2 6 -13 5 -11 0 -14 -3 -6 -6z"/>
<path d="M5506 1341 c-17 -11 -33 -18 -38 -15 -4 3 -18 -1 -30 -8 -13 -7 -30
-11 -38 -10 -8 1 -4 -5 10 -13 l25 -16 -25 6 c-19 5 -22 4 -10 -4 20 -15 -3
-31 -45 -31 -23 0 -27 3 -15 10 17 11 1 13 -25 4 -13 -5 -14 -9 -4 -15 17 -10
12 -14 -26 -23 -29 -7 -29 -7 -10 8 24 19 17 19 -41 5 -24 -6 -44 -15 -44 -20
0 -11 2 -11 37 1 24 9 26 8 11 -3 -15 -12 -41 -21 -117 -43 -8 -3 -11 -7 -9
-10 3 -3 32 2 64 10 56 15 90 12 63 -5 -10 -6 -8 -9 9 -9 33 0 27 -16 -15 -34
-21 -9 -28 -15 -17 -13 17 4 20 0 17 -14 -4 -13 0 -19 12 -19 13 0 16 6 11 24
-6 26 7 36 48 36 29 0 39 10 25 27 -6 7 -10 13 -8 13 2 0 53 20 113 45 60 24
113 42 118 39 4 -3 8 -1 8 5 0 5 24 22 53 36 28 15 57 31 62 37 6 6 0 5 -13
-1 -50 -26 -332 -141 -346 -141 -26 0 23 31 72 45 70 20 85 28 90 45 3 7 0 10
-7 6 -6 -4 -11 -3 -11 2 0 5 8 12 18 15 9 2 26 8 37 12 18 7 17 5 -4 -19 l-25
-26 30 10 c44 16 65 35 58 54 -8 21 -32 20 -68 -3z"/>
<path d="M3695 1340 c3 -5 8 -10 11 -10 2 0 4 5 4 10 0 6 -5 10 -11 10 -5 0
-7 -4 -4 -10z"/>
<path d="M3725 1330 c3 -5 8 -10 11 -10 2 0 4 5 4 10 0 6 -5 10 -11 10 -5 0
-7 -4 -4 -10z"/>
<path d="M5385 1330 c-7 -12 2 -12 30 0 19 8 19 9 -2 9 -12 1 -25 -3 -28 -9z"/>
<path d="M3765 1322 c6 -5 24 -12 40 -16 34 -7 15 7 -25 19 -16 5 -22 4 -15
-3z"/>
<path d="M3635 1311 c6 -6 26 -13 45 -16 42 -7 21 8 -25 19 -21 5 -27 4 -20
-3z"/>
<path d="M5304 1296 c-19 -15 -19 -15 1 -11 11 2 23 4 28 4 10 1 9 21 -1 21
-5 0 -17 -6 -28 -14z"/>
<path d="M3729 1281 c11 -19 51 -36 51 -20 0 5 15 9 33 10 l32 1 -30 9 c-16 6
-45 12 -63 15 -30 4 -32 2 -23 -15z m38 -7 c-3 -3 -12 -4 -19 -1 -8 3 -5 6 6
6 11 1 17 -2 13 -5z"/>
<path d="M3955 1272 c35 -16 81 -24 70 -13 -5 5 -28 12 -50 15 -27 4 -33 3
-20 -2z"/>
<path d="M4795 1270 c-3 -5 -1 -10 4 -10 6 0 11 5 11 10 0 6 -2 10 -4 10 -3 0
-8 -4 -11 -10z"/>
<path d="M5230 1270 c-8 -5 -25 -10 -37 -10 -13 0 -23 -4 -23 -10 0 -14 15
-13 55 4 18 8 36 12 38 9 3 -2 8 0 12 6 8 14 -25 14 -45 1z"/>
<path d="M5610 1270 c0 -5 -8 -10 -17 -10 -20 0 -106 -40 -99 -47 2 -3 14 1
26 7 30 16 75 21 61 7 -20 -20 -11 -25 22 -13 37 12 47 32 15 28 -21 -2 -21
-2 -3 18 10 11 13 20 7 20 -7 0 -12 -4 -12 -10z"/>
<path d="M3390 1250 c0 -5 5 -10 11 -10 5 0 7 5 4 10 -3 6 -8 10 -11 10 -2 0
-4 -4 -4 -10z"/>
<path d="M4065 1250 c11 -5 27 -9 35 -9 9 0 8 4 -5 9 -11 5 -27 9 -35 9 -9 0
-8 -4 5 -9z"/>
<path d="M3930 1246 c0 -2 9 -6 20 -9 11 -3 18 -1 14 4 -5 9 -34 13 -34 5z"/>
<path d="M3878 1233 c7 -3 16 -2 19 1 4 3 -2 6 -13 5 -11 0 -14 -3 -6 -6z"/>
<path d="M3980 1237 c3 -4 28 -8 54 -11 49 -4 76 -24 53 -38 -8 -5 -6 -8 7 -8
12 0 16 5 13 14 -3 8 -1 17 6 19 25 9 -3 18 -69 24 -38 3 -67 3 -64 0z"/>
<path d="M4958 1203 c6 -2 18 -2 25 0 6 3 1 5 -13 5 -14 0 -19 -2 -12 -5z"/>
<path d="M5445 1189 c6 -30 9 -31 22 -3 10 21 9 24 -7 24 -14 0 -18 -6 -15
-21z"/>
<path d="M5395 1180 c-17 -19 -17 -20 1 -20 15 0 16 -2 4 -9 -8 -6 -18 -7 -22
-5 -4 3 -8 0 -8 -5 0 -13 30 -14 49 -2 17 11 24 41 10 41 -6 0 -7 5 -4 10 11
18 -11 10 -30 -10z"/>
<path d="M4165 1180 c3 -5 14 -10 23 -10 15 0 15 2 2 10 -20 13 -33 13 -25 0z"/>
<path d="M4770 1180 c-64 -9 -26 -24 44 -17 73 7 109 27 46 25 -25 0 -65 -4
-90 -8z"/>
<path d="M5020 1180 c0 -5 5 -10 11 -10 5 0 7 5 4 10 -3 6 -8 10 -11 10 -2 0
-4 -4 -4 -10z"/>
<path d="M4235 1170 c-4 -6 3 -10 14 -10 25 0 27 6 6 13 -8 4 -17 2 -20 -3z"/>
<path d="M5495 1169 c-11 -16 -1 -19 13 -3 7 8 8 14 3 14 -5 0 -13 -5 -16 -11z"/>
<path d="M3610 1160 c0 -5 5 -10 10 -10 6 0 10 5 10 10 0 6 -4 10 -10 10 -5 0
-10 -4 -10 -10z"/>
<path d="M4348 1163 c7 -3 16 -2 19 1 4 3 -2 6 -13 5 -11 0 -14 -3 -6 -6z"/>
<path d="M4390 1160 c20 -13 50 -13 50 0 0 6 -15 10 -32 10 -25 0 -29 -3 -18
-10z"/>
<path d="M4460 1158 c0 -4 16 -8 35 -8 19 0 35 4 35 9 0 5 -16 9 -35 8 -19 -1
-35 -5 -35 -9z"/>
<path d="M4545 1160 c-3 -5 -1 -10 4 -10 6 0 11 5 11 10 0 6 -2 10 -4 10 -3 0
-8 -4 -11 -10z"/>
<path d="M5080 1160 c0 -5 5 -10 10 -10 6 0 10 5 10 10 0 6 -4 10 -10 10 -5 0
-10 -4 -10 -10z"/>
<path d="M5350 1159 c0 -5 5 -7 10 -4 6 3 10 8 10 11 0 2 -4 4 -10 4 -5 0 -10
-5 -10 -11z"/>
<path d="M4964 1140 c-84 -21 -113 -32 -64 -24 52 8 170 36 170 40 0 8 -36 2
-106 -16z"/>
<path d="M5198 1153 c7 -3 16 -2 19 1 4 3 -2 6 -13 5 -11 0 -14 -3 -6 -6z"/>
<path d="M3705 1130 c3 -5 8 -10 11 -10 2 0 4 5 4 10 0 6 -5 10 -11 10 -5 0
-7 -4 -4 -10z"/>
<path d="M4800 1129 c0 -5 5 -7 10 -4 6 3 10 8 10 11 0 2 -4 4 -10 4 -5 0 -10
-5 -10 -11z"/>
<path d="M5300 1123 c0 -4 5 -15 10 -23 8 -13 10 -13 10 2 0 9 -4 20 -10 23
-5 3 -10 3 -10 -2z"/>
<path d="M4642 1108 c-7 -7 -12 -15 -12 -18 0 -11 59 -10 65 1 4 5 -3 9 -15 9
-12 0 -18 5 -15 10 9 14 -8 13 -23 -2z"/>
<path d="M4780 1105 c-36 -10 -40 -13 -18 -14 18 -1 26 -5 22 -14 -3 -9 6 -12
36 -9 22 2 40 8 40 13 0 5 -13 6 -30 3 -19 -4 -30 -2 -30 5 0 6 11 11 25 11
14 0 25 5 25 10 0 12 -13 12 -70 -5z"/>
<path d="M5035 1110 c3 -5 12 -7 20 -3 21 7 19 13 -6 13 -11 0 -18 -4 -14 -10z"/>
<path d="M5130 1100 c-12 -8 -12 -10 5 -10 11 0 27 5 35 10 12 8 12 10 -5 10
-11 0 -27 -5 -35 -10z"/>
<path d="M4926 1092 c-3 -5 8 -6 25 -4 16 2 29 6 29 8 0 8 -49 4 -54 -4z"/>
<path d="M3865 1080 c-4 -6 -4 -14 0 -18 3 -3 10 0 14 7 7 10 19 11 55 3 26
-5 46 -6 46 -1 0 5 -8 9 -17 9 -10 0 -34 3 -54 6 -23 4 -39 2 -44 -6z"/>
<path d="M4565 1080 c-19 -8 -19 -9 3 -9 12 -1 22 4 22 9 0 6 -1 10 -2 9 -2 0
-12 -4 -23 -9z"/>
<path d="M4888 1083 c7 -3 16 -2 19 1 4 3 -2 6 -13 5 -11 0 -14 -3 -6 -6z"/>
<path d="M5045 1080 c3 -5 8 -10 11 -10 2 0 4 5 4 10 0 6 -5 10 -11 10 -5 0
-7 -4 -4 -10z"/>
<path d="M5093 1070 c-1 -11 2 -18 8 -15 11 7 12 35 1 35 -4 0 -8 -9 -9 -20z"/>
<path d="M4745 1070 c-3 -5 1 -10 9 -10 9 0 16 5 16 10 0 6 -4 10 -9 10 -6 0
-13 -4 -16 -10z"/>
<path d="M5125 1070 c-3 -5 -1 -10 4 -10 6 0 11 5 11 10 0 6 -2 10 -4 10 -3 0
-8 -4 -11 -10z"/>
<path d="M3998 1063 c6 -2 18 -2 25 0 6 3 1 5 -13 5 -14 0 -19 -2 -12 -5z"/>
<path d="M3928 1053 c7 -3 16 -2 19 1 4 3 -2 6 -13 5 -11 0 -14 -3 -6 -6z"/>
<path d="M4067 1038 c-10 -11 -17 -21 -15 -23 8 -8 48 8 42 16 -3 5 0 9 5 9 6
0 11 5 11 10 0 16 -24 10 -43 -12z"/>
<path d="M4580 1050 c0 -5 7 -10 15 -10 8 0 15 5 15 10 0 6 -7 10 -15 10 -8 0
-15 -4 -15 -10z"/>
<path d="M4843 1053 c-18 -2 -33 -9 -33 -14 0 -6 10 -8 23 -4 12 4 30 9 40 11
11 4 17 0 17 -10 0 -9 2 -16 4 -16 2 0 13 -3 23 -7 16 -6 17 -5 4 11 -13 15
-13 19 0 27 15 9 -13 10 -78 2z"/>
<path d="M4765 1040 l-30 -8 33 -1 c17 0 32 4 32 9 0 6 -1 9 -2 9 -2 -1 -16
-5 -33 -9z"/>
<path d="M4602 1030 c-51 -12 -52 -22 -2 -14 49 7 55 10 43 16 -4 3 -23 2 -41
-2z"/>
<path d="M4375 1020 c3 -5 8 -10 11 -10 2 0 4 5 4 10 0 6 -5 10 -11 10 -5 0
-7 -4 -4 -10z"/>
<path d="M4495 1020 c-3 -5 3 -10 14 -10 12 0 21 5 21 10 0 6 -6 10 -14 10 -8
0 -18 -4 -21 -10z"/>
<path d="M4650 1000 c0 -5 5 -10 11 -10 5 0 7 5 4 10 -3 6 -8 10 -11 10 -2 0
-4 -4 -4 -10z"/>
<path d="M4575 990 c3 -5 10 -10 16 -10 5 0 9 5 9 10 0 6 -7 10 -16 10 -8 0
-12 -4 -9 -10z"/>
<path d="M8369 359 c-19 -19 -20 -30 -18 -177 2 -167 4 -182 23 -182 9 0 12
28 10 102 -1 56 2 112 7 123 8 21 13 7 10 -27 -1 -10 4 -18 13 -18 17 0 80 60
71 68 -3 3 -11 -3 -19 -13 -8 -11 -18 -15 -26 -10 -10 6 -12 4 -7 -8 3 -10 2
-17 -3 -17 -6 0 -10 13 -10 29 0 17 -4 33 -10 36 -5 3 -10 1 -10 -4 0 -6 -5
-11 -11 -11 -6 0 -9 16 -7 38 l3 37 79 3 c69 3 78 1 67 -12 -7 -8 -11 -23 -10
-33 1 -10 -4 -31 -11 -46 -11 -22 -11 -30 -2 -36 9 -6 10 -15 1 -39 -6 -18 -8
-44 -5 -57 4 -17 2 -25 -7 -25 -9 0 -12 9 -9 29 5 35 -14 50 -24 19 -3 -12
-15 -31 -25 -42 -19 -20 -19 -19 -19 27 0 25 -4 49 -10 52 -11 7 -13 -27 -4
-74 6 -30 8 -31 61 -31 l55 0 -3 48 -3 47 46 5 c56 7 79 23 26 19 -50 -5 -58
7 -10 14 33 6 38 10 40 37 2 30 -19 43 -33 20 -3 -5 1 -10 9 -10 10 0 13 -6
10 -15 -9 -22 -74 -20 -74 2 0 13 3 14 12 5 17 -17 28 -15 28 7 0 11 -8 21
-17 23 -10 3 1 8 25 12 51 9 57 24 7 18 -21 -3 -35 0 -35 7 0 6 16 11 35 11
19 0 35 5 35 11 0 8 -13 10 -37 6 -26 -5 -33 -3 -23 3 8 5 25 10 38 10 15 0
22 6 22 20 0 31 -220 30 -251 -1z"/>
<path d="M8400 296 c0 -9 5 -16 10 -16 6 0 10 4 10 9 0 6 -4 13 -10 16 -5 3
-10 -1 -10 -9z"/>
<path d="M8430 290 c0 -5 5 -10 10 -10 6 0 10 5 10 10 0 6 -4 10 -10 10 -5 0
-10 -4 -10 -10z"/>
<path d="M8470 284 c0 -9 5 -14 12 -12 18 6 21 28 4 28 -9 0 -16 -7 -16 -16z"/>
<path d="M8470 170 c0 -5 4 -10 9 -10 6 0 13 5 16 10 3 6 -1 10 -9 10 -9 0
-16 -4 -16 -10z"/>
<path d="M8441 158 c0 -9 -4 -25 -7 -35 -5 -14 -4 -15 5 -7 7 7 11 22 8 35 -2
13 -5 16 -6 7z"/>
<path d="M8590 138 c0 -4 7 -8 15 -8 8 0 15 4 15 8 0 5 -7 9 -15 9 -8 0 -15
-4 -15 -9z"/>
<path d="M8577 109 c8 -8 16 -8 30 0 16 9 14 10 -11 11 -22 0 -27 -3 -19 -11z"/>
<path d="M8547 83 c-11 -10 -8 -61 3 -68 6 -4 10 10 10 34 0 42 -2 46 -13 34z"/>
<path d="M8585 70 c3 -5 13 -10 21 -10 8 0 14 5 14 10 0 6 -9 10 -21 10 -11 0
-17 -4 -14 -10z"/>
<path d="M8580 30 c0 -5 9 -10 20 -10 11 0 20 5 20 10 0 6 -9 10 -20 10 -11 0
-20 -4 -20 -10z"/>
<path d="M8400 20 c0 -13 98 -11 106 2 3 4 -20 8 -50 8 -33 0 -56 -4 -56 -10z"/>
</g>
</svg>
