<?xml version="1.0" standalone="no"?>
<svg version="1.0" xmlns="http://www.w3.org/2000/svg"
 width="100%" height="100%" viewBox="0 0 1024.000000 1024.000000"
 preserveAspectRatio="xMidYMid meet">
<metadata>
Created by potrace 1.16, written by Peter Selinger 2001-2019
</metadata>
<defs>
  <linearGradient id="gold" x1="0%" y1="0%" x2="100%" y2="100%">
    <stop offset="0%" stop-color="#f0c979"/>
    <stop offset="55%" stop-color="#d8a84a"/>
    <stop offset="100%" stop-color="#b8852e"/>
  </linearGradient>
</defs>

<g transform="translate(0.000000,1024.000000) scale(0.100000,-0.100000)"
fill="url(#gold)" stroke="none">
<path d="M5152 9153 c-7 -12 -12 -29 -12 -37 0 -53 -158 -216 -248 -257 -74
-33 -113 -33 -235 3 -110 33 -220 5 -294 -74 -104 -110 -160 -152 -298 -223
-128 -66 -133 -68 -226 -74 -131 -8 -186 -48 -230 -164 -12 -32 -39 -85 -61
-118 -21 -33 -38 -62 -38 -65 0 -3 -12 -20 -26 -39 -38 -50 -68 -57 -171 -39
-106 19 -155 13 -216 -26 -89 -56 -125 -143 -134 -322 l-6 -117 -43 -36 c-110
-92 -147 -260 -107 -484 4 -22 2 -32 -5 -27 -5 3 -12 -1 -15 -9 -3 -7 -23 -17
-44 -21 -105 -19 -171 -99 -157 -190 5 -37 3 -46 -19 -66 -28 -27 -42 -64 -28
-73 12 -7 6 -86 -8 -113 -5 -9 -14 -43 -21 -75 -8 -42 -28 -82 -70 -145 -44
-65 -68 -115 -94 -196 -20 -59 -64 -165 -98 -235 -71 -145 -81 -195 -66 -323
8 -67 18 -102 44 -150 18 -35 59 -115 91 -178 55 -108 58 -113 61 -80 3 28
-12 67 -75 189 l-78 154 0 127 0 126 49 73 c26 40 50 71 51 69 2 -2 -3 -32
-12 -68 -8 -36 -16 -119 -16 -186 l-2 -121 65 -127 c73 -145 79 -183 42 -293
-30 -89 -42 -108 -135 -211 -184 -204 -241 -458 -124 -553 18 -14 19 -20 9
-49 -30 -85 -9 -144 77 -217 42 -36 77 -76 96 -112 24 -45 31 -51 33 -33 7 50
-65 172 -102 172 -35 0 -86 84 -80 134 6 58 12 61 49 23 30 -31 35 -43 35 -84
1 -46 4 -51 65 -112 108 -109 116 -182 42 -380 -28 -76 -32 -91 -18 -89 9 2
26 23 39 48 27 54 27 48 8 -145 -8 -71 -11 -136 -9 -142 12 -31 -11 -7 -66 69
-124 172 -134 177 -65 34 37 -76 58 -106 96 -139 58 -48 69 -66 80 -127 40
-221 51 -393 24 -371 -16 13 -36 86 -36 130 0 53 -19 44 -22 -11 -4 -74 13
-147 50 -207 18 -28 38 -77 45 -109 l13 -57 8 68 c9 75 14 79 68 42 43 -29 95
-98 136 -182 l30 -61 -31 -5 c-99 -15 -196 29 -213 96 l-7 32 -4 -29 c-13 -89
95 -162 276 -186 79 -10 240 -46 249 -55 3 -3 -4 -8 -16 -12 -31 -8 70 -52
147 -63 29 -5 59 -14 65 -20 12 -12 15 -12 -147 11 -43 6 -81 8 -84 6 -12 -12
40 -26 136 -37 88 -11 113 -18 160 -46 31 -19 62 -34 69 -34 18 0 14 -18 -5
-22 -10 -2 -31 0 -48 5 -16 4 -41 10 -55 12 -14 2 -43 6 -65 10 -68 13 -31 -6
52 -26 248 -59 329 -87 266 -90 -10 0 5 -6 32 -13 47 -12 135 -51 135 -61 0
-2 -19 3 -42 11 -58 21 -177 43 -183 35 -2 -4 30 -16 72 -25 41 -10 70 -21 64
-25 -6 -4 16 -13 49 -19 95 -20 87 -35 -16 -28 -259 19 -281 17 -114 -8 52 -8
122 -24 155 -36 33 -12 87 -26 120 -30 33 -4 76 -15 95 -24 l35 -16 -60 5
c-33 2 -94 7 -135 11 -102 9 -85 -2 25 -16 141 -18 325 -71 325 -93 0 -4 -10
-3 -21 4 -12 6 -70 13 -128 15 -91 3 -98 2 -46 -6 93 -13 125 -30 50 -26 -87
5 -115 -9 -35 -17 80 -8 210 -38 210 -48 0 -8 -32 -5 -135 12 -80 13 -235 18
-235 8 0 -5 33 -9 73 -9 39 0 124 -9 187 -20 285 -47 281 -47 260 -61 -13 -8
-13 -10 0 -19 25 -16 -11 -13 -46 4 -45 22 -168 44 -284 49 -111 6 -93 -1 55
-22 111 -16 113 -28 3 -24 -134 5 -83 -12 82 -27 74 -7 151 -13 171 -13 29 -2
35 -5 31 -20 -4 -17 -68 -17 -96 0 -5 4 -6 2 -3 -4 4 -6 -14 -8 -47 -5 -29 2
-56 0 -59 -5 -4 -6 29 -13 81 -16 115 -9 221 -32 237 -53 6 -9 17 -14 22 -11
14 9 259 -11 299 -24 35 -11 79 -16 167 -18 35 0 57 -5 57 -12 0 -12 -134 -9
-309 7 -50 5 -72 4 -68 -3 4 -6 25 -11 48 -11 22 -1 53 -3 67 -7 39 -8 84 -14
202 -25 58 -6 142 -20 186 -30 45 -11 89 -20 98 -20 9 0 16 -4 16 -10 0 -16
-68 -12 -144 9 -39 11 -132 25 -206 31 -74 6 -151 13 -170 15 -19 2 -98 5
-175 8 -101 4 -119 3 -65 -3 41 -4 118 -13 170 -19 52 -6 158 -16 235 -21 137
-9 172 -14 285 -41 48 -11 52 -13 30 -20 -32 -9 21 -12 235 -10 183 1 256 11
165 22 -256 33 -327 45 -337 55 -12 12 0 11 187 -5 52 -5 118 -5 145 -1 l50 7
-65 2 c-120 4 -193 18 -187 36 7 16 -62 35 -131 35 -27 0 -71 3 -98 7 l-49 8
75 5 c96 6 303 -13 325 -31 6 -4 121 -7 255 -7 l245 1 -205 7 c-113 4 -220 8
-237 9 -69 3 -29 19 62 26 245 19 -12 40 -430 36 -189 -2 -309 1 -325 7 l-25
11 25 1 c25 2 418 8 565 9 44 0 121 -4 170 -9 179 -20 635 -38 623 -26 -7 9
-63 14 -165 17 -80 2 -117 15 -51 18 24 1 84 6 133 11 50 6 176 14 280 20 105
5 210 14 235 20 34 7 12 8 -95 4 -476 -17 -750 -16 -732 2 3 3 88 8 189 10
100 2 237 8 303 13 109 8 102 9 -70 5 -104 -3 -214 -7 -243 -10 -32 -3 -51 -1
-48 4 3 5 32 12 63 15 32 3 99 10 148 16 50 5 147 13 218 16 70 4 127 10 127
14 0 3 -71 5 -157 4 -184 -3 -184 15 0 24 137 7 141 22 5 18 -147 -5 -80 13
92 25 74 5 149 14 165 19 26 10 24 10 -15 4 -25 -3 -87 -7 -138 -8 -50 -2
-118 -5 -150 -8 -31 -3 -46 -3 -32 0 14 3 30 9 35 13 6 5 57 14 115 20 58 7
123 18 145 26 22 8 50 14 63 14 12 0 22 5 22 11 0 7 -23 9 -75 4 -50 -5 -75
-4 -75 3 0 17 63 26 361 52 64 6 131 15 150 21 19 6 97 14 174 19 82 4 165 15
200 25 69 21 59 33 -13 16 -26 -6 -117 -11 -202 -10 -85 0 -176 -1 -202 -3
-57 -5 -87 8 -37 16 19 3 66 10 104 16 39 6 77 16 85 21 11 8 7 9 -15 5 -16
-3 -52 -8 -80 -10 -27 -2 -40 -2 -29 1 12 2 24 12 27 22 4 17 -1 18 -37 14
-36 -4 -39 -3 -21 8 11 7 29 14 40 15 182 21 300 42 292 51 -5 4 -101 -7 -190
-22 -17 -3 -26 -1 -22 5 4 6 -4 14 -17 19 l-23 9 25 10 c14 6 34 13 45 17 14
4 16 8 6 14 -14 9 56 21 120 21 21 0 40 3 42 8 3 4 -47 6 -111 5 -140 -3 -129
7 43 37 65 12 122 24 125 27 3 3 -11 3 -30 -1 -19 -4 -62 -9 -95 -12 -33 -3
-76 -7 -95 -9 -31 -4 -33 -3 -17 9 10 8 42 17 72 21 29 3 56 12 58 19 4 9 37
16 101 21 53 4 98 10 101 15 6 9 -72 23 -86 15 -5 -4 -9 -1 -9 4 0 6 16 11 35
11 82 0 380 57 455 88 36 14 100 87 101 115 0 12 2 36 4 52 4 26 1 25 -18 -15
-28 -58 -70 -103 -99 -107 -65 -9 -218 -11 -223 -3 -3 5 8 16 24 24 16 9 32
24 35 33 9 28 65 83 85 83 59 0 126 34 195 98 107 100 117 117 114 182 -4 65
-21 69 -28 7 -6 -49 -28 -78 -128 -170 -43 -40 -70 -57 -89 -57 -50 -1 -108
-12 -122 -23 -10 -9 -13 -7 -10 8 3 16 18 22 74 32 115 21 155 47 141 91 -10
29 -45 46 -52 25 -11 -37 -22 -48 -51 -54 -54 -11 -111 -50 -135 -94 -25 -44
-71 -116 -113 -178 -47 -67 -183 -116 -321 -117 -110 0 -204 -72 -204 -156 0
-22 -20 -55 -59 -97 -38 -42 -273 -153 -340 -161 -59 -8 -88 -20 -111 -46 -8
-10 -42 -23 -75 -30 -74 -15 -93 -24 -125 -61 -28 -32 -152 -63 -290 -72 -41
-3 -100 -15 -130 -26 -30 -12 -66 -21 -79 -21 -14 0 -60 -10 -104 -21 -77 -21
-86 -21 -221 -9 -108 10 -154 10 -194 1 -29 -6 -74 -11 -100 -11 -26 0 -67 -5
-92 -11 -77 -18 -177 -13 -280 14 -79 21 -117 26 -215 25 -216 -2 -268 11
-365 93 -25 21 -67 47 -94 59 -31 13 -72 45 -115 89 -60 63 -71 70 -126 82
-89 18 -147 51 -200 114 -45 52 -53 57 -138 83 -80 24 -99 34 -158 87 -137
123 -260 199 -359 224 -78 20 -118 42 -143 80 -144 220 -177 261 -250 303
l-47 28 0 77 c0 43 -9 121 -20 173 -11 52 -25 120 -31 150 -12 66 -27 109 -46
132 -12 13 -13 30 -4 90 17 117 30 259 29 318 0 32 9 82 22 120 33 96 25 171
-29 282 -29 61 -53 96 -81 118 -22 17 -43 43 -46 57 -4 14 -28 67 -54 117 -46
89 -57 127 -66 236 -6 71 -10 72 -24 6 -20 -98 10 -228 76 -325 52 -77 26 -80
-54 -6 -72 66 -92 105 -92 177 0 113 57 224 170 333 72 70 102 117 138 218 51
141 42 211 -46 356 l-57 95 1 125 c1 138 24 244 70 324 13 23 24 51 24 62 0
19 -12 7 -102 -99 -10 -12 -2 11 16 49 19 39 49 114 66 167 24 73 45 116 84
169 52 70 53 72 71 192 12 82 25 136 41 166 19 35 24 59 24 119 l0 75 48 48
c35 35 58 49 87 54 22 3 47 10 55 14 23 12 40 116 31 186 -23 163 37 296 172
384 78 51 106 97 112 181 5 76 28 118 83 148 42 23 58 25 200 22 91 -3 179 42
245 125 30 37 69 72 105 93 l57 33 -53 -47 c-29 -26 -70 -72 -92 -103 -87
-128 -167 -171 -311 -169 -85 2 -103 -1 -126 -18 -51 -38 -82 -87 -89 -139 -7
-52 -65 -159 -131 -242 -54 -67 -73 -123 -79 -221 l-4 -87 20 40 c11 22 20 51
20 65 0 14 7 36 15 50 14 25 14 25 9 -10 -12 -73 -26 -113 -68 -198 -61 -121
-70 -144 -95 -250 -25 -100 -22 -96 -136 -176 -71 -50 -86 -80 -94 -191 -7
-98 -22 -134 -82 -190 -66 -63 -89 -141 -67 -234 15 -65 0 -136 -43 -203 -70
-108 -60 -241 30 -418 75 -146 76 -149 75 -290 0 -127 -19 -196 -70 -255 l-25
-30 5 35 c17 120 15 132 -9 42 -20 -75 -35 -108 -78 -170 -58 -82 -91 -164
-85 -209 4 -28 4 -28 20 10 22 48 27 47 21 -7 -3 -24 1 -61 8 -82 14 -38 14
-37 19 71 6 127 10 136 124 275 96 118 113 160 122 295 8 132 -11 208 -82 341
-26 48 -45 95 -45 115 -2 82 37 263 64 297 9 12 6 103 -9 235 -8 71 0 90 78
174 36 40 62 78 70 105 20 71 53 106 106 114 62 9 147 91 157 150 3 22 17 83
30 136 14 54 25 125 25 162 0 46 9 92 30 155 16 50 32 116 36 147 7 70 15 92
60 166 19 32 55 117 80 190 59 174 92 208 203 208 154 0 281 70 339 186 24 48
66 86 152 140 72 45 180 131 180 143 0 29 336 271 454 328 28 13 63 31 78 39
14 8 72 30 127 49 56 20 125 46 154 59 28 13 75 26 102 29 28 3 79 13 115 22
89 24 152 20 230 -15 36 -16 80 -32 98 -35 34 -7 61 -50 77 -122 16 -76 87
-103 165 -63 69 35 109 28 150 -27 64 -88 145 -109 310 -82 105 18 158 -14
195 -116 10 -27 41 -95 71 -150 29 -55 60 -120 70 -145 41 -107 167 -251 260
-298 86 -43 143 -53 282 -50 l123 3 35 -37 c35 -39 41 -60 25 -100 -39 -101
-37 -138 17 -258 20 -44 24 -69 23 -123 -3 -92 19 -151 78 -218 77 -87 82
-104 60 -223 -14 -75 4 -158 50 -233 52 -85 73 -165 72 -278 -1 -128 13 -169
102 -302 46 -69 76 -128 89 -172 32 -106 60 -150 162 -252 79 -80 96 -103 100
-135 3 -22 14 -68 23 -104 14 -52 17 -98 15 -230 l-2 -165 -37 -80 c-32 -68
-37 -91 -40 -164 -2 -67 -9 -99 -34 -160 -53 -128 -42 -219 37 -301 86 -90 86
-253 1 -410 -16 -30 -40 -75 -53 -99 -26 -48 -31 -106 -13 -161 7 -19 15 -69
19 -110 4 -41 15 -104 24 -140 13 -46 15 -65 7 -68 -31 -10 -108 -228 -118
-334 -7 -76 10 -96 21 -25 8 51 56 177 67 177 11 0 79 -134 79 -155 0 -8 4
-15 9 -15 17 0 16 64 -1 95 -42 77 -49 121 -27 172 22 53 37 67 152 145 68 47
105 91 61 74 -9 -3 -26 -6 -39 -6 -12 0 -33 -11 -46 -25 -35 -38 -59 -50 -59
-29 0 9 45 59 100 111 151 144 152 146 165 467 5 111 -13 104 -26 -11 -4 -43
-13 -96 -20 -118 l-12 -40 -13 40 c-7 22 -23 59 -36 82 -20 39 -21 44 -7 85 8
26 14 80 13 138 0 90 -3 99 -40 174 -21 44 -44 81 -50 83 -17 6 -24 -35 -8
-48 21 -17 51 -124 59 -210 17 -184 -22 -142 -117 123 -6 15 -30 49 -54 75
-49 54 -62 89 -56 151 5 51 17 62 27 24 10 -40 82 -132 104 -132 38 0 7 88
-31 90 -13 0 -38 58 -38 87 0 16 11 44 24 64 13 19 29 55 36 80 8 33 26 57 70
99 62 59 77 98 81 215 2 28 10 65 19 82 15 29 16 38 4 84 -18 69 -20 69 -28 2
-4 -37 -18 -78 -38 -113 -56 -100 -60 -111 -68 -178 -5 -40 -14 -68 -22 -71
-7 -2 -27 -18 -44 -36 l-30 -32 7 46 c11 72 47 166 70 181 8 6 37 163 46 253
3 30 -3 80 -16 135 -11 48 -22 123 -23 168 l-3 80 67 -50 c81 -61 109 -114
112 -212 1 -35 5 -66 8 -70 11 -10 21 85 15 140 -9 94 -32 124 -148 195 l-47
29 -4 93 c-6 125 -25 162 -119 229 -114 79 -134 120 -108 214 8 30 8 49 -1 77
-11 31 -10 46 8 100 31 99 33 113 15 98 -19 -17 -63 -103 -63 -126 0 -40 -15
-46 -58 -24 -53 27 -63 46 -69 134 -7 107 -17 130 -83 187 -80 70 -102 107
-110 193 -6 66 -5 68 9 46 35 -52 62 -75 136 -114 107 -55 141 -98 138 -173
-2 -51 -1 -54 14 -39 10 9 18 39 21 71 4 51 2 57 -27 87 -44 43 -30 49 36 14
59 -30 100 -80 113 -137 7 -30 8 -29 9 18 2 76 -39 135 -113 163 -31 12 -64
21 -73 21 -13 0 -14 7 -7 43 16 78 10 139 -18 182 -49 76 -120 125 -185 125
-15 0 -53 14 -83 31 -30 18 -67 38 -82 46 -33 17 -32 14 -12 61 11 26 17 74
19 159 2 118 3 123 38 185 98 175 47 367 -118 448 -46 22 -62 24 -191 25 -78
0 -140 3 -138 6 6 10 -16 24 -54 37 -89 30 -152 118 -192 266 -25 94 -88 221
-127 258 -33 32 -206 123 -261 137 -28 8 -61 7 -127 -4 -130 -21 -152 -20
-184 13 -41 40 -81 115 -98 179 -21 82 -71 131 -149 146 -17 3 -48 24 -71 46
-22 23 -46 41 -52 41 -21 0 -11 -30 19 -52 50 -36 26 -68 -51 -68 -16 0 -29
-4 -29 -10 0 -12 57 -12 115 -1 91 16 169 -31 179 -108 4 -28 21 -72 42 -107
72 -120 97 -133 233 -116 142 18 152 17 247 -33 112 -59 168 -99 197 -144 25
-38 81 -176 92 -226 23 -104 96 -189 195 -228 60 -25 63 -26 30 -27 -56 0
-129 31 -182 79 -63 56 -76 84 -86 174 -10 94 -43 151 -125 217 -75 61 -73 59
-98 93 -50 67 -167 95 -292 70 -93 -18 -137 -12 -178 25 -40 37 -125 174 -146
236 l-17 51 -9 -32 c-8 -28 -3 -42 49 -134 105 -184 156 -218 277 -185 102 28
128 29 192 7 56 -20 115 -63 115 -85 0 -6 20 -54 45 -106 50 -106 59 -145 18
-85 -43 64 -151 182 -189 205 -33 21 -43 22 -153 15 -160 -10 -183 1 -269 116
-101 136 -120 157 -182 199 -32 21 -85 70 -119 108 -100 112 -185 123 -306 38
-73 -51 -140 -87 -198 -105 -59 -20 -67 -7 -12 22 69 35 108 79 150 170 34 73
47 145 17 90z m248 -192 c14 -7 48 -35 75 -62 28 -26 79 -69 115 -96 57 -42
130 -123 130 -141 0 -6 -103 -45 -155 -58 -32 -8 -64 25 -84 86 -21 64 -19 71
12 43 36 -33 86 -54 120 -51 l32 4 -50 23 c-27 12 -61 33 -75 45 -14 13 -43
29 -64 36 -22 7 -73 29 -115 48 -57 26 -89 35 -128 35 -29 0 -53 1 -53 3 0 9
84 58 135 79 63 25 68 25 105 6z m-722 -148 c133 -34 119 -42 -91 -54 -89 -5
-175 -12 -191 -15 -21 -5 -27 -3 -24 7 5 16 121 76 157 82 14 2 31 5 36 6 6 0
56 -11 113 -26z m-163 -101 c-6 -4 -28 -14 -50 -21 -22 -7 -71 -29 -110 -49
-38 -19 -87 -44 -107 -54 -20 -10 -58 -43 -85 -74 -132 -156 -176 -188 -309
-234 -101 -35 -197 -116 -287 -245 -45 -63 -91 -80 -216 -78 -162 3 -225 -34
-251 -149 -20 -90 -41 -135 -72 -158 -16 -12 -32 -20 -34 -17 -3 2 0 52 5 111
22 227 121 323 298 287 162 -32 195 -8 319 237 88 173 96 180 223 189 86 5
153 24 214 59 62 35 66 29 17 -22 -48 -49 -159 -110 -220 -119 -113 -18 -147
-39 -169 -104 -20 -60 -10 -68 15 -13 28 61 54 76 157 91 89 13 157 50 230
128 114 121 256 219 335 233 64 11 108 12 97 2z m-216 -145 c-2 -1 -13 -9 -24
-17 -19 -14 -19 -14 -6 3 7 9 18 17 24 17 6 0 8 -1 6 -3z m-49 -31 c0 -2 -8
-10 -17 -17 -16 -13 -17 -12 -4 4 13 16 21 21 21 13z m2210 -123 c58 -66 76
-106 90 -198 20 -136 65 -201 175 -251 56 -26 123 -34 320 -37 112 -2 123 -4
174 -32 138 -76 176 -271 77 -400 -14 -18 -14 -17 -4 20 6 23 8 77 5 128 -12
185 -55 213 -317 209 -111 -2 -191 2 -217 9 -105 29 -239 207 -287 381 -12 45
-39 115 -59 154 -21 39 -37 74 -37 78 0 15 40 -16 80 -61z m-55 -194 c9 -17
14 -33 11 -36 -3 -3 -10 7 -16 22 -6 15 -13 32 -16 36 -3 5 -3 9 0 9 3 0 13
-14 21 -31z m150 -226 c107 -160 198 -200 377 -167 51 9 109 14 140 10 29 -3
70 -7 90 -8 114 -9 140 -132 84 -398 -3 -14 -8 -42 -11 -62 -3 -21 -9 -38 -13
-38 -16 0 -11 107 8 184 15 57 20 96 16 131 -8 58 -63 175 -83 175 -11 0 -11
-4 1 -22 19 -29 49 -118 42 -125 -2 -3 -20 12 -38 32 -48 55 -77 64 -214 64
-158 -1 -258 34 -340 116 -51 51 -121 165 -101 165 2 0 21 -26 42 -57z m824
-988 c18 -9 57 -24 85 -32 107 -32 169 -109 163 -205 -5 -82 -17 -98 -59 -75
-35 19 -136 107 -123 107 4 0 1 8 -8 18 -8 9 -26 42 -40 72 -13 30 -34 66 -47
80 -70 79 -99 141 -37 83 17 -17 47 -38 66 -48z m-4529 -349 c-17 -57 -38 -85
-82 -107 -49 -25 -48 -18 6 42 26 28 52 72 63 102 21 63 33 30 13 -37z m-72
-7 c-18 -33 -124 -129 -142 -129 -10 0 15 64 31 83 19 21 113 85 126 86 5 1
-2 -18 -15 -40z m4704 -148 c70 -65 88 -100 88 -173 1 -92 57 -178 117 -178
l25 0 -7 -87 c-8 -105 -2 -123 61 -194 65 -73 104 -138 104 -171 0 -51 -35
-25 -69 52 l-20 45 0 -44 c-1 -35 6 -54 35 -94 31 -42 81 -157 69 -157 -7 0
-118 120 -146 158 -15 21 -40 75 -54 119 -14 44 -37 98 -52 119 -135 194 -149
230 -138 348 12 129 5 155 -71 286 -18 30 -35 66 -38 80 -5 17 0 12 15 -14 11
-21 48 -64 81 -95z m-5071 -767 c-11 -39 -20 -58 -20 -43 -1 27 28 123 35 116
3 -2 -4 -35 -15 -73z m5509 13 c21 -26 43 -177 27 -177 -22 0 -54 74 -49 115
3 34 -1 52 -19 81 -23 38 -23 38 -1 23 12 -9 31 -27 42 -42z m20 -254 c0 -13
-2 -23 -5 -23 -5 0 -45 89 -45 99 1 17 50 -57 50 -76z m29 -96 c0 -21 -1 -21
-9 -2 -12 28 -12 37 0 30 6 -3 10 -16 9 -28z m31 -213 c0 -8 -5 -12 -10 -9 -6
4 -8 11 -5 16 9 14 15 11 15 -7z m-1 -98 c-9 -8 -10 -7 -5 7 3 10 7 24 7 30 1
7 3 4 6 -7 3 -10 -1 -23 -8 -30z m74 -233 c-7 -44 -42 -143 -50 -143 -12 0 6
106 23 143 23 47 34 47 27 0z m-5732 -620 c24 -21 63 -92 54 -101 -3 -3 -12 4
-21 16 -8 12 -28 29 -43 37 -23 11 -27 19 -24 40 6 30 7 30 34 8z m23 -99 c10
-25 -1 -29 -14 -5 -6 12 -7 21 -1 21 5 0 12 -7 15 -16z m21 -44 c3 -5 1 -10
-4 -10 -6 0 -11 5 -11 10 0 6 2 10 4 10 3 0 8 -4 11 -10z m5615 -164 c0 -8 7
-19 15 -26 29 -24 18 -66 -36 -127 -28 -32 -69 -85 -91 -118 -36 -55 -39 -57
-33 -26 9 44 44 119 73 155 12 16 22 39 22 51 0 33 31 116 41 109 5 -3 9 -11
9 -18z m80 -129 c0 -8 18 -48 40 -91 60 -115 52 -143 -69 -264 -61 -61 -113
-95 -71 -46 14 16 42 46 62 67 52 52 65 106 44 174 -20 63 -31 69 -22 12 4
-22 2 -58 -4 -79 -12 -43 -49 -96 -50 -70 0 9 4 20 9 25 5 6 12 35 16 65 6 49
5 53 -8 35 -23 -32 -64 -115 -93 -187 -32 -81 -37 -83 -52 -17 -19 83 -15 118
23 179 19 30 42 71 51 89 15 33 100 121 117 121 4 0 7 -6 7 -13z m-530 -1487
c0 -5 -12 -10 -27 -9 l-28 1 25 8 c14 4 26 8 28 9 1 1 2 -3 2 -9z m-2065 -829
l40 -9 -40 0 c-22 0 -49 3 -60 8 l-20 9 20 0 c11 0 38 -4 60 -8z m-990 -21 c7
-12 -45 -12 -90 0 -25 6 -20 8 27 9 31 0 60 -3 63 -9z m-185 -14 c0 -2 -9 -6
-20 -9 -11 -3 -20 -1 -20 4 0 5 9 9 20 9 11 0 20 -2 20 -4z m1198 -11 c3 -2
-62 -4 -144 -4 -87 1 -141 4 -129 9 20 8 265 4 273 -5z m-403 -5 c4 -6 -10
-10 -35 -10 -25 0 -39 4 -35 10 3 6 19 10 35 10 16 0 32 -4 35 -10z m-618 -6
c-3 -3 -12 -4 -19 -1 -8 3 -5 6 6 6 11 1 17 -2 13 -5z m48 -14 c3 -6 -1 -7 -9
-4 -18 7 -21 14 -7 14 6 0 13 -4 16 -10z m1305 0 c0 -5 -5 -10 -11 -10 -5 0
-7 5 -4 10 3 6 8 10 11 10 2 0 4 -4 4 -10z m-1133 -46 c-3 -3 -12 -4 -19 -1
-8 3 -5 6 6 6 11 1 17 -2 13 -5z m559 -72 c-3 -5 -33 -10 -66 -11 -80 -2 -71
13 10 17 37 2 60 0 56 -6z m-289 -8 c-3 -3 -12 -4 -19 -1 -8 3 -5 6 6 6 11 1
17 -2 13 -5z m388 -94 c4 -7 -17 -10 -60 -9 -85 2 -96 19 -11 19 36 0 68 -5
71 -10z"/>
<path d="M7532 6821 c12 -22 23 -39 24 -38 9 9 -13 60 -28 68 -18 10 -18 7 4
-30z"/>
<path d="M7551 6245 c1 -19 18 -51 18 -35 0 8 -4 22 -9 30 -5 8 -9 11 -9 5z"/>
<path d="M5070 9079 c0 -5 5 -7 10 -4 6 3 10 8 10 11 0 2 -4 4 -10 4 -5 0 -10
-5 -10 -11z"/>
<path d="M4932 9070 c-12 -5 -25 -17 -29 -26 -4 -11 -13 -14 -29 -10 -16 4
-24 2 -24 -7 0 -24 51 -19 72 8 11 14 28 25 39 25 10 0 19 5 19 10 0 12 -17
12 -48 0z"/>
<path d="M4630 8988 c-14 -6 -20 -12 -13 -15 6 -2 24 3 40 11 32 17 11 20 -27
4z"/>
<path d="M4179 8813 c-13 -16 -12 -17 4 -4 9 7 17 15 17 17 0 8 -8 3 -21 -13z"/>
<path d="M5990 8802 c0 -10 54 -42 71 -42 8 0 -3 11 -23 25 -39 27 -48 30 -48
17z"/>
<path d="M6340 8715 c19 -19 38 -35 44 -35 5 0 -5 16 -24 35 -19 19 -38 35
-44 35 -5 0 5 -16 24 -35z"/>
<path d="M3900 8714 c0 -8 5 -12 10 -9 6 3 10 10 10 16 0 5 -4 9 -10 9 -5 0
-10 -7 -10 -16z"/>
<path d="M6690 8413 c0 -18 29 -50 30 -32 0 9 -7 22 -15 29 -8 7 -15 8 -15 3z"/>
<path d="M6810 8399 c0 -7 11 -24 24 -38 14 -15 36 -59 50 -100 26 -75 33 -88
40 -80 13 12 -55 175 -83 201 -17 16 -31 23 -31 17z"/>
<path d="M3336 8134 c-50 -18 -56 -24 -24 -24 14 0 36 9 49 20 28 23 26 23
-25 4z"/>
<path d="M7020 8073 c0 -15 28 -43 43 -43 7 0 6 5 -3 13 -8 6 -20 19 -27 27
-8 9 -12 11 -13 3z"/>
<path d="M7400 8021 c0 -17 5 -33 10 -36 6 -4 10 8 10 29 0 20 -4 36 -10 36
-5 0 -10 -13 -10 -29z"/>
<path d="M2866 7725 c-19 -30 -66 -157 -65 -176 1 -18 48 81 48 102 1 9 7 22
15 28 17 15 38 71 27 71 -5 0 -16 -11 -25 -25z"/>
<path d="M7544 7473 c9 -18 21 -33 27 -33 13 0 -4 32 -27 51 -16 13 -16 12 0
-18z"/>
<path d="M2561 7358 c-1 -21 4 -38 9 -38 12 0 12 27 0 55 -7 16 -9 13 -9 -17z"/>
<path d="M7388 7328 c-34 -46 -33 -141 2 -212 27 -54 50 -71 50 -37 0 12 -6
21 -16 21 -8 0 -13 4 -10 9 3 4 -4 26 -15 47 -23 45 -21 112 6 164 22 44 13
48 -17 8z"/>
<path d="M2480 6996 c0 -31 6 -34 13 -6 3 11 1 23 -4 26 -5 3 -9 -6 -9 -20z"/>
<path d="M2286 6784 c-10 -37 -2 -39 11 -4 6 17 8 30 3 30 -4 0 -11 -12 -14
-26z"/>
<path d="M2203 6601 c-6 -18 -7 -31 -2 -31 12 0 22 24 17 45 -2 12 -7 7 -15
-14z"/>
<path d="M2370 6569 c0 -5 5 -7 10 -4 6 3 10 8 10 11 0 2 -4 4 -10 4 -5 0 -10
-5 -10 -11z"/>
<path d="M2160 6377 c0 -14 5 -29 10 -32 7 -4 8 3 4 22 -9 38 -14 42 -14 10z"/>
<path d="M2190 6091 c-12 -24 -13 -34 -1 -27 9 6 22 46 15 46 -2 0 -8 -9 -14
-19z"/>
<path d="M8107 5850 c3 -11 7 -20 9 -20 2 0 4 9 4 20 0 11 -4 20 -9 20 -5 0
-7 -9 -4 -20z"/>
<path d="M2103 5635 c0 -22 2 -30 4 -17 2 12 2 30 0 40 -3 9 -5 -1 -4 -23z"/>
<path d="M8195 5570 c3 -5 8 -10 11 -10 2 0 4 5 4 10 0 6 -5 10 -11 10 -5 0
-7 -4 -4 -10z"/>
<path d="M2200 5293 c0 -4 5 -15 10 -23 8 -13 10 -13 10 2 0 9 -4 20 -10 23
-5 3 -10 3 -10 -2z"/>
<path d="M8520 4989 c0 -5 5 -7 10 -4 6 3 10 8 10 11 0 2 -4 4 -10 4 -5 0 -10
-5 -10 -11z"/>
<path d="M8379 4872 c-55 -77 -69 -101 -69 -123 0 -18 2 -19 15 -9 8 7 15 18
15 25 0 8 20 43 44 79 51 76 47 99 -5 28z"/>
<path d="M8146 4753 c-21 -42 -56 -166 -56 -200 0 -17 7 -50 15 -73 8 -23 15
-60 15 -82 0 -24 4 -37 10 -33 15 9 12 95 -4 150 -14 43 -13 53 3 104 38 117
49 161 40 161 -5 0 -15 -12 -23 -27z"/>
<path d="M1880 4456 c0 -22 40 -96 52 -96 5 0 -4 24 -18 53 -32 62 -34 65 -34
43z"/>
<path d="M1946 4228 c13 -35 36 -74 50 -88 22 -22 21 -16 -16 60 -48 101 -70
118 -34 28z"/>
<path d="M2260 3910 c0 -11 5 -20 10 -20 6 0 10 9 10 20 0 11 -4 20 -10 20 -5
0 -10 -9 -10 -20z"/>
<path d="M8325 3840 c-3 -5 -1 -10 4 -10 6 0 11 5 11 10 0 6 -2 10 -4 10 -3 0
-8 -4 -11 -10z"/>
<path d="M2273 3722 c-20 -47 -21 -102 -2 -102 5 0 9 17 9 39 0 21 5 52 11 70
18 52 4 46 -18 -7z"/>
<path d="M2050 3420 c11 -22 25 -40 31 -40 6 0 1 13 -10 29 -12 16 -21 34 -21
40 0 6 -5 11 -10 11 -6 0 -1 -18 10 -40z"/>
<path d="M8195 3383 l-17 -28 23 22 c12 12 20 25 17 28 -3 3 -13 -7 -23 -22z"/>
<path d="M2106 3255 c10 -26 84 -115 96 -115 8 0 -29 48 -95 125 -4 6 -5 1 -1
-10z"/>
<path d="M2070 3140 c0 -5 5 -10 11 -10 5 0 7 5 4 10 -3 6 -8 10 -11 10 -2 0
-4 -4 -4 -10z"/>
<path d="M2160 3060 c6 -11 16 -20 22 -20 6 0 3 9 -7 20 -10 11 -20 20 -22 20
-2 0 1 -9 7 -20z"/>
<path d="M8075 3050 c-3 -5 -1 -10 4 -10 6 0 11 5 11 10 0 6 -2 10 -4 10 -3 0
-8 -4 -11 -10z"/>
<path d="M8200 2855 c-13 -14 -21 -27 -18 -30 2 -3 17 9 33 25 16 17 24 30 19
30 -6 0 -21 -11 -34 -25z"/>
<path d="M8040 2636 c-12 -33 -12 -36 -1 -36 10 0 25 50 17 58 -3 2 -10 -7
-16 -22z"/>
<path d="M8216 2474 c-3 -12 -15 -29 -26 -39 -20 -18 -26 -35 -12 -35 12 0 54
68 50 82 -3 8 -7 5 -12 -8z"/>
<path d="M7765 2399 c-11 -17 1 -21 15 -4 8 9 8 15 2 15 -6 0 -14 -5 -17 -11z"/>
<path d="M2300 2292 c0 -6 12 -19 28 -30 32 -22 92 -44 92 -33 0 4 -17 13 -37
20 -21 7 -48 23 -60 34 -13 11 -23 16 -23 9z"/>
<path d="M7621 2255 c-1 -5 -19 -23 -41 -39 -45 -34 -46 -45 -3 -22 37 19 56
42 50 58 -3 7 -6 9 -6 3z"/>
<path d="M3220 2150 c0 -5 5 -10 11 -10 5 0 7 5 4 10 -3 6 -8 10 -11 10 -2 0
-4 -4 -4 -10z"/>
<path d="M7833 2077 c-24 -6 -43 -15 -43 -19 0 -5 12 -5 28 -2 39 10 72 23 72
29 0 6 0 6 -57 -8z"/>
<path d="M3185 2061 c11 -5 56 -11 100 -14 l80 -6 -80 14 c-44 7 -89 14 -100
14 l-20 0 20 -8z"/>
<path d="M7350 2003 c-19 -3 -39 -9 -45 -14 -10 -10 134 -1 175 12 27 8 -65 9
-130 2z"/>
<path d="M2708 1923 c7 -3 16 -2 19 1 4 3 -2 6 -13 5 -11 0 -14 -3 -6 -6z"/>
<path d="M2910 1900 c0 -16 32 -27 98 -34 35 -4 71 -9 80 -12 9 -2 4 2 -13 10
-16 8 -48 15 -71 16 -22 0 -49 7 -60 15 -22 17 -34 19 -34 5z"/>
<path d="M7238 1893 c7 -3 16 -2 19 1 4 3 -2 6 -13 5 -11 0 -14 -3 -6 -6z"/>
<path d="M3084 1775 c11 -8 25 -15 30 -15 6 0 2 7 -8 15 -11 8 -25 15 -30 15
-6 0 -2 -7 8 -15z"/>
<path d="M7448 1706 c-49 -27 -49 -41 0 -21 43 19 76 46 52 44 -8 -1 -32 -11
-52 -23z"/>
<path d="M3685 1675 c28 -8 57 -14 65 -14 26 1 -22 16 -70 22 l-45 7 50 -15z"/>
<path d="M7195 1644 l-60 -13 57 4 c31 2 65 8 75 14 24 14 5 13 -72 -5z"/>
<path d="M7441 1589 c-18 -11 -31 -22 -28 -25 4 -5 77 34 77 42 0 9 -16 3 -49
-17z"/>
<path d="M3300 1550 c19 -5 105 -11 190 -14 95 -3 140 -2 115 3 -54 11 -351
22 -305 11z"/>
<path d="M3491 1446 c3 -4 35 -7 70 -7 35 0 83 -5 107 -10 23 -5 88 -11 145
-14 56 -3 140 -10 187 -16 47 -6 108 -12 135 -15 l50 -4 -60 14 c-89 21 -126
25 -290 37 -252 17 -350 22 -344 15z"/>
<path d="M3320 1402 c0 -10 29 -17 120 -28 75 -9 58 4 -21 17 -35 5 -72 12
-81 15 -10 3 -18 1 -18 -4z"/>
<path d="M6255 1384 c-38 -13 -35 -13 50 -8 95 7 126 14 57 14 -22 0 -46 2
-54 4 -7 2 -31 -2 -53 -10z"/>
<path d="M3970 1281 c0 -27 200 -66 214 -42 5 8 -10 11 -48 11 -30 0 -67 5
-83 11 -51 20 -83 28 -83 20z"/>
<path d="M6810 1278 c-37 -10 -57 -24 -49 -33 3 -3 32 6 65 20 59 24 50 32
-16 13z"/>
<path d="M3130 1251 c0 -8 41 -23 47 -17 2 1 -8 8 -22 14 -14 6 -25 8 -25 3z"/>
<path d="M6295 1250 c-4 -6 6 -7 27 -3 44 8 48 13 10 13 -17 0 -34 -4 -37 -10z"/>
<path d="M6079 1246 c-2 -3 -34 -6 -69 -7 -36 -1 -76 -6 -90 -11 -25 -8 116
-2 265 12 l80 7 -91 1 c-50 1 -93 0 -95 -2z"/>
<path d="M4404 1208 c-3 -4 21 -8 53 -8 32 0 69 -3 83 -5 21 -5 22 -4 5 3 -28
13 -135 20 -141 10z"/>
<path d="M4825 1169 c92 -27 275 -49 404 -47 l136 1 -90 7 c-282 24 -354 31
-390 40 -22 5 -51 9 -65 9 -23 -1 -23 -1 5 -10z"/>
<path d="M4494 1131 c3 -4 38 -9 78 -10 39 -1 137 -11 217 -21 128 -17 382
-28 370 -16 -2 3 -52 6 -109 7 -58 1 -134 7 -170 14 -115 23 -396 42 -386 26z"/>
<path d="M5709 1135 c-3 -2 -46 -5 -95 -6 -49 -1 -107 -5 -129 -10 -23 -4 86
-6 250 -3 276 6 399 14 209 14 -49 0 -121 3 -160 5 -39 3 -73 3 -75 0z"/>
<path d="M4230 1100 c0 -5 12 -10 28 -9 24 0 25 1 7 9 -27 12 -35 12 -35 0z"/>
<path d="M4290 1090 c0 -5 10 -10 23 -10 18 0 19 2 7 10 -19 13 -30 13 -30 0z"/>
<path d="M4354 1075 c11 -8 31 -15 45 -14 26 1 23 3 -34 20 -28 8 -29 8 -11
-6z"/>
<path d="M5236 1051 c5 -5 56 -6 119 -1 l110 7 -119 1 c-72 1 -116 -2 -110 -7z"/>
<path d="M5050 979 c68 -11 290 -11 290 1 0 6 -61 10 -167 8 -116 -1 -154 -4
-123 -9z"/>
</g>
</svg>
