<?xml version="1.0" standalone="no"?>
<svg version="1.0" xmlns="http://www.w3.org/2000/svg"
 width="100%" height="100%" viewBox="0 0 1024.000000 1024.000000"
 preserveAspectRatio="xMidYMid meet">
<metadata>
Created by potrace 1.16, written by Peter Selinger 2001-2019
</metadata>
<defs>
  <linearGradient id="gold" x1="0%" y1="0%" x2="100%" y2="100%">
    <stop offset="0%" stop-color="#f0c979"/>
    <stop offset="55%" stop-color="#d8a84a"/>
    <stop offset="100%" stop-color="#b8852e"/>
  </linearGradient>
</defs>

<g transform="translate(0.000000,1024.000000) scale(0.100000,-0.100000)"
fill="url(#gold)" stroke="none">
<path d="M0 5120 l0 -5120 5120 0 5120 0 0 5120 0 5120 -5120 0 -5120 0 0
-5120z m5219 4752 c46 -31 72 -66 121 -162 39 -75 98 -166 149 -228 20 -24 35
-48 33 -53 -1 -5 5 -9 12 -9 53 0 196 -292 196 -400 0 -54 2 -58 135 -231 39
-51 82 -108 97 -128 66 -87 84 -226 44 -346 -22 -66 -26 -71 -72 -95 -89 -44
-200 -28 -280 42 -84 74 -112 159 -85 256 13 43 -4 41 -19 -2 -72 -220 180
-423 384 -307 32 18 60 31 61 29 9 -9 22 -181 18 -241 -7 -110 -63 -216 -184
-342 -73 -77 -86 -96 -94 -145 -5 -32 -19 -57 -45 -86 -20 -22 -42 -56 -48
-75 -14 -46 -24 -131 -14 -125 4 2 9 19 10 37 5 64 65 169 97 169 2 0 9 -31
16 -70 14 -79 -1 -114 -76 -173 -38 -30 -77 -93 -53 -85 7 3 13 9 13 14 0 5
32 40 72 77 80 77 83 76 83 -37 0 -56 3 -63 69 -160 95 -140 104 -163 106
-269 l1 -89 80 -33 c170 -71 445 -240 581 -356 34 -30 102 -88 150 -129 48
-41 90 -77 93 -80 19 -21 140 -120 159 -130 21 -11 26 -10 39 6 32 43 62 117
87 210 14 55 49 168 79 252 l53 153 -37 72 c-21 40 -48 101 -60 137 -12 36
-26 70 -30 75 -33 47 -73 219 -75 322 -2 80 -6 100 -33 155 -16 35 -43 92 -59
128 -60 138 -86 173 -153 205 -46 22 -73 29 -111 27 -60 -2 -97 15 -138 65
-94 115 51 255 181 175 18 -11 59 -29 90 -40 91 -32 208 -108 290 -188 42 -41
79 -74 84 -74 16 0 -8 292 -36 430 -30 149 -47 197 -77 217 -74 50 -103 89
-103 137 0 82 40 130 117 141 68 10 146 -67 128 -126 -4 -13 8 -50 33 -102 65
-135 162 -393 216 -578 24 -81 72 -170 96 -177 13 -4 13 -2 0 14 -25 32 -50
81 -71 140 l-19 57 39 121 c82 252 122 609 78 693 -76 144 96 292 209 179 44
-44 52 -92 25 -149 -19 -40 -21 -56 -17 -252 1 -116 -1 -261 -5 -324 -7 -103
-6 -122 17 -210 36 -139 32 -139 154 -5 108 119 235 244 353 348 42 36 74 75
86 102 59 132 241 95 241 -49 0 -69 -59 -127 -131 -129 -32 -1 -67 -37 -162
-168 -126 -173 -167 -231 -213 -298 -27 -40 -53 -79 -58 -87 -14 -20 54 -116
74 -105 31 16 467 158 538 175 58 14 75 22 82 40 13 34 63 65 107 67 111 4
178 -121 122 -227 -30 -56 -94 -96 -123 -77 -13 8 -28 11 -81 19 -40 5 -217
-52 -255 -82 -8 -7 -69 -40 -135 -74 -149 -77 -161 -89 -157 -159 4 -52 4 -52
45 -62 23 -6 119 -42 214 -81 145 -60 183 -72 243 -75 98 -5 145 -41 154 -116
11 -92 -110 -162 -180 -106 -16 13 -54 30 -84 37 -30 8 -78 27 -105 42 -64 36
-174 59 -273 58 l-77 -1 -71 -81 c-82 -95 -130 -127 -193 -127 -36 0 -41 -2
-32 -14 15 -18 6 -54 -34 -136 -43 -88 -53 -116 -58 -175 -8 -75 -140 -421
-212 -552 -46 -83 -135 -204 -194 -263 -147 -146 -317 -151 -601 -17 -52 24
-187 73 -300 107 -112 34 -211 66 -220 71 -44 24 -204 79 -228 79 -64 0 -92
-61 -75 -165 6 -43 11 -81 9 -82 -2 -2 -99 95 -217 215 -233 236 -253 263
-340 468 -67 156 -64 250 15 425 54 120 147 227 267 306 22 14 37 28 34 31 -2
3 -10 1 -17 -5 -7 -5 -47 -35 -89 -66 -42 -31 -95 -77 -117 -102 -37 -42 -140
-225 -127 -225 3 0 -1 -12 -8 -27 -41 -80 -39 -206 4 -318 54 -141 126 -267
192 -337 34 -36 82 -87 107 -114 25 -27 59 -61 75 -75 121 -104 262 -270 307
-360 158 -320 132 -539 -102 -874 -155 -222 -172 -253 -154 -282 36 -58 170
-22 380 102 41 25 78 45 81 45 2 0 66 41 140 91 144 97 232 145 298 165 6 2
41 15 79 29 180 67 373 61 531 -18 96 -47 237 -203 322 -355 40 -72 51 -79 92
-62 60 24 195 214 236 331 8 23 19 47 23 53 5 6 9 22 10 36 2 49 12 69 46 89
71 44 144 19 166 -58 12 -43 -2 -79 -46 -116 -29 -25 -38 -43 -51 -100 -17
-76 -69 -188 -128 -275 -82 -122 -87 -167 -25 -224 43 -39 71 -44 145 -26 22
6 105 12 185 15 80 3 159 10 175 15 17 5 52 12 78 16 38 5 50 12 57 29 22 57
92 79 147 45 90 -55 50 -200 -56 -204 -17 -1 -31 -4 -31 -8 0 -5 -4 -8 -9 -8
-5 0 -48 -18 -95 -40 -93 -44 -153 -58 -263 -59 -39 0 -93 -5 -120 -12 -26 -6
-59 -13 -73 -15 -31 -6 -28 -2 -32 -48 l-3 -39 95 -39 c52 -21 163 -72 245
-113 175 -88 222 -99 285 -66 71 37 134 22 166 -40 29 -57 3 -126 -57 -148
-19 -7 -42 -17 -52 -22 -43 -23 -105 -22 -144 1 -21 12 -110 50 -198 82 -270
101 -408 125 -421 73 -10 -41 3 -66 72 -140 36 -38 123 -147 194 -241 150
-199 205 -254 252 -254 53 0 119 -79 116 -139 -5 -96 -115 -146 -198 -89 -19
13 -61 39 -93 57 -63 36 -105 84 -252 291 -109 153 -160 212 -213 247 -29 20
-34 14 -22 -23 6 -16 35 -110 66 -209 30 -99 60 -188 65 -197 5 -10 9 -24 9
-32 0 -8 11 -27 24 -43 52 -62 32 -133 -37 -133 -29 0 -77 32 -77 52 0 4 -24
58 -54 120 -30 62 -66 148 -80 192 -50 153 -104 199 -214 179 -46 -8 -56 -28
-103 -199 -39 -144 -50 -178 -110 -349 -15 -44 -30 -103 -32 -131 -6 -62 -18
-86 -56 -113 -59 -42 -137 -16 -167 55 -19 46 -19 47 26 99 22 25 40 57 40 69
0 13 11 68 24 122 39 160 52 231 70 384 8 61 -13 229 -33 274 -10 24 -35 62
-56 85 l-37 41 -81 -64 c-132 -102 -138 -103 -178 -25 -30 61 -26 68 82 144
84 58 99 73 94 90 -13 41 -20 152 -12 205 8 61 39 148 83 233 39 78 26 152
-29 162 -94 18 -207 -71 -337 -265 -80 -118 -275 -298 -435 -401 -49 -32 -121
-80 -160 -107 -119 -82 -246 -142 -322 -151 -132 -17 -327 5 -372 42 -13 11
-104 127 -141 181 -32 46 -103 136 -107 136 -2 0 9 -25 26 -56 17 -31 29 -60
26 -64 -2 -3 25 -37 60 -75 69 -75 72 -81 31 -65 -40 15 -111 12 -153 -5 -33
-14 -41 -14 -76 0 -83 33 -283 9 -373 -46 -38 -23 -44 -23 -44 -4 0 12 -6 11
-31 -7 -28 -21 -40 -23 -172 -22 -217 1 -257 18 -611 254 -239 160 -314 222
-410 342 -96 119 -268 248 -341 256 -89 8 -106 -72 -50 -234 57 -166 48 -361
-22 -494 l-24 -45 60 -56 c67 -63 145 -129 154 -129 3 0 29 -16 59 -35 29 -20
70 -38 91 -42 128 -20 172 -202 62 -249 -56 -23 -91 -18 -132 19 -21 19 -60
49 -88 67 -64 43 -212 166 -292 244 l-63 60 -29 -34 c-64 -76 -71 -356 -16
-640 2 -14 11 -95 19 -180 12 -126 19 -159 36 -179 59 -74 57 -153 -6 -213
-102 -95 -267 17 -221 151 13 36 12 50 -9 143 -13 57 -25 114 -28 128 -2 14
-6 36 -9 50 -4 14 -25 113 -47 220 -59 279 -72 300 -175 300 -100 0 -139 -43
-225 -250 -17 -41 -46 -102 -64 -136 -19 -33 -37 -79 -41 -102 -8 -49 -79
-122 -119 -122 -100 0 -143 118 -67 187 22 19 42 46 45 59 4 14 31 75 60 137
54 113 122 294 114 303 -6 5 -196 -188 -291 -294 -72 -81 -154 -155 -197 -177
-15 -8 -46 -37 -70 -65 -37 -44 -46 -50 -81 -50 -82 0 -136 98 -95 174 18 33
77 79 102 79 9 0 59 52 112 116 100 120 235 260 358 372 84 76 105 122 85 188
-11 38 -14 40 -68 51 -53 11 -66 10 -182 -20 -144 -37 -255 -63 -355 -85 -38
-9 -74 -22 -80 -29 -6 -8 -34 -22 -62 -31 -50 -16 -53 -16 -93 4 -56 29 -75
68 -72 150 2 76 118 140 203 112 46 -15 147 5 333 69 83 28 193 65 245 81 115
37 107 30 115 105 l7 62 -116 76 c-63 42 -132 86 -153 97 -79 45 -121 68 -208
113 -89 46 -176 123 -190 167 -4 10 -12 19 -20 19 -25 0 -55 51 -55 92 0 175
235 183 266 9 13 -72 94 -127 439 -303 66 -33 132 -69 147 -79 36 -26 27 -30
125 56 l34 30 -39 75 c-164 313 -200 390 -217 460 -19 84 -35 116 -64 125 -59
18 -57 129 2 165 84 51 174 -7 186 -120 5 -43 18 -86 39 -125 69 -133 260
-417 276 -412 5 2 32 39 58 84 61 101 218 263 317 327 137 89 269 118 413 91
191 -36 237 -56 543 -242 303 -184 387 -224 474 -226 79 -3 95 31 46 98 -23
32 -125 208 -167 290 -144 276 -159 596 -38 835 23 46 49 152 52 210 0 8 7 22
15 32 10 11 11 18 4 23 -6 3 -11 15 -11 25 0 11 -8 36 -17 55 -21 44 -41 43
-173 -12 -129 -54 -251 -91 -405 -124 -77 -16 -165 -35 -195 -41 -30 -7 -91
-29 -135 -49 -252 -117 -409 -112 -505 16 -18 25 -37 45 -42 45 -4 0 -8 5 -8
11 0 6 -11 25 -24 42 -13 18 -32 48 -42 67 -11 19 -28 49 -40 65 -72 106 -210
417 -240 545 -9 41 -32 125 -51 186 -35 120 -39 144 -23 160 7 7 -12 19 -61
39 -63 25 -116 64 -154 116 -43 57 -75 110 -80 132 -4 14 -14 32 -22 39 -35
29 -256 31 -353 4 -186 -53 -323 -16 -323 88 0 86 76 138 159 110 32 -11 61
-14 88 -9 23 4 57 9 76 12 19 2 73 11 119 19 46 8 115 14 153 14 l69 0 -1 53
c-1 28 -1 72 -1 95 l1 44 52 -43 c28 -24 66 -67 85 -96 37 -59 53 -70 27 -21
-9 18 -20 43 -23 55 -10 37 -270 226 -396 288 -114 55 -262 102 -289 92 -9 -4
-20 -17 -25 -31 -22 -57 -111 -52 -111 7 0 18 -7 45 -15 60 -14 28 -13 31 21
83 81 122 144 137 294 72 58 -26 68 -29 174 -64 90 -29 123 -45 277 -127 48
-25 90 -43 93 -40 23 23 -1 135 -64 298 -23 61 -50 130 -59 155 -10 25 -46
103 -81 173 -59 120 -65 129 -109 152 -82 42 -121 98 -121 176 0 117 107 181
216 129 45 -22 124 -100 124 -124 0 -7 31 -53 70 -100 136 -169 165 -221 261
-468 60 -154 76 -255 53 -321 -8 -22 -13 -60 -13 -86 1 -25 3 -35 6 -21 2 14
10 54 18 90 13 58 24 122 55 310 4 30 11 82 14 115 3 33 8 71 11 85 3 14 10
54 15 90 22 138 53 267 87 359 19 53 38 126 42 163 10 104 63 162 151 162 153
0 205 -214 73 -297 -38 -24 -40 -30 -72 -143 -54 -198 -62 -383 -26 -594 27
-163 28 -166 81 -179 55 -14 54 -15 100 62 64 106 105 158 215 267 92 91 108
111 114 147 24 147 228 143 242 -4 6 -59 -18 -95 -75 -114 -39 -12 -72 -36
-72 -51 0 -5 -30 -40 -67 -76 -55 -54 -78 -87 -119 -172 -66 -134 -124 -318
-104 -330 20 -12 31 -4 75 52 110 141 202 210 320 243 33 9 72 23 87 30 80 45
192 -17 182 -101 -9 -83 -32 -99 -154 -109 -149 -13 -208 -65 -319 -285 -41
-80 -84 -163 -97 -185 -12 -22 -34 -84 -48 -138 -40 -152 -90 -269 -138 -323
-19 -21 -19 -25 -3 -110 9 -49 19 -102 22 -119 27 -172 86 -367 125 -411 l30
-34 52 42 c68 57 183 156 284 245 207 183 455 330 697 413 46 16 50 20 47 46
-10 104 27 208 117 334 58 81 61 88 61 145 0 33 3 70 6 83 7 24 24 30 24 8 0
-15 65 -77 99 -96 12 -6 30 -28 41 -50 11 -21 25 -42 32 -46 9 -6 9 -3 -1 9
-7 9 -10 17 -7 17 4 0 1 10 -6 23 -7 12 -13 59 -13 107 -1 97 -38 197 -80 220
-17 9 -26 27 -35 69 -11 49 -23 69 -110 171 -62 71 -113 143 -137 190 l-38 75
1 149 c0 120 3 151 15 159 12 8 10 18 -15 69 -63 127 -27 282 100 423 40 45
98 125 124 173 23 40 40 54 40 32 0 -25 58 -94 126 -150 185 -153 265 -395
187 -562 -74 -158 -206 -237 -343 -205 l-35 8 30 -20 c92 -63 265 23 349 172
72 130 70 256 -6 415 -37 78 -55 100 -164 208 -134 132 -139 141 -132 242 9
123 76 249 218 412 36 41 76 93 90 115 13 22 27 42 30 45 3 3 21 37 40 75 43
90 96 163 134 186 49 30 133 26 185 -9z m-629 -2499 c31 -70 43 -128 36 -168
-8 -43 -16 -43 -61 -4 -52 46 -69 83 -61 136 13 96 52 112 86 36z m2183 -4001
c18 -20 77 -148 77 -167 0 -13 31 -106 79 -236 48 -132 66 -408 37 -574 -44
-249 -84 -354 -241 -630 -38 -66 -84 -149 -103 -185 -19 -36 -43 -81 -53 -100
-10 -19 -37 -96 -59 -170 -61 -198 -77 -241 -133 -338 -89 -156 -197 -270
-351 -371 -102 -66 -114 -64 -44 6 89 90 152 265 141 389 -9 111 -76 240 -156
300 -56 42 -80 100 -80 197 -1 46 -4 72 -8 61 -13 -32 -9 -127 6 -169 8 -22
15 -41 15 -42 0 0 -32 13 -72 29 -77 33 -180 48 -192 29 -4 -7 0 -11 11 -11
88 0 283 -89 341 -155 127 -144 142 -310 46 -511 -62 -132 -225 -252 -434
-320 -111 -36 -329 -41 -447 -10 -83 21 -85 31 -11 40 132 17 440 145 550 230
89 67 139 276 90 371 -66 129 -235 157 -327 54 l-30 -34 30 27 c52 46 165 64
221 35 105 -55 135 -205 68 -341 -29 -59 -102 -136 -130 -136 -9 0 -28 -6 -42
-14 -186 -97 -349 -157 -524 -193 -37 -7 -299 59 -286 73 3 2 31 6 64 9 324
26 653 144 754 271 64 79 84 158 55 214 -28 53 -95 31 -95 -31 0 -33 -22 -48
-45 -29 -18 15 -19 53 -4 83 10 20 10 21 -5 6 -24 -22 -25 -94 -3 -116 23 -24
46 -9 71 44 41 90 89 56 63 -46 -29 -113 -82 -144 -163 -96 -95 56 -121 163
-60 253 18 27 43 70 55 95 35 72 47 78 160 84 100 6 102 6 168 -28 130 -66
176 -139 177 -279 0 -91 -10 -123 -68 -210 -35 -53 -127 -152 -134 -145 -3 2
-22 -10 -42 -28 -20 -17 -67 -50 -104 -72 -37 -22 -74 -46 -84 -53 -28 -21 59
16 98 42 20 13 58 35 85 49 255 130 359 483 193 649 -83 83 -231 126 -338 99
-87 -23 -97 -30 -134 -99 -19 -37 -44 -80 -56 -97 -24 -37 -28 -151 -6 -193
21 -39 65 -78 114 -100 39 -18 41 -20 25 -34 -27 -24 -173 -95 -218 -107 -22
-6 -87 -26 -145 -44 -111 -36 -249 -63 -367 -71 -62 -4 -76 -2 -105 17 -18 12
-50 31 -71 42 -21 11 -54 33 -74 49 -51 42 -23 49 108 25 154 -29 257 -28 344
3 139 50 295 135 279 151 -6 5 -70 -26 -89 -44 -18 -18 -34 -8 -70 46 -60 90
-60 170 -3 315 34 84 44 97 151 206 l99 101 46 -13 c25 -8 88 -14 140 -14 162
0 278 76 432 284 36 48 70 93 75 99 6 7 27 33 48 59 21 26 122 125 224 220
316 294 412 447 429 681 9 116 -16 154 -72 112 -72 -54 -51 53 26 133 55 57
58 69 34 143 -17 50 -16 211 0 238 10 16 31 14 49 -7z m-1598 -293 c7 -8 6
-13 -2 -16 -15 -5 -18 -33 -4 -33 5 0 12 7 15 16 5 14 13 9 39 -25 35 -46 51
-39 17 9 l-21 30 33 20 c77 47 153 19 279 -102 120 -114 147 -180 136 -327 -9
-121 -45 -196 -117 -246 -46 -32 -60 -30 -205 26 -55 21 -152 55 -215 75 -63
19 -158 49 -210 66 -232 73 -279 86 -321 89 -51 4 -63 25 -68 118 -4 86 76
168 192 195 15 4 45 22 66 41 21 19 56 42 77 51 74 31 284 40 309 13z m-505
-490 c499 -175 690 -229 797 -225 39 2 43 0 62 -40 49 -97 8 -184 -118 -249
-46 -23 -220 -5 -451 49 -114 26 -126 26 -245 -10 -144 -44 -265 -94 -227 -94
14 0 34 -45 34 -78 1 -30 -34 -67 -89 -93 -38 -19 -59 -49 -33 -49 6 0 10 4
10 10 0 5 24 21 53 35 69 32 84 59 71 126 -12 58 -11 60 106 97 183 59 223 61
375 26 94 -22 261 -50 332 -56 l31 -3 -23 -29 c-32 -40 -87 -47 -246 -28 -151
19 -271 7 -374 -35 -101 -41 -147 -121 -94 -166 28 -25 32 -17 13 22 -22 43
-8 74 43 96 21 9 54 24 73 32 71 31 192 43 285 30 108 -16 192 -19 228 -9 44
12 45 11 10 -39 -23 -32 -34 -39 -63 -39 -87 0 -346 -61 -385 -90 -5 -4 -59
-28 -120 -54 -60 -26 -133 -59 -161 -73 -103 -52 -189 4 -285 187 -84 160
-112 206 -117 192 -2 -7 8 -34 22 -60 15 -26 47 -90 72 -142 56 -115 82 -151
137 -188 45 -30 118 -56 127 -44 9 12 64 37 342 158 42 18 114 40 160 49 46
10 92 21 103 26 22 10 103 28 124 29 14 0 14 -4 -9 -105 -6 -27 -8 -79 -5
-115 l6 -65 -42 -30 c-33 -24 -160 -170 -251 -289 -37 -49 -76 -256 -48 -256
6 0 10 15 10 33 0 102 45 197 158 337 123 151 192 211 192 167 0 -8 15 -31 33
-52 l33 -38 -112 -111 c-101 -101 -114 -117 -137 -181 -64 -174 -63 -249 3
-346 16 -24 30 -48 30 -54 0 -11 -159 -77 -232 -96 -45 -12 -69 -10 -253 21
-27 5 -75 9 -106 9 l-56 1 -75 78 c-106 111 -108 126 -10 95 160 -51 522 -52
522 -2 0 12 -17 11 -59 -1 -76 -21 -318 -6 -478 31 -98 23 -115 36 -147 113
-17 42 -17 42 54 17 30 -11 91 -22 135 -26 44 -3 94 -8 110 -10 27 -4 255 -8
298 -6 10 1 16 5 13 10 -3 4 -16 6 -29 4 -70 -14 -96 118 -45 228 43 94 306
375 373 399 19 7 87 71 82 77 -31 31 -394 -309 -471 -440 -30 -50 -41 -165
-23 -231 l8 -28 -63 6 c-35 3 -106 9 -158 11 -276 14 -338 48 -396 213 -37
104 -32 110 34 44 31 -33 81 -71 109 -86 63 -31 95 -34 37 -3 -187 102 -227
175 -230 417 -2 162 -1 167 33 280 57 192 60 204 51 236 -13 43 -1 127 26 186
14 29 33 73 44 99 37 87 119 157 247 213 33 14 62 25 65 26 3 0 70 -23 150
-51z"/>
<path d="M5360 9539 c0 -4 18 -41 40 -83 22 -43 43 -97 47 -122 8 -61 28 -71
21 -11 -6 50 -53 157 -86 197 -12 14 -21 22 -22 19z"/>
<path d="M4836 9467 c-61 -109 -77 -216 -36 -242 18 -11 50 -83 50 -111 0 -15
7 -50 15 -78 8 -28 19 -69 24 -91 l9 -40 1 50 c1 28 -3 65 -9 84 -5 19 -12 57
-15 85 -7 56 -24 90 -64 122 -25 21 -25 23 -13 79 6 32 30 89 52 126 43 72 45
79 30 79 -5 0 -25 -28 -44 -63z"/>
<path d="M5538 9370 c4 -19 7 -71 7 -115 0 -86 -10 -107 -102 -222 -19 -24
-30 -43 -24 -43 14 0 108 108 128 149 25 50 25 193 1 236 l-17 30 7 -35z"/>
<path d="M4690 9349 c-25 -59 -18 -147 18 -218 37 -74 77 -130 101 -138 9 -4
19 -11 23 -17 5 -7 8 -7 8 2 0 7 -15 26 -34 42 -78 69 -129 216 -107 310 12
54 8 62 -9 19z"/>
<path d="M5422 9249 c-30 -37 -54 -96 -47 -118 3 -9 -2 -39 -10 -67 -17 -56
-20 -134 -5 -134 6 0 10 15 10 33 0 19 7 56 15 83 8 27 15 68 15 91 0 30 7 50
26 72 14 17 24 39 22 49 -3 16 -6 15 -26 -9z"/>
<path d="M5641 9096 c-1 -95 -25 -131 -130 -201 -50 -33 -91 -63 -91 -67 0
-19 32 -4 110 50 98 67 130 115 129 192 -1 73 -17 96 -18 26z"/>
<path d="M4587 9099 c-8 -31 -1 -74 19 -119 21 -47 191 -160 238 -159 l31 1
-30 10 c-26 10 -124 79 -163 116 -7 6 -20 12 -28 12 -17 0 -43 59 -53 120 -6
39 -8 42 -14 19z"/>
<path d="M5688 8919 c-18 -23 -70 -74 -116 -115 -45 -41 -78 -74 -72 -74 6 0
18 6 25 13 8 6 43 35 78 62 70 55 143 140 128 149 -5 4 -25 -12 -43 -35z"/>
<path d="M5464 8706 c-15 -17 -36 -57 -32 -61 2 -1 15 15 30 36 26 36 27 54 2
25z"/>
<path d="M4470 8693 c-203 -69 -220 -342 -22 -361 58 -5 86 7 112 51 42 68 19
139 -52 166 -42 16 -101 -42 -73 -71 13 -12 56 17 51 35 -7 29 30 20 59 -15
51 -60 8 -151 -72 -151 -50 0 -116 34 -131 68 -19 40 -15 121 8 165 45 89 178
121 275 67 56 -32 56 -32 48 -11 -14 38 -149 76 -203 57z"/>
<path d="M5620 8683 c-98 -42 -170 -155 -170 -267 0 -184 101 -325 238 -332
53 -3 55 -3 19 6 -134 34 -224 149 -235 300 -17 246 235 386 395 218 64 -66
82 -170 43 -238 l-21 -35 25 29 c51 61 42 156 -23 243 -64 85 -176 117 -271
76z"/>
<path d="M4444 8621 c-40 -18 -84 -63 -84 -85 1 -6 8 1 16 16 53 98 235 90
293 -12 108 -193 -121 -401 -349 -317 -54 20 -63 15 -19 -12 182 -111 432 38
417 248 -9 132 -153 217 -274 162z"/>
<path d="M5625 8622 c-42 -26 -63 -52 -41 -52 9 0 16 4 16 10 0 19 49 41 112
49 l63 8 -60 2 c-42 1 -69 -4 -90 -17z"/>
<path d="M5382 8573 c-25 -68 -32 -100 -32 -153 0 -124 38 -234 106 -310 73
-81 261 -149 302 -108 19 19 14 30 -7 18 -43 -23 -130 -1 -217 55 -143 92
-201 321 -129 508 4 9 3 17 -3 17 -5 0 -14 -12 -20 -27z"/>
<path d="M2730 8528 c-26 -122 -41 -340 -42 -631 0 -269 2 -320 16 -306 3 2 7
173 9 379 4 347 19 553 42 590 3 5 1 11 -4 14 -5 4 -14 -18 -21 -46z"/>
<path d="M5774 8547 c15 -11 12 -12 -25 -12 -97 0 -118 -117 -33 -184 71 -56
186 15 183 114 l-2 40 -6 -47 c-16 -111 -130 -150 -188 -65 -29 42 -29 78 0
105 29 27 52 28 74 2 10 -11 23 -20 30 -20 7 0 13 9 13 20 0 22 -33 60 -52 60
-6 0 -4 -6 6 -13z"/>
<path d="M4765 8418 c0 -158 -60 -279 -160 -323 -22 -10 -25 -14 -11 -14 56
-3 142 83 172 170 22 64 29 187 13 227 -13 32 -14 29 -14 -60z"/>
<path d="M7760 8420 c0 -42 -57 -457 -65 -469 -23 -38 -57 -298 -48 -368 10
-74 22 -47 22 50 0 62 10 141 30 237 52 253 90 590 67 590 -3 0 -6 -18 -6 -40z"/>
<path d="M1980 8405 c0 -4 25 -44 55 -90 75 -115 216 -412 257 -540 l18 -60
-4 52 c-11 116 -231 567 -310 632 -9 7 -16 10 -16 6z"/>
<path d="M5670 8337 c0 -3 16 -18 35 -33 40 -30 104 -46 144 -34 23 7 21 8
-15 9 -49 1 -120 25 -146 48 -10 9 -18 13 -18 10z"/>
<path d="M4515 8289 c-22 -10 -58 -19 -80 -20 -37 -1 -38 -1 -12 -9 33 -10 87
3 119 30 28 24 24 24 -27 -1z"/>
<path d="M7210 8240 c0 -5 9 -32 20 -61 36 -90 59 -189 96 -402 l35 -208 -22
-47 c-12 -26 -26 -55 -31 -64 -5 -11 -5 -18 0 -18 5 0 23 29 41 64 l31 63 -15
104 c-36 243 -80 432 -121 527 -21 49 -34 65 -34 42z"/>
<path d="M5080 8121 c-67 -21 -244 -138 -328 -218 -31 -30 -64 -59 -72 -64
-11 -7 -8 -8 10 -3 14 4 44 23 66 43 130 114 325 231 384 231 33 0 348 -173
365 -200 9 -14 65 -42 65 -33 -1 11 -131 110 -198 151 -148 90 -223 114 -292
93z"/>
<path d="M8426 8088 c-247 -255 -420 -451 -414 -470 2 -6 33 24 69 68 35 43
133 151 217 239 143 149 182 195 166 195 -3 0 -20 -15 -38 -32z"/>
<path d="M3329 8047 c-40 -30 -176 -220 -212 -295 -33 -71 -87 -214 -87 -231
0 -17 23 25 49 92 64 162 101 224 214 365 57 71 69 93 36 69z"/>
<path d="M5074 7965 c-34 -7 -77 -21 -95 -31 -46 -23 -176 -111 -184 -124 -12
-20 14 -10 66 26 204 137 282 149 446 67 56 -28 112 -58 125 -67 12 -9 29 -16
38 -16 49 1 -154 121 -245 145 -69 18 -71 18 -151 0z"/>
<path d="M5801 7953 c21 -56 -69 -274 -175 -423 -98 -138 -142 -248 -133 -336
9 -85 80 -232 98 -203 4 7 1 22 -7 33 -8 11 -14 26 -14 34 0 7 -8 22 -18 33
-11 11 -25 44 -32 74 -22 93 9 186 108 324 66 92 137 224 158 297 8 30 20 56
25 59 19 12 9 135 -12 135 -5 0 -4 -12 2 -27z"/>
<path d="M4420 7925 c0 -70 89 -253 210 -435 116 -173 132 -246 84 -385 -31
-91 -28 -134 5 -60 78 174 63 265 -78 472 -86 127 -190 330 -197 386 -7 49
-24 65 -24 22z"/>
<path d="M5055 7843 c-71 -36 -143 -84 -195 -131 -73 -65 -41 -57 56 14 104
76 175 115 213 116 35 1 123 -40 180 -83 64 -49 121 -89 126 -89 44 0 -117
124 -228 176 -65 30 -89 30 -152 -3z"/>
<path d="M5600 7849 c0 -5 11 -9 25 -9 14 0 25 -4 25 -9 0 -11 -81 -131 -129
-191 -44 -55 -86 -116 -134 -195 -20 -33 -59 -83 -87 -112 -49 -52 -67 -102
-40 -118 6 -3 10 -14 10 -23 0 -9 14 -35 30 -56 21 -27 28 -46 24 -60 -7 -24
-72 -106 -83 -106 -4 0 -28 41 -54 91 l-47 90 0 124 c0 145 -14 173 -24 47 -4
-51 -3 -88 3 -90 30 -10 -70 -262 -105 -262 -7 0 -29 23 -49 50 l-37 51 36 52
c19 28 41 73 47 99 l13 46 -48 54 c-27 29 -64 76 -82 103 -18 28 -74 100 -123
160 -50 61 -107 143 -127 184 -38 75 -56 82 -33 14 15 -47 99 -172 180 -266
20 -23 53 -68 73 -99 21 -32 58 -80 82 -107 57 -64 53 -116 -15 -201 -19 -24
-19 -24 -42 -5 l-22 20 18 -35 c18 -35 60 -86 173 -212 34 -38 62 -77 62 -85
0 -10 8 -5 22 13 12 16 38 47 57 69 20 23 57 69 84 103 l47 62 30 -20 c17 -11
43 -29 60 -40 16 -11 34 -20 40 -20 21 0 8 -17 -70 -88 -85 -78 -160 -182
-229 -319 -23 -46 -45 -83 -50 -83 -5 0 -19 24 -31 53 -23 54 -53 120 -101
222 -15 34 -60 97 -98 140 -39 44 -71 83 -71 86 0 3 18 14 40 24 22 10 45 24
51 32 19 23 -10 15 -68 -17 -29 -16 -64 -30 -78 -30 -36 0 -31 -13 14 -38 97
-54 169 -152 245 -329 31 -73 65 -147 75 -165 11 -18 25 -64 31 -103 16 -98
22 -95 19 10 -3 102 0 114 48 199 103 177 148 236 262 340 83 75 91 86 64 83
-10 0 -53 17 -95 38 -78 40 -83 48 -53 85 34 40 76 170 56 170 -5 0 -13 -17
-16 -37 -3 -21 -13 -54 -22 -73 -9 -19 -16 -38 -15 -42 6 -24 -30 -2 -53 34
-47 70 -45 105 8 164 25 27 73 94 107 148 34 54 96 144 137 199 103 139 114
174 61 188 -16 4 -28 3 -28 -2z m-395 -854 c33 -44 33 -42 -25 -106 l-50 -54
-26 30 c-14 17 -36 44 -50 61 l-24 32 32 50 c18 28 41 66 52 84 l18 33 24 -49
c13 -26 35 -63 49 -81z"/>
<path d="M6772 7749 c2 -6 34 -23 71 -39 89 -37 203 -121 268 -195 97 -112
103 -89 8 26 -61 72 -217 179 -297 203 -32 9 -52 11 -50 5z"/>
<path d="M5074 7690 c-59 -29 -174 -123 -164 -133 3 -3 34 17 70 44 90 69 156
100 187 88 36 -13 112 -66 156 -107 21 -21 37 -30 37 -22 0 32 -133 132 -206
154 -13 4 -42 -5 -80 -24z"/>
<path d="M1615 7687 c22 -12 72 -33 110 -45 105 -35 328 -149 369 -189 42 -41
58 -38 28 4 -35 49 -220 144 -417 214 -126 44 -147 48 -90 16z"/>
<path d="M7820 7640 c0 -114 -49 -189 -160 -245 -72 -36 -124 -76 -141 -106
-7 -13 5 -8 36 16 26 19 79 54 118 76 130 75 169 131 165 233 -2 57 -18 80
-18 26z"/>
<path d="M2354 7620 c-12 -5 -28 -17 -35 -28 -8 -10 -24 -22 -36 -26 -12 -4
-35 -28 -52 -54 -17 -26 -35 -52 -41 -59 -5 -7 -10 -17 -10 -23 0 -5 -5 -10
-10 -10 -7 0 -8 -14 -4 -37 30 -165 188 -196 319 -63 22 22 53 49 68 59 16 10
25 21 20 24 -5 3 -46 -26 -92 -64 -98 -80 -144 -98 -194 -74 -52 25 -97 71
-97 100 0 71 70 173 150 218 65 36 74 62 14 37z"/>
<path d="M2840 7620 c0 -5 12 -17 28 -27 35 -22 107 -85 107 -94 0 -10 147
-161 151 -156 7 6 -212 252 -240 270 -29 19 -46 22 -46 7z"/>
<path d="M3520 7615 c-131 -41 -195 -106 -290 -295 -34 -68 -43 -80 -56 -70
-7 7 -14 18 -14 25 0 7 -9 23 -20 36 l-20 24 20 -48 c11 -27 20 -57 20 -68 0
-10 5 -19 11 -19 5 0 8 -4 4 -9 -3 -5 0 -13 6 -17 7 -4 9 -3 6 3 -7 11 56 137
109 220 19 29 34 57 34 62 0 29 129 119 215 149 66 23 46 29 -25 7z"/>
<path d="M2691 7564 c0 -11 3 -14 6 -6 3 7 2 16 -1 19 -3 4 -6 -2 -5 -13z"/>
<path d="M5082 7546 c-40 -30 -58 -54 -48 -64 3 -2 26 14 52 37 l46 41 29 -21
c16 -11 29 -25 29 -30 0 -5 10 -9 22 -9 21 0 21 1 -7 30 -47 49 -75 53 -123
16z"/>
<path d="M8740 7505 c-41 -12 -120 -42 -175 -65 -55 -23 -127 -51 -159 -62
-92 -31 -180 -75 -207 -105 l-24 -27 39 23 c51 29 484 204 558 226 32 9 60 21
63 26 9 13 -10 10 -95 -16z"/>
<path d="M7211 7471 c-11 -27 -21 -54 -21 -59 0 -6 -16 -30 -36 -54 -33 -38
-64 -95 -64 -115 0 -17 93 128 125 195 38 80 39 82 26 82 -5 0 -18 -22 -30
-49z"/>
<path d="M7494 7474 c-38 -20 -96 -49 -129 -65 -33 -16 -67 -33 -75 -38 -28
-15 -98 -172 -104 -231 -10 -108 12 -237 56 -330 22 -47 51 -114 64 -150 29
-78 42 -106 67 -143 29 -43 33 -23 4 25 -14 24 -32 66 -40 94 -8 28 -37 97
-65 155 -56 116 -72 178 -72 277 0 136 60 280 129 309 106 45 231 108 235 120
7 18 8 18 -70 -23z"/>
<path d="M2780 7496 c0 -2 42 -29 94 -60 187 -112 245 -238 200 -439 -54 -236
-58 -245 -168 -376 -78 -91 -100 -127 -66 -106 21 13 162 189 183 229 24 47
56 165 57 213 0 17 5 44 11 60 16 43 12 179 -7 237 -24 72 -107 152 -212 205
-80 40 -92 45 -92 37z"/>
<path d="M8037 7429 c67 -70 86 -111 108 -239 14 -75 14 -75 12 -20 -2 124
-34 209 -99 265 -74 63 -86 60 -21 -6z"/>
<path d="M2606 7390 c85 -34 166 -246 124 -324 -28 -53 -117 -81 -174 -55 -34
16 -65 6 -122 -39 -144 -114 -228 -114 -312 1 -27 36 -46 52 -63 53 -106 6
-280 3 -359 -7 -52 -7 -113 -11 -135 -11 -34 2 -37 0 -21 -10 15 -8 47 -8 130
2 93 10 275 14 376 7 17 -1 33 -15 51 -42 50 -77 95 -105 161 -99 43 4 129 45
166 79 50 46 88 61 125 47 89 -32 193 24 210 113 19 101 -87 297 -159 294 -17
0 -17 -1 2 -9z"/>
<path d="M2840 7335 c0 -8 7 -36 16 -62 20 -58 20 -159 0 -207 -19 -46 -88
-120 -131 -141 -44 -20 -46 -38 -2 -23 17 7 57 37 87 67 91 92 111 190 64 313
-26 68 -34 81 -34 53z"/>
<path d="M7437 7303 c-32 -61 -40 -144 -23 -228 27 -129 35 -111 14 31 -11 75
-10 86 11 149 23 72 22 96 -2 48z"/>
<path d="M4844 7212 c3 -28 10 -60 16 -70 8 -13 9 -5 4 33 -10 73 -26 103 -20
37z"/>
<path d="M7313 7213 c-5 -16 -8 -75 -8 -133 0 -136 22 -210 75 -260 66 -60
109 -92 122 -88 11 4 -98 98 -113 98 -3 0 -15 17 -27 38 -29 51 -45 166 -40
279 4 99 3 109 -9 66z"/>
<path d="M7605 7206 c-39 -51 -37 -156 4 -197 28 -28 102 -44 86 -19 -3 6 -14
10 -24 10 -10 0 -30 9 -45 21 -57 45 -25 195 44 200 48 3 51 -1 21 -27 -26
-21 -31 -33 -31 -69 0 -76 13 -95 62 -94 l43 2 -40 6 c-40 6 -40 6 -43 54 -4
64 23 103 84 119 65 18 54 24 -46 26 l-90 1 -25 -33z"/>
<path d="M2515 7152 c-27 -10 -75 -36 -105 -59 -79 -59 -163 -82 -225 -59 -20
8 -20 7 -1 -8 48 -39 167 -10 252 60 104 85 198 82 223 -6 l9 -35 1 38 c2 76
-57 103 -154 69z"/>
<path d="M7490 7081 c0 -27 4 -61 10 -75 12 -32 78 -106 95 -106 6 0 -5 18
-26 40 -42 44 -73 126 -63 166 4 15 2 24 -5 24 -7 0 -11 -20 -11 -49z"/>
<path d="M7775 7120 c-3 -5 11 -14 32 -19 21 -6 62 -26 91 -45 112 -72 197
-67 330 20 77 51 58 52 -36 3 -119 -62 -164 -63 -273 -9 -95 48 -136 62 -144
50z"/>
<path d="M2981 7094 c-6 -112 -80 -296 -168 -420 -53 -75 -57 -104 -5 -37 57
73 100 144 126 210 27 65 60 223 53 251 -4 13 -5 12 -6 -4z"/>
<path d="M2569 7081 c-13 -11 -21 -22 -18 -25 3 -3 16 5 29 19 28 30 22 33
-11 6z"/>
<path d="M4570 6944 c24 -32 67 -87 95 -120 27 -34 66 -85 85 -114 19 -28 56
-77 83 -108 83 -98 137 -218 137 -308 0 -28 -16 -79 -46 -149 -40 -94 -74
-228 -61 -241 2 -2 14 30 27 73 13 43 41 116 63 163 59 127 59 213 -2 331 -65
126 -312 447 -389 506 l-35 26 43 -59z"/>
<path d="M5584 6858 c-260 -266 -379 -492 -334 -634 7 -22 37 -93 68 -158 30
-66 55 -125 55 -133 0 -7 4 -13 9 -13 22 0 -4 82 -69 224 -49 105 -55 146 -32
230 32 119 167 314 330 477 71 70 132 149 116 149 -2 0 -67 -64 -143 -142z"/>
<path d="M7830 6926 c71 -71 131 -95 223 -91 75 4 75 5 18 -58 -45 -50 -161
-90 -234 -81 -74 10 -108 39 -134 113 -12 35 -27 69 -34 75 -9 8 -10 6 -5 -9
5 -11 14 -45 22 -75 25 -94 77 -130 186 -130 106 0 227 73 258 156 6 16 17 24
32 24 26 0 109 54 127 82 17 28 0 22 -56 -21 -45 -33 -64 -41 -135 -51 -115
-17 -179 1 -253 71 -71 67 -83 62 -15 -5z"/>
<path d="M8290 6923 c0 -6 29 -13 64 -17 67 -7 146 -33 276 -91 116 -52 147
-52 40 0 -154 76 -235 104 -310 111 -45 5 -70 3 -70 -3z"/>
<path d="M7440 6891 c0 -12 18 -30 50 -50 74 -46 79 -83 56 -387 -1 -16 1 -39
5 -50 7 -17 8 -16 9 6 2 14 2 30 1 35 0 6 5 56 12 110 21 166 -1 268 -64 300
-16 9 -39 25 -50 36 -19 19 -19 19 -19 0z"/>
<path d="M2801 6845 c-19 -19 -39 -31 -43 -29 -4 3 -8 0 -8 -5 0 -22 -2 -26
-14 -41 -18 -21 -43 -88 -50 -135 -12 -73 -38 -170 -58 -208 l-19 -38 21 13
c23 15 31 35 65 181 28 120 50 169 98 225 69 79 74 102 8 37z"/>
<path d="M4515 6870 c4 -8 32 -44 60 -80 55 -69 175 -275 175 -301 0 -8 4 -19
9 -25 19 -21 51 -128 51 -172 -1 -186 -155 -467 -329 -599 -92 -69 -95 -72
-87 -80 4 -4 10 -3 14 3 4 5 39 31 79 57 96 63 171 148 223 249 23 45 46 88
50 93 8 12 58 153 66 187 10 42 7 158 -4 181 -6 12 -29 65 -52 117 -23 52 -49
106 -58 120 -9 14 -17 27 -17 30 0 8 -76 121 -101 153 -29 34 -91 87 -79 67z"/>
<path d="M2557 6853 c-3 -4 -8 -26 -12 -48 -29 -159 -166 -179 -296 -42 -69
72 -90 70 -29 -3 83 -99 185 -133 269 -91 52 27 58 37 71 114 11 62 10 91 -3
70z"/>
<path d="M4392 6804 c-35 -88 -35 -157 0 -261 l22 -63 -23 -55 c-21 -51 -22
-60 -12 -143 23 -184 24 -255 7 -305 -21 -64 -20 -67 9 -32 113 133 189 289
209 424 l12 86 32 -66 c48 -99 44 -137 -23 -283 -30 -66 -59 -122 -63 -125 -5
-3 -33 -35 -63 -71 -29 -36 -74 -85 -100 -110 -43 -43 -57 -62 -119 -164 -35
-58 -7 -34 35 29 20 29 71 89 113 133 137 142 170 186 219 293 64 139 67 210
12 314 -29 57 -66 100 -57 68 14 -52 -55 -258 -130 -386 -56 -97 -75 -28 -27
103 47 131 64 198 75 295 13 117 13 265 0 285 -8 13 -10 12 -10 -4 -2 -233
-23 -439 -49 -470 -5 -6 -17 -37 -26 -68 -9 -32 -18 -58 -20 -58 -1 0 -10 42
-19 93 l-17 92 26 58 c30 69 31 82 5 142 -22 52 -27 155 -9 218 13 48 7 70 -9
31z"/>
<path d="M5870 6777 c0 -67 -20 -135 -77 -263 -44 -99 -45 -102 -27 -120 19
-19 19 -18 20 21 0 24 14 68 33 110 60 126 92 281 62 299 -8 5 -11 -9 -11 -47z"/>
<path d="M7782 6823 c-8 -3 -1 -15 19 -34 36 -33 49 -31 29 5 -14 27 -28 35
-48 29z"/>
<path d="M2412 6795 c-21 -45 -14 -77 6 -35 13 25 23 34 37 32 16 -3 17 -2 6
12 -19 23 -36 20 -49 -9z"/>
<path d="M5732 6710 c1 -52 -5 -79 -30 -138 -36 -86 -16 -78 28 11 26 52 29
67 24 111 -10 80 -24 90 -22 16z"/>
<path d="M7412 6695 c-1 -16 10 -52 23 -80 22 -46 24 -47 24 -21 1 16 -6 34
-15 41 -9 6 -20 29 -24 51 -7 34 -8 35 -8 9z"/>
<path d="M5617 6643 c-77 -87 -6 -331 174 -596 74 -107 95 -127 74 -66 -18 49
-20 139 -6 254 10 82 7 118 -4 49 -3 -22 -12 -67 -19 -100 -8 -34 -11 -73 -9
-88 18 -91 -95 69 -154 219 -67 169 -75 223 -45 313 12 37 11 39 -11 15z"/>
<path d="M2387 6533 c-4 -3 -7 -16 -6 -27 0 -19 1 -19 10 3 10 24 8 36 -4 24z"/>
<path d="M2480 6510 c1 -17 39 -112 39 -99 1 20 -19 81 -30 94 -5 5 -9 7 -9 5z"/>
<path d="M4110 6471 c-137 -45 -520 -248 -520 -276 0 -11 73 24 135 65 92 59
387 196 455 211 54 11 109 -3 132 -36 4 -5 10 -6 14 -2 7 7 -36 46 -65 59 -29
12 -65 7 -151 -21z"/>
<path d="M7710 6468 c0 -25 3 -29 10 -18 13 20 13 50 0 50 -5 0 -10 -15 -10
-32z"/>
<path d="M7840 6491 c0 -5 5 -13 10 -16 6 -3 10 -2 10 4 0 5 -4 13 -10 16 -5
3 -10 2 -10 -4z"/>
<path d="M2390 6467 c0 -30 28 -81 65 -117 43 -42 45 -35 4 16 -18 22 -40 57
-50 79 -11 23 -19 32 -19 22z"/>
<path d="M5955 6465 c-29 -13 -28 -14 23 -8 59 7 192 -38 192 -64 0 -7 5 -13
12 -13 7 0 28 -10 47 -23 112 -74 166 -106 170 -101 9 9 -65 68 -146 117 -43
26 -85 52 -93 57 -75 47 -151 59 -205 35z"/>
<path d="M2880 6459 c0 -6 6 -25 14 -42 32 -70 64 -175 70 -229 10 -96 96
-308 138 -343 61 -52 169 -26 258 61 63 62 80 74 80 55 0 -13 97 30 201 90 48
28 158 81 245 119 88 37 175 77 194 87 27 14 57 18 133 18 80 0 94 2 80 13
-42 30 -154 15 -276 -38 -63 -27 -128 -50 -143 -51 -25 0 -26 -2 -9 -9 16 -6
17 -9 5 -13 -25 -10 -104 -31 -120 -32 -9 -1 -43 -21 -77 -44 -33 -22 -64 -41
-68 -41 -5 0 -29 -13 -54 -29 -25 -16 -64 -32 -86 -36 -56 -10 -85 -27 -123
-74 -41 -51 -71 -67 -142 -76 -69 -8 -100 12 -129 88 -11 28 -32 81 -47 117
-15 36 -33 101 -40 146 -16 108 -104 330 -104 263z"/>
<path d="M7841 6444 c0 -11 3 -14 6 -6 3 7 2 16 -1 19 -3 4 -6 -2 -5 -13z"/>
<path d="M7448 6358 c-20 -41 -46 -110 -58 -154 -39 -143 -44 -158 -82 -246
-43 -102 -57 -169 -48 -229 l7 -44 3 45 c1 25 2 49 1 53 -2 14 36 120 68 190
18 37 46 120 62 184 16 64 43 147 60 185 42 96 31 109 -13 16z"/>
<path d="M7272 6218 c-85 -349 -122 -418 -219 -418 -70 0 -101 17 -187 102
-70 68 -227 168 -263 168 -18 0 37 -38 111 -78 18 -10 49 -33 67 -52 148 -148
296 -204 367 -137 47 43 126 286 172 522 6 33 14 68 16 78 3 9 1 17 -4 17 -5
0 -32 -91 -60 -202z"/>
<path d="M7831 6413 c-1 -6 -4 -20 -7 -30 -5 -17 -5 -17 6 0 6 10 9 23 6 30
-3 9 -5 9 -5 0z"/>
<path d="M5747 6348 c5 -49 37 -151 58 -188 23 -40 17 -8 -15 88 -16 50 -30
99 -30 110 0 12 -4 23 -9 26 -5 4 -7 -12 -4 -36z"/>
<path d="M5964 6365 c11 -8 23 -15 27 -15 13 0 183 -101 207 -123 12 -11 22
-16 22 -9 0 18 -84 81 -165 122 -77 41 -131 55 -91 25z"/>
<path d="M5556 6355 c-9 -26 -7 -32 5 -12 6 10 9 21 6 23 -2 3 -7 -2 -11 -11z"/>
<path d="M2780 6351 c0 -66 61 -291 121 -444 21 -53 43 -122 50 -152 7 -30 16
-55 21 -55 10 0 10 -4 -2 61 -9 47 -55 187 -80 244 -5 11 -23 72 -40 135 -54
203 -70 251 -70 211z"/>
<path d="M5541 6307 c-1 -11 -5 -15 -13 -11 -7 5 -9 2 -5 -9 3 -9 11 -35 17
-59 30 -111 110 -238 227 -360 46 -47 83 -91 83 -96 0 -12 106 -132 134 -152
12 -8 1 10 -24 39 -25 29 -62 78 -84 109 -21 31 -57 78 -80 103 -129 144 -220
294 -242 399 -7 30 -13 47 -13 37z"/>
<path d="M7526 6287 c-3 -13 -10 -57 -16 -97 -11 -80 -93 -291 -133 -343 -13
-18 -36 -52 -51 -77 l-27 -45 41 45 c97 107 173 280 191 435 11 91 8 134 -5
82z"/>
<path d="M7755 6290 c-10 -11 -13 -20 -7 -20 7 0 12 -10 13 -22 0 -13 4 -32 9
-43 7 -14 9 -2 8 43 -1 34 -2 62 -3 62 -1 0 -10 -9 -20 -20z"/>
<path d="M2718 6240 c-10 -83 -5 -120 26 -219 57 -181 166 -357 237 -383 29
-11 24 -3 -32 49 -100 94 -208 350 -218 518 l-6 100 -7 -65z"/>
<path d="M2465 6260 c-4 -12 -5 -24 -2 -27 3 -2 8 5 12 17 4 12 5 24 2 27 -3
2 -8 -5 -12 -17z"/>
<path d="M7597 6263 c-4 -3 -7 -13 -7 -22 1 -13 3 -13 11 2 11 19 8 33 -4 20z"/>
<path d="M2542 6217 c-6 -23 -9 -60 -6 -82 10 -69 11 -80 13 -87 0 -5 5 -8 10
-8 6 0 6 12 2 28 -5 15 -7 64 -6 110 1 45 1 82 0 82 -2 0 -7 -19 -13 -43z"/>
<path d="M2642 6224 c-1 -14 -6 -33 -11 -42 -41 -78 -13 -242 69 -402 61 -118
115 -182 207 -241 67 -44 68 -44 158 -44 l90 0 91 52 c160 90 203 105 344 113
139 8 225 29 285 70 53 36 163 90 183 90 9 0 31 -15 50 -32 33 -32 34 -32 27
-8 -25 84 -101 79 -251 -17 -78 -51 -156 -74 -269 -80 -89 -4 -98 -3 -80 9 45
33 115 69 169 88 98 33 228 91 298 133 58 33 73 38 104 33 42 -8 120 -81 130
-121 5 -20 9 -23 15 -13 13 20 11 38 -6 38 -8 0 -15 6 -15 13 0 19 -47 80 -73
94 -40 22 -82 14 -186 -37 -56 -27 -136 -64 -179 -81 -141 -57 -191 -79 -254
-117 -35 -21 -92 -51 -128 -66 -81 -35 -200 -96 -220 -112 -73 -58 -218 -44
-285 26 -16 17 -32 30 -36 30 -23 0 -104 108 -154 205 -75 147 -93 224 -76
319 8 39 16 83 18 99 3 15 1 27 -4 27 -5 0 -10 -11 -11 -26z"/>
<path d="M5161 6153 c22 -236 138 -463 324 -632 185 -169 275 -275 291 -341 0
-3 9 -23 19 -45 24 -53 32 -26 10 33 -46 122 -135 235 -279 356 -103 87 -237
260 -261 338 -4 12 -16 41 -25 63 -10 22 -20 49 -23 60 -3 11 -15 56 -27 100
-12 44 -20 95 -18 113 2 19 -1 32 -7 32 -7 0 -9 -24 -4 -77z"/>
<path d="M5917 6223 c-14 -14 -5 -18 41 -19 32 -1 71 -12 122 -36 41 -20 95
-44 120 -55 131 -57 411 -229 521 -321 62 -51 180 -121 262 -154 57 -23 180
-29 200 -9 7 7 -12 10 -64 10 -76 0 -138 16 -189 51 -14 10 -48 29 -75 43 -28
14 -83 54 -123 90 -40 36 -108 84 -155 108 -45 23 -118 65 -162 92 -123 76
-236 137 -254 137 -9 0 -21 4 -26 9 -37 34 -199 74 -218 54z"/>
<path d="M5067 6181 c-4 -19 -7 -54 -7 -80 0 -25 -9 -80 -20 -122 -50 -199
-145 -318 -377 -473 -73 -49 -137 -94 -142 -100 -19 -23 -78 -203 -85 -258
-23 -184 104 -541 266 -749 208 -267 288 -406 288 -501 0 -73 -15 -73 -39 -1
-21 63 -95 174 -151 228 -48 47 -120 135 -179 220 -125 181 -163 241 -195 307
-33 68 -45 109 -78 263 l-13 60 -3 -50 c-12 -185 172 -523 444 -814 128 -138
173 -216 189 -333 11 -74 8 -183 -6 -243 -13 -54 -67 -170 -76 -162 -3 3 -4
59 -4 124 2 173 -39 311 -135 448 -15 22 -44 63 -63 91 -20 28 -97 127 -171
220 -163 204 -161 201 -251 374 -42 81 -44 89 -44 170 0 61 5 94 18 119 22 44
15 51 -13 11 -79 -111 3 -366 190 -590 253 -303 404 -544 434 -695 18 -93 27
-262 16 -312 l-8 -35 22 21 c36 34 105 180 114 241 7 52 9 54 21 32 14 -26 74
-83 80 -76 2 2 -16 25 -40 51 l-43 47 60 28 c43 20 52 28 34 28 -14 0 -44 -9
-67 -20 l-43 -19 0 93 c0 88 2 95 35 151 20 32 33 60 30 63 -6 6 -36 -32 -46
-57 -3 -8 -5 14 -5 50 1 93 -72 222 -270 476 -95 121 -178 280 -224 428 -64
203 -71 259 -45 359 22 83 78 200 106 220 13 9 66 44 118 77 247 159 381 364
394 604 5 90 -5 142 -16 86z"/>
<path d="M7668 6095 c-5 -112 -9 -127 -51 -233 -53 -131 -91 -183 -185 -248
-37 -26 -84 -60 -104 -75 -116 -90 -214 -90 -408 0 -74 35 -184 79 -245 98
-171 55 -192 63 -230 89 -20 13 -41 24 -47 24 -6 0 -34 17 -62 38 -59 44 -127
85 -132 79 -2 -2 26 -28 61 -58 107 -89 212 -141 390 -194 88 -27 184 -63 235
-90 161 -84 271 -96 384 -40 110 54 238 154 283 222 90 133 146 348 123 473
-4 23 -8 -5 -12 -85z"/>
<path d="M6480 6150 c-22 -14 -6 -22 23 -11 13 5 34 7 46 4 12 -3 21 -1 21 6
0 13 -69 15 -90 1z"/>
<path d="M7592 6089 c-1 -20 -13 -62 -27 -93 -14 -31 -25 -62 -25 -69 -1 -86
-213 -300 -297 -300 -9 0 -10 -4 -4 -10 6 -6 37 4 84 27 72 34 148 106 198
186 26 42 80 229 76 263 -4 31 -4 31 -5 -4z"/>
<path d="M3985 6076 c-185 -69 -211 -81 -260 -118 -27 -21 -88 -52 -134 -68
-47 -17 -106 -47 -133 -66 -55 -41 -171 -93 -206 -94 -31 0 -160 -64 -138 -68
9 -2 32 6 51 18 18 11 62 25 97 31 38 6 88 24 128 46 77 43 203 107 288 147
34 15 72 38 85 50 28 26 144 76 255 110 112 35 190 35 251 0 l46 -26 -33 33
c-49 52 -168 54 -297 5z"/>
<path d="M5960 6040 l-35 -19 67 6 c81 7 136 -6 247 -58 46 -21 85 -38 87 -36
17 17 -106 83 -201 107 -96 24 -120 25 -165 0z"/>
<path d="M6059 5896 c-38 -26 -62 -58 -71 -93 -9 -33 6 -28 19 6 9 25 42 55
109 98 18 11 18 12 -1 12 -11 1 -36 -10 -56 -23z"/>
<path d="M4770 5772 c-25 -26 -94 -76 -154 -112 -188 -111 -249 -187 -315
-390 -25 -79 -27 -91 -11 -70 11 14 32 61 46 105 50 148 140 257 265 320 97
50 268 195 229 195 -8 0 -35 -21 -60 -48z"/>
<path d="M5431 5798 c7 -12 44 -53 83 -91 305 -295 326 -320 436 -529 13 -26
25 -46 27 -44 5 5 -22 66 -30 66 -4 0 -6 4 -2 10 11 17 -54 142 -109 209 -66
80 -109 124 -212 216 -43 39 -104 96 -136 128 -60 61 -76 70 -57 35z"/>
<path d="M4985 5613 c-75 -70 -153 -141 -173 -156 -133 -101 -214 -218 -227
-327 -8 -66 5 -57 24 15 7 27 19 57 27 66 8 8 14 22 14 31 0 22 50 85 100 124
25 20 86 75 135 122 254 243 232 225 252 211 10 -8 74 -73 141 -145 67 -72
156 -158 199 -190 79 -61 159 -159 181 -223 18 -50 15 -85 -13 -153 -14 -33
-34 -98 -46 -142 -26 -96 -70 -195 -108 -239 -61 -71 -131 -168 -195 -272 -93
-150 -84 -141 -117 -103 -40 46 -36 22 4 -28 l33 -42 27 47 c33 60 123 195
162 245 17 21 54 67 83 103 78 97 126 206 175 401 6 23 13 42 17 42 12 0 11
101 -1 137 -18 57 -106 181 -151 213 -60 43 -141 123 -269 263 -62 67 -118
123 -125 125 -7 2 -74 -55 -149 -125z"/>
<path d="M4357 5577 l-17 -32 20 24 c17 20 26 41 18 41 -2 0 -11 -15 -21 -33z"/>
<path d="M4315 5529 c-11 -17 1 -21 15 -4 8 9 8 15 2 15 -6 0 -14 -5 -17 -11z"/>
<path d="M5074 5502 c-52 -46 -99 -82 -107 -82 -4 0 1 -17 12 -39 24 -46 104
-101 147 -101 52 0 185 100 151 113 -8 3 -35 -13 -60 -35 -69 -59 -99 -59
-169 -3 -32 25 -58 49 -58 53 0 4 28 29 63 56 85 68 83 66 67 66 -8 0 -29 -13
-46 -28z"/>
<path d="M4256 5463 c-32 -42 -43 -63 -32 -63 11 0 85 99 78 104 -5 3 -26 -15
-46 -41z"/>
<path d="M5150 5490 c0 -5 4 -10 8 -10 5 0 15 -11 22 -25 14 -27 30 -33 30
-12 0 14 -41 57 -53 57 -4 0 -7 -4 -7 -10z"/>
<path d="M4829 5295 c-14 -8 -38 -30 -53 -49 -15 -20 -33 -36 -41 -36 -8 0
-13 -9 -12 -20 2 -25 -7 -29 60 36 67 64 56 65 204 -12 131 -69 139 -68 289 7
134 67 132 67 214 13 l55 -36 -34 35 c-18 20 -53 46 -76 58 l-43 23 -69 -34
c-37 -19 -75 -39 -83 -45 -8 -7 -38 -20 -67 -30 -65 -23 -94 -16 -213 55 -94
55 -94 55 -131 35z"/>
<path d="M5360 5134 c-28 -15 -25 -16 43 -14 26 1 47 -3 47 -8 0 -5 11 -14 25
-20 14 -7 29 -22 34 -35 10 -25 -6 -127 -20 -127 -4 0 -55 24 -112 53 -57 28
-135 67 -175 85 l-71 34 -59 -35 c-33 -19 -73 -38 -90 -42 -17 -3 -48 -18 -69
-32 -21 -15 -59 -39 -85 -54 l-47 -28 -12 37 c-23 79 -12 102 68 142 40 19 73
38 73 43 0 13 -27 7 -71 -17 -57 -31 -89 -41 -89 -26 0 6 5 8 10 5 6 -3 10 -1
10 4 0 29 -30 8 -32 -21 -7 -136 76 -362 207 -562 46 -70 86 -134 89 -142 3
-9 10 -12 16 -9 5 3 10 -2 11 -12 0 -13 2 -14 6 -4 10 24 65 81 79 81 7 0 23
-18 36 -39 l24 -40 46 62 c41 56 77 116 174 292 31 56 56 124 98 268 14 47 16
137 2 137 0 0 -26 9 -56 20 -63 23 -75 23 -110 4z m-105 -127 c110 -52 195
-95 209 -108 13 -12 -41 -152 -90 -234 -23 -38 -45 -81 -49 -95 -9 -30 -75
-128 -103 -153 -19 -17 -20 -17 -50 7 l-30 26 -37 -30 c-21 -17 -41 -30 -44
-30 -29 2 -251 424 -251 477 0 36 295 209 330 194 8 -4 60 -28 115 -54z"/>
<path d="M5109 4880 c-30 -9 -134 -63 -163 -85 -18 -14 -18 -16 -3 -32 8 -10
25 -40 37 -67 25 -60 100 -165 118 -166 20 0 14 12 -31 70 -23 30 -55 83 -69
117 l-27 62 37 21 c90 54 123 60 187 39 119 -39 119 -80 -1 -222 -34 -40 -48
-74 -34 -82 13 -8 170 212 170 237 0 18 -56 71 -95 91 -40 19 -94 27 -126 17z"/>
<path d="M4585 5010 c13 -134 107 -352 215 -500 163 -224 200 -277 221 -318
l23 -43 33 38 c41 48 43 66 3 28 -16 -16 -31 -27 -33 -24 -2 2 -25 41 -52 86
-26 45 -88 135 -137 200 -92 122 -180 285 -197 363 -6 25 -22 74 -37 110 -14
36 -30 76 -35 90 -6 18 -7 9 -4 -30z"/>
<path d="M5797 4970 c-9 -14 -26 -57 -38 -95 -56 -183 -138 -336 -248 -464
-106 -124 -221 -307 -204 -325 4 -3 2 -6 -4 -6 -16 0 -33 -73 -34 -151 -1 -60
-4 -70 -13 -55 -6 11 -24 33 -39 50 -25 28 -27 28 -16 6 7 -14 22 -37 35 -53
13 -15 21 -34 18 -41 -3 -8 -1 -17 5 -21 7 -4 11 -51 10 -128 0 -97 4 -136 20
-188 19 -59 66 -128 79 -115 2 3 -4 13 -13 23 -47 46 -60 101 -60 253 0 102
-4 152 -14 169 -7 13 -8 21 -2 17 7 -5 11 9 11 41 2 169 64 307 220 483 158
179 205 264 285 519 28 89 29 121 2 81z"/>
<path d="M5923 4967 c13 -35 -47 -235 -106 -352 -29 -59 -168 -247 -203 -276
-38 -31 -165 -191 -202 -256 -43 -74 -85 -185 -80 -212 2 -9 12 7 22 34 46
131 113 230 285 424 175 196 275 375 299 533 10 63 5 118 -10 118 -6 0 -8 -6
-5 -13z"/>
<path d="M6057 4908 c3 -18 11 -36 17 -40 25 -16 19 -141 -9 -214 -24 -60 -56
-117 -75 -134 -30 -27 -230 -253 -280 -315 -35 -44 -80 -100 -100 -125 -143
-173 -251 -462 -236 -628 5 -53 4 -77 -4 -82 -9 -5 -8 -13 3 -26 9 -11 25 -30
37 -44 l20 -25 -9 25 c-12 32 -34 217 -27 228 3 5 8 31 11 58 26 196 165 430
424 714 160 176 202 230 243 316 39 83 40 89 36 168 -3 50 -12 95 -23 119 -23
46 -37 48 -28 5z"/>
<path d="M2140 4547 c-1 -39 66 -187 120 -268 79 -117 126 -205 140 -262 15
-58 35 -64 26 -6 -9 55 -57 148 -126 244 -65 91 -81 119 -126 230 -18 44 -33
72 -34 62z"/>
<path d="M6830 4484 c-132 -45 -226 -108 -440 -297 -113 -99 -285 -205 -383
-237 -46 -14 -89 -6 -126 26 -27 23 -29 23 -24 4 3 -11 19 -30 35 -42 82 -58
297 38 517 232 319 282 411 327 636 315 243 -12 317 -44 466 -201 142 -147
160 -180 166 -292 7 -142 8 -146 73 -210 96 -95 103 -173 24 -270 -52 -63 -49
-86 3 -27 59 66 74 110 63 184 -8 60 -12 67 -74 131 -36 37 -66 76 -66 87 0
32 12 63 24 63 15 0 194 -184 212 -218 17 -34 17 -105 0 -154 -17 -47 -12 -48
14 -5 24 39 26 113 5 163 -25 61 -215 252 -236 238 -12 -7 -26 26 -33 80 -9
72 -45 125 -172 256 -158 162 -208 182 -489 195 -111 5 -126 3 -195 -21z"/>
<path d="M3077 4490 c-112 -28 -282 -140 -362 -237 -82 -100 -113 -183 -120
-324 -8 -154 -50 -268 -93 -252 -15 6 -15 5 -3 -11 13 -16 16 -15 40 11 41 44
71 119 67 166 -20 242 121 464 369 582 150 72 210 77 390 32 150 -38 285 -97
349 -152 16 -14 35 -25 43 -25 8 0 46 -31 86 -68 172 -162 417 -296 510 -278
37 7 61 28 71 63 6 18 0 15 -29 -14 -33 -33 -39 -35 -78 -29 -100 15 -308 138
-432 255 -38 36 -92 79 -119 95 -27 15 -64 39 -83 52 -151 102 -461 170 -606
134z"/>
<path d="M8075 4362 c-16 -31 -50 -86 -74 -122 -57 -85 -121 -213 -121 -242 0
-15 11 -1 30 40 16 35 63 118 103 185 72 119 104 184 96 192 -3 2 -18 -22 -34
-53z"/>
<path d="M3105 4389 c-59 -5 -63 -6 -25 -8 86 -6 115 -11 195 -35 44 -14 103
-29 131 -35 78 -16 162 -50 197 -81 18 -15 64 -48 102 -73 39 -25 96 -65 127
-89 148 -111 192 -140 316 -212 188 -108 318 -158 403 -155 22 1 27 3 14 6
-11 3 -24 9 -30 13 -5 4 -28 11 -49 14 -50 9 -176 59 -241 96 -159 88 -244
141 -303 187 -37 29 -104 79 -150 110 -46 32 -113 80 -149 107 -79 59 -125 77
-303 122 -169 42 -152 40 -235 33z"/>
<path d="M7005 4389 c-168 -22 -232 -57 -550 -299 -261 -199 -285 -215 -434
-291 -92 -46 -158 -73 -199 -80 -91 -16 -109 -45 -23 -35 95 11 316 121 458
228 59 45 140 104 178 131 39 28 113 84 165 127 52 42 109 83 125 92 112 60
194 91 271 105 95 16 149 32 104 31 -14 0 -56 -5 -95 -9z"/>
<path d="M7285 4331 c78 -19 177 -98 239 -189 27 -40 31 -54 37 -155 9 -136
23 -172 90 -229 29 -24 60 -56 70 -73 15 -24 19 -26 19 -10 0 11 -27 45 -65
80 -79 74 -95 113 -95 237 0 111 -10 135 -102 233 -74 79 -134 116 -189 114
l-34 -1 30 -7z"/>
<path d="M2933 4304 c-30 -15 -113 -95 -113 -110 0 -4 -6 -15 -14 -23 -7 -9
-17 -27 -21 -41 -5 -18 0 -14 20 15 63 92 115 140 174 161 31 11 32 13 11 13
-14 0 -39 -6 -57 -15z"/>
<path d="M6918 4265 c-69 -29 -148 -68 -175 -88 -68 -50 -229 -219 -355 -372
-130 -158 -231 -252 -351 -326 -90 -55 -124 -88 -76 -74 13 4 35 14 48 24 13
9 46 30 73 47 80 49 214 171 294 269 168 203 213 254 304 339 103 95 115 103
265 168 153 66 259 55 387 -40 119 -88 154 -157 145 -291 -4 -67 -3 -81 6 -66
20 33 14 184 -7 225 -51 95 -147 175 -262 216 -99 36 -146 31 -296 -31z"/>
<path d="M3145 4263 c-107 -9 -134 -22 -209 -100 -98 -101 -121 -145 -140
-277 -19 -129 -20 -167 -3 -189 10 -15 12 -8 12 40 1 126 27 268 58 310 50 69
111 139 139 162 70 56 309 34 456 -40 87 -44 220 -168 371 -346 33 -39 82 -90
108 -112 27 -22 73 -61 103 -86 30 -25 108 -76 173 -112 66 -37 124 -72 131
-78 14 -14 66 -25 66 -14 0 4 -44 34 -97 65 -207 121 -315 202 -423 318 -232
251 -332 344 -412 385 -44 23 -87 41 -97 41 -10 0 -37 6 -62 14 -45 15 -121
23 -174 19z"/>
<path d="M7044 4190 c-67 -14 -173 -73 -256 -144 -81 -69 -89 -78 -249 -281
-167 -213 -388 -407 -509 -450 -124 -44 -234 -28 -312 44 -46 43 -50 51 -58
110 -17 121 7 235 71 336 43 68 41 87 -3 35 -101 -118 -129 -362 -55 -476 49
-74 106 -99 227 -99 106 0 133 11 273 103 71 46 260 215 299 267 110 147 260
324 315 375 205 186 422 221 540 87 74 -84 70 -290 -10 -484 -30 -73 -43 -173
-31 -240 7 -44 9 -40 15 57 6 98 16 139 57 230 34 77 53 305 32 382 -31 111
-189 179 -346 148z"/>
<path d="M3085 4139 c-21 -5 -42 -13 -45 -18 -3 -4 -19 -15 -36 -24 -20 -10
-47 -42 -74 -88 -44 -71 -44 -72 -48 -183 -4 -103 -2 -117 26 -196 17 -47 34
-103 38 -125 5 -22 9 -43 10 -47 1 -5 3 -47 4 -95 2 -83 3 -85 12 -43 14 70 0
184 -38 299 -69 210 -33 386 95 467 114 72 342 5 506 -148 39 -36 108 -112
155 -169 85 -105 152 -170 250 -244 29 -22 70 -54 91 -71 21 -18 83 -55 137
-83 159 -81 300 -92 408 -31 50 29 96 92 78 108 -3 4 -9 2 -11 -5 -49 -137
-315 -146 -520 -17 -190 121 -290 211 -488 443 -176 206 -384 308 -550 270z"/>
<path d="M1480 4122 c0 -22 63 -72 167 -132 59 -34 133 -78 165 -96 31 -19 60
-34 65 -34 5 0 67 -36 137 -80 71 -44 131 -80 134 -80 29 0 -128 109 -243 169
-136 69 -364 205 -395 235 -17 15 -30 23 -30 18z"/>
<path d="M2734 4062 c-29 -37 -44 -94 -44 -168 0 -88 -24 -162 -58 -176 -22
-9 -24 -12 -9 -15 51 -12 76 40 88 186 6 80 14 114 34 152 28 54 22 64 -11 21z"/>
<path d="M7094 4079 c-122 -25 -280 -163 -441 -384 -150 -205 -258 -299 -493
-430 -306 -169 -490 -151 -586 58 -25 54 -29 74 -29 152 1 187 50 306 192 469
83 96 105 133 47 78 -47 -43 -118 -131 -167 -207 -133 -208 -139 -429 -15
-586 71 -90 116 -111 223 -104 125 9 151 17 309 96 219 111 386 247 505 414
217 303 369 429 511 424 127 -5 168 -111 114 -297 -9 -31 -23 -79 -31 -106
-17 -59 -29 -154 -17 -143 4 4 10 20 11 35 2 15 12 54 23 87 62 193 71 253 49
340 -21 82 -105 125 -205 104z"/>
<path d="M4492 3990 c132 -162 200 -284 199 -363 0 -9 4 -15 9 -12 33 20 34
-204 1 -287 -68 -176 -299 -203 -548 -65 -252 140 -405 255 -542 407 -227 255
-284 303 -395 335 -200 57 -307 -166 -182 -379 61 -104 56 -272 -11 -396 -38
-71 -59 -93 -158 -164 -138 -98 -175 -300 -107 -572 12 -45 37 -247 53 -416 6
-65 15 -118 20 -118 8 0 7 22 -11 225 -10 120 -37 316 -50 365 -37 146 -32
283 16 385 30 65 47 84 117 130 166 108 240 353 161 537 -89 210 -85 298 17
365 113 75 233 2 501 -303 155 -177 329 -306 593 -439 138 -70 267 -97 362
-75 77 17 163 96 194 179 70 189 -34 480 -242 676 l-43 40 46 -55z"/>
<path d="M2517 3913 c-4 -7 -32 -26 -63 -43 -113 -65 -233 -206 -221 -258 2
-11 13 4 29 38 30 65 121 156 194 193 55 28 78 50 72 69 -3 9 -6 9 -11 1z"/>
<path d="M4035 3803 c152 -136 270 -202 443 -248 77 -21 128 -23 117 -5 -3 4
-22 11 -42 14 -149 27 -428 168 -508 256 -10 11 -25 20 -34 20 -10 -1 -2 -13
24 -37z"/>
<path d="M7471 3814 c0 -11 3 -14 6 -6 3 7 2 16 -1 19 -3 4 -6 -2 -5 -13z"/>
<path d="M2444 3765 c-27 -12 -51 -40 -96 -115 -28 -47 -43 -155 -29 -208 18
-70 28 -71 17 -2 -19 117 39 258 134 322 30 20 17 22 -26 3z"/>
<path d="M6187 3760 c-28 -40 -176 -148 -260 -188 -72 -36 -94 -42 -149 -42
l-63 0 30 -19 c36 -22 76 -20 137 8 26 11 49 21 52 21 15 0 137 80 176 114 83
76 110 104 110 115 0 18 -18 13 -33 -9z"/>
<path d="M8555 3753 c-38 -14 -110 -29 -160 -34 -112 -11 -194 -26 -264 -45
-73 -21 -61 -25 24 -8 39 7 95 16 125 20 177 18 217 26 287 54 119 48 111 56
-12 13z"/>
<path d="M7504 3713 c-24 -4 -116 -83 -98 -83 6 0 21 11 34 25 55 59 160 54
199 -9 54 -87 7 -176 -82 -156 -20 4 -37 4 -37 0 0 -15 90 -23 116 -11 67 30
49 174 -29 221 -31 19 -57 22 -103 13z"/>
<path d="M5174 3672 c4 -7 15 -12 25 -12 10 0 20 -3 23 -6 9 -8 -21 -76 -45
-101 -11 -13 -16 -23 -10 -23 24 0 94 122 79 137 -11 11 -78 15 -72 5z"/>
<path d="M2601 3604 c-58 -48 -85 -108 -85 -190 -1 -78 11 -102 67 -131 80
-41 163 71 117 158 -23 42 -81 17 -79 -35 l1 -31 14 33 c16 37 27 40 48 11 30
-43 -11 -119 -65 -119 -42 0 -89 59 -89 113 1 88 54 176 118 195 111 34 199
-64 227 -251 4 -26 11 -47 14 -47 13 0 -6 109 -31 177 -33 96 -89 143 -169
143 -47 0 -63 -5 -88 -26z"/>
<path d="M2411 3569 c-14 -41 -14 -157 0 -215 17 -67 28 -53 15 19 -7 35 -9
96 -6 142 7 92 6 98 -9 54z"/>
<path d="M7568 3593 c-10 -2 -18 -13 -18 -23 0 -24 36 -15 43 11 3 10 2 18 -1
18 -4 -1 -15 -3 -24 -6z"/>
<path d="M7094 3536 c6 -79 93 -243 173 -324 35 -37 69 -78 74 -92 5 -14 19
-30 32 -37 124 -64 132 -66 207 -67 41 0 84 3 95 6 11 4 26 7 33 7 7 1 11 5 8
9 -2 4 -28 5 -58 2 -113 -11 -287 41 -303 91 -4 12 -35 52 -70 89 -65 71 -143
208 -177 310 l-18 55 4 -49z"/>
<path d="M4682 3550 c0 -14 2 -19 5 -12 2 6 2 18 0 25 -3 6 -5 1 -5 -13z"/>
<path d="M7370 3528 c1 -199 159 -328 341 -278 70 20 170 114 168 158 0 14 -2
14 -6 2 -9 -25 -66 -81 -112 -111 -77 -50 -223 -38 -289 24 -45 41 -100 194
-85 233 3 8 0 14 -6 14 -6 0 -11 -18 -11 -42z"/>
<path d="M7480 3542 c0 -17 4 -34 10 -37 6 -4 7 6 3 27 -8 44 -13 48 -13 10z"/>
<path d="M2707 3506 c17 -6 35 -14 39 -18 16 -17 26 -7 10 10 -9 11 -30 19
-49 19 l-32 1 32 -12z"/>
<path d="M7869 3493 c-13 -16 -12 -17 4 -4 9 7 17 15 17 17 0 8 -8 3 -21 -13z"/>
<path d="M7829 3454 c-50 -60 -179 -92 -256 -63 -27 10 -27 9 -10 -8 44 -44
253 4 287 66 13 25 -2 28 -21 5z"/>
<path d="M2131 3447 c-20 -25 -32 -118 -21 -167 5 -25 17 -78 25 -119 9 -41
20 -82 26 -90 10 -17 6 6 -12 79 -23 95 -28 244 -9 280 14 25 8 37 -9 17z"/>
<path d="M2771 3375 c0 -11 -8 -33 -16 -49 -9 -16 -13 -31 -11 -33 9 -9 37 59
33 80 -4 20 -4 20 -6 2z"/>
<path d="M7940 3340 c-9 -39 -23 -63 -53 -91 -47 -46 -33 -53 18 -8 37 33 73
125 56 142 -5 5 -14 -13 -21 -43z"/>
<path d="M1955 3350 c-16 -4 -57 -16 -90 -25 -33 -10 -157 -42 -275 -72 -213
-54 -228 -59 -219 -68 7 -6 327 67 444 103 55 16 139 35 188 43 48 7 87 17 87
21 0 10 -95 9 -135 -2z"/>
<path d="M8065 3351 c-3 -5 21 -12 52 -16 81 -9 159 -35 293 -96 134 -61 275
-112 259 -93 -6 7 -27 18 -47 25 -61 19 -151 58 -267 114 -85 41 -128 56 -188
64 -95 13 -94 13 -102 2z"/>
<path d="M4980 3344 c0 -5 -13 -22 -28 -39 -15 -16 -46 -53 -67 -81 -22 -29
-60 -75 -83 -103 -63 -74 -35 -63 37 15 69 73 158 201 148 211 -4 3 -7 2 -7
-3z"/>
<path d="M2248 3327 c8 -9 34 -24 58 -33 32 -12 41 -20 34 -29 -7 -8 -2 -10
20 -7 17 2 30 6 30 8 0 2 -95 50 -145 73 -5 2 -4 -3 3 -12z"/>
<path d="M2215 3262 c3 -59 9 -81 19 -71 2 2 -2 33 -10 69 l-13 65 4 -63z"/>
<path d="M8002 3288 c-10 -30 -10 -31 3 -14 13 17 21 46 12 46 -1 0 -8 -15
-15 -32z"/>
<path d="M2790 3248 c-30 -34 -65 -61 -107 -81 -102 -47 -124 -46 -227 7 -88
45 -89 45 -60 15 33 -35 137 -89 172 -89 79 0 217 90 256 168 21 42 19 41 -34
-20z"/>
<path d="M7033 3188 c-68 -60 -83 -78 -65 -78 13 0 158 139 146 140 -5 0 -42
-28 -81 -62z"/>
<path d="M2272 3180 c28 -91 28 -230 -2 -325 -12 -38 -69 -165 -126 -281 -121
-246 -137 -302 -29 -99 41 76 75 140 75 142 0 1 18 41 40 88 22 46 49 113 61
147 37 112 26 313 -21 370 -18 22 -18 20 2 -42z"/>
<path d="M7986 3023 c60 -60 132 -140 159 -178 54 -77 235 -293 284 -339 52
-50 47 -20 -7 36 -64 68 -143 163 -252 308 -82 109 -215 242 -270 270 -14 7
25 -37 86 -97z"/>
<path d="M7799 3064 c-6 -16 -9 -60 -7 -100 5 -67 14 -97 73 -239 7 -16 30
-73 50 -125 56 -143 63 -133 10 15 -26 72 -53 150 -62 175 -8 25 -23 61 -33
80 -22 45 -29 103 -20 165 9 59 5 69 -11 29z"/>
<path d="M7375 3040 c2 -25 7 -71 11 -102 12 -107 -38 -390 -122 -685 -4 -14
-2 -23 5 -23 6 0 11 6 11 14 0 8 16 68 36 133 86 282 112 514 74 643 -19 61
-20 62 -15 20z"/>
<path d="M3026 3051 c-22 -35 282 -284 327 -268 7 2 -8 14 -33 27 -59 29 -166
117 -234 191 -30 32 -57 55 -60 50z"/>
<path d="M2410 2990 c0 -22 99 -60 158 -60 60 0 141 31 150 58 2 6 -17 0 -42
-14 -65 -37 -136 -37 -205 -1 -59 30 -61 31 -61 17z"/>
<path d="M2065 2896 c-95 -78 -249 -239 -338 -351 -21 -27 -57 -69 -79 -93
-22 -24 -38 -45 -36 -48 9 -8 58 43 243 256 50 57 145 152 213 212 144 127
142 145 -3 24z"/>
<path d="M6641 2274 c50 -111 -14 -355 -103 -397 -19 -9 -43 -26 -54 -38 -18
-21 -17 -20 31 4 78 39 110 82 144 194 35 119 26 231 -22 272 -14 11 -13 4 4
-35z"/>
<path d="M6560 2220 c-15 -45 -52 -86 -155 -168 -112 -90 -139 -116 -223 -209
-84 -94 -102 -121 -101 -150 0 -12 2 -14 6 -4 7 16 9 19 123 148 52 58 137
139 199 187 124 97 156 134 166 194 9 53 2 54 -15 2z"/>
<path d="M6438 1942 c-304 -305 -390 -543 -279 -771 23 -47 41 -92 41 -100 0
-34 17 2 60 129 20 59 41 161 35 171 -3 3 -5 42 -6 87 -2 92 -3 94 -24 52 -17
-33 -19 -44 -6 -36 22 14 18 -135 -6 -217 -14 -45 -27 -92 -30 -104 -8 -34
-15 -29 -47 32 -40 77 -46 123 -31 229 22 158 113 313 286 488 64 65 119 127
122 138 3 11 4 20 4 20 -1 -1 -55 -54 -119 -118z"/>
<path d="M6699 1864 c-7 -8 -35 -30 -63 -49 -94 -62 -235 -230 -219 -259 4 -6
-3 -3 -14 7 -14 12 -23 15 -28 8 -3 -6 1 -14 9 -17 9 -3 14 -10 11 -14 -3 -5
-1 -11 5 -15 6 -4 7 -12 3 -18 -10 -16 -10 -20 -26 -187 l-15 -145 -61 -129
c-34 -71 -77 -151 -97 -179 -19 -27 -31 -46 -25 -43 21 13 106 145 149 231 61
123 71 162 73 284 2 117 18 195 51 250 41 67 120 156 171 193 28 21 62 51 75
68 24 30 25 43 1 14z"/>
<path d="M6421 1794 c-31 -26 -67 -82 -58 -90 2 -2 17 16 32 41 16 25 35 45
41 45 14 0 29 19 21 26 -2 3 -19 -7 -36 -22z"/>
<path d="M6012 1574 c-55 -44 -65 -119 -23 -174 31 -39 37 -14 7 29 -27 38
-27 40 -11 77 8 22 27 49 42 61 38 31 24 37 -15 7z"/>
<path d="M5500 1360 c-8 -6 -33 -15 -54 -21 -117 -32 -248 -257 -226 -389 4
-25 8 -40 9 -35 30 227 90 336 226 410 46 25 75 45 65 45 -3 0 -12 -5 -20 -10z"/>
<path d="M5514 1068 l-19 -23 23 19 c12 11 22 21 22 23 0 8 -8 2 -26 -19z"/>
<path d="M5100 2963 c-277 -45 -400 -99 -400 -174 0 -11 -5 -19 -12 -19 -9 0
-9 -3 0 -12 14 -14 11 -16 45 44 19 32 40 52 70 67 39 19 214 59 329 75 26 4
50 10 52 15 5 8 -45 11 -84 4z"/>
<path d="M5262 2949 c-15 -24 -15 -26 1 -26 27 0 109 -66 123 -99 16 -37 19
-95 6 -109 -5 -6 -21 -31 -35 -57 -25 -43 -25 -46 -7 -41 11 3 20 0 20 -6 0
-6 5 -11 11 -11 8 0 10 12 6 36 -4 25 0 44 13 67 40 64 16 150 -56 207 -24 19
-50 40 -57 46 -10 9 -16 8 -25 -7z"/>
<path d="M5434 2917 c110 -69 148 -170 89 -233 -35 -36 -35 -57 -1 -83 50 -40
46 -100 -11 -148 l-26 -23 25 9 c31 10 58 46 66 87 5 27 0 38 -32 74 -34 37
-36 43 -21 51 79 45 47 218 -48 263 -39 19 -70 21 -41 3z"/>
<path d="M5215 2876 c-4 -10 -4 -24 1 -31 54 -72 53 -94 -7 -151 -36 -35 -37
-57 -1 -82 35 -25 72 -34 66 -17 -3 7 -16 16 -29 19 -56 14 -59 34 -10 81 25
25 46 50 46 57 3 34 -4 55 -26 74 -13 12 -25 32 -27 45 -4 22 -5 22 -13 5z"/>
<path d="M4975 2834 c-33 -12 -70 -23 -82 -23 -24 -1 -73 -54 -73 -79 0 -12 8
-7 25 15 19 23 45 38 104 58 43 14 87 32 97 40 28 21 1 17 -71 -11z"/>
<path d="M5078 2750 c-19 -16 -39 -41 -42 -55 -14 -54 -129 -64 -177 -16 -16
16 -31 25 -34 21 -11 -18 67 -65 109 -67 80 -3 114 13 126 58 7 27 19 43 34
49 22 8 44 40 28 40 -4 0 -24 -13 -44 -30z"/>
<path d="M4481 2529 c-100 -32 -167 -84 -206 -158 -26 -52 -12 -46 36 14 45
58 120 115 149 115 9 0 20 3 24 7 4 4 40 18 79 30 49 15 63 22 42 22 -16 0
-72 -14 -124 -30z"/>
<path d="M4584 2415 c-38 -19 -75 -35 -82 -35 -34 0 -186 -99 -172 -113 3 -3
36 15 73 39 38 25 88 49 111 53 23 4 54 18 69 31 37 32 85 52 93 38 3 -5 20
-8 36 -6 40 6 176 -26 263 -62 39 -15 113 -38 165 -51 95 -22 251 -87 265
-110 12 -18 -23 -39 -63 -39 -18 0 -66 14 -105 31 -39 17 -109 39 -156 49 -47
10 -113 25 -146 33 -128 32 -172 29 -310 -23 -186 -70 -221 -87 -246 -119 -26
-33 -16 -39 19 -9 31 26 160 77 312 125 l95 29 85 -23 c47 -13 123 -30 170
-37 47 -8 114 -25 150 -39 62 -24 97 -30 147 -28 22 1 83 46 83 62 0 21 -208
106 -319 130 -46 10 -108 33 -186 69 -44 21 -147 40 -212 40 -59 0 -79 -5
-139 -35z"/>
<path d="M4240 2082 c0 -38 119 -168 145 -158 21 8 10 26 -16 26 -12 0 -37 25
-70 70 -51 69 -59 78 -59 62z"/>
<path d="M5110 1751 c-97 -26 -219 -98 -320 -190 -25 -22 -63 -53 -85 -68
-110 -74 -141 -130 -155 -271 -15 -157 2 -155 21 3 16 131 42 174 149 245 19
13 71 53 115 90 136 112 182 141 283 176 104 35 99 44 -8 15z"/>
<path d="M4131 1660 c-21 -12 -19 -117 3 -155 9 -16 14 -21 10 -10 -17 47 -17
155 0 155 8 0 23 -14 31 -31 9 -16 32 -48 52 -70 35 -38 35 -40 24 -83 -6 -25
-11 -75 -10 -113 l1 -68 13 97 c8 53 18 105 24 117 16 29 14 35 -20 50 -16 7
-41 30 -53 50 -33 51 -58 72 -75 61z"/>
<path d="M4469 1539 c-57 -87 -101 -282 -84 -365 8 -36 9 -34 16 41 10 102 34
201 65 272 27 59 28 91 3 52z"/>
<path d="M4662 784 c10 -10 20 -15 24 -12 3 4 -5 12 -18 18 -22 12 -22 12 -6
-6z"/>
<path d="M4815 782 c-20 -14 -15 -42 6 -31 11 5 19 16 19 24 0 16 -9 19 -25 7z"/>
</g>
</svg>
