<?xml version="1.0" standalone="no"?>
<svg version="1.0" xmlns="http://www.w3.org/2000/svg"
 width="100%" height="100%" viewBox="0 0 1024.000000 1024.000000"
 preserveAspectRatio="xMidYMid meet">
<metadata>
Created by potrace 1.16, written by Peter Selinger 2001-2019
</metadata>
<defs>
  <linearGradient id="gold" x1="0%" y1="0%" x2="100%" y2="100%">
    <stop offset="0%" stop-color="#f0c979"/>
    <stop offset="55%" stop-color="#d8a84a"/>
    <stop offset="100%" stop-color="#b8852e"/>
  </linearGradient>
</defs>

<g transform="translate(0.000000,1024.000000) scale(0.100000,-0.100000)"
fill="url(#gold)" stroke="none">
<path d="M5130 9790 c-7 -20 -29 -199 -35 -295 -17 -235 -67 -518 -125 -700
-10 -33 -28 -91 -40 -130 -19 -61 -31 -94 -49 -129 -2 -5 1 -6 7 -2 7 4 7 -3
-1 -23 -6 -17 -15 -27 -21 -24 -5 3 -6 1 -3 -4 4 -6 -3 -22 -14 -37 -18 -23
-19 -25 -2 -20 11 4 6 -3 -11 -18 -20 -17 -27 -29 -21 -39 5 -8 5 -11 1 -8 -4
4 -49 -75 -100 -175 -51 -100 -106 -202 -123 -227 -16 -24 -43 -69 -59 -99
-16 -30 -31 -57 -34 -60 -16 -15 -85 -124 -108 -170 -9 -19 -20 -37 -23 -40
-5 -4 -75 -134 -88 -164 -2 -5 3 -6 10 -2 8 4 6 1 -4 -7 -21 -17 -133 -275
-142 -327 -1 -3 -15 -50 -32 -105 -33 -108 -53 -186 -59 -225 -10 -75 -36
-212 -49 -260 -9 -30 -14 -65 -12 -77 2 -13 1 -23 -3 -23 -12 0 -18 -58 -7
-69 7 -7 6 -15 -2 -25 -7 -8 -10 -19 -7 -24 3 -5 8 -33 11 -63 10 -95 13 -109
30 -162 38 -114 47 -137 55 -137 4 0 6 -9 3 -20 -3 -12 0 -20 7 -20 7 0 10 -7
6 -15 -3 -8 -2 -15 3 -15 5 0 11 -15 14 -32 3 -18 12 -62 21 -98 78 -323 78
-398 5 -549 -25 -51 -29 -65 -18 -72 12 -8 6 -13 -12 -11 -14 2 -138 -109
-198 -176 -36 -40 -69 -72 -73 -72 -10 0 24 51 60 90 12 14 25 35 28 47 3 12
11 24 18 26 15 6 49 74 82 167 34 91 33 189 -2 295 -32 94 -45 116 -125 192
-73 70 -112 92 -175 99 l-49 5 68 -30 c123 -55 171 -100 228 -218 81 -163 51
-341 -90 -538 -19 -27 -42 -56 -49 -64 -8 -8 -32 -39 -55 -70 -22 -31 -53 -71
-69 -90 -16 -18 -33 -44 -38 -57 -5 -13 -14 -24 -20 -24 -5 0 -9 -5 -7 -12 1
-6 -8 -17 -20 -23 -42 -22 -111 -105 -88 -105 3 0 -10 -28 -29 -62 -19 -35
-54 -124 -79 -198 -38 -116 -53 -174 -82 -320 -31 -155 -33 -319 -6 -455 19
-99 71 -261 95 -300 7 -11 16 -32 19 -46 31 -124 323 -415 502 -500 133 -63
438 -95 505 -54 19 12 170 7 201 -5 27 -12 92 -120 103 -175 5 -24 58 -185 60
-185 8 0 -4 88 -17 135 -49 172 -52 180 -92 221 -65 68 -141 77 -320 39 -91
-20 -252 -15 -308 9 -30 13 -28 14 39 9 76 -6 136 8 222 51 192 95 131 393
-88 431 -86 15 -220 7 -249 -16 -69 -54 -98 -128 -70 -181 32 -60 -114 39
-155 105 -54 88 -41 190 33 261 24 23 32 25 55 16 18 -6 25 -6 21 0 -3 6 -2
10 4 10 5 0 13 -9 16 -20 4 -11 11 -18 16 -15 5 4 9 1 9 -6 0 -7 3 -10 6 -6 4
3 13 0 20 -8 22 -22 112 -43 211 -50 51 -3 114 -10 141 -15 92 -17 258 -94
279 -129 7 -11 39 -34 71 -50 106 -53 188 -153 242 -293 40 -103 40 -152 1
-267 -32 -94 -47 -254 -19 -206 7 11 13 36 14 56 1 20 20 90 42 155 41 122 44
152 21 224 -18 57 -81 179 -106 206 -13 14 -23 28 -23 32 0 9 -106 112 -116
112 -4 0 -31 20 -60 45 -93 80 -265 148 -407 161 -33 3 -47 1 -42 -6 3 -5 2
-10 -4 -10 -5 0 -13 5 -16 10 -3 6 -26 10 -50 10 -74 0 -174 42 -224 95 -42
45 -67 53 -43 15 10 -16 9 -18 -3 -14 -16 6 -21 39 -7 48 4 2 6 23 4 46 -6 59
-27 45 -27 -17 1 -37 -3 -50 -14 -49 -7 1 -35 -33 -60 -74 -45 -73 -46 -77
-45 -155 1 -108 29 -157 132 -226 143 -95 264 -102 370 -21 22 17 51 99 31 86
-5 -3 -9 4 -9 14 0 27 -20 41 -62 44 -45 3 -68 -16 -68 -54 l0 -29 23 25 c36
41 71 44 86 8 22 -52 -15 -91 -104 -108 -101 -20 -151 13 -146 95 4 76 73 121
184 121 110 0 134 -8 189 -63 121 -120 96 -258 -60 -334 -50 -24 -58 -25 -170
-20 -134 6 -182 20 -263 77 -31 22 -60 36 -63 32 -4 -4 -6 -2 -5 3 2 6 -39 53
-90 105 -51 52 -110 121 -132 152 -126 183 -218 463 -207 632 2 36 0 66 -4 66
-4 0 -3 12 2 26 13 34 13 47 -2 38 -10 -6 -9 -3 0 8 7 9 15 33 18 53 2 20 13
82 25 138 11 56 23 116 26 132 2 17 9 35 14 41 4 5 15 35 23 65 54 205 196
386 608 775 153 143 189 344 122 674 -19 93 -38 149 -75 222 -86 171 -113 416
-64 593 13 50 29 122 35 160 23 144 100 419 152 540 93 215 202 419 328 610
111 167 197 322 260 465 23 52 57 127 75 165 66 138 164 467 190 635 9 58 20
131 26 162 5 31 10 81 10 111 1 41 17 107 19 77 1 -11 30 -210 39 -270 57
-364 239 -848 425 -1133 29 -45 58 -92 65 -105 7 -12 17 -20 23 -16 7 4 8 3 4
-4 -7 -12 3 -31 80 -138 84 -118 316 -519 326 -564 2 -8 5 -17 8 -20 3 -3 19
-31 35 -62 15 -32 32 -58 37 -58 4 0 8 -7 8 -16 0 -9 18 -57 40 -108 65 -145
74 -164 81 -160 4 2 5 -5 2 -16 -3 -11 -1 -26 4 -33 5 -6 17 -37 26 -67 9 -30
23 -77 31 -105 l15 -50 -5 70 c-3 39 -15 99 -26 135 -11 36 -24 83 -31 105
-33 120 -142 365 -211 473 -15 24 -30 51 -33 60 -4 9 -21 40 -38 67 -18 28
-49 82 -70 120 -49 89 -115 193 -171 270 -157 214 -343 558 -425 789 -47 128
-89 259 -95 292 -2 13 -9 35 -14 49 -18 48 -61 281 -80 435 -5 47 -12 96 -15
110 -7 35 -14 85 -21 160 -6 66 -20 149 -24 140z m-1350 -5024 c0 -2 -8 -10
-17 -17 -16 -13 -17 -12 -4 4 13 16 21 21 21 13z m260 -2115 c0 -5 -9 -7 -20
-4 -11 3 -20 7 -20 9 0 2 9 4 20 4 11 0 20 -4 20 -9z"/>
<path d="M5117 9070 c-27 -348 -253 -924 -532 -1355 -18 -27 -45 -72 -60 -100
-15 -27 -35 -61 -45 -75 -46 -65 -147 -296 -208 -475 -58 -168 -81 -288 -86
-440 -2 -77 -7 -180 -11 -230 -10 -120 4 -201 65 -384 27 -83 50 -157 50 -165
0 -7 7 -17 16 -20 8 -3 12 -11 8 -17 -3 -6 -2 -21 4 -32 10 -23 38 -139 46
-192 3 -16 3 20 0 80 -4 103 -43 293 -68 334 -8 12 -11 25 -15 70 0 8 -4 12
-7 8 -4 -3 -18 17 -32 46 -26 50 -27 58 -24 207 1 85 2 199 2 253 0 107 20
249 43 312 24 66 47 146 47 166 0 11 5 19 10 19 6 0 10 10 10 23 0 12 7 36 16
52 9 17 27 59 40 95 40 104 159 332 252 480 100 160 164 272 215 380 86 182
106 228 122 275 9 28 23 64 30 80 13 27 27 74 80 270 7 28 19 76 25 108 14 70
25 73 33 8 6 -52 77 -270 147 -456 37 -99 237 -507 265 -545 7 -8 30 -49 51
-90 21 -41 42 -77 45 -80 3 -3 14 -21 24 -40 10 -19 51 -91 93 -160 87 -146
144 -263 198 -410 21 -58 60 -143 86 -190 27 -47 48 -90 48 -96 0 -5 10 -30
21 -54 69 -143 107 -383 80 -499 -25 -103 -65 -236 -95 -317 -45 -117 -92
-385 -66 -369 7 4 5 -4 -4 -17 -10 -16 -15 -38 -12 -59 3 -19 7 -68 10 -109 7
-88 41 -194 85 -265 17 -28 35 -60 41 -72 10 -24 40 -32 40 -10 0 6 -18 41
-40 77 -92 149 -118 334 -75 549 10 52 47 150 61 161 8 7 14 17 14 22 0 32
250 259 279 253 58 -11 80 -21 112 -46 20 -15 55 -38 78 -50 23 -11 41 -25 41
-30 0 -4 16 -16 35 -25 19 -9 33 -20 30 -24 -3 -5 8 -19 24 -32 16 -14 32 -34
35 -46 4 -12 12 -22 18 -22 5 0 7 -7 4 -16 -3 -8 -2 -12 3 -9 10 6 26 -13 26
-30 0 -5 6 -10 14 -10 8 0 16 -6 19 -14 3 -8 0 -11 -7 -7 -16 10 -14 -9 3 -23
11 -9 15 -9 20 1 3 7 3 3 0 -9 -3 -12 -1 -30 5 -40 19 -35 65 -138 66 -148 0
-5 14 -32 29 -58 l29 -48 -18 -40 c-10 -22 -32 -54 -49 -72 -34 -36 -54 -66
-93 -147 -35 -70 -43 -235 -15 -270 16 -20 17 -17 16 55 -1 42 3 95 8 118 10
45 76 183 111 233 12 18 27 40 34 50 12 18 13 18 23 2 6 -10 16 -18 22 -18 16
0 0 64 -41 165 -21 49 -50 120 -66 157 -37 91 -132 233 -203 305 -56 56 -91
82 -234 173 -71 44 -110 82 -168 164 -25 35 -36 44 -38 31 -6 -27 19 -77 60
-120 32 -34 35 -42 23 -51 -8 -6 -12 -14 -9 -17 3 -3 -4 -10 -16 -17 -11 -6
-36 -26 -55 -43 -19 -18 -45 -43 -59 -55 -36 -34 -115 -140 -130 -176 -13 -31
-46 -66 -46 -49 0 5 5 14 11 20 9 9 20 42 35 111 2 12 14 41 27 65 33 63 47
107 47 152 0 22 7 53 15 69 25 48 35 198 20 291 -20 123 -29 164 -42 195 -28
65 -36 79 -44 75 -4 -3 -5 4 -2 14 3 12 -22 73 -61 153 -36 73 -92 198 -125
278 -33 80 -88 197 -123 260 -86 154 -99 175 -145 245 -46 70 -192 324 -215
375 -9 19 -35 76 -58 125 -153 329 -273 696 -279 850 -4 108 -17 121 -24 25z
m-810 -3222 c-3 -8 -6 -5 -6 6 -1 11 2 17 5 13 3 -3 4 -12 1 -19z"/>
<path d="M5167 8435 c5 -60 16 -91 76 -215 39 -80 71 -150 72 -157 0 -7 12
-25 27 -40 33 -36 98 -138 98 -156 0 -7 5 -18 12 -25 7 -7 9 -12 5 -12 -6 0
96 -207 181 -365 48 -91 68 -139 104 -255 60 -193 71 -226 88 -265 46 -101 53
-146 55 -307 1 -182 10 -212 20 -71 10 146 12 157 24 161 18 6 12 41 -15 87
-14 24 -26 58 -26 74 -1 17 -4 31 -8 31 -4 0 -7 11 -7 23 0 13 -12 50 -26 83
-14 32 -36 94 -47 137 -12 43 -32 106 -45 140 -23 62 -187 400 -204 421 -5 6
-39 71 -76 143 -36 73 -81 154 -99 180 -43 63 -196 372 -197 398 0 11 -4 29
-9 40 -6 13 -7 -6 -3 -50z"/>
<path d="M5035 8318 c-30 -62 -79 -156 -109 -208 -30 -52 -69 -120 -86 -150
-16 -30 -55 -95 -84 -145 -159 -263 -210 -379 -369 -835 l-61 -175 0 -120 c0
-124 21 -212 54 -223 9 -3 11 1 6 14 -63 156 -34 367 83 617 17 37 31 71 31
76 0 40 150 383 206 472 12 20 41 74 65 120 23 46 71 128 106 181 63 96 147
255 185 352 19 49 39 136 32 136 -2 0 -29 -51 -59 -112z m-114 -291 c-10 -9
-11 -8 -5 6 3 10 9 15 12 12 3 -3 0 -11 -7 -18z"/>
<path d="M5157 8183 c8 -50 111 -253 167 -328 92 -121 115 -247 56 -300 -27
-24 -40 -12 -93 84 -50 91 -75 156 -89 234 -16 85 -29 69 -28 -35 0 -51 -4
-111 -9 -133 -6 -22 -11 -62 -11 -90 0 -50 47 -237 62 -243 4 -2 8 -10 8 -18
0 -11 19 -51 47 -98 10 -16 22 19 16 44 -3 14 -29 72 -57 130 -50 103 -51 106
-51 199 0 109 14 128 44 59 10 -24 36 -70 59 -103 33 -50 41 -73 47 -129 l7
-68 77 -65 c42 -35 80 -72 85 -81 10 -18 82 -109 136 -174 37 -43 85 -165 96
-241 12 -91 12 -97 1 -104 -7 -3 -9 -3 -5 2 8 9 -46 120 -63 131 -15 9 -9 -20
20 -96 11 -30 22 -74 24 -97 2 -24 6 -46 10 -49 3 -4 2 -15 -4 -26 -15 -28
-21 -88 -8 -88 5 0 7 5 4 10 -3 6 -2 10 2 10 15 0 44 133 49 226 8 130 -40
290 -105 348 -12 11 -21 23 -21 27 0 12 -80 131 -111 164 -15 17 -35 44 -43
60 -14 27 -16 28 -16 8 0 -33 -21 -28 -63 15 -40 41 -48 80 -22 102 8 7 15 21
15 31 0 11 4 19 8 19 5 0 19 19 31 41 39 69 11 195 -66 299 -76 104 -149 229
-179 305 -22 58 -34 66 -27 18z"/>
<path d="M5057 8120 c-26 -50 -65 -116 -87 -148 -22 -31 -52 -75 -68 -97 -91
-129 -114 -270 -56 -341 68 -85 81 -130 50 -168 -31 -37 -70 -43 -83 -14 l-10
23 -8 -24 c-8 -25 -31 -53 -128 -155 -32 -34 -65 -73 -73 -88 -8 -16 -18 -28
-22 -28 -13 0 -77 -129 -91 -181 -15 -56 -19 -146 -7 -178 6 -16 5 -21 -3 -17
-15 10 -5 -115 18 -213 10 -43 17 -84 15 -92 -6 -37 -64 -200 -88 -247 -23
-46 -25 -53 -10 -50 23 4 74 98 102 189 39 122 41 129 31 123 -12 -7 -11 7 0
25 6 8 6 22 1 31 -4 8 -4 35 0 60 9 47 4 71 -7 32 -11 -44 -28 -15 -31 51 -2
51 2 78 18 114 25 56 20 65 -15 27 l-26 -29 5 45 c11 76 14 94 30 136 18 52
58 117 107 172 21 24 39 53 41 65 2 12 10 21 18 21 8 -1 38 24 65 56 50 58
109 100 139 100 9 0 29 20 45 45 26 41 27 48 17 86 -9 34 -8 43 2 47 7 2 36
52 63 110 27 59 54 109 58 112 16 9 32 90 33 161 0 72 -11 112 -13 46 -2 -44
-1 -40 -18 -100 -8 -26 -18 -50 -22 -53 -5 -3 -9 -13 -9 -23 0 -10 -17 -52
-39 -92 -21 -41 -44 -91 -51 -112 -11 -35 -13 -37 -29 -23 -10 9 -22 16 -28
16 -21 0 -49 64 -48 110 1 61 49 171 106 245 85 110 174 280 160 304 -5 8 -24
-20 -54 -79z"/>
<path d="M5076 7637 c-4 -24 -4 -61 -1 -83 8 -47 -29 -156 -75 -220 -44 -62
-23 -77 28 -18 55 65 72 125 71 257 0 110 -12 141 -23 64z"/>
<path d="M4925 7540 c-3 -5 -1 -10 4 -10 6 0 11 5 11 10 0 6 -2 10 -4 10 -3 0
-8 -4 -11 -10z"/>
<path d="M4216 7462 c-14 -21 -26 -41 -26 -44 0 -3 -17 -35 -38 -69 -51 -84
-164 -318 -214 -444 -98 -246 -112 -302 -123 -509 -9 -160 -32 -200 -172 -296
-197 -135 -395 -339 -456 -470 -65 -139 -39 -258 83 -386 72 -77 95 -113 126
-204 l19 -55 3 47 c5 72 -40 156 -128 242 -79 77 -100 116 -100 183 0 121 54
223 191 363 62 63 98 108 95 116 -4 11 -1 12 13 5 16 -9 17 -7 13 16 -4 22 -2
24 17 18 17 -5 23 -1 31 19 5 14 14 26 19 26 6 0 30 14 54 30 25 17 48 30 52
30 6 0 20 11 74 60 9 8 25 28 37 44 l20 28 39 -86 c21 -47 44 -86 52 -86 7 0
13 -5 13 -12 0 -6 2 -9 5 -6 3 3 -4 30 -16 59 -35 89 -50 159 -50 234 1 38 1
77 1 85 -2 130 44 310 131 507 34 76 77 174 95 218 19 44 50 110 69 148 19 37
34 68 34 70 -1 1 15 35 35 76 41 84 42 100 2 43z m-377 -1252 c1 -13 0 -13 -9
0 -5 8 -9 24 -9 35 l0 20 9 -20 c5 -11 9 -27 9 -35z"/>
<path d="M5141 7250 c-1 -61 18 -107 68 -160 27 -29 49 -54 50 -56 0 -3 11
-19 24 -37 14 -17 29 -45 35 -62 l10 -30 1 27 c1 40 -18 79 -58 116 -28 27
-31 31 -11 21 25 -12 25 -12 6 9 -10 12 -23 19 -29 15 -5 -3 -7 -1 -3 5 3 5
-5 23 -18 39 -26 31 -55 85 -67 123 -7 23 -7 22 -8 -10z"/>
<path d="M4845 7210 c-4 -6 -3 -14 0 -20 9 -15 35 -12 35 4 0 17 -27 29 -35
16z"/>
<path d="M5092 7208 c-6 -6 -12 -16 -12 -21 0 -5 -28 -40 -63 -77 -85 -89
-133 -171 -141 -237 -4 -33 -2 -53 4 -53 5 0 10 6 10 13 0 6 14 39 30 72 16
33 30 63 30 67 0 10 23 38 92 114 54 59 75 98 66 124 -2 7 -7 7 -16 -2z"/>
<path d="M5364 7205 c-4 -9 -2 -21 4 -27 15 -15 44 -1 40 19 -4 23 -36 29 -44
8z"/>
<path d="M4773 7050 c-90 -155 -112 -243 -105 -415 5 -124 -3 -172 -57 -351
-40 -131 -69 -204 -96 -238 -8 -10 -12 -23 -9 -28 3 -5 0 -7 -8 -6 -8 2 -12
-5 -11 -17 1 -11 -4 -23 -10 -27 -9 -6 -8 -8 2 -8 12 0 12 -2 -1 -12 -15 -12
-15 -20 6 -103 13 -49 29 -119 36 -155 6 -36 14 -74 16 -85 7 -28 6 -161 0
-182 -3 -10 -7 -35 -10 -55 -7 -46 -52 -167 -70 -188 -24 -27 -134 -263 -145
-312 -20 -86 -9 -166 36 -269 51 -116 188 -199 273 -167 14 5 27 9 30 9 16 -1
70 66 70 87 l0 24 -39 -31 c-130 -103 -267 -31 -326 172 -32 109 4 230 138
467 23 42 48 98 55 125 7 28 15 59 18 70 3 11 8 74 11 140 4 119 -3 171 -47
345 -14 55 -19 140 -9 140 5 0 6 6 3 14 -3 8 3 19 15 26 28 14 27 33 -1 24
-19 -6 -19 -4 5 20 15 15 30 38 33 51 3 14 9 23 13 20 8 -5 51 78 51 99 0 7 9
42 21 77 33 103 56 199 47 199 -8 0 -4 219 6 280 3 19 13 54 22 77 8 24 13 47
10 52 -4 5 0 12 6 14 11 4 11 6 0 6 -14 1 4 40 26 54 6 4 12 13 12 18 0 6 -5
7 -11 3 -7 -4 -2 7 11 23 12 17 20 39 18 49 -3 14 -12 5 -35 -36z m-50 -155
c-3 -9 -8 -14 -10 -11 -3 3 -2 9 2 15 9 16 15 13 8 -4z"/>
<path d="M5440 7068 c0 -18 7 -46 16 -63 50 -95 75 -181 84 -289 6 -61 12
-130 14 -152 7 -65 123 -397 163 -466 36 -64 80 -118 95 -118 12 0 10 38 -2
45 -15 9 -92 167 -125 255 -26 71 -45 120 -65 165 -21 49 -29 98 -35 210 -8
149 -24 214 -81 326 -24 49 -44 95 -44 104 0 8 -4 15 -10 15 -5 0 -10 -15 -10
-32z"/>
<path d="M5132 6947 c-22 -277 -17 -261 -121 -371 -41 -44 -60 -71 -52 -74 15
-5 148 123 157 150 7 24 19 23 32 -4 16 -35 132 -158 148 -158 21 0 6 25 -59
101 -89 104 -87 99 -87 236 0 67 -4 124 -8 127 -5 3 -9 0 -10 -7z"/>
<path d="M5351 6924 c0 -11 3 -14 6 -6 3 7 2 16 -1 19 -3 4 -6 -2 -5 -13z"/>
<path d="M4958 6883 c-51 -45 -58 -54 -52 -65 3 -4 0 -8 -6 -8 -20 0 -33 -56
-41 -185 -12 -183 -20 -226 -69 -360 -4 -11 -13 -40 -20 -65 -14 -56 -99 -217
-146 -278 -38 -50 -38 -63 0 -39 61 41 166 217 187 315 11 54 12 57 28 97 46
112 51 141 55 308 3 185 8 197 91 264 34 27 46 53 25 53 -5 0 -29 -17 -52 -37z"/>
<path d="M5250 6907 c0 -20 100 -138 112 -131 4 3 8 2 7 -3 -1 -4 1 -24 4 -43
4 -19 8 -75 11 -125 4 -99 23 -239 36 -270 9 -20 19 -60 26 -105 15 -86 19
-99 75 -215 35 -73 101 -164 106 -148 3 7 -19 61 -48 120 -54 113 -147 446
-154 558 -2 28 -6 94 -10 147 -6 103 -29 198 -47 198 -7 0 -7 -5 1 -14 7 -8
11 -32 9 -53 -4 -37 -4 -37 -15 -13 -10 23 -52 67 -95 99 -15 11 -18 11 -18
-2z"/>
<path d="M6019 6575 c-4 -277 -6 -325 -12 -331 -4 -4 -7 -21 -7 -38 0 -17 -12
-69 -26 -116 -15 -47 -27 -98 -27 -113 0 -16 -3 -24 -7 -17 -4 6 -14 -9 -24
-37 -10 -26 -25 -63 -33 -81 -81 -182 -80 -442 4 -607 28 -54 177 -258 237
-325 32 -36 88 -103 124 -150 36 -47 78 -99 93 -117 50 -58 190 -307 211 -373
11 -36 28 -88 38 -115 34 -95 56 -471 36 -595 -2 -14 -7 -56 -11 -95 -4 -38
-9 -81 -12 -95 -10 -43 13 -9 30 45 41 131 46 586 7 695 -5 14 -12 41 -16 60
-3 19 -17 60 -30 91 -13 31 -25 68 -28 82 -6 34 9 10 -178 297 -20 30 -85 113
-144 184 -60 71 -128 153 -151 182 -69 86 -184 281 -205 347 -24 77 -36 254
-19 285 9 17 9 22 -1 22 -9 0 -9 3 -2 8 14 9 45 122 37 135 -3 6 -1 7 5 3 7
-4 12 -1 12 9 0 8 4 23 9 33 18 34 61 147 61 160 0 6 5 12 11 12 5 0 9 8 7 18
-1 9 1 23 6 30 4 7 10 31 12 53 2 21 9 69 15 106 6 38 10 122 9 188 -3 172 -4
195 -11 195 -4 0 -5 9 -2 19 3 11 0 28 -6 38 -8 14 -11 -9 -12 -92z m-16 -490
c-3 -9 -8 -14 -10 -11 -3 3 -2 9 2 15 9 16 15 13 8 -4z"/>
<path d="M4566 6475 c-9 -26 -7 -32 5 -12 6 10 9 21 6 23 -2 3 -7 -2 -11 -11z"/>
<path d="M4391 6434 c0 -11 3 -14 6 -6 3 7 2 16 -1 19 -3 4 -6 -2 -5 -13z"/>
<path d="M5795 6343 c12 -72 28 -108 74 -173 44 -63 46 -64 49 -36 3 20 -6 42
-28 72 -17 24 -44 73 -61 109 -35 74 -43 80 -34 28z"/>
<path d="M5087 6303 c-3 -5 -8 -33 -12 -63 -4 -30 -13 -75 -21 -100 -59 -196
-97 -317 -103 -325 -4 -5 -23 -48 -41 -94 -18 -46 -55 -116 -81 -157 -28 -42
-41 -70 -32 -67 12 5 10 -2 -7 -25 -13 -18 -26 -32 -30 -32 -5 0 -44 -59 -45
-70 -1 -3 -11 -27 -23 -55 -66 -146 -48 -348 37 -422 15 -13 20 -22 13 -23
-11 0 -11 -2 0 -13 7 -8 32 -35 55 -60 28 -30 48 -44 58 -41 10 4 13 2 10 -8
-3 -8 16 -34 46 -63 50 -49 51 -49 44 -20 -4 19 -39 63 -93 117 -188 189 -223
338 -131 546 15 34 24 62 18 62 -5 0 -9 4 -9 10 0 5 7 7 15 4 8 -4 15 -1 15 6
0 6 29 55 64 108 154 234 233 453 261 725 7 61 4 80 -8 60z"/>
<path d="M5184 6225 c8 -89 14 -139 20 -169 29 -126 41 -172 68 -251 35 -101
101 -232 177 -350 28 -44 51 -86 51 -94 0 -8 6 -22 14 -30 26 -29 56 -138 56
-204 0 -130 -66 -255 -190 -357 -86 -71 -100 -87 -100 -112 0 -14 16 -5 68 38
93 78 172 155 172 167 0 6 7 18 15 27 31 34 65 156 65 232 0 71 -8 99 -76 281
-16 44 -21 310 -6 393 9 56 2 103 -12 69 -12 -33 -26 -162 -27 -266 -1 -105
-5 -110 -37 -48 -11 19 -34 61 -53 94 -19 33 -41 76 -48 95 -8 19 -20 49 -27
65 -8 17 -20 57 -28 90 -17 67 -68 253 -91 330 l-15 50 4 -50z"/>
<path d="M4362 6243 c5 -26 38 -29 38 -4 0 15 -6 21 -21 21 -14 0 -19 -5 -17
-17z"/>
<path d="M3680 5951 c0 -5 36 -28 81 -50 126 -63 198 -137 263 -268 56 -114
84 -116 41 -3 -37 96 -115 201 -196 262 -55 43 -189 84 -189 59z"/>
<path d="M6470 5928 c-139 -31 -294 -218 -316 -383 -11 -75 12 -53 46 44 39
114 123 234 187 268 15 9 57 26 93 39 99 35 93 55 -10 32z"/>
<path d="M5717 5900 c-22 -49 -44 -189 -46 -296 -4 -213 35 -356 143 -523 25
-40 46 -75 46 -78 0 -4 7 -14 15 -23 52 -58 53 -242 1 -355 -51 -113 -184
-182 -279 -146 -84 32 -129 139 -60 146 86 8 170 71 191 144 16 52 9 66 -11
20 -20 -48 -69 -92 -148 -134 -95 -50 -109 -79 -61 -130 15 -16 27 -34 27 -39
0 -31 70 -58 141 -54 155 10 256 133 272 334 11 122 0 163 -66 265 -71 109
-142 248 -148 288 -3 20 -10 63 -16 96 -16 89 -17 272 -1 361 14 79 14 154 0
124z m51 -695 c-3 -3 -9 2 -12 12 -6 14 -5 15 5 6 7 -7 10 -15 7 -18z"/>
<path d="M4703 5784 c4 -38 7 -102 7 -143 0 -68 1 -73 14 -55 23 30 9 245 -17
261 -6 4 -8 -18 -4 -63z"/>
<path d="M5117 5815 c-4 -22 -10 -58 -12 -80 -7 -76 -74 -262 -110 -307 -58
-71 -128 -181 -143 -223 -17 -48 -19 -180 -3 -215 34 -73 68 -116 118 -151 24
-17 50 -47 63 -73 34 -72 20 -105 -96 -218 -149 -145 -212 -241 -234 -361 -28
-154 14 -294 132 -443 123 -153 159 -225 191 -374 17 -80 42 -252 52 -360 4
-36 13 -100 21 -144 8 -43 14 -92 15 -110 0 -26 2 -28 9 -11 10 23 1 283 -10
305 -5 9 -13 50 -19 91 -6 42 -15 88 -20 103 -6 14 -8 26 -5 26 2 0 0 8 -5 19
-6 10 -12 51 -15 92 -9 130 -49 236 -120 317 -279 316 -274 523 21 817 111
110 125 132 125 189 0 69 -9 85 -92 171 -162 168 -161 256 8 479 56 74 78 114
97 174 37 115 34 108 48 86 7 -10 21 -46 31 -79 25 -81 58 -145 123 -239 92
-131 115 -217 83 -305 -25 -70 -57 -119 -83 -127 -43 -14 -105 -90 -112 -138
-11 -71 15 -118 138 -252 113 -124 162 -236 162 -369 0 -106 -19 -152 -127
-315 -109 -164 -174 -353 -185 -535 -9 -167 1 -140 47 120 18 107 87 260 173
388 123 183 154 331 102 494 -32 101 -66 154 -166 255 -149 153 -157 213 -39
304 33 26 70 62 80 80 48 77 64 206 36 298 -14 46 -25 65 -107 186 -92 137
-151 297 -162 440 l-2 35 -8 -40z"/>
<path d="M6518 5796 c-95 -34 -209 -139 -253 -232 -33 -69 -54 -182 -48 -262
5 -81 42 -224 55 -216 4 3 5 -1 2 -9 -3 -8 2 -30 10 -48 l16 -34 -6 35 c-4 26
-3 31 5 20 16 -22 13 -3 -4 30 -48 93 -54 342 -10 426 8 16 15 34 15 40 0 20
131 154 175 180 44 25 94 44 130 48 11 2 20 9 20 17 0 19 -60 22 -107 5z"/>
<path d="M3424 5671 c-32 -19 -67 -61 -59 -69 2 -2 19 5 38 17 105 65 235 -19
291 -189 42 -129 37 -233 -18 -361 -21 -50 -87 -162 -100 -171 -6 -4 -7 -8 -2
-8 5 0 3 -7 -4 -15 -7 -9 -10 -18 -6 -22 10 -11 125 117 119 133 -3 8 1 22 10
32 24 27 47 79 47 105 0 13 3 27 7 31 26 26 31 112 12 194 -62 266 -204 403
-335 323z"/>
<path d="M6608 5637 c-88 -38 -167 -169 -185 -302 -7 -59 27 -229 63 -312 8
-17 14 -34 14 -37 0 -4 11 -24 25 -47 35 -54 51 -40 21 19 -35 69 -70 241 -71
343 0 82 2 91 41 165 63 122 138 163 236 128 56 -19 58 -11 7 25 -46 34 -101
40 -151 18z"/>
<path d="M3387 5485 c-26 -25 -31 -46 -27 -110 3 -41 -26 -17 -42 36 -12 41
-28 52 -28 20 0 -92 116 -175 195 -139 14 6 28 8 32 4 15 -15 7 -152 -11 -190
-9 -20 -15 -40 -12 -44 2 -4 -20 -41 -51 -82 -47 -65 -83 -128 -83 -148 0 -19
108 116 150 187 91 156 122 289 85 377 -42 102 -145 146 -208 89z m114 -22
c17 -11 41 -40 56 -71 25 -52 26 -55 13 -122 -15 -80 -25 -83 -28 -11 -2 61
-28 128 -53 142 -20 10 -29 -14 -9 -26 17 -11 -13 -45 -40 -45 -68 0 -84 68
-29 126 27 28 50 30 90 7z"/>
<path d="M6660 5453 c-57 -47 -71 -98 -69 -248 2 -243 30 -313 198 -505 114
-130 163 -168 122 -93 -12 21 -52 69 -87 107 -132 137 -191 267 -195 426 0 30
-4 66 -8 80 -14 48 -1 63 23 27 37 -55 117 -73 162 -36 22 18 3 30 -31 20
-111 -29 -186 109 -101 186 51 47 105 29 125 -41 9 -31 9 -31 10 11 2 81 -86
120 -149 66z"/>
<path d="M6692 5378 c-16 -16 -15 -28 2 -28 8 0 17 -11 20 -25 10 -38 56 -26
56 15 0 37 -53 63 -78 38z"/>
<path d="M2620 5251 c-213 -46 -334 -125 -522 -341 -189 -216 -178 -561 23
-751 172 -163 384 -193 584 -83 50 27 292 260 281 271 -3 3 9 26 26 51 32 46
72 165 60 177 -4 3 -16 -15 -27 -42 l-21 -48 0 140 c1 132 -1 143 -26 198 -34
73 -81 133 -119 152 -51 27 -51 16 0 -42 75 -84 115 -180 124 -298 6 -75 -16
-218 -39 -253 -154 -236 -381 -363 -574 -323 -70 15 -201 92 -257 151 -94 100
-136 236 -114 366 7 36 9 70 5 76 -4 7 -3 8 4 4 8 -5 14 7 18 34 4 22 11 40
16 40 5 0 6 5 3 11 -7 10 7 29 49 67 10 9 30 29 44 44 14 15 29 25 34 22 5 -3
7 0 6 8 -2 8 5 12 17 10 l20 -4 -20 16 c-14 12 -16 16 -5 15 8 -1 37 7 63 19
55 25 61 26 52 12 -3 -5 -1 -10 4 -10 6 0 11 5 11 11 0 13 127 7 208 -11 182
-40 335 -260 302 -437 -32 -181 -165 -292 -334 -280 -224 16 -347 175 -286
371 30 94 104 156 187 156 46 0 163 -53 163 -74 0 -8 3 -16 8 -18 4 -1 17 -22
30 -44 55 -103 -1 -219 -112 -231 -114 -13 -166 171 -55 200 21 6 69 -33 69
-55 0 -5 5 -6 10 -3 36 22 -17 95 -69 95 -77 0 -128 -118 -87 -198 38 -72 100
-95 184 -68 168 56 146 329 -33 412 -203 95 -404 -111 -345 -355 43 -180 325
-291 499 -196 209 114 268 312 161 539 -60 127 -192 230 -304 238 -20 2 -36 7
-36 12 0 17 -164 -2 -233 -29 -77 -28 -79 -20 -7 42 283 246 644 273 863 64
176 -167 175 -386 -2 -746 -148 -301 -276 -749 -266 -935 3 -57 33 -204 66
-325 36 -131 141 -306 249 -415 195 -195 316 -275 525 -344 150 -50 169 -56
187 -56 9 0 22 -8 29 -17 8 -9 9 -14 3 -10 -7 4 -54 9 -105 13 -303 19 -515
116 -720 331 -159 167 -234 314 -323 633 -28 99 -25 199 14 420 6 36 12 74 14
86 2 12 11 45 21 75 9 30 24 74 32 99 8 25 21 59 28 75 36 82 45 110 45 137 0
16 7 43 16 59 8 17 13 33 10 36 -3 3 1 15 9 27 8 11 15 30 15 41 0 24 -22 -13
-78 -130 -92 -192 -342 -295 -557 -230 -27 8 -52 12 -57 9 -16 -10 -188 128
-188 151 0 2 -13 18 -29 36 -16 17 -48 79 -71 138 -22 58 -48 120 -56 136 -14
30 -14 29 -10 -25 14 -174 139 -370 286 -449 177 -95 368 -81 552 41 90 60 89
62 41 -84 -24 -73 -51 -167 -59 -208 -9 -41 -20 -94 -25 -118 -30 -148 -7
-345 65 -535 14 -37 26 -71 27 -75 5 -26 108 -212 143 -257 113 -148 341 -329
468 -370 24 -7 61 -20 83 -28 22 -9 61 -18 85 -22 25 -3 70 -10 100 -15 30 -5
109 -12 175 -15 66 -3 145 -10 175 -14 30 -5 73 -9 95 -10 59 -3 195 -39 195
-53 0 -4 6 -8 13 -8 19 0 115 -48 156 -78 50 -36 157 -149 153 -162 -2 -5 3
-10 11 -10 8 0 21 -8 28 -18 12 -15 12 -16 -1 -7 -13 8 -13 7 0 -5 48 -45 107
-200 126 -330 17 -117 -13 -337 -61 -448 -22 -50 -23 -54 -5 -32 159 197 145
569 -32 835 -141 212 -258 286 -543 345 -620 129 -875 276 -1119 645 -64 96
-88 158 -127 330 -47 199 -44 303 12 535 25 100 110 360 140 428 12 26 33 72
46 102 41 92 58 123 104 186 52 72 136 183 156 204 7 8 30 37 50 64 33 45 34
48 12 41 -27 -9 -129 -110 -156 -155 -9 -17 -21 -30 -26 -30 -10 0 -8 15 18
125 34 148 -9 301 -116 406 -146 142 -341 195 -549 150z m520 -945 c0 -3 -4
-8 -10 -11 -5 -3 -10 -1 -10 4 0 6 5 11 10 11 6 0 10 -2 10 -4z"/>
<path d="M4311 5244 c0 -11 3 -14 6 -6 3 7 2 16 -1 19 -3 4 -6 -2 -5 -13z"/>
<path d="M7435 5240 c-182 -20 -344 -118 -416 -252 -37 -69 -62 -240 -46 -318
10 -51 61 -192 73 -205 9 -8 13 -15 10 -15 -10 0 41 -90 82 -147 12 -17 22
-34 22 -37 0 -4 12 -25 27 -49 15 -23 26 -46 25 -51 -2 -5 2 -13 9 -17 12 -7
19 -26 21 -56 1 -7 5 -13 10 -13 4 0 8 -8 8 -18 0 -11 9 -45 20 -77 11 -32 20
-68 20 -81 0 -12 4 -24 10 -26 5 -1 11 -22 13 -46 3 -23 7 -45 10 -48 3 -3 4
-11 1 -18 -3 -7 4 -33 15 -58 20 -47 43 -204 43 -293 0 -27 5 -53 12 -57 7 -5
5 -8 -6 -8 -23 0 -30 -79 -8 -98 13 -12 13 -13 -2 -8 -13 4 -18 -5 -23 -47 -8
-67 -76 -280 -92 -290 -7 -4 -13 -13 -13 -20 0 -64 -208 -297 -335 -374 -33
-21 -80 -51 -105 -68 -87 -60 -373 -169 -495 -190 -11 -2 -51 -10 -90 -18
-233 -51 -272 -59 -290 -62 -168 -29 -354 -154 -444 -298 -129 -205 -164 -542
-75 -724 14 -29 30 -53 35 -53 5 0 9 -8 9 -17 1 -16 2 -16 10 -2 7 11 3 29
-12 60 -59 122 -72 322 -32 478 14 53 27 103 29 111 11 49 82 163 96 154 5 -3
6 2 3 10 -6 15 4 26 70 84 74 63 203 122 297 136 20 3 42 8 50 11 15 5 20 6
164 26 50 7 94 15 98 19 4 4 -20 3 -55 -2 -34 -4 -67 -7 -73 -5 -15 6 90 27
131 27 52 0 172 35 269 79 53 24 197 82 210 85 49 9 342 203 397 263 46 49
151 190 178 238 20 36 75 192 85 240 8 39 25 151 31 195 5 49 6 238 0 280 -3
19 -8 62 -11 95 -4 33 -12 69 -18 80 -13 22 -66 228 -61 234 2 2 24 -16 49
-41 77 -77 237 -132 375 -128 152 3 242 26 327 83 69 46 74 53 41 60 -16 3
-14 4 7 4 38 -1 58 11 51 30 -3 8 -2 11 3 8 11 -6 56 56 88 120 35 68 54 212
36 270 -6 18 -7 18 -14 -5 -4 -14 -7 -41 -8 -60 -3 -88 -76 -253 -139 -314
-130 -125 -204 -149 -458 -151 -87 0 -94 2 -179 44 -63 31 -103 59 -141 100
-30 31 -54 49 -54 41 0 -13 -2 -13 -9 -1 -5 8 -7 20 -4 28 3 7 0 13 -6 13 -6
0 -11 6 -11 13 0 19 -69 177 -90 207 -10 14 -34 42 -54 63 -20 21 -36 43 -36
50 0 6 -9 29 -19 51 -31 65 -59 157 -66 216 -4 30 -8 65 -10 78 -8 50 61 242
86 242 5 0 9 5 9 11 0 35 155 140 249 170 74 23 223 29 257 11 12 -6 24 -9 26
-6 7 7 191 -60 219 -80 29 -20 13 -21 -33 -2 -45 19 -136 25 -223 15 -76 -9
-175 -37 -175 -49 0 -4 -13 -13 -29 -20 -40 -16 -112 -94 -151 -164 -32 -57
-85 -240 -74 -257 3 -5 1 -9 -4 -9 -25 0 -43 124 -31 220 10 83 6 85 -19 11
-32 -96 -17 -194 48 -304 16 -27 18 -37 8 -37 -11 0 -11 -2 1 -9 7 -5 15 -23
17 -40 2 -18 27 -77 55 -131 171 -333 522 -432 753 -211 101 96 140 204 140
386 0 172 -48 287 -161 380 -84 70 -111 79 -233 79 -196 2 -307 -79 -378 -274
-11 -30 -17 -76 -16 -135 0 -126 33 -191 143 -280 14 -11 21 -14 17 -7 -8 13
10 17 18 3 3 -4 24 -11 46 -15 26 -4 40 -11 40 -21 0 -8 3 -16 8 -16 99 -17
180 -19 216 -4 51 21 139 116 123 132 -4 3 0 11 9 17 18 13 44 112 44 167 0
77 -93 229 -140 229 -10 0 -21 4 -25 10 -3 5 -12 7 -20 3 -8 -3 -15 -1 -15 4
0 32 -163 -10 -213 -56 -170 -155 -21 -455 184 -371 43 18 83 106 76 166 -6
56 -67 129 -67 80 0 -8 -6 -17 -12 -19 -8 -3 -5 -6 5 -6 29 -1 50 -63 37 -111
-29 -108 -185 -114 -245 -10 -43 75 -11 230 53 255 14 5 14 7 2 16 -13 9 -12
10 2 6 9 -3 38 1 65 9 214 66 352 -163 227 -376 -80 -137 -199 -159 -361 -69
-49 27 -86 41 -53 19 8 -5 10 -10 4 -10 -6 0 -17 7 -24 15 -7 8 -10 15 -8 15
3 0 -12 18 -33 39 -71 75 -90 221 -42 316 39 75 199 215 247 215 8 0 16 7 20
15 14 37 -115 -22 -188 -86 -55 -49 -62 -38 -8 14 70 68 220 116 267 85 6 -3
28 -9 50 -14 186 -34 320 -236 300 -454 -12 -136 -49 -225 -125 -302 -185
-188 -463 -139 -644 115 -99 139 -120 192 -123 297 -4 208 97 391 258 468 168
80 333 67 483 -39 38 -27 71 -47 73 -45 23 23 -116 157 -218 211 -56 29 -259
89 -286 84 -5 -1 -39 -5 -78 -9z m345 -300 c0 -5 -4 -10 -9 -10 -6 0 -13 5
-16 10 -3 6 1 10 9 10 9 0 16 -4 16 -10z m137 -225 c8 -9 13 -18 11 -21 -3 -2
-13 5 -23 16 -21 23 -11 27 12 5z"/>
<path d="M5055 5187 c-79 -79 -44 -193 63 -203 73 -6 112 36 112 119 0 100
-108 151 -175 84z"/>
<path d="M4260 5179 c-8 -12 -23 -32 -32 -44 -10 -13 -18 -27 -18 -32 -1 -20
-78 -95 -239 -233 -61 -52 -137 -144 -175 -214 -15 -27 -42 -72 -60 -100 -85
-133 -158 -313 -192 -471 -43 -206 -51 -369 -24 -490 6 -27 13 -81 15 -120 2
-38 13 -95 24 -125 l21 -55 -5 99 c-3 54 -7 101 -9 105 -18 29 -37 366 -21
391 3 5 12 48 20 97 9 48 20 102 25 118 13 46 32 117 36 142 3 13 14 40 26 61
12 20 55 102 96 182 41 80 78 147 81 150 4 3 26 30 48 60 23 30 74 87 115 126
40 39 105 102 143 140 62 60 123 150 148 217 9 24 -5 21 -23 -4z"/>
<path d="M2630 5138 c0 -8 4 -9 76 -14 40 -3 122 -27 197 -59 117 -49 217
-204 217 -337 0 -60 15 -78 26 -32 17 66 -25 244 -58 244 -4 0 -8 6 -8 13 0 7
-20 36 -45 64 -52 59 -139 107 -225 123 -63 12 -180 11 -180 -2z"/>
<path d="M6314 5006 c3 -14 2 -25 -3 -24 -42 12 33 -104 162 -252 48 -54 50
-63 9 -30 -44 35 -134 133 -216 234 -42 54 -66 68 -84 51 -4 -3 116 -140 209
-240 26 -27 59 -66 75 -85 15 -19 47 -55 69 -80 78 -85 156 -235 195 -370 7
-25 28 -87 47 -138 66 -173 77 -263 57 -452 -20 -194 -43 -273 -126 -438 -232
-457 -531 -642 -883 -547 -104 28 -200 30 -231 4 -8 -6 -14 -8 -14 -4 0 5 -9
0 -20 -10 -11 -10 -20 -24 -20 -31 0 -7 -4 -16 -10 -19 -6 -4 -7 1 -4 12 5 16
4 16 -10 -1 -9 -11 -16 -28 -16 -38 0 -10 -6 -29 -14 -41 -8 -12 -14 -34 -12
-50 3 -27 -8 -37 -17 -14 -4 8 -6 7 -7 -3 -1 -8 -3 -22 -6 -30 -12 -48 -29
-160 -24 -160 4 0 25 14 46 30 147 113 261 154 604 216 146 26 235 44 262 53
14 5 29 7 32 4 3 -3 11 -1 18 4 7 6 28 14 46 18 18 4 32 13 32 21 0 9 4 12 10
9 9 -5 111 51 200 111 127 86 254 262 317 439 66 188 89 460 50 595 -11 37
-12 26 -12 -107 0 -82 -6 -177 -13 -213 -8 -36 -18 -87 -24 -115 -51 -251
-187 -457 -395 -596 -164 -109 -253 -148 -393 -169 -30 -5 -104 -18 -165 -29
-60 -11 -134 -23 -163 -26 -131 -16 -251 -66 -376 -157 -39 -28 -66 -42 -62
-33 3 9 9 29 13 43 3 15 16 39 29 54 12 15 30 50 39 78 21 63 63 105 112 115
43 8 139 8 152 1 19 -12 123 -21 226 -20 119 1 218 28 295 80 19 13 41 24 48
24 21 0 91 59 172 145 41 44 78 81 83 83 4 2 7 8 7 14 0 6 15 29 33 52 101
125 183 313 213 486 23 133 24 382 1 485 -17 77 -102 344 -122 385 -7 14 -29
59 -49 100 -20 41 -50 93 -66 115 -16 22 -36 54 -45 70 -44 83 -192 306 -207
313 -5 2 -8 10 -8 18 0 8 -5 14 -11 14 -6 0 -9 7 -5 15 3 8 1 15 -4 15 -6 0
-10 6 -10 14 0 8 -5 18 -11 22 -9 5 -10 -1 -5 -20z m-624 -2386 c0 -5 -15 -10
-32 -9 -28 0 -30 2 -13 9 28 12 45 12 45 0z"/>
<path d="M7680 4910 c0 -5 7 -7 15 -4 8 4 15 8 15 10 0 2 -7 4 -15 4 -8 0 -15
-4 -15 -10z"/>
<path d="M4501 4803 c-1 -22 5 -37 19 -45 11 -7 20 -20 20 -28 0 -17 53 -56
113 -82 51 -23 58 -17 15 14 -120 87 -138 104 -152 137 l-15 36 0 -32z"/>
<path d="M4159 4741 c-54 -35 -150 -130 -190 -188 -16 -24 -42 -63 -59 -87
-16 -24 -30 -49 -30 -55 0 -6 -11 -28 -24 -49 -56 -85 -108 -242 -110 -327 -3
-139 26 -227 103 -308 87 -93 218 -113 474 -72 17 3 26 1 22 -5 -7 -11 30 -8
41 3 4 3 14 2 24 -3 10 -5 20 -7 23 -3 4 3 12 1 19 -4 7 -6 38 -18 68 -28 190
-61 258 -123 342 -310 22 -49 22 -50 26 -19 7 63 -64 195 -135 252 -64 51
-261 132 -319 132 -24 0 -10 63 28 123 37 57 28 76 -13 28 -35 -42 -59 -91
-59 -121 0 -20 -3 -21 -55 -15 -33 5 -88 2 -136 -6 -96 -15 -206 -1 -281 37
-137 69 -186 278 -110 474 36 95 109 242 132 268 29 32 125 148 149 180 13 17
48 50 77 73 79 60 74 82 -7 30z"/>
<path d="M5980 4761 c0 -5 25 -27 55 -51 79 -61 206 -211 178 -210 -4 1 -35 7
-68 15 -120 29 -219 6 -279 -65 -27 -33 -48 -114 -39 -150 6 -22 5 -23 -38
-16 -99 16 -139 18 -139 8 0 -13 83 -52 112 -52 35 0 121 -44 167 -85 41 -37
127 -163 117 -172 -3 -3 -47 24 -98 59 -102 71 -116 77 -199 87 -60 7 -79 -4
-79 -45 0 -19 24 -13 26 7 1 8 2 18 3 23 0 5 10 1 21 -9 10 -9 52 -32 93 -50
41 -17 101 -52 133 -77 118 -90 146 -101 229 -95 146 11 215 87 215 239 0 69
1 71 14 46 43 -82 57 -208 32 -280 -34 -96 -163 -193 -272 -204 -27 -3 -62 -7
-79 -9 -40 -4 -212 13 -250 25 -21 7 -37 24 -53 54 -24 45 -72 98 -72 80 0 -6
14 -36 31 -67 17 -32 29 -62 27 -68 -2 -5 -39 -22 -83 -37 -45 -15 -104 -42
-133 -61 -74 -47 -184 -169 -199 -219 -24 -78 -11 -81 27 -7 49 96 125 163
256 228 93 46 156 56 269 43 179 -21 299 -14 353 20 12 8 28 12 34 8 7 -4 8
-3 4 4 -4 7 -1 12 6 12 27 0 89 63 129 130 39 66 40 72 41 158 0 146 -56 297
-162 438 -21 27 -49 72 -63 100 -61 118 -267 308 -267 245z m186 -301 c55 -27
114 -85 151 -147 42 -71 43 -248 1 -310 -43 -65 -153 -92 -234 -58 -41 17 -38
30 8 39 133 26 163 262 44 336 -59 36 -149 17 -162 -35 -3 -14 -10 -25 -14
-25 -5 0 -1 -18 7 -40 23 -57 10 -60 -45 -9 -67 61 -79 128 -33 199 46 73 179
97 277 50z m-39 -177 c67 -43 71 -169 7 -228 -40 -37 -59 -32 -93 28 -85 148
-30 275 86 200z"/>
<path d="M6670 4673 c0 -5 23 -31 51 -58 28 -28 82 -89 120 -137 38 -47 73
-88 77 -90 8 -3 48 -64 82 -123 28 -50 73 -118 81 -125 11 -9 75 -205 80 -245
0 -5 5 -17 9 -25 6 -12 28 -124 46 -240 13 -82 15 -318 4 -369 -56 -253 -241
-526 -438 -644 -218 -131 -439 -207 -599 -207 -40 0 -73 -3 -73 -7 0 -5 -19
-9 -42 -9 -143 -4 -343 -61 -438 -124 -30 -21 -67 -45 -82 -54 -19 -11 -26
-22 -22 -34 5 -14 4 -15 -5 -2 -8 12 -15 10 -42 -15 -30 -28 -119 -156 -119
-170 0 -4 -16 -33 -35 -66 -18 -32 -36 -75 -39 -96 -3 -21 -13 -74 -23 -118
-23 -112 -23 -329 0 -415 10 -36 51 -134 93 -218 106 -214 111 -294 21 -364
-64 -51 -86 -60 -149 -65 -64 -6 -69 0 -38 40 11 14 20 28 20 32 0 3 9 25 19
48 40 87 62 154 67 202 3 28 8 55 11 60 4 7 3 7 -4 0 -5 -5 -22 -46 -38 -90
-23 -66 -97 -229 -111 -244 -21 -22 -134 217 -134 284 0 11 -7 30 -15 41 -13
18 -14 15 -15 -29 0 -66 24 -146 74 -242 22 -44 42 -83 44 -87 5 -12 -40 -10
-79 3 -19 7 -51 28 -72 48 -114 108 -94 251 71 505 106 163 118 224 115 559
-1 139 -5 169 -19 154 -3 -3 -8 -102 -11 -219 -5 -240 -23 -328 -85 -423 -143
-220 -172 -291 -171 -415 0 -66 5 -94 21 -127 23 -44 107 -123 133 -123 8 0
20 -5 26 -11 6 -6 34 -11 62 -11 30 1 49 -3 46 -9 -4 -5 -1 -9 4 -9 6 0 11 4
11 9 0 5 17 9 38 9 51 -1 122 13 122 23 0 5 7 6 15 3 8 -4 15 -2 15 4 0 5 10
12 23 16 13 3 30 18 38 33 8 16 20 33 27 38 7 6 19 35 27 66 21 79 -4 173 -89
333 -54 104 -82 168 -92 211 -18 75 -19 114 -8 230 17 174 53 323 90 377 57
84 113 159 119 158 6 0 23 13 53 41 79 74 297 183 385 193 73 8 81 10 87 17 6
8 89 16 220 23 99 5 174 19 227 41 21 9 45 18 54 20 69 14 320 167 429 260
152 131 266 321 303 505 26 125 23 439 -4 456 -5 3 -9 10 -9 15 0 6 4 8 8 5 4
-3 0 39 -11 92 -42 217 -74 314 -137 406 -27 40 -64 102 -82 137 -18 34 -56
88 -83 119 -28 30 -76 84 -107 120 -54 63 -148 141 -148 123z m567 -1115 c-3
-8 -6 -5 -6 6 -1 11 2 17 5 13 3 -3 4 -12 1 -19z"/>
<path d="M3426 4609 c-233 -272 -397 -762 -397 -1185 0 -278 29 -370 190 -614
129 -196 446 -393 696 -433 17 -3 53 -10 80 -17 28 -6 82 -13 120 -15 202 -9
414 -81 530 -178 68 -57 190 -200 213 -251 105 -223 114 -411 32 -671 -12 -38
-24 -81 -27 -95 -4 -24 -4 -25 12 -5 48 60 74 134 94 275 27 182 23 223 -43
445 -28 93 -202 345 -227 329 -4 -2 -32 13 -61 35 -88 67 -288 128 -493 151
-55 6 -118 15 -140 21 -22 6 -74 17 -115 25 -321 63 -620 305 -754 611 -54
123 -64 171 -73 325 -11 209 44 544 122 745 56 142 109 258 122 266 7 4 13 14
13 21 0 7 34 63 75 125 80 119 95 165 31 90z"/>
<path d="M7715 4610 c-44 -17 -71 -100 -35 -107 29 -6 47 14 26 30 -17 12 -17
14 -1 30 9 9 23 17 31 17 8 0 14 5 14 10 0 6 7 10 15 10 8 0 15 5 15 10 0 12
-37 12 -65 0z"/>
<path d="M4110 4514 c-144 -45 -225 -149 -291 -372 -24 -81 27 -214 95 -246
59 -28 159 -16 247 29 56 30 151 103 138 107 -7 2 8 14 33 26 25 13 53 20 64
16 15 -5 16 -4 4 4 -11 8 -8 11 15 10 17 0 42 5 58 11 24 9 27 8 28 -12 4
-132 115 -405 181 -446 23 -14 29 -27 -66 138 -20 36 -44 91 -53 122 -9 32
-19 57 -22 55 -3 -2 -7 10 -7 27 -1 18 -3 68 -5 112 -3 71 0 86 24 136 15 31
27 59 27 62 0 29 -214 -34 -277 -81 -30 -22 -33 -23 -33 -6 0 47 -76 124 -123
124 -55 0 -127 -108 -130 -194 -2 -56 46 -120 104 -137 47 -14 74 4 108 75 46
92 157 163 281 178 28 3 28 3 3 -68 l-18 -51 -41 5 c-46 5 -123 -29 -186 -82
-64 -54 -91 -72 -167 -109 -82 -41 -103 -44 -161 -21 -105 42 -117 174 -34
362 66 150 225 232 359 187 76 -26 133 -122 105 -176 l-13 -24 27 24 c30 28
34 65 10 101 -75 111 -170 150 -284 114z m87 -249 c45 -31 39 -95 -19 -212
-24 -48 -82 -11 -114 73 -36 95 57 192 133 139z"/>
<path d="M3296 4248 c-84 -173 -148 -523 -140 -773 4 -147 64 -392 104 -425 3
-3 12 -20 20 -38 25 -63 210 -269 210 -235 0 4 13 -7 29 -26 20 -24 34 -32 46
-27 13 4 16 2 11 -9 -3 -9 0 -15 8 -15 7 0 19 -7 26 -15 7 -8 16 -13 20 -10 4
3 10 -2 14 -10 3 -8 13 -15 21 -15 9 0 33 -11 53 -25 20 -14 45 -25 54 -25 10
0 18 -5 18 -10 0 -6 3 -9 8 -8 13 3 67 -14 90 -29 13 -8 32 -16 43 -19 36 -8
54 -13 94 -28 22 -8 50 -15 63 -16 13 0 32 -4 42 -10 10 -5 37 -12 61 -15 58
-7 153 -23 209 -35 25 -6 55 -12 66 -14 12 -3 39 -9 59 -15 21 -6 43 -7 48 -4
6 3 7 1 4 -4 -4 -6 11 -18 36 -28 23 -9 49 -23 57 -30 8 -8 29 -18 45 -24 28
-11 27 -8 -15 31 -78 72 -237 132 -379 143 -235 19 -402 70 -635 197 -72 40
-175 117 -176 132 0 5 -22 30 -49 57 -59 58 -149 184 -185 259 -97 202 -112
608 -32 860 8 25 31 99 50 165 20 66 39 126 41 133 12 35 -17 5 -39 -40z"/>
<path d="M5074 4291 c-3 -3 -9 -6 -12 -7 -50 -6 -126 -85 -135 -139 -1 -11 -6
-26 -10 -32 -12 -19 2 -111 23 -152 44 -87 121 -129 216 -118 206 23 245 362
51 442 -36 15 -120 18 -133 6z m31 -231 c3 -5 1 -10 -4 -10 -6 0 -11 5 -11 10
0 6 2 10 4 10 3 0 8 -4 11 -10z m52 -12 c-3 -8 -6 -5 -6 6 -1 11 2 17 5 13 3
-3 4 -12 1 -19z m-23 -3 c-4 -8 -16 -15 -28 -15 -20 1 -20 1 4 15 31 18 30 18
24 0z"/>
<path d="M1940 4075 c0 -86 166 -307 270 -360 72 -36 177 -65 240 -65 100 0
282 68 295 111 9 28 -1 36 -22 17 -50 -41 -150 -69 -268 -73 -194 -6 -345 98
-474 328 -34 59 -41 67 -41 42z"/>
<path d="M4329 4043 c-13 -16 -12 -17 4 -4 16 13 21 21 13 21 -2 0 -10 -8 -17
-17z"/>
<path d="M5670 4045 c0 -8 7 -15 15 -15 8 0 15 7 15 15 0 8 -7 15 -15 15 -8 0
-15 -7 -15 -15z"/>
<path d="M8236 3947 c-77 -144 -176 -243 -261 -263 -16 -4 -34 -10 -40 -14
-49 -35 -250 -42 -339 -11 -65 23 -89 19 -54 -8 21 -17 38 -22 103 -35 11 -2
31 -8 45 -14 109 -41 339 26 448 131 41 40 122 182 122 214 0 8 7 28 16 44 8
17 14 34 12 39 -2 5 -25 -33 -52 -83z"/>
<path d="M5656 3982 c-5 -18 -5 -36 -2 -39 7 -7 19 43 13 59 -2 7 -7 -2 -11
-20z"/>
<path d="M5685 4000 c3 -5 8 -10 11 -10 2 0 4 5 4 10 0 6 -5 10 -11 10 -5 0
-7 -4 -4 -10z"/>
<path d="M5637 3920 c-3 -8 -11 -33 -17 -55 -14 -45 -58 -130 -91 -175 -13
-16 -20 -33 -16 -37 4 -3 7 -1 7 5 0 7 7 12 15 12 8 0 15 6 15 13 0 7 9 18 20
25 11 7 17 18 14 27 -4 8 -2 15 4 15 11 0 48 70 61 117 9 31 -2 80 -12 53z"/>
<path d="M3655 3865 c-13 -102 50 -353 81 -322 2 2 -4 42 -15 88 -11 46 -23
122 -26 169 -10 135 -28 164 -40 65z"/>
<path d="M1918 3889 c-7 -21 21 -98 52 -144 118 -172 333 -293 502 -280 137
10 152 35 21 33 -210 -2 -435 138 -534 334 -21 42 -38 66 -41 57z"/>
<path d="M6495 3848 c-3 -13 -11 -61 -19 -108 -8 -47 -21 -113 -29 -146 -14
-59 -8 -78 18 -53 9 9 43 192 49 262 6 65 -7 95 -19 45z"/>
<path d="M8216 3683 c-92 -160 -301 -287 -482 -292 -79 -2 -93 -5 -81 -18 16
-15 120 -14 198 2 163 32 312 141 375 271 47 98 40 125 -10 37z"/>
<path d="M1900 3730 c0 -59 100 -218 180 -286 70 -60 258 -151 235 -114 -3 6
-1 10 5 10 6 0 13 -7 16 -15 4 -10 13 -13 25 -10 11 4 19 2 19 -4 0 -14 107
-14 115 0 4 6 13 8 21 5 8 -3 14 -1 14 4 0 5 -10 10 -22 10 -60 0 -143 12
-167 24 -14 8 -66 33 -116 56 -117 56 -225 160 -273 263 -28 59 -52 86 -52 57z"/>
<path d="M8210 3549 c-49 -102 -145 -216 -207 -246 -18 -8 -33 -22 -33 -29 0
-10 -7 -13 -23 -9 -12 3 -39 -1 -59 -9 -20 -9 -50 -17 -67 -18 -17 -1 -31 -5
-31 -9 0 -4 -11 -6 -25 -4 -14 1 -25 -1 -25 -5 0 -12 39 -19 46 -9 3 5 13 5
24 -1 21 -11 89 -5 130 12 53 22 132 65 133 74 0 5 11 17 24 28 57 44 168 252
161 300 -2 11 -21 -19 -48 -75z"/>
<path d="M7455 3605 c69 -417 60 -641 -35 -913 -45 -129 -187 -312 -320 -410
-19 -15 -46 -37 -59 -49 -13 -13 -32 -23 -41 -23 -10 0 -23 -7 -30 -15 -7 -8
-19 -15 -26 -15 -8 0 -14 -3 -14 -8 0 -4 -10 -13 -22 -19 -63 -33 -214 -103
-222 -103 -2 0 -17 -5 -33 -12 -34 -14 -33 -13 -113 -33 -48 -12 -110 -16
-235 -16 -274 1 -406 -13 -491 -53 -80 -38 -167 -117 -202 -185 -31 -58 -28
-61 18 -16 21 21 36 43 33 48 -3 6 -2 7 3 4 6 -3 30 12 54 34 128 114 195 131
511 125 286 -6 383 11 529 89 19 11 49 24 66 30 16 6 76 40 132 76 56 35 114
70 129 78 58 30 225 209 246 264 3 9 11 17 16 17 24 0 139 240 155 326 2 11
10 39 17 64 20 69 19 438 -1 450 -8 5 -10 10 -5 10 6 0 10 11 10 24 0 13 -4
22 -8 19 -4 -2 -6 7 -3 21 3 14 2 26 -2 26 -4 0 -8 17 -9 37 -2 34 -11 64 -42
133 -11 24 -11 24 -6 -5z"/>
<path d="M6246 3528 c-38 -64 -106 -124 -130 -115 -7 3 -19 27 -25 53 -9 35
-15 44 -24 35 -11 -11 -4 -53 17 -103 6 -13 -1 -21 -31 -36 -79 -40 -80 -40
-93 26 -15 72 -25 91 -41 75 -8 -8 -8 -25 2 -67 8 -38 9 -60 2 -67 -8 -8 -146
-33 -336 -59 -108 -15 -239 -49 -259 -67 -26 -23 -103 -178 -122 -244 -17 -61
-27 -194 -16 -224 4 -13 9 3 13 46 10 106 109 349 164 401 26 25 40 29 133 38
58 6 123 14 145 20 22 5 76 14 120 20 103 14 241 48 285 70 19 9 48 20 63 24
56 13 220 197 202 226 -14 22 -34 7 -69 -52z"/>
<path d="M3887 3568 c-14 -41 197 -240 226 -212 2 2 37 -11 78 -31 93 -45 172
-68 324 -95 220 -40 273 -68 354 -189 71 -105 107 -174 138 -266 l23 -70 -5
72 c-12 173 -121 348 -265 422 -51 26 -89 35 -360 86 -104 20 -134 37 -126 71
15 57 18 114 8 114 -11 0 -24 -38 -38 -108 -8 -38 -3 -37 -59 -10 l-45 22 5
70 c6 74 -2 70 -24 -11 -11 -39 -13 -41 -34 -30 -53 28 -90 62 -125 115 -37
56 -66 75 -75 50z"/>
<path d="M1930 3554 c0 -4 17 -40 37 -81 64 -127 214 -283 272 -283 11 0 21
-4 21 -9 0 -15 94 -45 143 -45 26 0 47 -3 47 -8 0 -4 7 -8 15 -8 8 0 15 3 15
8 -1 20 -21 31 -85 47 -153 37 -287 127 -360 240 -41 64 -105 149 -105 139z"/>
<path d="M2663 3525 c-3 -9 -3 -18 -1 -21 3 -3 8 4 11 16 6 23 -1 27 -10 5z"/>
<path d="M2649 3488 c0 -2 -2 -10 -4 -18 -1 -8 -14 -60 -28 -115 -70 -283 -59
-568 31 -790 116 -287 418 -569 687 -640 27 -7 61 -17 75 -23 57 -22 127 -25
140 -5 10 16 11 16 6 1 -4 -14 0 -18 22 -17 24 0 25 1 7 9 -16 7 -11 9 20 9
22 -1 34 -3 28 -6 -20 -8 -15 -18 10 -19 12 -1 38 -2 57 -3 19 -2 112 0 205 2
l170 5 119 -39 c122 -39 138 -47 219 -108 65 -48 173 -188 199 -258 53 -142
-25 -320 -166 -382 -81 -35 -230 -30 -305 9 -104 54 -193 176 -206 281 -7 54
28 139 66 160 107 57 319 -97 319 -232 0 -61 -17 -79 -73 -75 -78 6 -116 31
-121 83 -2 16 -9 28 -17 28 -16 0 -13 -36 3 -46 6 -4 5 -9 -3 -12 -10 -4 -8
-6 4 -6 10 -1 15 -6 12 -11 -4 -6 -1 -9 6 -8 7 2 13 -2 14 -9 0 -18 15 -29 66
-48 124 -46 256 57 253 196 -1 59 -63 187 -116 241 -91 93 -291 129 -513 94
-16 -3 -66 -8 -110 -11 -108 -7 -164 -16 -170 -25 -6 -9 221 -6 301 4 42 6 46
5 30 -6 -10 -7 -46 -31 -80 -53 -58 -39 -128 -126 -112 -142 3 -4 32 20 64 53
89 93 212 152 310 148 40 -1 89 -8 110 -14 194 -62 300 -277 199 -404 l-22
-27 -2 59 c-4 173 -221 319 -368 246 -70 -34 -96 -85 -92 -176 2 -42 9 -83 15
-91 7 -8 9 -17 5 -20 -3 -4 -1 -7 6 -7 8 0 11 -7 7 -15 -3 -8 -2 -15 3 -15 4
0 13 -11 19 -24 27 -61 146 -163 194 -168 13 -2 26 -7 29 -12 4 -5 21 -9 38
-10 17 0 31 -3 31 -6 0 -13 141 -2 190 15 179 59 274 236 227 418 -8 31 -12
57 -9 57 4 0 2 4 -3 8 -6 4 -24 30 -40 57 -42 74 -83 121 -154 180 -65 55
-196 125 -232 125 -11 0 -30 6 -42 13 -31 17 -466 17 -485 0 -7 -7 -19 -13
-25 -13 -7 0 -4 7 5 14 16 12 15 13 -10 14 -30 1 -70 5 -149 17 -36 5 -53 3
-53 -4 0 -6 -5 -11 -11 -11 -6 0 -9 7 -5 15 3 9 0 15 -10 15 -9 0 -13 -5 -9
-12 4 -7 1 -6 -7 2 -7 8 -38 24 -68 34 -162 56 -321 158 -443 285 -129 134
-214 283 -273 481 -43 144 -37 358 20 686 7 41 9 74 4 74 -4 0 -8 -1 -9 -2z
m881 -1582 c0 -11 -19 -15 -25 -6 -3 5 1 10 9 10 9 0 16 -2 16 -4z"/>
<path d="M6317 3429 c-24 -66 -85 -132 -154 -165 -50 -25 -62 -27 -176 -25
-187 2 -321 -43 -423 -144 -32 -31 -74 -65 -93 -75 -40 -20 -84 -65 -124 -125
-30 -46 -80 -171 -79 -198 0 -9 -3 -15 -7 -13 -5 3 -6 -6 -3 -19 4 -23 21 -35
23 -17 3 31 12 60 24 79 8 12 15 29 15 37 0 14 58 92 140 187 41 48 90 69 159
69 43 0 47 17 6 30 -19 6 -35 15 -35 20 0 5 45 31 100 59 55 28 100 48 100 46
0 -2 26 5 57 16 42 14 85 20 163 20 131 1 191 17 254 69 49 41 66 48 66 29 0
-5 4 -7 10 -4 15 9 49 -19 81 -67 49 -73 31 -180 -38 -242 -37 -33 -150 -101
-132 -80 39 47 -11 182 -79 214 -47 21 -142 26 -142 6 0 -10 -8 -16 -22 -15
-22 0 -22 1 -3 10 19 8 19 9 1 6 -11 -1 -20 -10 -22 -19 -1 -12 3 -15 14 -11
12 5 11 -1 -6 -19 -42 -47 -36 -125 13 -160 34 -25 115 4 115 40 0 17 -15 15
-30 -3 -36 -43 -117 8 -106 67 16 88 153 106 214 28 24 -31 34 -117 14 -125
-7 -3 -11 -13 -8 -22 10 -34 -125 -82 -232 -83 -128 0 -190 77 -150 187 7 18
18 33 25 33 7 0 13 4 13 9 0 17 -38 -1 -57 -28 -62 -84 -18 -195 92 -231 70
-23 247 4 270 41 4 5 13 8 21 5 8 -3 17 1 21 10 3 8 12 13 19 10 7 -3 18 3 23
12 6 9 11 14 11 9 0 -13 77 31 84 49 3 9 12 14 21 10 8 -3 14 0 12 7 -1 7 3
11 10 10 12 -3 60 54 83 96 7 13 13 54 14 90 1 64 -1 68 -48 131 -53 72 -69
84 -97 77 -22 -6 -23 -1 -4 33 15 26 20 90 7 90 -4 0 -15 -23 -25 -51z"/>
<path d="M2687 3263 c-15 -54 -18 -85 -18 -163 0 -47 7 -116 16 -155 9 -38 21
-92 27 -120 37 -183 92 -309 189 -430 58 -73 156 -166 199 -189 14 -7 59 -33
100 -56 223 -128 409 -171 765 -177 229 -4 256 -6 317 -27 141 -49 272 -143
351 -251 55 -75 58 -62 6 34 -48 90 -118 155 -224 209 -114 58 -164 64 -555
77 -69 2 -159 8 -200 14 -141 21 -412 122 -510 191 -14 9 -30 19 -36 21 -6 2
-56 51 -110 109 -145 153 -232 302 -265 453 -37 171 -40 192 -40 335 0 138 -3
161 -12 125z"/>
<path d="M7584 3055 c1 -250 -1 -263 -64 -438 -44 -120 -99 -197 -261 -368
-59 -61 -260 -209 -285 -209 -8 0 -12 -5 -9 -11 4 -6 1 -9 -6 -8 -24 4 -70
-24 -65 -38 3 -8 2 -12 -3 -8 -13 7 -42 -5 -36 -15 3 -5 1 -11 -5 -15 -5 -3
-10 -1 -10 5 0 6 -10 4 -24 -5 -70 -46 -151 -59 -396 -61 -339 -4 -472 -16
-545 -48 -51 -23 -124 -91 -169 -158 -15 -21 -38 -55 -52 -75 -40 -58 -76
-143 -84 -198 -12 -84 30 -217 90 -282 84 -92 304 -152 362 -98 13 12 29 20
35 18 7 -3 24 7 38 21 14 14 25 23 25 21 0 -7 26 16 80 69 77 76 106 117 97
140 -3 7 4 18 14 24 26 17 27 131 1 182 -52 104 -244 103 -346 -3 -50 -53 -69
-99 -68 -170 l1 -59 -23 24 c-138 139 -5 356 237 390 154 21 271 -16 363 -115
27 -29 54 -62 60 -72 25 -43 24 -4 -1 48 -20 44 -37 63 -75 86 -49 30 -67 57
-32 47 69 -20 290 -26 308 -9 8 8 18 11 24 8 5 -3 17 -2 26 3 26 14 -7 23 -48
12 -18 -5 -46 -7 -63 -5 -16 3 -88 9 -160 15 -71 6 -139 13 -150 17 -31 10
-310 4 -313 -7 -2 -6 -18 -10 -36 -10 -58 0 -216 -135 -203 -173 2 -6 -5 -19
-14 -28 -66 -66 5 -256 106 -289 44 -14 95 -5 96 18 0 11 2 12 6 4 9 -24 80
102 71 129 -2 6 -19 -15 -38 -47 -78 -130 -166 -63 -94 72 36 68 89 121 142
139 214 72 276 -112 104 -312 -26 -30 -45 -60 -44 -67 2 -6 0 -8 -4 -3 -4 4
-14 1 -23 -6 -151 -130 -392 -72 -475 113 -37 82 -41 117 -21 186 21 74 64
164 82 171 7 3 13 9 13 13 0 5 33 40 73 79 90 89 150 119 265 132 48 6 101 14
117 18 17 4 43 4 60 -1 16 -4 55 -4 85 1 30 5 58 7 62 4 23 -13 161 -12 233 3
167 33 229 58 440 179 78 45 200 145 197 162 -2 8 3 13 10 11 7 -2 46 31 85
72 64 67 70 77 55 88 -15 10 -14 11 8 6 22 -4 30 3 70 68 47 76 116 239 125
295 2 18 10 54 16 80 14 63 2 346 -16 388 -8 17 -16 41 -18 55 -2 14 -3 -78
-3 -205z m-1366 -1862 c-3 -18 -17 -33 -31 -33 -4 0 0 11 9 25 19 29 26 32 22
8z m-120 -115 c-3 -7 -13 -15 -24 -17 -16 -3 -17 -1 -5 13 16 19 34 21 29 4z"/>
<path d="M7441 3104 c0 -11 3 -14 6 -6 3 7 2 16 -1 19 -3 4 -6 -2 -5 -13z"/>
<path d="M7425 3038 c-9 -58 -29 -124 -53 -178 -12 -24 -19 -47 -16 -51 2 -4
-3 -12 -11 -19 -8 -7 -15 -17 -15 -22 0 -6 -25 -52 -55 -104 -146 -247 -398
-417 -660 -445 -238 -24 -305 -33 -305 -40 0 -3 10 -5 23 -3 12 2 83 6 157 8
135 4 169 8 204 22 14 5 17 4 12 -4 -14 -23 31 -8 193 64 64 28 196 123 267
191 106 101 228 296 239 382 2 14 10 53 18 86 22 87 28 143 18 149 -5 4 -12
-13 -16 -36z"/>
<path d="M4602 2838 c2 -6 13 -16 23 -22 11 -6 49 -37 85 -68 69 -62 84 -70
72 -38 -16 43 -193 169 -180 128z"/>
<path d="M5545 2834 c-43 -22 -66 -46 -61 -60 3 -8 0 -11 -8 -8 -18 7 -66 -34
-66 -56 0 -10 -5 -22 -10 -25 -6 -4 -8 -10 -5 -15 4 -7 60 39 153 128 18 17
38 32 43 32 6 0 7 5 4 10 -8 13 -15 13 -50 -6z"/>
<path d="M5242 2622 c-16 -5 -15 -43 2 -68 27 -37 84 -229 92 -304 7 -74 8
-74 17 -35 13 61 2 175 -22 221 -12 21 -21 46 -21 54 0 9 -9 26 -20 38 -12 12
-18 22 -14 22 3 0 1 7 -6 15 -9 10 -9 19 -2 28 12 14 -6 36 -26 29z"/>
<path d="M5105 2538 c-3 -18 -1 -57 3 -86 5 -29 6 -55 2 -57 -5 -3 -7 -24 -5
-47 2 -24 4 -96 5 -161 1 -64 6 -119 10 -122 13 -8 22 71 15 125 -4 27 -4 54
-1 59 9 13 36 2 36 -14 0 -23 79 -185 90 -185 21 0 0 75 -50 174 -28 57 -50
113 -50 131 0 18 -6 45 -14 61 -8 16 -13 49 -11 74 6 76 -18 114 -30 48z"/>
<path d="M5032 2233 c-8 -21 -14 -48 -14 -61 0 -13 -3 -21 -6 -17 -5 5 -31
-67 -32 -88 -1 -38 54 63 64 118 4 22 10 50 13 63 9 37 -11 25 -25 -15z"/>
<path d="M3320 2237 c14 -13 49 -33 78 -45 28 -12 73 -31 100 -42 116 -48 308
-79 562 -90 107 -5 211 -13 230 -19 90 -25 87 -25 64 -8 -58 44 -125 59 -274
63 -202 5 -338 19 -430 44 -133 36 -280 85 -306 101 -43 26 -54 24 -24 -4z"/>
<path d="M6359 2066 c-2 -2 -59 -6 -127 -10 -133 -6 -249 -23 -270 -40 -22
-17 14 -24 72 -14 28 4 110 10 182 12 72 2 137 7 145 12 14 9 19 10 55 12 11
1 29 9 40 17 17 13 14 14 -37 15 -31 0 -58 -2 -60 -4z"/>
<path d="M5491 1080 c-1 -17 20 -51 62 -100 43 -50 42 -29 0 28 -21 28 -43 59
-50 69 -9 14 -12 15 -12 3z"/>
</g>
</svg>
